<svg xmlns="http://www.w3.org/2000/svg" viewBox="0 0 960.3 518.4" enable-background="new 0 0 960.3 518.4"><g fill="#2580AA"><path d="M554.4 351.7c14.8.6 31.9 9.3 32.6 3 10-3 18.4-4.8 21.1-12.6 9.4-1.5 19.7-3.1 31.3-5 102.1-16.3 200.8-16.2 290-2.5-97-20.6-207.5-24.3-322.6-7.3-4.3-5.5-14.6-2.4-27.1-2.4-12.1 0-52.3-4.9-52.4-4.9-9-6.7-23.5-39.8-27.5-43.8 2.2-.7 3.8-1.1 4.6-1.1 7.3-.1 10.6 2.2 17 0 8.6-3 10.9-16.6 10-22-.3-1.8-15.6-10.3-10.9-8.1 2.3 1.1 11.8 1.1 13.3-1.8 2.1-4-1.4-8.3-1.1-13.1.3-4.3 10.6-2.5 10.6-7.9 0-8.7-10.6-14.6-11.9-22.4-.9-5.3 6.7-11.9 5.1-16.7-7.8-23.7-28.3-39.6-57.3-39.6-43.5 0-58.9 35.7-58.9 79.7 0 3.8-.2 7.2-.4 10.1-1.3 16.9 5 30.3 11.5 33.4 1.6.8 9.7 2.2 16.4 5.6-13.1 30-4 49.6-7.1 70.5-2 13.4-5.6 21.2-7.9 29.2l-.9.4.6.6c-1.1 4.1-1.9 8.3-1.9 13.5 0 4.4.1 8.5.4 12.3-7.8.1-15.7.2-23.5.2-34 0-67.7-1-101.1-2.9 2.8-1.9 9.6-5.8 11.5-9.9 6.2-13.6-12.1-3.5-14.9-1-.9-1.7-5.4-13.6-7.4-14.2-4.2-1.3-3.8 15.3-3.3 15.3-1.1.6-1.8 5.1-3.7 8.7-3.7-.2-7.4-.5-11-.8-2.2-5.2-6.6-13.7-12.1-22.1v-.1c4-12.6-3.1-26.1-15.7-30-6.2-1.9-12.6-1.2-18 1.5-5.8-1.2-12.2-2.4-13.6-2.8-13-4.1-31.8 2.6-30.8 16.1.9 12.9 28.1 14.7 28.1 14.7s-38.4-.3-12.8 15.6c-49.7-5.8-98.7-13.6-146.7-23.5 7.1 50.8 28.3 97.9 60.2 138.3 9.8-5.5 18.3-13 24.9-22 14.1 19.3 36.9 31.9 62.7 31.9 17.6 0 33.7-5.8 46.8-15.7 13 9.8 29.2 15.7 46.8 15.7 22.5 0 42.7-9.6 56.8-24.8 14.2 15.2 34.4 24.8 56.8 24.8 21.9 0 41.6-9.1 55.7-23.6 14.1 14.5 33.8 23.6 55.7 23.6 14.1 0 27.4-3.8 38.8-10.4 11.4 6.6 24.7 10.4 38.8 10.4 21.1 0 40.2-8.4 54.2-22.1 14 13.7 33.1 22.1 54.2 22.1 6.4 0 12.6-.8 18.5-2.2 37-44.1 61-96.6 67.4-153.5-87.8 19.9-178.8 33.2-272.1 39.2.9-10.6 1.8-23.4 2-35.4 9.6-3.2 19.4-5.8 30.2-8.2zm-341 6.5c-2.2-.7-3.4-3-2.7-5.1.7-2.2 3-3.4 5.1-2.7s3.4 3 2.7 5.1c-.7 2.2-3 3.4-5.1 2.7zM969.4 597c-14.7-164.8-30.2-263.1-44.3-262.7-.2 0-.3 0-.5.1 15.6 2 33 124.9 49 324.7l-4.2-62.1z"/></g></svg>