<svg xmlns="http://www.w3.org/2000/svg" width="960.343" height="518.4" viewBox="0 0 960.343 518.4"><g><path fill="#2580AA" d="M451.051 392.312c79.182-39.378 88.74-39.415 188.339-55.317 102.055-16.294 200.789-16.248 289.998-2.509-100.187-21.289-214.753-24.534-333.847-5.519-89.4 14.274-90.282 10.001-163.623 43.529"/><path fill="#2580AA" stroke="#fff" stroke-miterlimit="10" d="M927.142 570.719M927.142 339.068"/><path fill="#2580AA" d="M969.437 597.049c-14.664-164.803-30.238-263.12-44.26-262.738-.158.004-.315.044-.473.074 15.582 2.044 33.037 124.917 49.011 324.746"/><path fill="#2580AA" d="M579.686 324.862c-12.073 0-52.315-4.875-52.407-4.875-8.981-6.694-23.474-39.757-27.466-43.75 2.173-.651 3.803-1.096 4.647-1.108 7.259-.108 10.575 2.241 17.038.001 8.555-2.965 10.895-16.644 10.002-21.967-.309-1.843-15.614-10.257-10.883-8.107 2.334 1.061 11.78 1.065 13.275-1.812 2.068-3.979-1.402-8.298-1.065-13.064.304-4.293 10.556-2.475 10.556-7.917 0-8.72-10.566-14.579-11.876-22.432-.89-5.337 6.662-11.889 5.091-16.661-7.788-23.659-28.279-39.553-57.291-39.553-43.474 0-58.924 35.69-58.924 79.715 0 3.827-.168 7.156-.394 10.098-1.297 16.9 4.953 30.26 11.517 33.428 1.612.778 9.729 2.162 16.418 5.598-13.103 29.968-4.04 49.583-7.133 70.45-3.094 20.868-10.13 27.951-10.13 43.721 0 17.035 1.054 29.197 12.653 39.91-3.162 4.329-3.476 25.606-.788 29.72-3.607 3.203-5.04-17.377-3.571-14.817-4.385 5.782-7.003 7.671-7.003 16.823 0 9.318 7.554 16.872 16.872 16.872 1.665 0 5.365.847 6.684.475 1.324 5.025 5.857 5.622 11.298 5.622 6.477 0 14.855-2.123 14.855-8.6 0-6.477-8.378-11.728-14.855-11.728l-.173.018c-.023-4.886-2.376-9.184-5.969-11.96 6.409-2.592 10.878-17.64 10.792-18.343 8.632-2.389 15.477 27.499 18.07 18.954 2.012 1.414.76-24.658.76-19.16 0 7.387 4.048 13.818 10.038 17.229-5.005 3.599-8.276 9.458-8.276 16.093 0 10.951 8.877 19.828 19.828 19.828 5.673 0 10.775-2.395 14.389-6.213 2.301 1.907 21.728-2.851 21.728-10.192s-16.819-12.924-18.39-12.27c-1.76-3.52-4.528-6.441-7.937-8.383 5.005-3.599 8.276-9.458 8.276-16.093 0-7.62-4.303 22.337-10.607 19.017 6.53-4.682.456-21.889.456-30.537 0-2.456 4.146-36.656 4.221-63.836 8.849-1.601 18.219-2.979 27.301-3.399 15.434-.714 34.909 9.723 35.688 2.964 12.156-3.693 21.99-5.462 21.99-18.824-.002-16.38-12.674-10.935-29.305-10.935zM303.009 385.311c-.947-1.703-5.43-13.597-7.437-14.226-4.154-1.302-3.795 15.27-3.334 15.328-2.064 1.086-3.05 17.696-13.37 11.883-.81-3.755-6.268-14.882-13.426-25.987l.035-.082c3.958-12.629-3.072-26.074-15.7-30.032-6.216-1.948-12.62-1.211-18.003 1.523-5.821-1.237-12.19-2.394-13.632-2.846-12.961-4.062-31.812 2.567-30.822 16.113.941 12.876 28.124 14.706 28.124 14.706s-39.233-.344-12.011 16.116l.05.01c.253.518.68 1.149 1.202 1.841-2.906 1.651-5.301 4.249-5.625 6.024-.57 3.12 4.113 10.877 9.358 14.172 3.774 2.371 4.734-5.378 5.286-10.905 11.639 10.607 29.562 24.139 35.874 26.117 7.483 2.345 32.207 16.371 55.64-27.83.549-1.035 10.347-5.848 12.667-10.899 6.238-13.574-12.077-3.486-14.876-1.026zm-89.64-27.101c-2.16-.677-3.363-2.977-2.686-5.137.677-2.16 2.977-3.363 5.137-2.686 2.16.677 3.363 2.977 2.686 5.137-.677 2.161-2.977 3.363-5.137 2.686zM297.121 512.027c22.458 0 42.675-9.552 56.843-24.803 14.168 15.25 34.386 24.803 56.843 24.803 21.863 0 41.601-9.057 55.703-23.607 14.103 14.55 33.84 23.607 55.703 23.607 14.137 0 27.379-3.8 38.793-10.406 11.415 6.606 24.656 10.406 38.793 10.406 21.101 0 40.224-8.436 54.211-22.104 13.987 13.668 33.11 22.104 54.211 22.104 6.368 0 12.553-.773 18.474-2.221 37-44.083 61.044-96.59 67.352-153.499-123.326 27.922-252.887 42.823-386.54 42.823-121.094 0-238.829-12.235-351.614-35.297 7.069 50.782 28.292 97.865 60.194 138.333 9.786-5.478 18.281-12.989 24.867-21.998 14.113 19.307 36.919 31.859 62.666 31.859 17.558 0 33.749-5.839 46.751-15.673 13.001 9.834 29.192 15.673 46.75 15.673z"/></g></svg>