<svg xmlns="http://www.w3.org/2000/svg" xmlns:xlink="http://www.w3.org/1999/xlink" width="960.343" height="518.4" viewBox="0 0 960.343 518.4"><g><path fill="#2580AA" d="M601.537 470.992c17.954-111.876 14.353 26.737-4.197-101.155-19.007-131.044-56.734-251.793-107.577-355.667 64.265 114.421 111.945 253.313 134.126 406.237 16.65 114.795 22.213-36.074 9.186 66.425"/><path fill="#2580AA" d="M480.015 239.884c-18.609 1.362-26.938 18.539-38.894 22.61-1.029-.138-21.903-1.729-29.686-1.729-2.685 0-29.496-20.967-36.085-27.559 2.17-.65 3.798-1.094 4.64-1.107 7.249-.108 10.561 2.238 17.015.001 8.544-2.961 10.88-16.622 9.989-21.937-.309-1.84-18.176-4.083-10.869-8.096 2.331 1.059 11.764 1.063 13.257-1.81 2.065-3.974-1.4-8.287-1.063-13.046.304-4.287 10.542-2.472 10.542-7.907 0-8.708-10.552-14.56-11.86-22.402-.889-5.33 6.653-11.873 5.084-16.639-7.778-23.627-28.241-39.5-57.214-39.5-43.416 0-58.845 35.642-58.845 79.608 0 3.822-.168 7.146-.394 10.084-1.295 16.877 4.946 30.219 11.502 33.383 1.61.777 9.716 2.159 16.396 5.59-13.085 29.928-4.034 49.516-7.124 70.356-3.09 20.84-10.117 27.914-10.117 43.663 0 17.012 1.052 29.158 12.636 39.857-3.158 4.323-3.471 25.572-.787 29.68-3.602 3.198-5.033 19.16-3.566 21.717-4.379 5.774-6.994 7.661-6.994 16.8 0 9.306 7.544 26.586 16.849 26.586 1.663 0 5.358.846 6.675.475 1.323 5.018 5.849 5.614 11.283 5.614 6.468 0 14.835-2.12 14.835-8.589 0-6.468-8.367-21.449-14.835-21.449l-.173.018c-.022-4.88-2.373-9.172-5.961-11.944 6.401-2.589 10.863-17.617 10.778-18.318 8.62-2.386 15.456-9.051 18.046-17.585 2.01 1.413.759 11.889.759 17.379 0 7.377 4.042 13.799 10.025 17.206-4.998 3.594-8.265 9.445-8.265 16.072 0 10.936 8.866 29.539 19.802 29.539 5.665 0 10.761-2.392 14.37-6.205 2.298 1.904 21.698-12.585 21.698-19.915 0-7.331-16.797-12.906-18.366-12.253-1.758-3.515-4.522-6.433-7.926-8.372 4.998-3.594 8.265-9.445 8.265-16.072 0-7.609-4.298-14.207-10.593-17.523 6.521-4.675.455-21.859.455-30.496 0-2.897 5.777-50.01 3.81-77.572l-.166-.637c11.713-.294 39.224 4.422 41.642 3.123 10.31-2.234 30.711-32.272 36.957-32.272 5.061 0 11.972-5.205 12.493-16.136.274-5.751 16.657-4.893 16.657-7.808-.001-7.974-18.722-5.065-26.677-4.483zM723.442 414.354c6.575-10.847-5.253-17.327-5.253-30.937 0-18.019-21.903-68.396-25.218-79.744-3.315-11.347-.192-75.961-7.61-88.063-7.417-12.102-6.728-6.596-4.294-13.664 3.978-11.552 11.712-18.739 12.883-38.258 2.42-40.33-28.889-68.449-56.607-65.326-30.431 3.429-35.388 5.438-47.107 30.711-2.587 5.579 8.11 12.933 7.287 19.259-.406 3.119-8.849 17.331-8.849 20.561 0 6.753 12.027 5.285 13.514 11.55.399 1.68-7.77 9.284 1.339 10.879 3.273.573 17.604-5.41 20.191-3.102 1.292 5.389-20.435 7.29-17.997 12.165 3.123 6.246-.651 11.972 2.993 15.876s22.219.773 24.969 1.533c-6.754 7.48-22.768 45.935-30.695 51.3-1.803-5.392-11.846-7.179-16.462-13.863-4.616-6.685-3.803-18.267-8.878-18.267-11.89 0-18.405 9.639-18.405 21.528 0 11.89 6.515 21.528 18.405 21.528 30.766 38.358 31.962 19.355 40.175 20.114.333 14.005 3.549 60.632 3.549 77.037 0 17.925-24.651 34.303-13.793 46.887-8.354 6.267-13.783 16.221-13.783 27.467 0 18.973 15.381 44.092 34.355 44.092 14.542 0 26.944-18.786 31.958-31.548 6.069 15.834 21.372 36.833 39.342 36.833 23.286 0 42.162-28.614 42.162-51.899-.001-14.366-7.199-27.037-18.171-34.649zM352.493 513.874c22.428 0 42.618-9.539 56.767-24.769 14.149 15.23 34.339 24.769 56.767 24.769 21.834 0 41.545-9.045 55.628-23.575 14.084 14.53 33.794 23.575 55.628 23.575 14.118 0 27.342-3.794 38.741-10.392 11.399 6.597 24.623 10.392 38.741 10.392 21.073 0 40.17-8.424 54.138-22.074 13.968 13.65 33.065 22.074 54.139 22.074 6.359 0 12.536-.772 18.449-2.218 36.951-44.024 60.963-106.198 67.262-163.03-123.163 27.884-252.55 42.766-386.024 42.766-120.932 0-238.509-12.218-351.143-35.25 7.06 50.714 28.255 107.471 60.114 147.885 9.773-5.471 18.257-12.971 24.833-21.968 14.094 19.282 36.869 31.816 62.582 31.816 17.535 0 33.704-5.831 46.688-15.652 12.987 9.82 29.155 15.651 46.69 15.651z"/><defs><path id="a" d="M434.732-30.855h90.879v478.045h-90.879z"/></defs><clipPath id="b"><use xlink:href="#a" overflow="visible"/></clipPath><path fill="#2580AA" d="M487.23 532.817c-14.755-322.958-14.878-516.738 3.028-518.282.202-.017.41.035.616.067-19.398 6.517-16.69 248.369 3.498 639.672" clip-path="url(#b)"/></g></svg>