<svg viewBox="0 0 100 100" xmlns="http://www.w3.org/2000/svg"><symbol viewBox="0 0 32 32" id="svg-arrow-down"><title>arrow-down</title><path d="M24.773 13.7c-.65.67-7.512 7.206-7.512 7.206-.348.357-.804.534-1.26.534-.458 0-.914-.178-1.26-.534 0 0-6.862-6.536-7.515-7.205-.65-.668-.696-1.87 0-2.585.698-.714 1.67-.77 2.522 0L16 17.112l6.25-5.995c.855-.77 1.828-.714 2.523 0 .698.714.654 1.917 0 2.584z"/></symbol><symbol viewBox="0 0 32 32" id="svg-arrow-left"><title>arrow-left</title><path d="M18.3 7.226c-.67.653-7.204 7.514-7.204 7.514-.357.35-.534.805-.534 1.26s.178.913.534 1.262c0 0 6.534 6.86 7.203 7.512.668.653 1.87.698 2.585 0 .712-.696.768-1.667-.002-2.52L14.888 16l5.995-6.252c.77-.854.714-1.826.002-2.522-.715-.696-1.918-.653-2.586 0z"/></symbol><symbol viewBox="0 0 32 32" id="svg-arrow-right"><title>arrow-right</title><path d="M13.7 7.226c.67.653 7.204 7.514 7.204 7.514.358.35.536.805.536 1.26s-.178.913-.536 1.262c0 0-6.534 6.86-7.203 7.512-.668.653-1.87.698-2.585 0-.714-.696-.77-1.667 0-2.52L17.112 16 11.117 9.75c-.77-.854-.714-1.826 0-2.522.714-.696 1.917-.653 2.584 0z"/></symbol><symbol viewBox="0 0 32 32" id="svg-arrow-up"><title>arrow-up</title><path d="M29.2 19.4c-1-1-11.3-10.8-11.3-10.8-.5-.5-1.2-.8-1.9-.8s-1.4.3-1.9.8c0 0-10.3 9.8-11.3 10.8s-1 2.8 0 3.9 2.5 1.2 3.8 0l9.4-9 9.4 9c1.3 1.2 2.7 1.1 3.8 0 1-1 .9-2.8 0-3.9z"/></symbol><symbol viewBox="0 0 32 32" id="svg-close"><title>close</title><path d="M31.708 25.708L22 16l9.708-9.708c.105-.105.18-.227.23-.357.132-.356.056-.77-.23-1.057L27.122.292c-.286-.286-.702-.36-1.057-.23-.13.05-.252.125-.357.23L16 9.998 6.292.29C6.187.188 6.065.11 5.935.064c-.356-.133-.77-.057-1.057.23L.292 4.877c-.286.286-.36.702-.23 1.057.05.13.125.252.23.357L10 16 .292 25.708c-.104.105-.18.227-.23.357-.132.355-.056.77.23 1.057l4.586 4.586c.286.286.702.36 1.057.23.13-.05.252-.125.357-.23L16 22l9.708 9.708c.105.105.227.18.357.23.356.132.77.056 1.057-.23l4.586-4.586c.286-.286.362-.702.23-1.057-.05-.13-.125-.252-.23-.357z"/></symbol><symbol viewBox="0 0 16 28" id="svg-code-fork"><title>code-fork</title><path d="M4.5 23q0-.625-.438-1.062T3 21.5t-1.062.438T1.5 23t.438 1.062T3 24.5t1.062-.438T4.5 23zm0-18q0-.625-.438-1.062T3 3.5t-1.062.438T1.5 5t.438 1.062T3 6.5t1.062-.438T4.5 5zm10 2q0-.625-.438-1.062T13 5.5t-1.062.438T11.5 7t.438 1.062T13 8.5t1.062-.438T14.5 7zM16 7q0 .812-.406 1.508T14.5 9.594q-.03 4.484-3.53 6.47-1.063.593-3.173 1.265-2 .624-2.648 1.108T4.5 20v.407q.69.39 1.095 1.086T6 23q0 1.25-.874 2.126T3 26t-2.124-.874T0 23q0-.81.407-1.507T1.5 20.407V7.595Q.814 7.205.408 6.51T0 5q0-1.25.876-2.124T3 2t2.126.876T6 5q0 .813-.405 1.51T4.5 7.594v7.766q.845-.405 2.407-.89.86-.266 1.367-.46t1.102-.485.922-.617.633-.797.44-1.085.132-1.43q-.688-.39-1.094-1.086T10.002 7q0-1.25.875-2.124T13.002 4t2.125.876T16.002 7z"/></symbol><symbol viewBox="0 0 30 28" id="svg-code"><title>code</title><path d="M9.64 21.86l-.78.78q-.156.156-.36.156t-.358-.156l-7.28-7.28Q.704 15.202.704 15t.156-.36l7.282-7.28q.156-.156.36-.156t.358.156l.78.78q.157.157.157.36t-.156.36L3.5 15l6.14 6.14q.157.157.157.36t-.156.36zm9.235-16.673L13.047 25.36q-.063.202-.242.304t-.367.04l-.97-.267q-.202-.063-.304-.242t-.04-.383l5.83-20.172q.062-.203.24-.305t.368-.04l.97.267q.202.063.304.242t.04.383zM29.14 15.36l-7.28 7.28q-.156.156-.36.156t-.358-.156l-.78-.78q-.157-.157-.157-.36t.156-.36L26.503 15l-6.14-6.14q-.157-.157-.157-.36t.156-.36l.782-.78q.156-.156.36-.156t.358.156l7.28 7.28q.157.157.157.36t-.156.36z"/></symbol><symbol viewBox="-101.4 0 1061.7 518.4" id="svg-deliver-fish"><title>deliver-fish</title><g><path d="M521.8 233.2c-5.2.4-10.6-4.2-9.5-3.8 9.4 3.8 15.9-6.3 13.5-10.8-2.5-4.4-13.8-.8-15.8-2.6-6.9-6.2-14.7-18.7-23.5-10.3-3 2.9-6.2 5.2-7.6 8.8-2.4-3.4-7.5-7.1-10.7-5.6-9.4 4.2.5 17 2.5 20.1 2.7 4.3.9 6.5-2.5 8.1-4.5 2.1 3.7 3.9 8.3 3.1-1.7 3.3-5.5 5.6-7.6 6.8-1 .6-1.8 1.3-2.4 2.2-1.6-2.9-11.2-3.2-14.1-1.6-2.9 1.6-.8 6 3.6 7.5 2.3.8 3.8-.4 5.8 3-.6 1.2.5 5.8 1.2 7.1 1.2 2.1 3.3 1.2 5.4 0 1.5-.8 3.2-7.7 3.2-9.2 2.3-.4 2.7-1.1 4.5-2.1.5-.3-2.4 3.5-1.6 5 1.5 2.6 7.7 12.2 9.1 9.5 1.4-2.5 4.8-7.6 3.8-10.1 1.2.2 3.5 3.2 4 4.1 1.2 2.2 3.2 3.6 5.4 2.4 2.2-1.2 1.8-11.8 3.1-11.2 6.1-3 12-6.3 12.2-11.2 2.3 1.4 7.3 2.7 9.7 1.1 7.2-4.2 5.2-10.7 0-10.3zm-19.9-14.8c-1.1.6-3-.4-4.1-2.4-1.1-2-1.1-4.1.1-4.7s3 .4 4.1 2.4c1 1.9 1 4.1-.1 4.7zM841.5 298.6c1.4-1.4 2.2-3.6 2.2-7 0-9.7-4.3-6.4-14-6.4 0 0-13.6-7.1-15.7-14.6 2.9-6.4-.6-15.9-7.6-18.6-8.7-3.5-14.3-2.2-19.8 7-20.5 7.7-47 16.7-51.9 14.6 2.5-6.3 30.3-21.6 30.3-50.9 0-26-49.4-64.9-53-68-10.9-9.2-32.8-24.9-32.7-32.5.2-12.3 5.3-21.6.3-40.7-10.4-39.4-51.7-60.3-77.2-48.6-28.1 12.9-29.8 20.3-33.1 48.2-.7 6.2 11.9 9.8 13.1 16.1.6 3.1-3 19.4-2 22.5 2.1 6.5 13.2 1.3 16.6 6.8.9 1.5-4.5 11.3 4.7 10 3.3-.5 14.5-14.3 17.7-12.9 6.2 13.2-16.6 17-12.7 20.9 5 5 3.2 11.7 7.9 14.3 4.7 2.6 21.5-6.3 24.4-6.4-4.1 9.3-7 51.1-13.2 58.8 0 0-20.1 21.1-30.1 20.9-3.3-.1-3.6-11.1-5.6-11.8-7.7-2.8-5.7 12.8-9.9 15.7-4.9 3.4-32.9 7-33.2 12-.3 5 25.5 5.4 31.4 4.3 16.4-3.1 45.4-2.6 61.4-9.5 8.9-3.8 16.7-30.4 16.7-30.4-.6 3.3 18.8 29.5 20.6 35-9.6 8.1-31.5 22-31.5 35.5 0 6.1 1 11.3 3 15.7h-35.5v63.7l35 31.9v115.1c5.7 1.4 11.6 2.2 17.7 2.2 21.5 0 40.8-9.1 54.4-23.7 13.5 14.6 32.9 23.7 54.4 23.7 20.9 0 39.8-8.7 53.3-22.6 13.5 13.9 32.4 22.6 53.3 22.6 13.5 0 26.2-3.6 37.1-10 10.9 6.3 23.6 10 37.1 10 20.2 0 38.5-8.1 51.8-21.1 13.4 13.1 31.7 21.1 51.8 21.1 24.6 0 46.4-12 59.9-30.5 13.5 18.5 35.3 30.5 59.9 30.5V393.1l9.3-30.8v-63.7H841.5zm-46.2-17.5c3.1 1.8 9.2 12.9 23.5 17.4h-34.6c5.2-6 9.3-12.2 11.1-17.4zM465.9 276.3c0-8.9-6.1-9.2-14.9-8.5-10.3.8-10.5 8.3-15.3 13.3s-17.4 16.2-24 18.4c-1.1-.2-39.2-20.3-47.8-21.4-8.6-1.1-9-3.6-14.3-10.2.1-.9 1-2 3.1-3.7 2-.6 3.6-1 4.4-1 6.8-.1 9.9 2.1 16 0 8-2.8 10.2-15.6 9.4-20.6-.3-1.7-14.7-9.6-10.2-7.6 2.2 1 11.1 1 12.5-1.7 1.9-3.7-1.3-7.8-1-12.3.3-4 9.9-2.3 9.9-7.4 0-8.2-9.9-13.7-11.1-21.1-.8-5 6.3-11.2 4.8-15.6-7.3-22.2-26.5-37.1-53.8-37.1-40.8 0-55.3 33.5-55.3 74.8 0 3.6-.2 6.7-.4 9.5-1.2 15.9 4.6 28.4 10.8 31.4 1.5.7 9.1 2 15.4 5.3-8.4 19.2-7.1 33.9-6.3 47.6 0 0-8.5 65.5-.6 86.7-19.2 1.5-38.5 2.7-58 3.4-47.5-24.7-95.3-44-142.1-58-.9 1.5-12.3 19-23.9 53.7-4.9-.4-9.7-.9-14.6-1.4-.9-.1-1.7-.2-2.6-.3-4.6-.5-9.3-1-13.9-1.5l-3-.3c-4.6-.5-9.2-1.1-13.8-1.7l-2.7-.3c-4.8-.6-9.5-1.2-14.2-1.9-.5-.1-1-.1-1.5-.2-4.7-.7-9.3-1.3-14-2-.5-.1-1.1-.2-1.6-.2-4.7-.7-9.5-1.5-14.2-2.3-.8-.1-1.7-.3-2.5-.4l-13.8-2.4c-.9-.2-1.7-.3-2.6-.5-4.6-.8-9.3-1.7-13.9-2.6-.6-.1-1.3-.2-1.9-.4-4.9-.9-9.7-1.9-14.6-2.9 2.9 20.7 8.9 40.5 17.6 59.2 1.2 2.7 2.6 5.3 3.9 7.9 4.1 7.9 8.6 15.5 13.7 22.9.8 1.2 1.7 2.5 2.5 3.7 7.8 10.9 16.5 21.3 26.2 31 3.1-2.2 6.1-4.7 8.8-7.4.8.8 1.7 1.6 2.5 2.3.3.3.7.6 1 .8.5.5 1.1.9 1.6 1.4.4.4.9.7 1.3 1 .5.4.9.7 1.4 1.1.5.4 1 .7 1.5 1.1l1.2.9c.6.4 1.2.7 1.7 1.1.4.2.7.5 1.1.7.6.4 1.3.8 1.9 1.1.3.2.7.4 1 .6.7.4 1.4.7 2.1 1.1.3.2.6.3.9.5.8.4 1.5.7 2.3 1.1.3.1.5.2.8.4.8.4 1.6.7 2.5 1 .2.1.5.2.7.3.9.3 1.7.6 2.6.9.2.1.4.1.6.2.9.3 1.9.6 2.8.8.2 0 .3.1.5.1 1 .3 2 .5 2.9.7.1 0 .3.1.4.1 1 .2 2.1.4 3.1.6h.3c1.1.2 2.2.4 3.2.5h.2c1.1.1 2.2.3 3.4.4h.1c1.2.1 2.3.2 3.5.2.8 0 1.7.1 2.5.1 2 0 3.9-.1 5.8-.2.7-.1 1.5-.1 2.2-.2.7-.1 1.5-.2 2.2-.3l2.1-.3c.7-.1 1.4-.2 2.1-.4h.1c.7-.1 1.4-.3 2.1-.4h.1c.7-.2 1.3-.3 2-.5h.1c.7-.2 1.3-.4 2-.5h.1c.6-.2 1.3-.4 1.9-.6.1 0 .1 0 .2-.1.6-.2 1.2-.4 1.9-.6.1 0 .1 0 .2-.1.6-.2 1.2-.4 1.8-.7.1 0 .1-.1.2-.1.6-.2 1.2-.5 1.7-.7.1 0 .2-.1.3-.1.6-.2 1.1-.5 1.7-.7.1 0 .2-.1.3-.1.5-.3 1.1-.5 1.6-.8.1-.1.2-.1.3-.2.5-.3 1-.5 1.6-.8.1-.1.2-.1.3-.2.5-.3 1-.5 1.5-.8.1-.1.3-.1.4-.2.5-.3 1-.6 1.4-.8.1-.1.3-.2.4-.3.5-.3.9-.6 1.4-.9.1-.1.3-.2.4-.3.4-.3.9-.6 1.3-.9.2-.1.3-.2.5-.3l1.2-.9c.2-.1.3-.3.5-.4l1.2-.9c.2-.1.4-.3.5-.4.4-.3.7-.6 1.1-.9.2-.2.4-.3.6-.5.4-.3.7-.6 1-.9.2-.2.4-.3.6-.5.3-.3.7-.6 1-.9l.6-.6.9-.9.6-.6.8-.8c.2-.2.4-.5.7-.7l.8-.8c.2-.3.5-.5.7-.8.2-.3.5-.5.7-.8.3-.3.5-.6.7-.9.2-.2.4-.5.6-.7.3-.3.5-.7.8-1 .2-.2.3-.4.5-.6l1.2-1.5c0-.1.1-.1.1-.2 4.6 6.3 10.3 11.9 16.6 16.5 2.3 1.7 4.7 3.2 7.3 4.6 1.9 1 3.8 2 5.8 2.9.7.3 1.3.6 2 .9 2 .8 4.1 1.6 6.2 2.2l4.2 1.2c1.4.4 2.9.7 4.3.9.7.1 1.5.3 2.2.4 3.7.6 7.5.9 11.3.9 2.1 0 4.2-.1 6.2-.3 4.1-.3 8.1-1 12-2 1.9-.5 3.9-1.1 5.7-1.7.9-.3 1.9-.7 2.8-1 1.8-.7 3.7-1.5 5.4-2.4 4.4-2.1 8.6-4.7 12.5-7.6 12.4 9.4 27.9 15 44.7 15 21.5 0 40.8-9.1 54.4-23.7 13.5 14.6 32.9 23.7 54.4 23.7 18 0 34.4-6.4 47.3-17 34-35.3 56.1-79.1 61.5-127.1-3.9.9-7.7 1.7-11.6 2.6-.9.2-1.9.4-2.8.6-3.9.8-7.8 1.7-11.7 2.5h-.1c-3.9.8-7.8 1.6-11.7 2.3-.9.2-1.8.3-2.6.5-4 .8-8 1.5-12 2.3l-12 2.1c-.8.1-1.6.3-2.4.4-8.1 1.4-16.3 2.7-24.5 3.9-.7.1-1.4.2-2.2.3-4.2.6-8.3 1.2-12.5 1.8 1.8-13.8 1.4-34.1-6.6-62.5-.1-.2 4.2.2 4.1 0 13-.3 43.5 4.9 46.2 3.5 11.4-2.5 34.1-35.8 41-35.8 5.6 0 38.9 1.6 39.5-10.5.9-6.5-30.7-1.8-30.7-5.1zM174.5 399.2c-1.6 0-3.2-.1-4.8-.1-3.8-.1-7.6-.1-11.4-.2-1.5 0-3-.1-4.5-.1-4.3-.1-8.5-.2-12.7-.4-.8 0-1.5-.1-2.3-.1-21.8-.8-43.4-2.2-64.9-4.1C84 364 96 342.1 96.9 340.4c42.2 15.2 84.9 34.8 127.1 58.5-8.4.2-16.7.4-25.2.4h-8.5c-5.2 0-10.5 0-15.8-.1z"/></g></symbol><symbol viewBox="0 0 20 32" id="svg-device-mobile"><title>device-mobile</title><path d="M18 0H2C.897 0 0 .896 0 2v28c0 1.105.896 2 2 2h16c1.105 0 2-.895 2-2V2c0-1.103-.895-2-2-2zM9 2h2c.55 0 1 .448 1 1s-.45 1-1 1H9c-.552 0-1-.448-1-1s.448-1 1-1zm2 28H9c-.552 0-1-.45-1-1s.448-1 1-1h2c.55 0 1 .45 1 1s-.45 1-1 1zm7-4H2V6h16v20z"/></symbol><symbol viewBox="0 0 32 32" id="svg-facebook"><title>facebook</title><path d="M17.996 32H12V16H8v-5.514l4-.002-.007-3.248c0-4.498 1.22-7.236 6.52-7.236h4.41v5.515h-2.756c-2.064 0-2.163.77-2.163 2.21l-.008 2.76h4.96l-.585 5.513L18 16l-.003 16z"/></symbol><symbol viewBox="0 0 32 32" id="svg-feed"><title>feed</title><path d="M4.26 23.467C1.91 23.467 0 25.384 0 27.72c0 2.348 1.91 4.243 4.26 4.243 2.357 0 4.264-1.895 4.264-4.244 0-2.337-1.907-4.253-4.265-4.253zM.004 10.873v6.133c3.993 0 7.75 1.562 10.577 4.39 2.825 2.823 4.384 6.596 4.384 10.604h6.16c0-11.65-9.478-21.127-21.12-21.127zM.012 0v6.136C14.255 6.136 25.848 17.74 25.848 32H32C32 14.36 17.648 0 .012 0z"/></symbol><symbol viewBox="0 0 24 24" id="svg-files"><title>files</title><path d="M5 0v3H2v21h17v-3h3V0H5zm12 22H4V5h1v16h12v1zm3-3H7V2h13v17zM15 5H9v2h6V5zm3 3H9v1h9V8zm0 2H9v1h9v-1zm0 2H9v1h9v-1zm-6 2H9v1h3v-1z"/></symbol><symbol viewBox="0 0 329 61.7" id="svg-film-top"><title>film-top</title><path d="M329 61.7V0H0v61.7h329zm-58.2-47.3h33.9v33.9h-33.9V14.4zm-82.4 0h33.9v33.9h-33.9V14.4zm-81.7 0h33.9v33.9h-33.9V14.4zm-82.3 0h33.9v33.9H24.4V14.4z"/></symbol><symbol viewBox="0 0 32 32" id="svg-github"><title>github</title><path d="M16 0C7.163 0 0 7.163 0 16s7.163 16 16 16 16-7.163 16-16S24.837 0 16 0zm9.502 25.502c-1.235 1.235-2.672 2.204-4.272 2.88-.406.173-.82.324-1.238.454v-2.398c0-1.26-.432-2.188-1.297-2.78.542-.053 1.04-.126 1.492-.22s.932-.23 1.438-.406.958-.388 1.36-.633.785-.564 1.155-.954.68-.833.93-1.328.448-1.09.594-1.78.22-1.457.22-2.29c0-1.615-.527-2.99-1.58-4.125.48-1.25.428-2.61-.155-4.078l-.392-.047c-.27-.03-.758.083-1.46.344s-1.493.688-2.368 1.28c-1.24-.343-2.526-.515-3.86-.515-1.343 0-2.624.172-3.843.516-.552-.375-1.075-.685-1.57-.93-.495-.245-.89-.41-1.188-.5s-.574-.143-.83-.164-.418-.027-.49-.017-.126.02-.157.03c-.583 1.48-.635 2.84-.156 4.08-1.052 1.134-1.578 2.51-1.578 4.124 0 .833.072 1.596.218 2.29s.344 1.285.594 1.78.56.938.93 1.328.755.708 1.156.953.854.456 1.36.633.983.314 1.437.407.95.167 1.492.22c-.854.582-1.28 1.51-1.28 2.78v2.445c-.473-.14-.938-.306-1.395-.5-1.6-.677-3.037-1.646-4.272-2.88-1.235-1.236-2.204-2.673-2.88-4.273-.7-1.656-1.056-3.415-1.056-5.23s.355-3.576 1.055-5.23c.676-1.6 1.645-3.038 2.88-4.273s2.672-2.204 4.272-2.88c1.655-.7 3.415-1.056 5.23-1.056s3.575.356 5.23 1.056c1.6.677 3.037 1.646 4.272 2.88 1.235 1.236 2.204 2.673 2.88 4.273.7 1.654 1.056 3.414 1.056 5.23s-.355 3.574-1.055 5.23c-.677 1.6-1.646 3.036-2.88 4.27z"/></symbol><symbol viewBox="0 0 32 32" id="svg-linkedin"><title>linkedin</title><path d="M26.625 0H5.375C2.42 0 0 2.42 0 5.375v21.25C0 29.58 2.42 32 5.375 32h21.25C29.58 32 32 29.58 32 26.625V5.375C32 2.42 29.58 0 26.625 0zM12 26H8V12h4v14zm-2-16c-1.105 0-2-.895-2-2s.895-2 2-2 2 .895 2 2-.895 2-2 2zm16 16h-4v-8c0-1.105-.895-2-2-2s-2 .895-2 2v8h-4V12h4v2.483C18.825 13.35 20.086 12 21.5 12c2.485 0 4.5 2.24 4.5 5v9z"/></symbol><symbol viewBox="0 267 792 345" id="svg-me-fish"><title>me-fish</title><path d="M427.3 458c12.3.5 26.6 7.7 27.2 2.5 8.3-2.5 15.3-4 17.6-10.5 7.8-1.2 16.4-2.6 26-4.2 84.5-13.4 166.7-14.5 240.6-3.3.2.1 16.7 58 29.5 156.2-10.2-96.9-29.8-156.4-29.4-156.4-80.7-17.2-172-18.9-267.8-4.7-3.5-4.5-12.2-2-22.5-2-10.1 0-43.5-4.1-43.6-4.1-7.5-5.6-19.5-33.1-22.8-36.5 1.8-.6 3.2-.9 3.9-.9 6-.1 8.9 1.8 14.2 0 7.2-2.5 9.1-13.9 8.3-18.3-.2-1.5-13-8.5-9.1-6.7 1.9.9 9.8.9 11-1.5 1.7-3.3-1.1-6.9-.9-10.9.2-3.5 8.9-2 8.9-6.6 0-7.3-8.9-12.2-9.9-18.6-.8-4.4 5.6-9.9 4.2-13.9-6.5-19.8-23.5-33-47.7-33-36.2 0-49 29.7-49 66.4 0 3.2-.1 6-.3 8.4-1.1 14.1 4.2 25.2 9.5 27.8 1.4.7 8.1 1.8 13.6 4.7-10.9 25-3.3 41.2-5.9 58.6-1.7 11.1-4.7 17.6-6.6 24.3-.2.1-.5.2-.8.3l.5.5c-.9 3.4-1.6 6.9-1.6 11.2 0 3.6.1 7 .3 10.2-6.5.1-13.1.1-19.5.1-28.3 0-56.4-.8-84.1-2.4 2.4-1.6 8-4.8 9.5-8.3 5.1-11.4-10.1-3-12.4-.8-.8-1.4-4.5-11.4-6.1-11.8-3.5-1.1-3.2 12.7-2.7 12.7-.9.5-1.5 4.2-3.1 7.3-3.1-.1-6.1-.5-9.2-.7-1.8-4.3-5.5-11.4-10.1-18.4v-.1c3.3-10.5-2.6-21.7-13.1-25-5.1-1.6-10.5-1-15 1.2-4.8-1-10.1-2-11.4-2.4-10.8-3.4-26.5 2.2-25.7 13.4.8 10.7 23.4 12.3 23.4 12.3s-31.9-.2-10.7 13c-41.4-4.8-82.2-11.4-122-19.5C18.4 510 36 549.2 62.6 582.8c8.2-4.5 15.2-10.8 20.7-18.3C95 580.5 114 591 135.5 591c14.7 0 28.1-4.8 39-13.1 10.8 8.2 24.3 13.1 39 13.1 18.7 0 35.6-8 47.3-20.7 11.8 12.6 28.6 20.7 47.3 20.7 18.2 0 34.7-7.6 46.4-19.7 11.7 12 28.2 19.7 46.4 19.7 11.7 0 22.8-3.2 32.3-8.6 9.4 5.5 20.6 8.6 32.3 8.6 17.6 0 33.4-7 45.1-18.4 11.7 11.4 27.5 18.4 45.1 18.4 5.3 0 10.5-.7 15.3-1.8 30.8-36.7 50.8-80.3 56.1-127.7-73 16.5-148.7 27.5-226.4 32.5.8-8.9 1.5-19.4 1.7-29.4 7.8-2.4 16-4.6 24.9-6.6zm-279.6 3.2c-.5 1.9-2.4 2.8-4.2 2.3-1.8-.6-2.8-2.5-2.3-4.2.6-1.8 2.5-2.8 4.2-2.3 1.7.5 2.9 2.5 2.3 4.2z"/></symbol><symbol viewBox="0 0 32 32" id="svg-menu"><title>menu</title><path d="M2 6h28v6H2zm0 8h28v6H2zm0 8h28v6H2z"/></symbol><symbol viewBox="0 0 22 28" id="svg-stack-overflow"><title>stack-overflow</title><path d="M14.5 21.89v2.36l-11.047.016v-2.36zm3.766-5.406v10.953l-.016.547V28L0 27.984v-11.5h1.89v9.656h14.5v-9.656h1.876zm-14.5 1.375l11 1.015-.203 2.344-11.016-1.017zm1.062-4.938l10.672 2.86-.61 2.28-10.67-2.86zM7.375 7.47l9.516 5.624-1.202 2.03L6.172 9.5zM13 2.296l6.22 9.14-1.938 1.33-6.234-9.126zM20.078 0l1.89 10.89-2.327.407L17.75.407z"/></symbol><symbol id="svg-tech"><title>tech</title>null</symbol><symbol viewBox="0 0 32 32" id="svg-twitter"><title>twitter</title><path d="M32 6.076c-1.177.522-2.443.875-3.77 1.034 1.354-.813 2.395-2.1 2.886-3.632-1.27.752-2.674 1.3-4.17 1.593C25.75 3.796 24.044 3 22.157 3c-3.627 0-6.566 2.94-6.566 6.565 0 .515.058 1.016.17 1.496-5.456-.275-10.294-2.89-13.532-6.86-.565.97-.89 2.096-.89 3.3 0 2.278 1.16 4.287 2.922 5.465-1.076-.034-2.088-.33-2.974-.82v.082c0 3.18 2.262 5.834 5.265 6.437-.55.15-1.13.23-1.73.23-.422 0-.833-.04-1.234-.118.835 2.608 3.26 4.506 6.133 4.56-2.248 1.76-5.08 2.81-8.155 2.81-.53 0-1.052-.032-1.566-.093 2.904 1.863 6.355 2.95 10.063 2.95 12.076 0 18.68-10.004 18.68-18.68 0-.285-.007-.568-.02-.85C30.006 8.55 31.12 7.394 32 6.077z"/></symbol><symbol viewBox="0 0 960.3 518.4" id="svg-we-fish"><title>we-fish</title><path d="M864.7 357.2c-2 .4-4 .9-6 1.3C852.2 137 843.4 14.8 833 14.7c-.2 0-.3.1-.5.1 10.2 3.9 18.8 125.7 25.3 343.9-44 9.8-88.8 17.9-134.3 24.2.9-4.4 1.3-8.8 1.3-13.4 0-13.6-.5-24.3-4.6-33.8 2.9-14 6.4-30.2 10.6-50.1 19.6-92.2 53-185.7 101.7-270.4-55.1 84.5-98.8 188.4-124 304.3-7.8-6.8-26.3-16.2-34.9-19.8 7.3-5.4 23.7-12.3 27.9-20.4 4.4-8.3-3.5-25.5-3.5-35.6 0-33-26.8-65-59.8-65s-59.8 32-59.8 65c0 11-7.4 29-2.3 37.9 5.2 8.8 22.9 16.2 31.7 21.5-12.9 7.1-28.7 17.8-35.7 30.7-5.7 10.7-3.8 22.8-3.8 35.8 0 9.8 1.9 19.2 5.3 27.8-9.9.5-19.8 1-29.7 1.3 0-21.4-12.4-92.9-12.4-115.6 0-24.7-21.5-61.8-30.1-72.3-8.6-10.5-17.6-22.1-16.4-27.5 2.7-12.5 13.2-24.5 12-45-2.5-42.4-37.1-69.4-66.4-70.4-24.5-.8-42.8 13.2-51.9 41-2 6.1 10.1 12.5 10 19.2 0 3.3-7.1 19.2-6.7 22.5.8 7 13.2 4 15.5 10.4.6 1.7-6.9 10.7 2.8 11.2 3.5.2 22.6-9.2 25.6-7.1.8 29.1-22.9 21.2-19.7 26 4 6.1.8 12.6 5.1 16.2 4.3 3.6 23.3-2 26.2-1.5-1.8 2.5-13.9 7.4-17.4 17.5-4.7 13.5-7.2 31-10.8 39.6 0 0-20.8-8.7-32-14.5-8.9-16.5-24.3-17-33.2-16.1-73.5-77.3-181.4-100.9-261.8-56.1-.3-.6-.7-.9-1.1-1h-.5c.4.3.7.7.9 1.4-.3.1-.5.3-.8.4.3.2.6.5.9.8.1 0 .2-.1.3-.1 4.7 18.5-15.9 132.5-56.8 320.5l.8.7C67.4 308.5 88 194 82.7 177.3c77.8-36.9 176.8-13.1 246.3 57.6-1.4 2.4 3.2 7.8 3.2 18.4 0 5 11.4 5.9 20.6 9.3 2.3 3 4.5 6.1 6.6 9.2 33.4 48.5 50.6 89 50.9 126.7-96.3-3.8-190.1-15.3-280.8-33.8 7 50.6 28.2 97.5 60 137.8 9.7-5.5 18.2-12.9 24.8-21.9 14.1 19.2 36.8 31.7 62.4 31.7 17.5 0 33.6-5.8 46.6-15.6 12.9 9.8 29.1 15.6 46.6 15.6 22.4 0 42.5-9.5 56.6-24.7 14.1 15.2 34.2 24.7 56.6 24.7 21.8 0 41.4-9 55.5-23.5 14 14.5 33.7 23.5 55.5 23.5 14.1 0 27.3-3.8 38.6-10.4 11.4 6.6 24.6 10.4 38.6 10.4 21 0 40.1-8.4 54-22 13.9 13.6 33 22 54 22 6.3 0 12.5-.8 18.4-2.2 29.4-35 50.6-75.4 61.1-119 1.1 39.6 2.1 82.1 3.1 127.3h.9c-1-46.6-2.1-90.3-3.2-130.9 2.3-10 4-20.1 5.1-30.3zM387 289.5c9.1 7.7 18.7 14.1 28.4 14.4 7.4.2 17.3-12.2 22.6-17.6 2.2 4.4-10 50.7-17.4 87.1-4.5-26.5-15.8-54.5-33.6-83.9z"/></symbol><symbol viewBox="0 0 28 28" id="svg-wordpress"><title>wordpress</title><path d="M1.984 14q0-2.547 1.047-4.89L8.766 24.81q-3.063-1.484-4.922-4.39t-1.86-6.423zm20.125-.61q0 .298-.04.603t-.156.773-.18.688-.273.922-.272.906l-1.188 4-4.344-12.906q.72-.047 1.375-.125.298-.03.407-.288t-.04-.484-.444-.21l-3.203.155q-1.172-.016-3.156-.156-.187-.016-.32.078t-.18.234-.023.288.142.258.305.125l1.25.126 1.875 5.125-2.625 7.876-4.375-13q.72-.047 1.375-.125.297-.03.406-.288t-.04-.484-.444-.21l-3.204.155q-.11 0-.36-.008t-.405-.008q1.642-2.5 4.29-3.96t5.742-1.462q2.297 0 4.383.828t3.727 2.328h-.156q-.86 0-1.437.634t-.58 1.492q0 .187.032.375t.063.337.125.36.14.327.188.352.195.328.227.375.22.358q.983 1.672.983 3.313zm-7.907 1.657l3.703 10.11q.016.093.078.17-1.97.69-3.984.69-1.75 0-3.39-.5zM24.53 8.234q1.485 2.72 1.485 5.766 0 3.266-1.625 6.023t-4.36 4.352l3.673-10.594q.922-2.64.922-4.31 0-.657-.094-1.235zM14 0q2.844 0 5.437 1.11t4.47 2.983 2.983 4.47T28 13.998t-1.11 5.436-2.984 4.47-4.47 2.983T14 27.997t-5.437-1.11-4.47-2.983-2.983-4.47T0 14 1.11 8.56t2.984-4.47 4.47-2.983T14 0zm0 27.36q2.703 0 5.18-1.063t4.266-2.852 2.852-4.266T27.36 14t-1.062-5.18-2.852-4.267T19.18 1.7 14 .64 8.82 1.7 4.554 4.554 1.702 8.82.64 14t1.062 5.18 2.852 4.265 4.266 2.852T14 27.36z"/></symbol><symbol viewBox="0 0 960.3 518.4" id="svg-you-fish"><title>you-fish</title><path d="M716.8 373.1c-4.9-22.2-21-59.8-23.8-69.4-3.3-11.3-.2-76-7.6-88.1-7.4-12.1-6.7-6.6-4.3-13.7 4-11.6 11.7-18.7 12.9-38.3 2.4-40.3-28.9-68.4-56.6-65.3-30.4 3.4-35.4 5.4-47.1 30.7-2.6 5.6 8.1 12.9 7.3 19.3-.4 3.1-8.8 17.3-8.8 20.6 0 6.8 12 5.3 13.5 11.5.4 1.7-7.8 9.3 1.3 10.9 3.3.6 17.6-5.4 20.2-3.1 1.3 5.4-20.4 7.3-18 12.2 3.1 6.2-.7 12 3 15.9s22.2.8 25 1.5c-6.8 7.5-22.8 45.9-30.7 51.3-1.5-4.4-8.3-6.4-13.3-10.5-25-89.2-58.9-171.3-99.5-243.6.4-.3-23.7 26.5-13.2 225.3-16.5 2.9-24.6 18.4-35.9 22.2-1-.1-21.9-1.7-29.7-1.7-2.7 0-29.5-21-36.1-27.6 2.2-.6 3.8-1.1 4.6-1.1 7.2-.1 10.6 2.2 17 0 8.5-3 10.9-16.6 10-21.9-.3-1.8-18.2-4.1-10.9-8.1 2.3 1.1 11.8 1.1 13.3-1.8 2.1-4-1.4-8.3-1.1-13 .3-4.3 10.5-2.5 10.5-7.9 0-8.7-10.6-14.6-11.9-22.4-.9-5.3 6.7-11.9 5.1-16.6-7.8-23.6-28.2-39.5-57.2-39.5-43.4 0-58.8 35.6-58.8 79.6 0 3.8-.2 7.1-.4 10.1-1.3 16.9 4.9 30.2 11.5 33.4 1.6.8 9.7 2.2 16.4 5.6-13.1 29.9-4 49.5-7.1 70.4-3.1 20.8-10.1 27.9-10.1 43.7 0 17 1.1 29.2 12.6 39.9-.4.5-.7 1.3-1 2.2-70.3-5.7-139.2-15.6-206.3-29.4 7.1 50.7 28.3 107.5 60.1 147.9 9.8-5.5 18.3-13 24.8-22 14.1 19.3 36.9 31.8 62.6 31.8 17.5 0 33.7-5.8 46.7-15.7 13 9.8 29.2 15.7 46.7 15.7 22.4 0 42.6-9.5 56.8-24.8 14.1 15.2 34.3 24.8 56.8 24.8 21.8 0 41.5-9 55.6-23.6 14.1 14.5 33.8 23.6 55.6 23.6 14.1 0 27.3-3.8 38.7-10.4 11.4 6.6 24.6 10.4 38.7 10.4 15.9 0 30.7-4.8 43-13 .6 0 1.1.1 1.7.1 5.3 0 10.4-1.5 15.1-4.1 13.3 10.7 30.1 17.1 48.5 17.1 6.4 0 12.5-.8 18.4-2.2 37-44 61-106.2 67.3-163-43.2 9.4-87.2 17.6-131.9 24.1zm-99-73c.3 14 3.5 60.6 3.5 77 0 2.4-.5 4.9-1.2 7.2-.7.1-1.3.1-2 .2-4.8-27.8-10.5-55.1-16.9-81.8 9 4.5 11.4-3 16.6-2.6zm-155.1 91.3c-21.9 0-43.8-.4-65.5-1.2-.8-5.3-1.9-10.7-1.9-14.5 0-2.9 5.8-50 3.8-77.6-.1-.2-.1-.4-.2-.6 11.7-.3 39.2 4.4 41.6 3.1 10.3-2.2 30.7-32.3 37-32.3h.2c1 36.2 2.3 77 3.9 123-6.3 0-12.6.1-18.9.1zm19.4-.1c-.9-38-1.8-81.7-2.7-123.5 4.4-1.6 9-6.7 9.4-15.6.3-5.8 16.7-4.9 16.7-7.8 0-8-18.7-5.1-26.7-4.5-1-54-3.5-107.5-2-132.4 4.6-78.1 11.8-89.6 13.4-92.5 33.1 67.8 59.4 142.8 79.8 223.1-7.8 2.8-11.9 10.9-11.9 20.4 0 11.9 6.5 21.5 18.4 21.5 1.6 2 3.2 3.9 4.6 5.6 5.9 27.5 10.9 55.6 15 84.2.9 6 1.7 11.4 2.5 16.3-38.4 3-77.3 4.7-116.5 5.2z"/></symbol></svg>