<svg xmlns="http://www.w3.org/2000/svg"><symbol id="svg-arrow-down" viewBox="0 0 32 32"><path d="M24.773 13.701c-.651.669-7.512 7.205-7.512 7.205a1.756 1.756 0 0 1-2.522 0s-6.861-6.536-7.514-7.205c-.651-.669-.696-1.87 0-2.586.698-.714 1.669-.77 2.522 0L16 17.112l6.251-5.995c.854-.77 1.827-.714 2.522 0 .698.714.654 1.917 0 2.584z"/></symbol><symbol id="svg-arrow-left" viewBox="0 0 32 32"><path d="M18.299 7.226c-.669.653-7.203 7.514-7.203 7.514a1.756 1.756 0 0 0 0 2.522s6.534 6.861 7.203 7.512c.669.653 1.872.698 2.586 0 .712-.696.768-1.667-.002-2.52l-5.995-6.253 5.995-6.253c.77-.854.714-1.826.002-2.522-.715-.696-1.918-.653-2.586 0z"/></symbol><symbol id="svg-arrow-right" viewBox="0 0 32 32"><path d="M13.701 7.226c.669.653 7.203 7.514 7.203 7.514a1.754 1.754 0 0 1 0 2.522s-6.534 6.861-7.203 7.512c-.669.653-1.87.698-2.586 0-.714-.696-.77-1.667 0-2.52l5.997-6.253-5.995-6.253c-.77-.854-.714-1.826 0-2.522.714-.696 1.917-.653 2.584 0z"/></symbol><symbol id="svg-arrow-up" viewBox="0 0 32 32"><path d="M29.2 19.4c-1-1-11.3-10.8-11.3-10.8-.5-.5-1.2-.8-1.9-.8s-1.4.3-1.9.8c0 0-10.3 9.8-11.3 10.8s-1 2.8 0 3.9 2.5 1.2 3.8 0l9.4-9 9.4 9c1.3 1.2 2.7 1.1 3.8 0 1-1 .9-2.8 0-3.9z"/></symbol><symbol id="svg-close" viewBox="0 0 32 32"><path d="M31.708 25.708L22 16l9.708-9.708a1 1 0 0 0 0-1.414L27.122.292a1 1 0 0 0-1.414-.001L16 9.999 6.292.291a.998.998 0 0 0-1.414.001L.292 4.878a1 1 0 0 0 0 1.414L10 16 .292 25.708a.999.999 0 0 0 0 1.414l4.586 4.586a1 1 0 0 0 1.414 0L16 22l9.708 9.708a1 1 0 0 0 1.414 0l4.586-4.586a.999.999 0 0 0 0-1.414z"/></symbol><symbol id="svg-code-fork" viewBox="0 0 16 28"><path d="M4.5 23q0-.625-.438-1.062T3 21.5t-1.062.438T1.5 23t.438 1.062T3 24.5t1.062-.438T4.5 23zm0-18q0-.625-.438-1.062T3 3.5t-1.062.438T1.5 5t.438 1.062T3 6.5t1.062-.438T4.5 5zm10 2q0-.625-.438-1.062T13 5.5t-1.062.438T11.5 7t.438 1.062T13 8.5t1.062-.438T14.5 7zM16 7q0 .812-.406 1.508T14.5 9.594q-.031 4.484-3.531 6.469-1.062.594-3.172 1.266-2 .625-2.648 1.109t-.648 1.563v.406q.688.391 1.094 1.086t.406 1.508q0 1.25-.875 2.125t-2.125.875-2.125-.875-.875-2.125q0-.812.406-1.508t1.094-1.086V7.595Q.813 7.204.407 6.509T.001 5.001q0-1.25.875-2.125t2.125-.875 2.125.875.875 2.125q0 .812-.406 1.508T4.501 7.595v7.766q.844-.406 2.406-.891.859-.266 1.367-.461t1.102-.484.922-.617.633-.797.438-1.086.133-1.43q-.688-.391-1.094-1.086t-.406-1.508q0-1.25.875-2.125t2.125-.875 2.125.875.875 2.125z"/></symbol><symbol id="svg-code" viewBox="0 0 30 28"><path d="M9.641 21.859l-.781.781q-.156.156-.359.156t-.359-.156L.861 15.359Q.705 15.203.705 15t.156-.359L8.142 7.36q.156-.156.359-.156t.359.156l.781.781q.156.156.156.359t-.156.359L3.5 15l6.141 6.141q.156.156.156.359t-.156.359zm9.234-16.672l-5.828 20.172q-.063.203-.242.305t-.367.039l-.969-.266q-.203-.063-.305-.242t-.039-.383L16.953 4.64q.063-.203.242-.305t.367-.039l.969.266q.203.063.305.242t.039.383zm10.266 10.172L21.86 22.64q-.156.156-.359.156t-.359-.156l-.781-.781q-.156-.156-.156-.359t.156-.359L26.502 15l-6.141-6.141q-.156-.156-.156-.359t.156-.359l.781-.781q.156-.156.359-.156t.359.156l7.281 7.281q.156.156.156.359t-.156.359z"/></symbol><symbol id="svg-deliver-fish" viewBox="-101.4 0 1061.7 518.4"><path d="M521.8 233.2c-5.2.4-10.6-4.2-9.5-3.8 9.4 3.8 15.9-6.3 13.5-10.8-2.5-4.4-13.8-.8-15.8-2.6-6.9-6.2-14.7-18.7-23.5-10.3-3 2.9-6.2 5.2-7.6 8.8-2.4-3.4-7.5-7.1-10.7-5.6-9.4 4.2.5 17 2.5 20.1 2.7 4.3.9 6.5-2.5 8.1-4.5 2.1 3.7 3.9 8.3 3.1-1.7 3.3-5.5 5.6-7.6 6.8-1 .6-1.8 1.3-2.4 2.2-1.6-2.9-11.2-3.2-14.1-1.6-2.9 1.6-.8 6 3.6 7.5 2.3.8 3.8-.4 5.8 3-.6 1.2.5 5.8 1.2 7.1 1.2 2.1 3.3 1.2 5.4 0 1.5-.8 3.2-7.7 3.2-9.2 2.3-.4 2.7-1.1 4.5-2.1.5-.3-2.4 3.5-1.6 5 1.5 2.6 7.7 12.2 9.1 9.5 1.4-2.5 4.8-7.6 3.8-10.1 1.2.2 3.5 3.2 4 4.1 1.2 2.2 3.2 3.6 5.4 2.4 2.2-1.2 1.8-11.8 3.1-11.2 6.1-3 12-6.3 12.2-11.2 2.3 1.4 7.3 2.7 9.7 1.1 7.2-4.2 5.2-10.7 0-10.3zm-19.9-14.8c-1.1.6-3-.4-4.1-2.4-1.1-2-1.1-4.1.1-4.7s3 .4 4.1 2.4c1 1.9 1 4.1-.1 4.7zM841.5 298.6c1.4-1.4 2.2-3.6 2.2-7 0-9.7-4.3-6.4-14-6.4 0 0-13.6-7.1-15.7-14.6 2.9-6.4-.6-15.9-7.6-18.6-8.7-3.5-14.3-2.2-19.8 7-20.5 7.7-47 16.7-51.9 14.6 2.5-6.3 30.3-21.6 30.3-50.9 0-26-49.4-64.9-53-68-10.9-9.2-32.8-24.9-32.7-32.5.2-12.3 5.3-21.6.3-40.7-10.4-39.4-51.7-60.3-77.2-48.6-28.1 12.9-29.8 20.3-33.1 48.2-.7 6.2 11.9 9.8 13.1 16.1.6 3.1-3 19.4-2 22.5 2.1 6.5 13.2 1.3 16.6 6.8.9 1.5-4.5 11.3 4.7 10 3.3-.5 14.5-14.3 17.7-12.9 6.2 13.2-16.6 17-12.7 20.9 5 5 3.2 11.7 7.9 14.3 4.7 2.6 21.5-6.3 24.4-6.4-4.1 9.3-7 51.1-13.2 58.8 0 0-20.1 21.1-30.1 20.9-3.3-.1-3.6-11.1-5.6-11.8-7.7-2.8-5.7 12.8-9.9 15.7-4.9 3.4-32.9 7-33.2 12-.3 5 25.5 5.4 31.4 4.3 16.4-3.1 45.4-2.6 61.4-9.5 8.9-3.8 16.7-30.4 16.7-30.4-.6 3.3 18.8 29.5 20.6 35-9.6 8.1-31.5 22-31.5 35.5 0 6.1 1 11.3 3 15.7h-35.5v63.7l35 31.9v115.1c5.7 1.4 11.6 2.2 17.7 2.2 21.5 0 40.8-9.1 54.4-23.7 13.5 14.6 32.9 23.7 54.4 23.7 20.9 0 39.8-8.7 53.3-22.6 13.5 13.9 32.4 22.6 53.3 22.6 13.5 0 26.2-3.6 37.1-10 10.9 6.3 23.6 10 37.1 10 20.2 0 38.5-8.1 51.8-21.1 13.4 13.1 31.7 21.1 51.8 21.1 24.6 0 46.4-12 59.9-30.5 13.5 18.5 35.3 30.5 59.9 30.5V393.1l9.3-30.8v-63.7H841.5zm-46.2-17.5c3.1 1.8 9.2 12.9 23.5 17.4h-34.6c5.2-6 9.3-12.2 11.1-17.4z"/><path d="M465.9 276.3c0-8.9-6.1-9.2-14.9-8.5-10.3.8-10.5 8.3-15.3 13.3s-17.4 16.2-24 18.4c-1.1-.2-39.2-20.3-47.8-21.4-8.6-1.1-9-3.6-14.3-10.2.1-.9 1-2 3.1-3.7 2-.6 3.6-1 4.4-1 6.8-.1 9.9 2.1 16 0 8-2.8 10.2-15.6 9.4-20.6-.3-1.7-14.7-9.6-10.2-7.6 2.2 1 11.1 1 12.5-1.7 1.9-3.7-1.3-7.8-1-12.3.3-4 9.9-2.3 9.9-7.4 0-8.2-9.9-13.7-11.1-21.1-.8-5 6.3-11.2 4.8-15.6-7.3-22.2-26.5-37.1-53.8-37.1-40.8 0-55.3 33.5-55.3 74.8 0 3.6-.2 6.7-.4 9.5-1.2 15.9 4.6 28.4 10.8 31.4 1.5.7 9.1 2 15.4 5.3-8.4 19.2-7.1 33.9-6.3 47.6 0 0-8.5 65.5-.6 86.7-19.2 1.5-38.5 2.7-58 3.4-47.5-24.7-95.3-44-142.1-58-.9 1.5-12.3 19-23.9 53.7-4.9-.4-9.7-.9-14.6-1.4-.9-.1-1.7-.2-2.6-.3-4.6-.5-9.3-1-13.9-1.5l-3-.3c-4.6-.5-9.2-1.1-13.8-1.7l-2.7-.3c-4.8-.6-9.5-1.2-14.2-1.9-.5-.1-1-.1-1.5-.2-4.7-.7-9.3-1.3-14-2-.5-.1-1.1-.2-1.6-.2-4.7-.7-9.5-1.5-14.2-2.3-.8-.1-1.7-.3-2.5-.4l-13.8-2.4c-.9-.2-1.7-.3-2.6-.5-4.6-.8-9.3-1.7-13.9-2.6-.6-.1-1.3-.2-1.9-.4-4.9-.9-9.7-1.9-14.6-2.9 2.9 20.7 8.9 40.5 17.6 59.2 1.2 2.7 2.6 5.3 3.9 7.9 4.1 7.9 8.6 15.5 13.7 22.9.8 1.2 1.7 2.5 2.5 3.7 7.8 10.9 16.5 21.3 26.2 31 3.1-2.2 6.1-4.7 8.8-7.4.8.8 1.7 1.6 2.5 2.3.3.3.7.6 1 .8.5.5 1.1.9 1.6 1.4.4.4.9.7 1.3 1 .5.4.9.7 1.4 1.1.5.4 1 .7 1.5 1.1l1.2.9c.6.4 1.2.7 1.7 1.1.4.2.7.5 1.1.7.6.4 1.3.8 1.9 1.1.3.2.7.4 1 .6.7.4 1.4.7 2.1 1.1.3.2.6.3.9.5.8.4 1.5.7 2.3 1.1.3.1.5.2.8.4.8.4 1.6.7 2.5 1 .2.1.5.2.7.3.9.3 1.7.6 2.6.9.2.1.4.1.6.2.9.3 1.9.6 2.8.8.2 0 .3.1.5.1 1 .3 2 .5 2.9.7.1 0 .3.1.4.1 1 .2 2.1.4 3.1.6h.3c1.1.2 2.2.4 3.2.5h.2c1.1.1 2.2.3 3.4.4h.1c1.2.1 2.3.2 3.5.2.8 0 1.7.1 2.5.1 2 0 3.9-.1 5.8-.2.7-.1 1.5-.1 2.2-.2.7-.1 1.5-.2 2.2-.3l2.1-.3c.7-.1 1.4-.2 2.1-.4h.1c.7-.1 1.4-.3 2.1-.4h.1c.7-.2 1.3-.3 2-.5h.1c.7-.2 1.3-.4 2-.5h.1c.6-.2 1.3-.4 1.9-.6.1 0 .1 0 .2-.1.6-.2 1.2-.4 1.9-.6.1 0 .1 0 .2-.1.6-.2 1.2-.4 1.8-.7.1 0 .1-.1.2-.1.6-.2 1.2-.5 1.7-.7.1 0 .2-.1.3-.1.6-.2 1.1-.5 1.7-.7.1 0 .2-.1.3-.1.5-.3 1.1-.5 1.6-.8.1-.1.2-.1.3-.2.5-.3 1-.5 1.6-.8.1-.1.2-.1.3-.2.5-.3 1-.5 1.5-.8.1-.1.3-.1.4-.2.5-.3 1-.6 1.4-.8.1-.1.3-.2.4-.3.5-.3.9-.6 1.4-.9.1-.1.3-.2.4-.3.4-.3.9-.6 1.3-.9.2-.1.3-.2.5-.3l1.2-.9c.2-.1.3-.3.5-.4l1.2-.9c.2-.1.4-.3.5-.4.4-.3.7-.6 1.1-.9.2-.2.4-.3.6-.5.4-.3.7-.6 1-.9.2-.2.4-.3.6-.5.3-.3.7-.6 1-.9l.6-.6.9-.9.6-.6.8-.8c.2-.2.4-.5.7-.7l.8-.8c.2-.3.5-.5.7-.8.2-.3.5-.5.7-.8.3-.3.5-.6.7-.9.2-.2.4-.5.6-.7.3-.3.5-.7.8-1 .2-.2.3-.4.5-.6l1.2-1.5c0-.1.1-.1.1-.2 4.6 6.3 10.3 11.9 16.6 16.5 2.3 1.7 4.7 3.2 7.3 4.6 1.9 1 3.8 2 5.8 2.9.7.3 1.3.6 2 .9 2 .8 4.1 1.6 6.2 2.2l4.2 1.2c1.4.4 2.9.7 4.3.9.7.1 1.5.3 2.2.4 3.7.6 7.5.9 11.3.9 2.1 0 4.2-.1 6.2-.3 4.1-.3 8.1-1 12-2 1.9-.5 3.9-1.1 5.7-1.7.9-.3 1.9-.7 2.8-1 1.8-.7 3.7-1.5 5.4-2.4 4.4-2.1 8.6-4.7 12.5-7.6 12.4 9.4 27.9 15 44.7 15 21.5 0 40.8-9.1 54.4-23.7 13.5 14.6 32.9 23.7 54.4 23.7 18 0 34.4-6.4 47.3-17 34-35.3 56.1-79.1 61.5-127.1-3.9.9-7.7 1.7-11.6 2.6-.9.2-1.9.4-2.8.6-3.9.8-7.8 1.7-11.7 2.5h-.1c-3.9.8-7.8 1.6-11.7 2.3-.9.2-1.8.3-2.6.5-4 .8-8 1.5-12 2.3l-12 2.1c-.8.1-1.6.3-2.4.4-8.1 1.4-16.3 2.7-24.5 3.9-.7.1-1.4.2-2.2.3-4.2.6-8.3 1.2-12.5 1.8 1.8-13.8 1.4-34.1-6.6-62.5-.1-.2 4.2.2 4.1 0 13-.3 43.5 4.9 46.2 3.5 11.4-2.5 34.1-35.8 41-35.8 5.6 0 38.9 1.6 39.5-10.5.9-6.5-30.7-1.8-30.7-5.1zM174.5 399.2c-1.6 0-3.2-.1-4.8-.1-3.8-.1-7.6-.1-11.4-.2-1.5 0-3-.1-4.5-.1-4.3-.1-8.5-.2-12.7-.4-.8 0-1.5-.1-2.3-.1-21.8-.8-43.4-2.2-64.9-4.1C84 364 96 342.1 96.9 340.4c42.2 15.2 84.9 34.8 127.1 58.5-8.4.2-16.7.4-25.2.4h-8.5c-5.2 0-10.5 0-15.8-.1z"/></symbol><symbol id="svg-device-mobile" viewBox="0 0 20 32"><path d="M18 0H2C.897 0 0 .896 0 2v28a2 2 0 0 0 2 2h16a2 2 0 0 0 2-2V2a2 2 0 0 0-2-2zM9 2h2a1.001 1.001 0 0 1 0 2H9a1 1 0 0 1 0-2zm2 28H9a1.001 1.001 0 0 1 0-2h2c.551 0 1 .449 1 1s-.449 1-1 1zm7-4H2V6h16v20z"/></symbol><symbol id="svg-facebook" viewBox="0 0 32 32"><path d="M17.996 32H12V16H8v-5.514l4-.002-.007-3.248c0-4.498 1.22-7.236 6.519-7.236h4.412v5.515h-2.757c-2.064 0-2.163.771-2.163 2.209l-.008 2.76h4.959l-.584 5.514-4.37.002-.004 16z"/></symbol><symbol id="svg-feed" viewBox="0 0 32 32"><path d="M4.259 23.467A4.265 4.265 0 0 0 0 27.719a4.25 4.25 0 0 0 4.259 4.244 4.25 4.25 0 0 0 4.265-4.244 4.265 4.265 0 0 0-4.265-4.252zM.005 10.873v6.133c3.993 0 7.749 1.562 10.577 4.391A14.897 14.897 0 0 1 14.966 32h6.16c0-11.651-9.478-21.127-21.121-21.127zM.012 0v6.136C14.255 6.136 25.848 17.74 25.848 32H32C32 14.36 17.648 0 .012 0z"/></symbol><symbol id="svg-files" viewBox="0 0 24 24"><path d="M5 0v3H2v21h17v-3h3V0H5zm12 22H4V5h1v16h12v1zm3-3H7V2h13v17zM15 5H9v2h6V5zm3 3H9v1h9V8zm0 2H9v1h9v-1zm0 2H9v1h9v-1zm-6 2H9v1h3v-1z"/></symbol><symbol id="svg-filet-table" viewBox="0 0 792 612"><path d="M568.7 77c.1-.1 0 0 0 0zM774.3 350.6h-50.9c5.6-5.3 10.1-12.9 10.1-23 0-.4 26.5 4.5 29.1-7.7 1.9-9-13.7-28.9-22.5-28.9-8.3 0-14.4 10.4-15.3 18.3-7.8 6.5-20.6.4-20.6.4s0-15.4-13.9-19c-8.9-2.3-20.2 12.8-20.7 12.8-.9 0-11.3-16.6-28.6-16.6-10.4 0-24.7 10.3-26.7 20.2 0 0 6.3 8.7 16.1 10.4 4.3.8 8.5-2.8 8-1.8-5.6 9.7-20.3.5-19.6 2.4 1.5 3.8 7.8 12.8 14.6 14.6 4.8 1.3 8.9 3.8 12.4 6.8-1.9 1.8-3 4.1-3 6.9 0 1.4.3 2.8.9 4h-46.2c-2.7-118-10-248.8-28.7-273.6 0 0 16.1 23.8 22.3 191.6 1.1 29 2 56.4 2.7 82h-74.2c13.1-98.8 30.1-192.4 49.2-273.6-28.6 91.8-49.2 175.6-63.4 273.6h-50.1c.2-.2.3-.4.4-.6 1.5-2.9-25.6-20-35.6-17.2-2-4.9-44.1-28-78.2-30-30.6-1.8-56.4 0-59.6 8.5-1.2-.2-2.7 28.7-1.1 39.3H213c-.5-7.4-6.4-40.8-7.2-51.2-1.1-13.3-4-19.7-10.5-28.5-4.4-5.9-5.1 6.4-5.3 15.6-.1 4.5-2 12.8-2 12.8s2.4-23.3-4.4-33c-1.4-2-21.7 16.3-25.6 27.5-7.9 22-13.8 49.2-14.2 56.9H10.5v16.6h44.9v182.7h54.2V367.1H503c-7.3 53.9-12.7 112.2-16.6 178.5l13.6-1.3c4.2-59.7 10.1-119.3 17.5-177.3h76.8c2.9 109.8 2.9 180.9 2.9 180.9s1.5 2.3 1.5 0c.2-16.9.9-93.8-.8-180.9H672v182.7h54.2V367.1h48.1v-16.5zM640 309.8c-2.1 0-3.9-1.8-3.9-3.9 0-2.1 1.8-3.9 3.9-3.9 2.1 0 3.9 1.8 3.9 3.9.1 2.1-1.6 3.9-3.9 3.9zm-471.9-6.4c2.9 0 5.1 2.3 5.1 5.1s-2.3 5.1-5.1 5.1-5.1-2.3-5.1-5.1 2.2-5.1 5.1-5.1zM406 347.3c.5 1.1 1.7 2.2 3.3 3.3h-48.8c19.9-2.8 37.9-5 45.5-3.3z"/></symbol><symbol id="svg-github" viewBox="0 0 32 32"><path d="M16 0C7.163 0 0 7.163 0 16s7.163 16 16 16 16-7.163 16-16S24.837 0 16 0zm9.502 25.502a13.4 13.4 0 0 1-5.51 3.334v-2.398c0-1.26-.432-2.188-1.297-2.781.542-.052 1.039-.125 1.492-.219s.932-.229 1.438-.406.958-.388 1.359-.633.786-.563 1.156-.953.68-.833.93-1.328.448-1.089.594-1.781.219-1.456.219-2.289c0-1.615-.526-2.99-1.578-4.125.479-1.25.427-2.609-.156-4.078l-.391-.047c-.271-.031-.758.083-1.461.344s-1.492.688-2.367 1.281a14.367 14.367 0 0 0-3.859-.516c-1.344 0-2.625.172-3.844.516a13.39 13.39 0 0 0-1.57-.93c-.495-.245-.891-.411-1.188-.5s-.573-.143-.828-.164-.419-.026-.492-.016-.125.021-.156.031c-.583 1.479-.635 2.839-.156 4.078-1.052 1.135-1.578 2.51-1.578 4.125 0 .833.073 1.596.219 2.289s.344 1.286.594 1.781.56.938.93 1.328.755.708 1.156.953.854.456 1.359.633.984.313 1.438.406.95.167 1.492.219c-.854.583-1.281 1.51-1.281 2.781v2.445A13.4 13.4 0 0 1 6.5 25.501a13.4 13.4 0 0 1-3.936-9.502A13.4 13.4 0 0 1 6.5 6.497a13.4 13.4 0 0 1 9.502-3.936 13.4 13.4 0 0 1 9.502 3.936 13.4 13.4 0 0 1 3.936 9.502 13.4 13.4 0 0 1-3.936 9.502z"/></symbol><symbol id="svg-linkedin" viewBox="0 0 32 32"><path d="M26.625 0H5.375C2.419 0 0 2.419 0 5.375v21.25C0 29.581 2.419 32 5.375 32h21.25C29.581 32 32 29.581 32 26.625V5.375C32 2.419 29.581 0 26.625 0zM12 26H8V12h4v14zm-2-16a2 2 0 1 1-.001-3.999A2 2 0 0 1 10 10zm16 16h-4v-8a2 2 0 1 0-4 0v8h-4V12h4v2.483C18.825 13.35 20.086 12 21.5 12c2.485 0 4.5 2.239 4.5 5v9z"/></symbol><symbol id="svg-list" viewBox="0 0 22 22"><path d="M20 12H8a1 1 0 1 1 0-2h12a1 1 0 1 1 0 2zm0-7H8a1 1 0 1 1 0-2h12a1 1 0 1 1 0 2zM3 20a2 2 0 1 1 .001-4.001A2 2 0 0 1 3 20zm0-7a2 2 0 1 1 .001-4.001A2 2 0 0 1 3 13zm0-7a2 2 0 1 1 .001-4.001A2 2 0 0 1 3 6zm5 11h12a1 1 0 1 1 0 2H8a1 1 0 1 1 0-2z"/></symbol><symbol id="svg-mail" viewBox="0 0 24 24"><path d="M20 4H4a1.99 1.99 0 0 0-1.99 2L2 18a2 2 0 0 0 2 2h16a2 2 0 0 0 2-2V6a2 2 0 0 0-2-2zm0 4l-8 5-8-5V6l8 5 8-5v2z"/></symbol><symbol id="svg-me-fish" viewBox="0 267 792 345"><path d="M427.3 458c12.3.5 26.6 7.7 27.2 2.5 8.3-2.5 15.3-4 17.6-10.5 7.8-1.2 16.4-2.6 26-4.2 84.5-13.4 166.7-14.5 240.6-3.3.2.1 16.7 58 29.5 156.2-10.2-96.9-29.8-156.4-29.4-156.4-80.7-17.2-172-18.9-267.8-4.7-3.5-4.5-12.2-2-22.5-2-10.1 0-43.5-4.1-43.6-4.1-7.5-5.6-19.5-33.1-22.8-36.5 1.8-.6 3.2-.9 3.9-.9 6-.1 8.9 1.8 14.2 0 7.2-2.5 9.1-13.9 8.3-18.3-.2-1.5-13-8.5-9.1-6.7 1.9.9 9.8.9 11-1.5 1.7-3.3-1.1-6.9-.9-10.9.2-3.5 8.9-2 8.9-6.6 0-7.3-8.9-12.2-9.9-18.6-.8-4.4 5.6-9.9 4.2-13.9-6.5-19.8-23.5-33-47.7-33-36.2 0-49 29.7-49 66.4 0 3.2-.1 6-.3 8.4-1.1 14.1 4.2 25.2 9.5 27.8 1.4.7 8.1 1.8 13.6 4.7-10.9 25-3.3 41.2-5.9 58.6-1.7 11.1-4.7 17.6-6.6 24.3-.2.1-.5.2-.8.3l.5.5c-.9 3.4-1.6 6.9-1.6 11.2 0 3.6.1 7 .3 10.2-6.5.1-13.1.1-19.5.1-28.3 0-56.4-.8-84.1-2.4 2.4-1.6 8-4.8 9.5-8.3 5.1-11.4-10.1-3-12.4-.8-.8-1.4-4.5-11.4-6.1-11.8-3.5-1.1-3.2 12.7-2.7 12.7-.9.5-1.5 4.2-3.1 7.3-3.1-.1-6.1-.5-9.2-.7-1.8-4.3-5.5-11.4-10.1-18.4v-.1c3.3-10.5-2.6-21.7-13.1-25-5.1-1.6-10.5-1-15 1.2-4.8-1-10.1-2-11.4-2.4-10.8-3.4-26.5 2.2-25.7 13.4.8 10.7 23.4 12.3 23.4 12.3s-31.9-.2-10.7 13c-41.4-4.8-82.2-11.4-122-19.5C18.4 510 36 549.2 62.6 582.8c8.2-4.5 15.2-10.8 20.7-18.3C95 580.5 114 591 135.5 591c14.7 0 28.1-4.8 39-13.1 10.8 8.2 24.3 13.1 39 13.1 18.7 0 35.6-8 47.3-20.7 11.8 12.6 28.6 20.7 47.3 20.7 18.2 0 34.7-7.6 46.4-19.7 11.7 12 28.2 19.7 46.4 19.7 11.7 0 22.8-3.2 32.3-8.6 9.4 5.5 20.6 8.6 32.3 8.6 17.6 0 33.4-7 45.1-18.4 11.7 11.4 27.5 18.4 45.1 18.4 5.3 0 10.5-.7 15.3-1.8 30.8-36.7 50.8-80.3 56.1-127.7-73 16.5-148.7 27.5-226.4 32.5.8-8.9 1.5-19.4 1.7-29.4 7.8-2.4 16-4.6 24.9-6.6zm-279.6 3.2c-.5 1.9-2.4 2.8-4.2 2.3-1.8-.6-2.8-2.5-2.3-4.2.6-1.8 2.5-2.8 4.2-2.3 1.7.5 2.9 2.5 2.3 4.2z"/></symbol><symbol id="svg-menu" viewBox="0 0 32 32"><path d="M2 6h28v6H2zm0 8h28v6H2zm0 8h28v6H2z"/></symbol><symbol id="svg-new-window" viewBox="0 0 24 32"><path d="M20 24H4V8.06L8 8V4H0v24h24V18h-4v6zM12 4l4 4-6 6 4 4 6-6 4 4V4H12z"/></symbol><symbol id="svg-rss" viewBox="0 0 32 32"><path d="M4.259 23.467A4.265 4.265 0 0 0 0 27.719a4.25 4.25 0 0 0 4.259 4.244 4.25 4.25 0 0 0 4.265-4.244 4.265 4.265 0 0 0-4.265-4.252zM.005 10.873v6.133c3.993 0 7.749 1.562 10.577 4.391A14.897 14.897 0 0 1 14.966 32h6.16c0-11.651-9.478-21.127-21.121-21.127zM.012 0v6.136C14.255 6.136 25.848 17.74 25.848 32H32C32 14.36 17.648 0 .012 0z"/></symbol><symbol id="svg-skype" viewBox="0 0 16 16"><path d="M14.885 9.233c.071-.401.115-.812.115-1.234a7 7 0 0 0-7-7 7.07 7.07 0 0 0-1.234.115A3.984 3.984 0 0 0 3.999-.001a4 4 0 0 0-4 4c0 1.074.426 2.048 1.115 2.766a7.052 7.052 0 0 0-.115 1.234 7 7 0 0 0 7 7c.422 0 .832-.043 1.233-.115a3.986 3.986 0 0 0 2.767 1.115 4 4 0 0 0 4-4 3.987 3.987 0 0 0-1.115-2.767zm-3.803 1.569c-.277.377-.685.676-1.214.887-.524.21-1.152.316-1.867.316-.859 0-1.578-.146-2.139-.431a2.767 2.767 0 0 1-.984-.841c-.254-.352-.383-.701-.383-1.04 0-.21.083-.393.249-.543a.891.891 0 0 1 .623-.223c.205 0 .383.059.526.176.138.114.255.28.351.493.106.234.221.431.343.585.117.15.286.276.502.374s.509.149.868.149c.493 0 .899-.101 1.204-.302.297-.195.442-.431.442-.719a.695.695 0 0 0-.23-.546 1.658 1.658 0 0 0-.637-.339 12.352 12.352 0 0 0-1.097-.261 9.21 9.21 0 0 1-1.566-.45c-.428-.176-.774-.42-1.026-.723-.256-.31-.386-.697-.386-1.154 0-.434.136-.827.406-1.164.267-.336.657-.597 1.16-.776.495-.177 1.085-.266 1.753-.266.533 0 1.003.059 1.394.177.394.117.726.277.988.473.262.198.458.409.581.629s.187.442.187.656a.77.77 0 0 1-.245.556.84.84 0 0 1-.614.247c-.221 0-.395-.052-.514-.154a1.89 1.89 0 0 1-.357-.457 1.916 1.916 0 0 0-.537-.639c-.2-.147-.536-.221-.998-.221-.428 0-.777.082-1.035.246-.25.157-.37.338-.37.551 0 .131.039.24.12.335.085.101.205.188.356.261.157.075.319.136.481.179.166.045.444.11.826.195.483.101.928.213 1.321.333a4.4 4.4 0 0 1 1.023.449c.286.179.512.409.674.684.161.277.242.617.242 1.013a2.132 2.132 0 0 1-.419 1.284z"/></symbol><symbol id="svg-stack-overflow" viewBox="0 0 22 28"><path d="M14.5 21.891v2.359l-11.047.016v-2.359zm3.766-5.407v10.953l-.016.547V28L0 27.984v-11.5h1.891v9.656h14.5v-9.656h1.875zm-14.5 1.375l11 1.016-.203 2.344-11.016-1.016zm1.062-4.937L15.5 15.781l-.609 2.281-10.672-2.859zm2.547-5.453l9.516 5.625-1.203 2.031L6.172 9.5zM13 2.297l6.219 9.141-1.937 1.328-6.234-9.125zM20.078 0l1.891 10.891-2.328.406L17.75.406z"/></symbol><symbol id="svg-twitter" viewBox="0 0 32 32"><path d="M32 6.076a13.14 13.14 0 0 1-3.771 1.034 6.592 6.592 0 0 0 2.887-3.632 13.151 13.151 0 0 1-4.169 1.593 6.557 6.557 0 0 0-4.792-2.073 6.565 6.565 0 0 0-6.565 6.565c0 .515.058 1.016.17 1.496a18.64 18.64 0 0 1-13.532-6.86A6.536 6.536 0 0 0 1.339 7.5a6.563 6.563 0 0 0 2.921 5.465 6.54 6.54 0 0 1-2.974-.821l-.001.083a6.568 6.568 0 0 0 5.266 6.437 6.578 6.578 0 0 1-2.965.112 6.571 6.571 0 0 0 6.133 4.559 13.172 13.172 0 0 1-8.154 2.81c-.53 0-1.052-.031-1.566-.092a18.579 18.579 0 0 0 10.064 2.95c12.076 0 18.679-10.004 18.679-18.68 0-.285-.006-.568-.019-.849a13.347 13.347 0 0 0 3.276-3.398z"/></symbol><symbol id="svg-users" viewBox="0 0 24 24"><path d="M15 14.363s-6.182 0-8.5 5.41c0 0 3.871 1.545 8.5 1.545s8.5-1.545 8.5-1.545c-2.318-5.41-8.5-5.41-8.5-5.41zm0-.771c2.318 0 3.863-2.318 3.863-6.183S15 3.545 15 3.545s-3.863 0-3.863 3.864 1.545 6.183 3.863 6.183zm-7.5-2.637c.762 0 1.416-.316 1.935-.885a11.114 11.114 0 0 1-.298-2.661c0-1.485.571-2.396 1.274-2.958C9.645 2.686 7.5 2.682 7.5 2.682s-3.182 0-3.182 3.182 1.273 5.091 3.182 5.091zm3 2.494l-.108-1.258c-1.558-.596-2.892-.6-2.892-.6s-5.091 0-7 4.455c0 0 2.461.981 5.645 1.22 2.773-2.903 4.355-3.817 4.355-3.817z"/></symbol><symbol id="svg-we-fish" viewBox="0 0 960.3 518.4"><path d="M864.7 357.2c-2 .4-4 .9-6 1.3C852.2 137 843.4 14.8 833 14.7c-.2 0-.3.1-.5.1 10.2 3.9 18.8 125.7 25.3 343.9-44 9.8-88.8 17.9-134.3 24.2.9-4.4 1.3-8.8 1.3-13.4 0-13.6-.5-24.3-4.6-33.8 2.9-14 6.4-30.2 10.6-50.1 19.6-92.2 53-185.7 101.7-270.4-55.1 84.5-98.8 188.4-124 304.3-7.8-6.8-26.3-16.2-34.9-19.8 7.3-5.4 23.7-12.3 27.9-20.4 4.4-8.3-3.5-25.5-3.5-35.6 0-33-26.8-65-59.8-65s-59.8 32-59.8 65c0 11-7.4 29-2.3 37.9 5.2 8.8 22.9 16.2 31.7 21.5-12.9 7.1-28.7 17.8-35.7 30.7-5.7 10.7-3.8 22.8-3.8 35.8 0 9.8 1.9 19.2 5.3 27.8-9.9.5-19.8 1-29.7 1.3 0-21.4-12.4-92.9-12.4-115.6 0-24.7-21.5-61.8-30.1-72.3-8.6-10.5-17.6-22.1-16.4-27.5 2.7-12.5 13.2-24.5 12-45-2.5-42.4-37.1-69.4-66.4-70.4-24.5-.8-42.8 13.2-51.9 41-2 6.1 10.1 12.5 10 19.2 0 3.3-7.1 19.2-6.7 22.5.8 7 13.2 4 15.5 10.4.6 1.7-6.9 10.7 2.8 11.2 3.5.2 22.6-9.2 25.6-7.1.8 29.1-22.9 21.2-19.7 26 4 6.1.8 12.6 5.1 16.2 4.3 3.6 23.3-2 26.2-1.5-1.8 2.5-13.9 7.4-17.4 17.5-4.7 13.5-7.2 31-10.8 39.6 0 0-20.8-8.7-32-14.5-8.9-16.5-24.3-17-33.2-16.1-73.5-77.3-181.4-100.9-261.8-56.1-.3-.6-.7-.9-1.1-1h-.5c.4.3.7.7.9 1.4-.3.1-.5.3-.8.4.3.2.6.5.9.8.1 0 .2-.1.3-.1 4.7 18.5-15.9 132.5-56.8 320.5l.8.7C67.4 308.5 88 194 82.7 177.3c77.8-36.9 176.8-13.1 246.3 57.6-1.4 2.4 3.2 7.8 3.2 18.4 0 5 11.4 5.9 20.6 9.3 2.3 3 4.5 6.1 6.6 9.2 33.4 48.5 50.6 89 50.9 126.7-96.3-3.8-190.1-15.3-280.8-33.8 7 50.6 28.2 97.5 60 137.8 9.7-5.5 18.2-12.9 24.8-21.9 14.1 19.2 36.8 31.7 62.4 31.7 17.5 0 33.6-5.8 46.6-15.6 12.9 9.8 29.1 15.6 46.6 15.6 22.4 0 42.5-9.5 56.6-24.7 14.1 15.2 34.2 24.7 56.6 24.7 21.8 0 41.4-9 55.5-23.5 14 14.5 33.7 23.5 55.5 23.5 14.1 0 27.3-3.8 38.6-10.4 11.4 6.6 24.6 10.4 38.6 10.4 21 0 40.1-8.4 54-22 13.9 13.6 33 22 54 22 6.3 0 12.5-.8 18.4-2.2 29.4-35 50.6-75.4 61.1-119 1.1 39.6 2.1 82.1 3.1 127.3h.9c-1-46.6-2.1-90.3-3.2-130.9 2.3-10 4-20.1 5.1-30.3zM387 289.5c9.1 7.7 18.7 14.1 28.4 14.4 7.4.2 17.3-12.2 22.6-17.6 2.2 4.4-10 50.7-17.4 87.1-4.5-26.5-15.8-54.5-33.6-83.9z"/></symbol><symbol id="svg-wordpress-catch" viewBox="0 0 792 612"><path d="M610.8 373.2c-3.2-112.2-7.1-186-11.8-214.4 3.3 27.4 4.8 97.7 10.3 214.6-29.3 4.7-59 8.6-89 11.6.5-19.9 4.4-36.1 12.3-73.6 12-56.4 32.5-113.6 62.2-165.4-34.1 52.3-61.1 116.7-76.4 188.6-5.5 25.9-9 39.3-10.8 51.6-28.6 2.6-57.4 4.4-86.6 5.4-2.9-15.8-7.3-32.9-6.9-43.7.5-11.5 35.6-21.3 35.5-35.6 0-11.9-12.3-22.8-15.9-39.3-3.6-16.5-20.1-20.6-26.3-20.6-6.1 0-6.7-16-6.7-16-1-.1 11.3-17.6 26.3-37.2 14.2-18.6 2.3-62.2-36.4-62.2-10.6 0-26.4 7.6-33.1 19.5-1.8 3.2 2 11.6 0 14.9-3.7 6.3-10.9 12.5-12.4 18-1.1 4.2 5.6 4.9 7.2 6.7 1.6 1.7-1.8 4.5-1.1 7.2 1.5 5.7 9.9 5.1 9.9 5.1s-9.5 7.2-8.6 9.2c1.3 2.9-.5 8.8 1 11.3 2.8 4.8 9.3 5.8 13.2 8.9-1 3.6 1.2 9-1.5 10.3-3.1 1.5-11.1-1.1-12.4 0-3.9-8.7-27-30.1-31.9-36.6 0 0-19.9-44.3-19.1-49.6 1.4-8.8-7.3-30.5-19.2-31.8-12.3-1.4-11.3 8.9-11.2 21.1.1 11.1-.5 15.8 10.2 17-.1 11.5-.7 24.7-1.4 35.9 1-12.9 1.9-25.2 2.3-35.5 6.1 4.8 11.6 46.5 11.6 51.7 0 11.7 10.8 25.2 18 32.4s19.9 23.1 21.5 25.3c1.6 2.2-.9 63.5-.9 71.7 0 4.4-2.6 23.9-4.6 42.3-91-2.4-179.6-12.6-264.9-30.1 6.1 43.9 24.5 84.7 52.1 119.7 8.5-4.7 15.8-11.2 21.5-19 12.2 16.7 31.9 27.6 54.2 27.6 15.2 0 29.2-5.1 40.5-13.6 11.2 8.5 25.2 13.5 40.4 13.5 19.4 0 36.9-8.3 49.2-21.5 12.3 13.2 29.8 21.5 49.2 21.5 18.9 0 36-7.8 48.2-20.4 12.2 12.6 29.3 20.4 48.2 20.4 12.2 0 23.7-3.3 33.6-9 9.9 5.7 21.3 9 33.6 9 18.3 0 34.8-7.3 46.9-19.1 12.1 11.8 28.6 19.1 46.9 19.1 5.5 0 10.9-.7 16-1.9 32-38.1 52.8-83.6 58.3-132.8-29.8 6.9-60.3 12.8-91.2 17.8zm-202.4-69.3c-.3 1.4 14.7 8.9 11.3 8.3-3.3-.6-11.3 11.5-11.3 11.5v-19.8z"/><path d="M274.6 230.6c-.3 1.3.4 2.6 1.4 3.3l-6.1 24v.1c0 .1-.4 2.2-1.6 4.4-5-1.5-10.1-2.2-15.1-2.2l.9-1.5c-3.3-1.7-3.1-6.8-3.1-6.8l.4-6.5-2.5 6c-.1.2-1.9 4.6-.9 9.1-21.1 1.9-40.1 16.3-46.9 37.7-9.1 28.6 6.8 59.2 35.4 68.3 28.6 9.1 59.2-6.8 68.3-35.4 9-28.3-6.5-58.5-34.5-68 1.2-2.2 1.6-4.3 1.7-4.6l6.1-23.9c1.2-.1 2.6-1 2.9-2.2.4-1.6-.6-3.3-2.4-3.8s-3.6.4-4 2zm-11.2 36.2c-1.7.6-3.6.6-5.7 0-1.1-.3-2.1-.7-3-1.1 2.9.1 5.8.5 8.7 1.1zm-13.4-9.7c.5 1.2 1.4 2.3 2.7 3-.8 0-1.6 0-2.4.1-.3-1.1-.4-2.1-.3-3.1zm-43.6 42.7c2.1-6.8 5.6-12.7 10.1-17.7l2.9 68c-13.2-12.5-18.9-31.9-13-50.3zm31.8 61.4c-4.6-1.5-8.8-3.5-12.6-6.1l26.9-36.2 1.9 43.8c0 .3.1.5.1.7-5.4.2-10.9-.5-16.3-2.2zm62.8-56c1.5 7.8 1.2 16.1-1.4 24.2-5.5 17.2-19.5 29.3-36 32.9l27.3-36.6c4.8-5.8 7.3-10.8 8.8-15.6.6-1.8 1-3.4 1.3-4.9zm-5.7-15.1c-.2-.1-.4-.2-.6-.2-4.6-1.5-9.1 1.5-10.5 5.8-1.2 3.8 0 7.8 1.1 12.4.8 3.7 1.6 8.3-.2 14.1-1.3 4-4.3 8.1-8.3 13.9l-9.6 14.1-.9-55.5c2.9.7 5.5 1.2 5.5 1.2 2.6.5 3.5-3.3.9-3.9 0 0-7.7-1.8-12.6-3.3-4.6-1.5-12.1-4.5-12.1-4.5-2.5-.9-4 2.8-1.5 3.7 0 0 2.3 1 4.7 2l1 22.2-19.9 27.4-1-55.9c2.9.7 5.5 1.2 5.5 1.2 2.6.5 3.5-3.3.9-3.9 0 0-7.7-1.8-12.6-3.3-.9-.3-1.9-.6-3-1 8.1-6.6 18.3-10.5 29-10.9 1.5 1.4 3.5 2.4 6 3.1 3.4.9 6.3.6 8.8-.9.2-.1.4-.2.5-.4.4.1.8.2 1.3.4 12.1 3.8 21.7 12 27.6 22.2zm-16.4-58.4c-.1.6-.7.9-1.3.7-.6-.2-.9-.7-.8-1.3.2-.5.8-.8 1.3-.7.6.2.9.7.8 1.3zM280.4 204.2c-.6 8-1.2 16.3-1.8 24.3 0 0 .9-10.6 1.8-24.3zM595.1 145.6c-.1 0-.2 0-.3.1 1.5.5 2.9 5 4.2 13.1-1.1-8.9-2.3-13.3-3.9-13.2z"/></symbol><symbol id="svg-wordpress" viewBox="0 0 28 28"><path d="M1.984 14q0-2.547 1.047-4.891l5.734 15.703q-3.063-1.484-4.922-4.391t-1.859-6.422zm20.125-.609q0 .297-.039.602t-.156.773-.18.688-.273.922-.273.906l-1.188 4-4.344-12.906q.719-.047 1.375-.125.297-.031.406-.289t-.039-.484-.445-.211l-3.203.156q-1.172-.016-3.156-.156-.187-.016-.32.078t-.18.234-.023.289.141.258.305.125l1.25.125 1.875 5.125-2.625 7.875-4.375-13q.719-.047 1.375-.125.297-.031.406-.289t-.039-.484-.445-.211l-3.203.156q-.109 0-.359-.008t-.406-.008q1.641-2.5 4.289-3.961t5.742-1.461q2.297 0 4.383.828t3.727 2.328h-.156q-.859 0-1.437.633t-.578 1.492q0 .187.031.375t.063.336.125.359.141.328.187.352.195.328.227.375.219.359q.984 1.672.984 3.313zm-7.906 1.656l3.703 10.109q.016.094.078.172-1.969.688-3.984.688-1.75 0-3.391-.5zm10.328-6.813q1.484 2.719 1.484 5.766 0 3.266-1.625 6.023t-4.359 4.352l3.672-10.594q.922-2.641.922-4.312 0-.656-.094-1.234zM14 0q2.844 0 5.437 1.109t4.469 2.984 2.984 4.469 1.109 5.437-1.109 5.437-2.984 4.469-4.469 2.984T14 27.998t-5.437-1.109-4.469-2.984-2.984-4.469-1.109-5.437T1.11 8.562t2.984-4.469 4.469-2.984T14 0zm0 27.359q2.703 0 5.18-1.062t4.266-2.852 2.852-4.266 1.062-5.18-1.062-5.18-2.852-4.266-4.266-2.852T14 .639 8.82 1.701 4.554 4.553 1.702 8.819.64 13.999t1.062 5.18 2.852 4.266 4.266 2.852T14 27.359z"/></symbol><symbol id="svg-you-fish" viewBox="0 0 960.3 518.4"><path d="M716.8 373.1c-4.9-22.2-21-59.8-23.8-69.4-3.3-11.3-.2-76-7.6-88.1-7.4-12.1-6.7-6.6-4.3-13.7 4-11.6 11.7-18.7 12.9-38.3 2.4-40.3-28.9-68.4-56.6-65.3-30.4 3.4-35.4 5.4-47.1 30.7-2.6 5.6 8.1 12.9 7.3 19.3-.4 3.1-8.8 17.3-8.8 20.6 0 6.8 12 5.3 13.5 11.5.4 1.7-7.8 9.3 1.3 10.9 3.3.6 17.6-5.4 20.2-3.1 1.3 5.4-20.4 7.3-18 12.2 3.1 6.2-.7 12 3 15.9s22.2.8 25 1.5c-6.8 7.5-22.8 45.9-30.7 51.3-1.5-4.4-8.3-6.4-13.3-10.5-25-89.2-58.9-171.3-99.5-243.6.4-.3-23.7 26.5-13.2 225.3-16.5 2.9-24.6 18.4-35.9 22.2-1-.1-21.9-1.7-29.7-1.7-2.7 0-29.5-21-36.1-27.6 2.2-.6 3.8-1.1 4.6-1.1 7.2-.1 10.6 2.2 17 0 8.5-3 10.9-16.6 10-21.9-.3-1.8-18.2-4.1-10.9-8.1 2.3 1.1 11.8 1.1 13.3-1.8 2.1-4-1.4-8.3-1.1-13 .3-4.3 10.5-2.5 10.5-7.9 0-8.7-10.6-14.6-11.9-22.4-.9-5.3 6.7-11.9 5.1-16.6-7.8-23.6-28.2-39.5-57.2-39.5-43.4 0-58.8 35.6-58.8 79.6 0 3.8-.2 7.1-.4 10.1-1.3 16.9 4.9 30.2 11.5 33.4 1.6.8 9.7 2.2 16.4 5.6-13.1 29.9-4 49.5-7.1 70.4-3.1 20.8-10.1 27.9-10.1 43.7 0 17 1.1 29.2 12.6 39.9-.4.5-.7 1.3-1 2.2-70.3-5.7-139.2-15.6-206.3-29.4 7.1 50.7 28.3 107.5 60.1 147.9 9.8-5.5 18.3-13 24.8-22 14.1 19.3 36.9 31.8 62.6 31.8 17.5 0 33.7-5.8 46.7-15.7 13 9.8 29.2 15.7 46.7 15.7 22.4 0 42.6-9.5 56.8-24.8 14.1 15.2 34.3 24.8 56.8 24.8 21.8 0 41.5-9 55.6-23.6 14.1 14.5 33.8 23.6 55.6 23.6 14.1 0 27.3-3.8 38.7-10.4 11.4 6.6 24.6 10.4 38.7 10.4 15.9 0 30.7-4.8 43-13 .6 0 1.1.1 1.7.1 5.3 0 10.4-1.5 15.1-4.1 13.3 10.7 30.1 17.1 48.5 17.1 6.4 0 12.5-.8 18.4-2.2 37-44 61-106.2 67.3-163-43.2 9.4-87.2 17.6-131.9 24.1zm-99-73c.3 14 3.5 60.6 3.5 77 0 2.4-.5 4.9-1.2 7.2-.7.1-1.3.1-2 .2-4.8-27.8-10.5-55.1-16.9-81.8 9 4.5 11.4-3 16.6-2.6zm-155.1 91.3c-21.9 0-43.8-.4-65.5-1.2-.8-5.3-1.9-10.7-1.9-14.5 0-2.9 5.8-50 3.8-77.6-.1-.2-.1-.4-.2-.6 11.7-.3 39.2 4.4 41.6 3.1 10.3-2.2 30.7-32.3 37-32.3h.2c1 36.2 2.3 77 3.9 123-6.3 0-12.6.1-18.9.1zm19.4-.1c-.9-38-1.8-81.7-2.7-123.5 4.4-1.6 9-6.7 9.4-15.6.3-5.8 16.7-4.9 16.7-7.8 0-8-18.7-5.1-26.7-4.5-1-54-3.5-107.5-2-132.4 4.6-78.1 11.8-89.6 13.4-92.5 33.1 67.8 59.4 142.8 79.8 223.1-7.8 2.8-11.9 10.9-11.9 20.4 0 11.9 6.5 21.5 18.4 21.5 1.6 2 3.2 3.9 4.6 5.6 5.9 27.5 10.9 55.6 15 84.2.9 6 1.7 11.4 2.5 16.3-38.4 3-77.3 4.7-116.5 5.2z"/></symbol></svg>