<?xml version="1.0" encoding="utf-8"?>
<!-- Generated by IcoMoon.io -->
<!DOCTYPE svg PUBLIC "-//W3C//DTD SVG 1.1//EN" "http://www.w3.org/Graphics/SVG/1.1/DTD/svg11.dtd">
<svg version="1.1" xmlns="http://www.w3.org/2000/svg" xmlns:xlink="http://www.w3.org/1999/xlink" width="20" height="32" viewBox="0 0 20 32">
<path d="M18 0h-16c-1.103 0-2 0.896-2 2v28c0 1.105 0.896 2 2 2h16c1.105 0 2-0.895 2-2v-28c0-1.103-0.895-2-2-2zM9 2h2c0.551 0 1 0.448 1 1s-0.449 1-1 1h-2c-0.552 0-1-0.448-1-1s0.448-1 1-1zM11 30h-2c-0.552 0-1-0.449-1-1s0.448-1 1-1h2c0.551 0 1 0.449 1 1s-0.449 1-1 1zM18 26h-16v-20h16v20z" fill="#444444"></path>
</svg>
