<?xml version="1.0" encoding="utf-8"?>
<!-- Generated by IcoMoon.io -->
<!DOCTYPE svg PUBLIC "-//W3C//DTD SVG 1.1//EN" "http://www.w3.org/Graphics/SVG/1.1/DTD/svg11.dtd">
<svg version="1.1" xmlns="http://www.w3.org/2000/svg" xmlns:xlink="http://www.w3.org/1999/xlink" width="22" height="22" viewBox="0 0 22 22">
<path d="M20 12h-12c-0.553 0-1-0.447-1-1s0.447-1 1-1h12c0.553 0 1 0.447 1 1s-0.447 1-1 1zM20 5h-12c-0.553 0-1-0.447-1-1s0.447-1 1-1h12c0.553 0 1 0.447 1 1s-0.447 1-1 1zM3 20c-1.104 0-2-0.896-2-2s0.896-2 2-2 2 0.896 2 2-0.896 2-2 2zM3 13c-1.104 0-2-0.896-2-2s0.896-2 2-2 2 0.896 2 2-0.896 2-2 2zM3 6c-1.104 0-2-0.896-2-2s0.896-2 2-2 2 0.896 2 2-0.896 2-2 2zM8 17h12c0.553 0 1 0.447 1 1s-0.447 1-1 1h-12c-0.553 0-1-0.447-1-1s0.447-1 1-1z" fill="#444444"></path>
</svg>
