<?xml version="1.0" encoding="utf-8"?>
<!-- Generator: Adobe Illustrator 18.0.0, SVG Export Plug-In . SVG Version: 6.00 Build 0)  -->
<!DOCTYPE svg PUBLIC "-//W3C//DTD SVG 1.1//EN" "http://www.w3.org/Graphics/SVG/1.1/DTD/svg11.dtd">
<svg version="1.1" id="Layer_1" xmlns="http://www.w3.org/2000/svg" xmlns:xlink="http://www.w3.org/1999/xlink" x="0px" y="0px"
	 viewBox="0 267 792 345" enable-background="new 0 267 792 345" xml:space="preserve">
<g id="bkgd" display="none">
	<rect x="229.4" y="705.8" display="inline" fill="#2580AA" width="698.3" height="416.6"/>
</g>
<g id="Layer_11" display="none">
	<g id="ZdVMCK_1_" display="inline">
	</g>
	<g id="OSBCFu_1_" display="inline">
	</g>
	<g id="mbKGOr_1_" display="inline">
	</g>
	<g id="mGmEBY_1_" display="inline">
	</g>
	<g id="_x37_yX0mE_1_" display="inline">
	</g>
</g>
<g id="images" display="none">
	<g id="hgqPPR_1_" display="inline">
	</g>
	<g id="R2Yxqx_1_" display="inline">
	</g>
	<g id="vyAUYj_1_" display="inline">
	</g>
	<g id="n8oLnq_1_" display="inline">
	</g>
	<g id="oQ07uo_1_" display="inline">
	</g>
	<g id="f5Mqt6_1_" display="inline">
	</g>
	<g id="ZazR74_1_" display="inline">
	</g>
	<g id="_x38_oYl0z_1_" display="inline">
	</g>
</g>
<g id="separate_all" display="none">
	<path display="inline" fill="#2580AA" d="M723.8,717c3,0,4.2,0.9,6.7,0c3.4-1.2,4.3-6.7,4-8.7c-0.1-0.8-6.1-4.1-4.3-3.2
		c0.9,0.5,4.7,0.5,5.2-0.8c0.8-1.6-0.6-3.3-0.5-5.2c0.1-1.7,4.2-1,4.2-3.2c0-3.5-4.2-5.8-4.8-8.9c-0.3-2.2,2.6-4.8,2-6.7
		c-3.1-9.4-11.2-15.8-22.8-15.8c-17.4,0-23.5,14.2-23.5,31.8c0,1.5-0.1,2.8-0.2,4c-0.6,6.7,1.9,12,4.5,13.3c0.8,0.3,6,1.2,8.7,3.6
		C709.4,722.8,721.9,717,723.8,717z"/>
	<path display="inline" fill="#2580AA" d="M702.3,715.8c-5.7,4.5-10.9,9.4-10.9,17.4c0,4.4,3,19.8-1,27.4
		c-7.3,13.6,12.2,28.4,27.3,28.4s23.3-6.4,23.3-22.2c0-8.1-4.5-20.6-4.3-26.8c0.2-1.4,0.2-2.6,0.2-4c0-6.2-12.3-15.1-15.9-19.4
		L702.3,715.8z"/>
	<path display="inline" fill="#2580AA" d="M557.9,925.7c-3.2-33.9-1.8-37.3,6.1-75.2c7.6-35.6,20.5-71.7,39.3-104.4
		c-21.5,33-38.5,73.6-48.2,119c-7.3,34-8.9,33.7-7,64.8"/>
	<path display="inline" fill="#2580AA" stroke="#FFFFFF" stroke-miterlimit="10" d="M614.5,960.5"/>
	<path display="inline" fill="#2580AA" stroke="#FFFFFF" stroke-miterlimit="10" d="M614.5,871.3"/>
	<path display="inline" fill="#2580AA" d="M288.8,616.2c2.4-0.2,3.6-0.7,3.6-1c0-1.2-13.9-2.2-31.1-2.2s-31.1,0.9-31.1,2.2
		c0,0.5,1.8,0.8,5.2,1.2c-8.1,5.1-13.1,12.5-13.1,20.6c0,15.3,18,27.8,39.9,27.8s39.9-12.5,39.9-27.8
		C302.3,628.5,297.1,621.2,288.8,616.2z"/>
	<g display="inline">
		<path fill="#2580AA" d="M615.8,980.5c-2.6-146.8-6.8-234.7-12.3-234.7c-0.1,0-0.1,0-0.2,0.1c5.9,2.3,10.5,111.9,13,289.9"/>
	</g>
	<path display="inline" fill="#2580AA" d="M-1.5,1080.2c-0.1-6.1-0.8-10.3-7-10.3c-0.1,0,0.6-2.4,0.5-2.4c0.7-0.8-2-7-4.4-7
		c-1.4,0-0.8,3.5-1.5,4.5c-1.2-1-3.2-4.5-4.9-4.5c-3.9,0-4.8,12,0.8,15c0.2,0.1-0.8,5.1-0.8,6.7c0,3.4,4.5-1.8,4.5-0.8
		c0,4.3,14.5,9.7,14.5,9.7s-4.5-5.6-4-5.6c3.5,0,8.9,1.2,8.9,1.2S1.3,1080.9-1.5,1080.2z"/>
	<path display="inline" fill="#2580AA" d="M446.4,621c-0.2-0.8-0.6-5.6-1.2-6.1c-1.4-0.9-3,5.2-3,5.3c-0.8,0.2-3,6.1-6.1,3
		c0.1-1.5-0.8-6.1-2.2-11l0,0c2.8-4.2,1.7-9.9-2.6-12.7c-2-1.4-4.5-1.8-6.8-1.4c-2-1.1-4.2-2.2-4.7-2.5c-4.3-3-12-2.4-13.1,2.6
		c-1,4.9,8.9,8.4,8.9,8.4s-14.4-4.3-6.1,4.7l0,0c0,0.2,0.1,0.5,0.2,0.8c-1.2,0.2-2.4,1-2.7,1.6c-0.6,1.1,0.3,4.5,1.9,6.2
		c1.1,1.4,2.4-1.5,3.1-3.5c3.2,5.1,8.3,12,10.5,13.5c2.5,1.7,10.1,9.4,23.5-4.3c0.2-0.2,4.4-1,5.8-2.6
		C455.6,618.5,447.7,620.2,446.4,621z M416.3,601.2c-0.8-0.5-0.9-1.5-0.5-2.2c0.5-0.7,1.5-0.9,2.2-0.5c0.7,0.5,0.9,1.5,0.5,2.2
		C418,601.3,416.9,601.5,416.3,601.2z"/>
	<path display="inline" fill="#2580AA" d="M480.1,616.5c4.8,0.8,6.7-4.5,5.1-6.4c-1.6-1.8-6.5,1.1-7.6,0.5
		c-3.9-2.2-8.7-7.2-11.9-2.3c-1.1,1.7-2.4,3.1-2.5,4.9c-1.5-1.4-4.2-2.4-5.6-1.5c-3.9,3,2,7.7,3.3,9c1.7,1.7,1.1,3-0.2,4
		c-1.8,1.4,2.2,1.4,4.1,0.6c-0.5,1.7-1.9,3.2-2.8,4c-0.3,0.3-0.7,0.8-0.8,1.4c-1-1.1-5.6-0.2-6.7,0.8s0.2,3,2.4,3.1
		c1.1,0.1,1.7-0.6,3,0.8c-0.2,0.7,0.8,2.6,1.4,3.2c0.8,0.8,1.7,0.2,2.5-0.6c0.6-0.6,0.7-3.9,0.5-4.5c1-0.5,1.1-0.8,1.8-1.4
		c0.2-0.2-0.8,1.8-0.2,2.4c0.9,1,4.9,4.9,5.2,3.5c0.3-1.4,1.4-4,0.7-5.1c0.6,0,1.9,1.1,2.3,1.5c0.8,0.9,1.8,1.4,2.7,0.6
		c0.8-0.8-0.5-5.6,0.2-5.5c2.5-1.9,4.9-4.1,4.4-6.5c1.2,0.3,3.6,0.5,4.5-0.5c2.7-2.8,1.1-5.6-1.2-4.9
		C482.2,618.2,479.5,616.5,480.1,616.5z M474.1,612.8c-0.5,0.3-1.4,0.1-2.2-0.7c-0.8-0.8-0.9-1.8-0.5-2.2c0.5-0.3,1.4-0.1,2.2,0.7
		C474.4,611.2,474.7,612.2,474.1,612.8z"/>
	<path display="inline" fill="#2580AA" d="M480.9,893.5c-46.6,0-91.8-4.7-135.1-13.6c8.4,60.2,68.6,107,141.7,107
		c74.2,0,135.2-48.3,142-109.9C582.2,887.8,532.3,893.5,480.9,893.5z"/>
	<path display="inline" fill="#2580AA" d="M212.1,900.2c6.9-43.1,5.6-47.6-1.6-96.8c-7.3-50.5-21.8-96.9-41.5-136.9
		c24.8,44.1,43.1,97.6,51.6,156.4c6.4,44.2,8.5,44,3.5,83.4"/>
	<g display="inline">
		<path fill="#2580AA" d="M168.1,866.2c-5.6-124.3-5.7-199,1.2-199.5c0.1,0,0.2,0,0.2,0c-7.5,2.5-6.5,95.6,1.4,246.2"/>
	</g>
	<path display="inline" fill="#2580AA" d="M202.5,831.5c-2.7-4.4,2.2-7,2.2-12.6c0-7.3,8.9-27.8,10.2-32.4
		c1.4-4.5,0.1-30.8,3.1-35.8s2.7-2.7,1.8-5.6c-1.6-4.7-4.8-7.6-5.2-15.6c-0.9-16.4,11.7-27.8,23-26.5c12.4,1.4,14.3,2.3,19.1,12.5
		c1,2.3-3.3,5.2-3,7.8c0.2,1.4,3.5,7,3.5,8.3c0,2.7-4.9,2.2-5.6,4.7c-0.2,0.7,3.2,3.7-0.6,4.4c-1.4,0.2-7.2-2.2-8.3-1.2
		c-0.6,2.2,8.3,3,7.3,5c-1.4,2.5,0.2,4.9-1.2,6.5c-1.5,1.6-9,0.2-10.1,0.7c2.7,3,9.3,18.6,12.5,20.8c0.8-2.2,4.8-3,6.7-5.6
		c1.8-2.7,1.5-7.4,3.6-7.4c4.9,0,7.5,4,7.5,8.7c0,4.9-2.6,8.7-7.5,8.7c-12.5,15.6-13.1,7.8-16.4,8.2c-0.1,5.7-1.4,24.7-1.4,31.2
		c0,7.3,10,14,5.6,19c3.4,2.5,5.6,6.6,5.6,11.1c0,7.7-6.2,14-14,14c-5.9,0-10.9-3.6-13.1-8.9c-2.4,6.5-8.7,11-16,11
		c-9.4,0-17.2-7.7-17.2-17.2C195.1,839.7,198.1,834.5,202.5,831.5z"/>
	<path display="inline" fill="#2580AA" d="M725,889.2c-4.7,0-20.1-1.8-20.1-1.8c-3.5-2.5-9-15.2-10.6-16.8c0.8-0.2,1.5-0.3,1.8-0.5
		c2.8,0,4,0.8,6.6,0c3.3-1.1,4.2-6.4,3.9-8.4c-0.1-0.8-6-4-4.2-3.1c0.9,0.3,4.5,0.3,5.1-0.7c0.8-1.5-0.6-3.2-0.3-5.1
		c0.1-1.7,4-0.9,4-3c0-3.4-4-5.6-4.5-8.6c-0.3-2,2.5-4.5,1.9-6.4c-3-9.1-10.9-15.2-22-15.2c-16.7,0-22.7,13.6-22.7,30.7
		c0,1.5-0.1,2.7-0.2,3.9c-0.5,6.5,1.8,11.6,4.4,12.8c0.7,0.2,3.7,0.8,6.2,2.2c-5.1,11.5-1.6,19-2.7,27c-1.2,8.1-4,10.8-4,16.8
		c0,6.6,0.3,11.2,4.9,15.3c-1.2,1.7-1.4,9.9-0.2,11.5c-1.4,1.2-1.9,7.4-1.4,8.3c-1.7,2.3-2.7,3-2.7,6.5s3,6.5,6.5,6.5
		c0.7,0,2,0.2,2.5,0.2c0.5,1.9,2.3,2.2,4.3,2.2c2.5,0,5.7-0.8,5.7-3.3c0-2.4-3.2-4.5-5.7-4.5c0,0,0,0-0.1,0c0-1.8-0.9-3.5-2.3-4.5
		c2.4-1,4.2-6.7,4.1-7c3.3-0.9,5.9-3.5,6.9-6.7c0.8,0.6,0.2,4.5,0.2,6.7c0,2.8,1.6,5.3,3.9,6.7c-1.9,1.4-3.2,3.6-3.2,6.1
		c0,4.2,3.4,7.6,7.6,7.6c2.2,0,4.1-0.9,5.6-2.4c0.8,0.8,8.3-1.1,8.3-4c0-2.8-6.5-5-7-4.7c-0.7-1.4-1.8-2.4-3.1-3.2
		c1.9-1.4,3.2-3.6,3.2-6.1c0-3-1.7-5.5-4.1-6.7c2.5-1.8,0.2-8.4,0.2-11.7c0-0.9,1.6-14.1,1.6-24.5c3.4-0.7,7-1.1,10.5-1.4
		c5.9-0.2,13.4,3.7,13.6,1.1c4.7-1.4,8.4-2,8.4-7.3C736.3,887,731.5,889.2,725,889.2z"/>
	<path display="inline" fill="#2580AA" d="M535.7,728c4.5-0.1,15.1,1.7,16,1.2c4-0.8,11.8-12.5,14.2-12.5c1.9,0,4.5-1.9,4.8-6.1
		c0.1-2.3,6.4-1.8,6.4-3c0-3.1-7.3-1.9-10.3-1.7c-7.2,0.6-10.5,7.2-15,8.7c-0.3-0.1-8.4-0.7-11.5-0.7c-0.3,0-2.3-1.2-4.5-3"/>
	<g id="gHb3f0_1_" display="inline">
	</g>
	<path display="inline" fill="#2580AA" d="M542,855.8c2.8-2,9.2-4.8,10.8-7.8c1.7-3.2-1.4-9.9-1.4-13.7c0-12.7-10.3-25.1-23.1-25.1
		c-12.7,0-23.1,12.4-23.1,25.1c0,4.2-3,11.2-0.8,14.7c1.9,3.4,8.9,6.2,12.3,8.3c-5,2.7-11,6.8-13.7,11.9c-2.3,4.1-1.5,8.9-1.5,13.7
		c0,16.1,13.1,29.2,29.2,29.2c16.1,0,31.1-13.1,31.1-29.2c0-8.1-0.5-13.6-5.8-18.9C553.4,861.3,545.6,857.2,542,855.8z"/>
	<path display="inline" fill="#2580AA" d="M423.9,840.7c-28.1-38.5-76.1-52-110.7-32.3c0.1,0.1,0.2,0.2,0.3,0.2
		c34.8-16.8,80.9-1.8,107.3,36.4c24.9,36.1,24.1,81,0.5,108.3c0.2,0.5,0.3,0.8,0.6,1.4C450,927.5,451.5,878.7,423.9,840.7z"/>
	<g display="inline">
		<path fill="#2580AA" d="M268.2,1038.3c33.1-143.1,50.3-229.3,45.1-230.7c-0.1,0-0.1,0-0.2,0c5.2,3.6-17,111-57.8,284.4"/>
	</g>
	<path display="inline" fill="#2580AA" d="M475.6,821.5c-3.4-4-6.7-8.5-6.4-10.6c1-4.9,5.1-9.4,4.7-17.4
		c-0.9-16.4-14.3-26.8-25.6-27.2c-9.4-0.2-16.5,5.1-20,15.8c-0.8,2.4,3.9,4.8,3.9,7.4c0,1.4-2.7,7.4-2.5,8.7c0.2,2.7,5.1,1.6,6,4
		c0.2,0.7-2.7,4.1,1,4.3c1.4,0.1,8.7-3.5,9.9-2.7c0.2,11.2-8.9,8.2-7.6,10c1.6,2.4,0.2,4.9,1.9,6.2c1.7,1.4,9-0.8,10.1-0.6
		c-0.7,0.9-5.3,2.8-6.7,6.7c-1.8,5.2-2.8,12-4.2,15.2c0,0-8-3.4-12.4-5.6c-4.7-8.7-14.2-5.9-15.3-5.9c-6.1,0-2,1.6-2,7.7
		c0,2.3,6,2.4,9.5,4.3c6.5,3.6,14.3,15,22.5,15.2c2.8,0.1,6.7-4.7,8.7-6.7c1.2,2.4-8.7,37.2-8.7,47.8c0,14.5,4,11.4,18.5,11.4
		s31.1-1.2,31.1-15.8c0-8.2-4.8-35.9-4.8-44.7C487.2,839.8,479,825.5,475.6,821.5z"/>
</g>
<g id="blue_boat">
</g>
<g id="dock">
</g>
<g id="fish" display="none">
	<path display="inline" fill="#F5F8FA" d="M362.2,885.2c-0.2-0.8-0.6-5.6-1.2-6.1c-1.4-0.9-3,5.2-3,5.3c-0.8,0.2-3,6.1-6.1,3
		c0.1-1.5-0.8-6.1-2.2-11l0,0c2.8-4.2,1.7-9.9-2.6-12.7c-2-1.4-4.5-1.8-6.8-1.4c-2-1.1-4.2-2.2-4.7-2.5c-4.3-3-12-2.4-13.1,2.6
		c-1,4.9,8.9,8.4,8.9,8.4s-14.4-4.3-6.1,4.7l0,0c0,0.2,0.1,0.5,0.2,0.8c-1.2,0.2-2.4,1-2.7,1.6c-0.6,1.1,0.3,4.5,1.9,6.2
		c1.1,1.4,2.4-1.5,3.1-3.5c3.2,5.1,8.3,12,10.5,13.5c2.5,1.7,10.1,9.4,23.5-4.3c0.2-0.2,4.4-1,5.8-2.6
		C371.4,883,363.4,884.5,362.2,885.2z M331.9,865.5c-0.8-0.5-0.9-1.5-0.5-2.2c0.5-0.7,1.5-0.9,2.2-0.5s0.9,1.5,0.5,2.2
		C333.6,865.8,332.7,866.2,331.9,865.5z"/>
</g>
<g id="white_person-joined" display="none">
	<path display="inline" fill="#FFFFFF" d="M476.4,878.2c5.9-0.2,13.4,3.7,13.6,1.1c4-1.2,7.2-1.8,8.2-5.1c3.2-0.5,6.6-1,10.5-1.7
		c39.2-6.2,77.2-6.2,111.4-1c5.8,4.5,12.2,51,18.1,124.4l-1.7-23.9c-5.6-63.4-11.6-101.1-17-101c-0.1,0-0.1,0-0.2,0
		c0.2,0,0.6,0.2,0.8,0.3c-36.8-7.7-78.7-9.3-122.4-3c-1.7-1.9-5.6-0.8-10.3-0.8c-3,0-10.7-0.8-15.7-1.4c0-0.3,0-0.8,0-1.1
		c0-5.7-10.1-13.5-14.7-18.1c0.8-0.2,1.5-0.5,1.8-0.5c3,0,4.2,0.9,6.7,0c3.4-1.2,4.3-6.7,4-8.7c-0.1-0.8-6.1-4.1-4.3-3.3
		c0.9,0.5,4.7,0.5,5.2-0.8c0.8-1.6-0.6-3.3-0.5-5.2c0.1-1.7,4.2-1,4.2-3.2c0-3.5-4.2-5.8-4.8-8.9c-0.3-2.2,2.6-4.8,2-6.7
		c-3.1-9.4-11.2-15.8-22.8-15.8c-17.4,0-23.5,14.2-23.5,31.8c0,1.5-0.1,2.8-0.2,4c-0.6,6.7,1.9,12,4.5,13.3c0.7,0.2,3.9,0.8,6.6,2.3
		c-5.3,4.3-9.9,9.1-9.9,16.7c0,4.4,3,19.8-1,27.4c-0.8,1.5-1.2,3-1.5,4.5c-1.1,0-2.4,0-3.5,0c-9.8,0-19.5-0.2-29.1-0.7
		c0-0.2,0.1-0.2,0.2-0.2c2.5-1.9,4.9-4.1,4.4-6.5c1.2,0.3,3.6,0.5,4.5-0.5c2.7-2.8,1.1-5.6-1.2-4.9c-2.4,0.8-5.3-0.8-4.8-0.8
		c4.8,0.8,6.7-4.5,5.1-6.4c-1.6-1.8-6.5,1.1-7.6,0.5c-3.9-2.2-8.7-7.2-11.9-2.3c-1.1,1.7-2.4,3.1-2.5,4.9c-1.5-1.4-4.2-2.4-5.6-1.5
		c-3.9,3,2,7.7,3.3,9c1.7,1.7,1.1,3-0.2,4c-1.8,1.4,2.2,1.4,4.1,0.6c-0.3,1.4-1.4,2.4-2.2,3.3c-5.8-0.3-11.5-0.8-17.3-1.4
		c0.7-0.6,1.4-1.2,1.9-1.9c0.2-0.2,4.4-1,5.8-2.6c3.7-4.3-4.1-2.6-5.3-1.9c-0.2-0.8-0.6-5.6-1.2-6.1c-1.4-0.9-3,5.2-3,5.3
		c-0.8,0.2-3,6.1-6.1,3c0.1-1.5-0.8-6.1-2.2-11l0,0c2.8-4.2,1.7-9.9-2.6-12.7c-2-1.4-4.5-1.8-6.8-1.4c-2-1.1-4.2-2.2-4.7-2.5
		c-4.3-3-12-2.4-13.1,2.6c-1,4.9,8.9,8.4,8.9,8.4s-14.4-4.3-6.1,4.7l0,0c0,0.2,0.1,0.5,0.2,0.8c-1.2,0.2-2.4,1-2.7,1.6
		c-0.6,1.1,0.3,4.5,1.9,6.2c1.1,1.4,2.4-1.5,3.1-3.5c1.6,2.6,3.7,5.6,5.7,8.3c-16.4-2-32.4-4.8-48.3-8.1
		c8.4,60.2,68.6,107,141.7,107c74.2,0,135.2-48.3,142-109.9c-30.2,6.8-61.5,11.6-93.5,14.2c-0.6-4.1-1.7-8.9-2.6-13.1
		C474,878.8,475.2,878.7,476.4,878.2z M385.9,874.2c0.5-0.3,1.4-0.1,2.2,0.7c0.8,0.8,0.9,1.8,0.5,2.2c-0.5,0.3-1.4,0.1-2.2-0.7
		C385.6,875.5,385.3,874.7,385.9,874.2z M331.9,865.5c-0.8-0.5-0.9-1.5-0.5-2.2c0.5-0.7,1.5-0.9,2.2-0.5s0.9,1.5,0.5,2.2
		C333.6,865.8,332.7,866.2,331.9,865.5z"/>
</g>
<g id="white_water" display="none">
	<g display="inline">
		<path fill="#FFFFFF" d="M739.6,925c-8.1,0-15.5-2.6-21.4-7.2c-5.9,4.5-13.3,7.2-21.4,7.2c-11.8,0-22.2-5.7-28.6-14.5
			c-6.5,8.9-16.8,14.5-28.6,14.5c-9.7,0-18.4-3.9-24.8-10.1c-6.4,6.2-15.1,10.1-24.8,10.1c-6.5,0-12.5-1.8-17.7-4.8
			c-5.2,3-11.2,4.8-17.7,4.8c-10,0-19-4.1-25.5-10.8c-6.5,6.7-15.5,10.8-25.5,10.8c-10.3,0-19.5-4.4-25.9-11.4
			c-6.5,6.9-15.8,11.4-25.9,11.4c-8.1,0-15.5-2.6-21.4-7.2c-5.9,4.5-13.3,7.2-21.4,7.2c-11.8,0-22.2-5.7-28.6-14.5
			c-6.5,8.9-16.8,14.5-28.6,14.5c-9.7,0-18.4-3.9-24.8-10.1c-5.1,5.1-11.8,8.5-19.2,9.7c-1.8,0.2-3.6,0.5-5.6,0.5"/>
	</g>
	<rect x="269.3" y="924.8" display="inline" fill="#FFFFFF" width="565.9" height="180.4"/>
</g>
<g id="wateronly" display="none">
	<g display="inline">
		<path fill="#2580AA" d="M620.1,926.5c-6.7,0-13-2.3-18-6c-5,3.7-11.2,6-18,6c-9.9,0-18.6-4.8-24.1-12.3
			c-5.5,7.4-14.2,12.3-24.1,12.3c-8.2,0-15.5-3.3-20.8-8.5c-5.3,5.2-12.7,8.5-20.8,8.5c-5.5,0-10.5-1.5-14.9-4
			c-4.4,2.5-9.4,4-14.9,4c-8.4,0-16-3.5-21.5-9.1c-5.5,5.6-13.1,9.1-21.5,9.1c-8.6,0-16.4-3.6-21.8-9.5c-5.5,5.9-13.2,9.5-21.8,9.5
			c-6.7,0-13-2.3-18-6c-5,3.7-11.2,6-18,6c-9.9,0-18.6-4.8-24.1-12.3c-5.5,7.4-14.2,12.3-24.1,12.3c-8.2,0-15.5-3.3-20.8-8.5
			c-4.3,4.2-9.9,7.2-16.1,8.2c-1.5,0.2-3.1,0.3-4.7,0.3"/>
	</g>
	<g display="inline">
		<path fill="#2580AA" d="M982.8,926.5c-6.7,0-13-2.3-18-6c-5,3.7-11.2,6-18,6c-9.9,0-18.6-4.8-24.1-12.3
			c-5.5,7.4-14.2,12.3-24.1,12.3c-8.2,0-15.5-3.3-20.8-8.5c-5.3,5.2-12.7,8.5-20.8,8.5c-5.5,0-10.5-1.5-14.9-4
			c-4.4,2.5-9.4,4-14.9,4c-8.4,0-16-3.5-21.5-9.1c-5.5,5.6-13.1,9.1-21.5,9.1c-8.6,0-16.4-3.6-21.8-9.5c-5.5,5.9-13.2,9.5-21.8,9.5
			c-6.7,0-13-2.3-18-6c-5,3.7-11.2,6-18,6c-9.9,0-18.6-4.8-24.1-12.3c-5.5,7.4-14.2,12.3-24.1,12.3c-8.2,0-15.5-3.3-20.8-8.5
			c-4.3,4.2-9.9,7.2-16.1,8.2c-1.5,0.2-3.1,0.3-4.7,0.3"/>
	</g>
	<rect x="249" y="926.5" display="inline" fill="#2580AA" width="580.1" height="101.6"/>
</g>
<g id="blue_all" display="none">
	<path display="inline" fill="#2580AA" d="M858.5,925.8c-8.1,0-15.5-2.6-21.4-7.2c-4.8,3.5-10.5,6-16.7,6.8v-0.6h-12.7
		c-8.3-1.9-15.7-6.8-20.6-13.6c-5,6.7-12.2,11.6-20.6,13.6h-16.1c-6.4-1.5-12.2-4.7-16.7-9.2c-4.2,4.1-9.3,7.2-15.1,8.9
		c-5.6-1-10.7-3.3-15.1-6.6c-5.1,3.9-11.1,6.2-17.8,6.9h-7c-10.3-1-19.4-6.5-25.2-14.3c-5.8,8-14.8,13.4-25.2,14.3h-7
		c-1.7-0.2-3.3-0.5-4.9-0.8c-3.5-29.1-6.8-45.9-10.5-51.1c3.3,5.1,6.7,23,10.1,51c-6.1-1.6-11.5-4.7-15.8-9
		c-5.6,5.5-13,9.1-21.1,9.9h-7c-5.1-0.5-10-2-14.3-4.5c-4.3,2.4-9.2,4-14.3,4.5h-6c9.1-14.2,15.1-30,16.9-46.8
		c-30.2,6.8-61.5,11.6-93.5,14.2c-0.6-4.1-1.7-8.9-2.6-13.1c1.1-0.2,2.4-0.6,3.5-0.8c5.9-0.2,13.4,3.7,13.6,1.1
		c4-1.2,7.2-1.8,8.2-5.1c3.2-0.5,6.6-1,10.5-1.7c39.1-6.1,76.8-6.2,110.9-1c0.2,0.2,0.6,0.5,0.8,0.8c-0.2-0.3-0.6-0.7-0.8-0.8
		c0.2,0,0.3,0.1,0.6,0.1c-0.2,0-0.3-0.1-0.6-0.1c-0.2-0.1-0.2-0.2-0.5-0.2c-0.1,0-0.1,0-0.2,0c0.2,0,0.3,0.1,0.7,0.2
		c-36.7-7.7-78.4-9.2-121.9-3c-1.7-1.9-5.6-0.8-10.3-0.8c-3,0-10.7-0.8-15.7-1.4c0-0.3,0-0.8,0-1.1c0-5.7-10.1-13.5-14.7-18.1
		c0.8-0.2,1.5-0.5,1.8-0.5c3,0,4.2,0.9,6.7,0c3.4-1.2,4.3-6.7,4-8.7c-0.1-0.8-6.1-4.1-4.3-3.3c0.9,0.5,4.7,0.5,5.2-0.8
		c0.8-1.6-0.6-3.3-0.5-5.2c0.1-1.7,4.2-1,4.2-3.2c0-3.5-4.2-5.8-4.8-8.9c-0.3-2.2,2.6-4.8,2-6.7c-3.1-9.4-11.2-15.8-22.8-15.8
		c-17.4,0-23.5,14.2-23.5,31.8c0,1.5-0.1,2.8-0.2,4c-0.6,6.7,1.9,12,4.5,13.3c0.7,0.2,3.9,0.8,6.6,2.3c-5.3,4.3-9.9,9.1-9.9,16.7
		c0,4.4,3,19.8-1,27.4c-0.8,1.5-1.2,3-1.5,4.5c-1.1,0-2.4,0-3.5,0c-9.8,0-19.5-0.2-29.1-0.7c0-0.2,0.1-0.2,0.2-0.2
		c2.5-1.9,4.9-4.1,4.4-6.5c1.2,0.3,3.6,0.5,4.5-0.5c2.7-2.8,1.1-5.6-1.2-4.9c-2.4,0.8-5.3-0.8-4.8-0.8c4.8,0.8,6.7-4.5,5.1-6.4
		c-1.6-1.8-6.5,1.1-7.6,0.5c-3.9-2.2-8.7-7.2-11.9-2.3c-1.1,1.7-2.4,3.1-2.5,4.9c-1.5-1.4-4.2-2.4-5.6-1.5c-3.9,3,2,7.7,3.3,9
		c1.7,1.7,1.1,3-0.2,4c-1.8,1.4,2.2,1.4,4.1,0.6c-0.3,1.4-1.4,2.4-2.2,3.3c-5.8-0.3-11.5-0.8-17.3-1.4c0.7-0.6,1.4-1.2,1.9-1.9
		c0.2-0.2,4.4-1,5.8-2.6c3.7-4.3-4.1-2.6-5.3-1.9c-0.2-0.8-0.6-5.6-1.2-6.1c-1.4-0.9-3,5.2-3,5.3c-0.8,0.2-3,6.1-6.1,3
		c0.1-1.5-0.8-6.1-2.2-11l0,0c2.8-4.2,1.7-9.9-2.6-12.7c-2-1.4-4.5-1.8-6.8-1.4c-2-1.1-4.2-2.2-4.7-2.5c-4.3-3-12-2.4-13.1,2.6
		c-1,4.9,8.9,8.4,8.9,8.4s-14.4-4.3-6.1,4.7l0,0c0,0.2,0.1,0.5,0.2,0.8c-1.2,0.2-2.4,1-2.7,1.6c-0.6,1.1,0.3,4.5,1.9,6.2
		c1.1,1.4,2.4-1.5,3.1-3.5c1.6,2.6,3.7,5.6,5.7,8.3c-16.4-2-32.4-4.8-48.3-8.1c2.2,15.8,8,30.7,16.6,44h-32.4v180.4H820v-179H858.5
		L858.5,925.8z M319.6,865.2c-0.5,0.8-1.5,0.9-2.2,0.5s-0.9-1.5-0.5-2.2c0.5-0.7,1.5-0.9,2.2-0.5C319.8,863.5,320,864.5,319.6,865.2
		z M373.8,877c-0.5,0.3-1.4,0.1-2.2-0.7c-0.8-0.8-0.9-1.8-0.5-2.2c0.5-0.3,1.4-0.1,2.2,0.7C374.1,875.7,374.2,876.5,373.8,877z"/>
</g>
<g id="testing" display="none">
	<text transform="matrix(1 0 0 1 687.0811 735.5656)" display="inline" fill="#2580AA" font-family="'Monaco'" font-size="49.7669">&lt;html&gt;</text>
	<text transform="matrix(1 0 0 1 687.0811 594.6983)" display="inline" font-family="'Monaco'" font-size="42.1719">$(this)</text>
	<text transform="matrix(1 0 0 1 825.3193 640.0957)" display="inline" font-family="'Monaco'" font-size="24.307">wp_title();</text>
	<text transform="matrix(1 0 0 1 780.3359 777.8575)" display="inline" font-family="'Monaco'" font-size="11.2458">color: #bada55</text>
</g>
<g id="teach_fish" display="none">
	<g display="inline">
		<path fill="#2580AA" d="M486.6,918.2c6.9-43.1,5.6,10.3-1.6-39c-7.3-50.5-21.8-96.9-41.5-136.9c24.8,44.1,43.1,97.6,51.6,156.4
			c6.4,44.2,8.5-13.9,3.5,25.6"/>
		<path fill="#2580AA" d="M439.9,829.2c-7.2,0.6-10.5,7.2-15,8.7c-0.3-0.1-8.4-0.7-11.5-0.7c-1,0-11.4-8.1-13.9-10.6
			c0.8-0.2,1.5-0.3,1.8-0.5c2.8,0,4,0.8,6.6,0c3.3-1.1,4.2-6.4,3.9-8.4c-0.1-0.8-7-1.6-4.2-3.1c0.9,0.3,4.5,0.3,5.1-0.7
			c0.8-1.5-0.6-3.2-0.3-5.1c0.1-1.7,4-0.9,4-3c0-3.4-4-5.6-4.5-8.6c-0.3-2,2.5-4.5,1.9-6.4c-3-9.1-10.9-15.2-22-15.2
			c-16.7,0-22.7,13.6-22.7,30.7c0,1.5-0.1,2.7-0.2,3.9c-0.5,6.5,1.8,11.6,4.4,12.8c0.7,0.2,3.7,0.8,6.2,2.2c-5.1,11.5-1.6,19-2.7,27
			c-1.2,8.1-4,10.8-4,16.8c0,6.6,0.3,11.2,4.9,15.3c-1.2,1.7-1.4,9.9-0.2,11.5c-1.4,1.2-1.9,7.4-1.4,8.3c-1.7,2.3-2.7,3-2.7,6.5
			s3,10.2,6.5,10.2c0.7,0,2,0.2,2.5,0.2c0.5,1.9,2.3,2.2,4.3,2.2c2.5,0,5.7-0.8,5.7-3.3c0-2.4-3.2-8.3-5.7-8.3c0,0,0,0-0.1,0
			c0-1.8-0.9-3.5-2.3-4.5c2.4-1,4.2-6.7,4.1-7c3.3-0.9,5.9-3.5,6.9-6.7c0.8,0.6,0.2,4.5,0.2,6.7c0,2.8,1.6,5.3,3.9,6.7
			c-1.9,1.4-3.2,3.6-3.2,6.1c0,4.2,3.4,11.4,7.6,11.4c2.2,0,4.1-0.9,5.6-2.4c0.8,0.8,8.3-4.9,8.3-7.7s-6.5-5-7-4.7
			c-0.7-1.4-1.8-2.4-3.1-3.2c1.9-1.4,3.2-3.6,3.2-6.1c0-3-1.7-5.5-4.1-6.7c2.5-1.8,0.2-8.4,0.2-11.7c0-1.1,2.3-19.2,1.5-29.9
			c0-0.1,0-0.2-0.1-0.2c4.5-0.1,15.1,1.7,16,1.2c4-0.8,11.8-12.5,14.2-12.5c1.9,0,4.5-1.9,4.8-6.1c0.1-2.3,6.4-1.8,6.4-3
			C450.1,828,443,829,439.9,829.2z"/>
		<path fill="#2580AA" d="M533.5,896.5c2.5-4.2-2-6.7-2-11.9c0-6.9-8.4-26.4-9.8-30.8c-1.4-4.4-0.1-29.2-3-34
			c-2.8-4.7-2.6-2.5-1.7-5.2c1.5-4.4,4.5-7.3,5-14.7c0.9-15.6-11.1-26.4-21.8-25.1c-11.7,1.4-13.6,2-18.2,11.8c-1,2.2,3.1,5,2.8,7.4
			c-0.2,1.2-3.4,6.7-3.4,7.8c0,2.6,4.5,2,5.2,4.4c0.2,0.7-3,3.5,0.5,4.2c1.2,0.2,6.7-2,7.7-1.2c0.5,2-7.8,2.8-6.9,4.7
			c1.2,2.4-0.2,4.5,1.1,6.1c1.4,1.5,8.5,0.2,9.7,0.6c-2.6,3-8.9,17.7-11.8,19.8c-0.7-2-4.5-2.7-6.4-5.3c-1.8-2.6-1.5-7-3.4-7
			c-4.5,0-7.2,3.7-7.2,8.3c0,4.5,2.5,8.3,7.2,8.3c11.8,14.8,12.3,7.5,15.5,7.7c0.1,5.5,1.4,23.3,1.4,29.7c0,6.9-9.4,13.2-5.3,18.1
			c-3.2,2.4-5.3,6.2-5.3,10.6c0,7.3,5.9,16.9,13.2,16.9c5.6,0,10.5-7.3,12.3-12.2c2.4,6.1,8.3,14.2,15.2,14.2c9,0,16.2-11,16.2-20
			C540.6,904.2,537.7,899.5,533.5,896.5z"/>
		<g>
			<path fill="#2580AA" d="M390.7,934.8c8.6,0,16.4-3.6,21.8-9.5c5.5,5.9,13.2,9.5,21.8,9.5c8.4,0,16-3.5,21.5-9.1
				c5.5,5.6,13.1,9.1,21.5,9.1c5.5,0,10.5-1.5,14.9-4c4.4,2.5,9.4,4,14.9,4c8.2,0,15.5-3.3,20.8-8.5c5.3,5.2,12.7,8.5,20.8,8.5
				c2.4,0,4.9-0.2,7.2-0.8c14.2-16.9,23.4-40.9,25.9-62.8c-47.3,10.7-97.2,16.5-148.5,16.5c-46.6,0-91.8-4.7-135.1-13.6
				c2.7,19.5,10.9,41.4,23.2,56.9c3.7-2,7-5,9.5-8.4c5.5,7.4,14.2,12.3,24.1,12.3c6.7,0,13-2.3,18-6
				C377.8,932.5,384,934.8,390.7,934.8z"/>
		</g>
		<g>
			<g>
				<g>
					<g>
						<g>
							<g>
								<g>
									<defs>
										<rect id="SVGID_1_" x="422.4" y="725.2" width="35" height="184.1"/>
									</defs>
									<clipPath id="SVGID_2_">
										<use xlink:href="#SVGID_1_"  overflow="visible"/>
									</clipPath>
									<g clip-path="url(#SVGID_2_)">
										<path fill="#2580AA" d="M442.6,942.2c-5.7-124.3-5.7-199,1.1-199.6c0.1,0,0.2,0,0.2,0c-7.5,2.5-6.5,95.6,1.4,246.2"/>
									</g>
								</g>
							</g>
						</g>
					</g>
				</g>
			</g>
		</g>
	</g>
</g>
<g id="we_fish" display="none">
	<path display="inline" fill="#2580AA" d="M659.6,1043.4c-7.7-82.2-4.5-90.6,15.1-182.6c18.4-86.4,49.7-174.1,95.3-253.4
		c-52.2,80.1-93.5,178.7-116.9,288.8c-17.6,82.6-21.7,82-17,157"/>
	<path display="inline" fill="#2580AA" stroke="#FFFFFF" stroke-miterlimit="10" d="M797.1,911.8"/>
	<g display="inline">
		<path fill="#2580AA" d="M798.5,1079.1c-6.5-301.7-16-471.9-28-472c-0.2,0-0.2,0.1-0.5,0.1c11.7,4.4,21.1,174.1,27.5,471.9"/>
	</g>
	<path display="inline" fill="#2580AA" d="M621.2,874.2c6.8-5.1,22.2-11.5,26.1-19.1c4.1-7.7-3.3-23.9-3.3-33.4
		c0-30.9-25.1-60.9-56-60.9s-56,30-56,60.9c0,10.3-6.9,27.2-2.2,35.6c4.9,8.3,21.5,15.2,29.7,20.1c-12,6.7-26.9,16.7-33.4,28.7
		c-5.3,10-3.5,21.4-3.5,33.5c0,39.3,31.8,71,71,71s75.6-31.8,75.6-71c0-19.7-1.1-32.8-14.1-45.7
		C648.7,887.3,629.8,877.8,621.2,874.2z"/>
	<path display="inline" fill="#2580AA" d="M334.4,837.3c-68-93.6-184.7-126.2-268.8-78.4c0.2,0.2,0.6,0.5,0.8,0.8
		c84.5-40.8,196.2-4.7,260.3,88.2c60.3,87.5,64.3,147.6,6.8,213.9c0.5,1,2.4,10.5,2.8,11.5C404.8,1007.5,401.4,929.5,334.4,837.3z"
		/>
	<g display="inline">
		<path fill="#2580AA" d="M14.2,1060.7c41.7-191.4,60.9-301,51.8-303.4c-0.2,0-0.2,0-0.5,0c8.2,5.6-11.1,114.7-52,302.7"/>
	</g>
	<path display="inline" fill="#2580AA" d="M459.9,790.8c-8.1-9.9-16.5-20.7-15.3-25.8c2.5-11.7,12.4-23,11.2-42.2
		c-2.4-39.8-34.8-65-62.3-66c-23-0.8-40.1,12.4-48.6,38.4c-1.8,5.7,9.4,11.7,9.3,18c0,3.1-6.7,18-6.2,21.1
		c0.8,6.6,12.4,3.7,14.5,9.8c0.6,1.6-6.5,9.9,2.6,10.5c3.3,0.2,21.1-8.6,24-6.7c0.8,27.3-21.5,19.9-18.4,24.3
		c3.7,5.7,0.8,11.8,4.8,15.2s21.8-1.8,24.5-1.4c-1.7,2.4-13.1,6.9-16.4,16.4c-4.4,12.6-6.7,29.1-10.1,37.2c0,0-19.5-8.1-30-13.6
		c-11.4-21.2-34.5-14.2-37.2-14.2c-15.1,0-5.1,3.7-5.1,18.9c0,5.5,14.4,5.6,23.3,10.6c15.8,8.9,34.9,36.4,54.7,36.9
		c6.9,0.2,16.2-11.5,21.1-16.5c3,5.9-21.2,90.2-21.2,116c0,35.2,9.8,27.6,45,27.6s75.7-3,75.7-38.2c0-19.9-11.6-87.2-11.6-108.4
		C488.1,835.3,468,800.5,459.9,790.8z"/>
	<g display="inline">
		<path fill="#2580AA" d="M336.5,1073.2c21,0,39.9-8.9,53.1-23.2c13.2,14.2,32,23.2,53.1,23.2c20.5,0,38.7-8.4,52-22
			c13.1,13.6,31.6,22,52,22c13.2,0,25.6-3.5,36.1-9.8c10.7,6.1,23.1,9.8,36.1,9.8c19.7,0,37.6-7.8,50.6-20.6
			c13.1,12.7,30.9,20.6,50.6,20.6c5.9,0,11.7-0.8,17.3-2c34.5-41.1,56.9-90.1,62.8-143.3c-115,26.1-236,40-360.8,40
			c-113.1,0-222.9-11.5-328.2-33c6.6,47.4,26.5,91.4,56.2,129.1c9.1-5.1,17-12,23.3-20.6c13.2,18,34.5,29.7,58.5,29.7
			c16.4,0,31.5-5.5,43.6-14.7C305,1067.9,320.1,1073.2,336.5,1073.2z"/>
	</g>
</g>
<g id="delivery" display="none">
	<path display="inline" fill="#2580AA" d="M564,808.2c8.9,3.5,14.9-5.9,12.6-10.1c-2.4-4.1-13-0.8-14.8-2.4
		c-6.5-5.8-13.7-17.5-22-9.7c-2.8,2.7-5.8,4.9-7.2,8.3c-2.3-3.2-7-6.7-10-5.2c-8.9,4,0.5,15.9,2.4,18.9c2.5,4,0.8,6.1-2.4,7.6
		c-4.2,1.9,3.5,3.6,7.7,3c-1.6,3.1-5.1,5.2-7.2,6.4c-0.9,0.6-1.7,1.2-2.3,2c-1.5-2.7-10.5-3-13.2-1.5s-0.8,5.6,3.4,7
		c2.2,0.8,3.5-0.3,5.5,2.8c-0.6,1.1,0.5,5.5,1.1,6.7c1.1,1.9,3.1,1.1,5.1,0c1.4-0.8,3-7.3,3-8.6c2.2-0.3,2.5-1,4.2-1.9
		c0.5-0.2-2.3,3.3-1.5,4.7c1.4,2.4,7.3,11.5,8.5,8.9c1.4-2.4,4.5-7.2,3.5-9.4c1.1,0.2,3.3,3,3.7,3.9c1.1,2,3,3.4,5.1,2.3
		c2-1.1,1.7-11,3-10.5c5.7-2.8,11.2-5.9,11.5-10.5c2.2,1.4,6.8,2.5,9.1,1c6.6-4.2,4.7-10.3-0.2-9.9
		C567.8,812.2,562.8,807.8,564,808.2z M554.1,798c-1,0.6-2.8-0.3-3.9-2.3c-1-1.9-1-3.9,0.1-4.4c1-0.6,2.8,0.3,3.9,2.3
		C555.2,795.2,555.2,797.3,554.1,798z"/>
	<path display="inline" fill="#2580AA" d="M520.5,852.2c0-8.3-5.7-8.6-14-8c-9.7,0.8-9.9,7.7-14.3,12.5
		c-4.5,4.8-16.4,15.2-22.5,17.3c-1-0.2-36.7-19-44.8-20s-8.4-3.4-13.4-9.5c0.1-0.8,0.9-1.8,3-3.5c1.8-0.6,3.4-0.9,4.1-0.9
		c6.4-0.1,9.3,1.9,15,0c7.5-2.6,9.5-14.7,8.9-19.3c-0.2-1.6-13.7-9-9.5-7.2c2,0.9,10.5,0.9,11.7-1.6c1.8-3.5-1.2-7.3-0.9-11.5
		c0.2-3.7,9.3-2.2,9.3-6.9c0-7.7-9.3-12.8-10.5-19.8c-0.8-4.7,5.9-10.5,4.5-14.7c-6.8-20.8-24.9-34.8-50.5-34.8
		c-38.2,0-51.8,31.4-51.8,70.1c0,3.4-0.2,6.2-0.3,8.9c-1.1,14.9,4.3,26.6,10.1,29.4c1.4,0.7,8.5,1.8,14.4,5
		c-7.8,18-6.7,31.8-5.9,44.7c0,0-9.8,74.8,2.4,85.9c-3.3,4.5-20.8,12-18,16.4c-3.7,3.3-5.2,20-3.7,22.6c-4.5,6-7.3,8-7.3,17.4
		c0,9.7,7.8,17.5,17.5,17.5c1.7,0,5.6,0.8,6.9,0.5c1.4,5.2,6.1,5.8,11.7,5.8c6.7,0,15.5-2.3,15.5-8.9c0-6.7-8.7-12.2-15.5-12.2
		c-0.1,0-0.1,0-0.2,0c0-5.1-2.4-9.5-6.1-12.5c6.7-2.7,11.4-18.4,11.2-19c9-2.4,16.1-9.3,18.7-18.3c2,1.5,0.8,12.4,0.8,18.1
		c0,7.7,4.2,14.3,10.5,18c-5.1,3.7-8.6,9.9-8.6,16.7c0,11.4,9.2,20.6,20.6,20.6c5.9,0,11.1-2.5,15-6.5c2.4,1.9,22.6-3,22.6-10.6
		c0-7.6-17.4-13.4-19.1-12.7c-1.8-3.6-4.7-6.7-8.3-8.7c5.1-3.7,8.6-9.9,8.6-16.7c0-7.8-4.5-14.8-11-18.3c6.7-4.9,0.5,10,0.5,1
		c0-3,15.7-25.5-0.1-81.4c-0.1-0.2,4,0.2,3.9,0c12.2-0.2,40.8,4.5,43.3,3.3c10.7-2.4,31.9-33.5,38.4-33.5c5.2,0,36.5,1.5,37-9.9
		C550,850.8,520.5,855.2,520.5,852.2z"/>
	<path display="inline" fill="#2580AA" d="M861.3,860.5c0,0-12.7-6.7-14.7-13.6c2.7-6-0.6-14.9-7.2-17.4c-8.2-3.3-13.4-2-18.5,6.6
		c-19.2,7.3-44.1,15.7-48.6,13.6c2.4-5.9,28.4-20.2,28.4-47.7c0-24.3-46.2-60.8-49.7-63.7c-10.2-8.6-30.8-23.3-30.7-30.5
		c0.2-11.5,5-20.2,0.2-38.2c-9.8-36.9-48.4-56.5-72.4-45.6c-26.4,12-28,19-31,45.2c-0.7,5.8,11.1,9.2,12.3,15.1
		c0.6,3-2.8,18.2-1.8,21.1c1.9,6.1,12.4,1.2,15.6,6.4c0.8,1.4-4.2,10.6,4.4,9.3c3.1-0.5,13.6-13.4,16.6-12
		c5.8,12.4-15.6,15.9-11.9,19.5c4.7,4.7,3,10.9,7.4,13.4s20.1-5.9,22.8-6c-3.9,8.7-6.6,47.8-12.4,55.1c0,0-18.9,19.8-28.2,19.5
		c-3.1-0.1-3.4-10.5-5.2-11c-7.3-2.6-5.3,12-9.3,14.7c-4.5,3.2-30.8,6.6-31.1,11.2c-0.2,4.7,23.9,5.1,29.4,4
		c15.3-3,42.5-2.4,57.5-8.9c8.3-3.5,15.7-28.5,15.7-28.5c-0.6,3.1,17.6,27.6,19.3,32.7c-9,7.6-29.5,20.6-29.5,33.3
		c0,23,15.8,33,38.7,33c9,0,17.3-3,24-7.7c7.3,8.1,17.8,13.2,29.5,13.2c17.2,0,42.5-24.9,48.1-40.2c3.5,1.9,10.9,16.4,30.6,18
		c9,0.8,14.7,0.8,14.7-8.2C874.4,857.5,870.3,860.5,861.3,860.5z"/>
	<path display="inline" fill="#2580AA" d="M431,1061.8c-45.5-65,42.2,31.8-29.3-23.3c-73.3-56.6-151-98.9-227-126.4
		c87.9,26.2,179.4,72.8,265,138.9c64.2,49.5-28.4-54.3,15,3.5"/>
	<g display="inline">
		<path fill="#2580AA" d="M189.1,1043.8c12.6,17.4,33.1,28.6,56.1,28.6c15.8,0,30.2-5.2,41.9-14.1c11.6,8.9,26.1,14.1,41.9,14.1
			c20.1,0,38.2-8.5,51-22.2c12.6,13.6,30.8,22.2,51,22.2c16.8,0,32.3-6,44.3-15.9c31.8-33.1,52.6-74.1,57.6-119.1
			c-86.4,19.5-177,30-270.6,30c-84.8,0-167.1-8.5-246.1-24.8c6.1,44.3,27.7,84.5,60,116.8c3-2,5.7-4.4,8.3-6.9
			c12.6,12.3,29.7,19.8,48.5,19.8C155.9,1072.4,176.4,1061.2,189.1,1043.8z"/>
	</g>
	<g display="inline">
		<path fill="#2580AA" d="M758.6,1050.3c12.6,13.6,30.8,22.2,51,22.2c19.5,0,37.3-8.2,50-21.1c12.6,13.1,30.3,21.1,50,21.1
			c12.6,0,24.5-3.4,34.8-9.3c10.2,5.9,22.2,9.3,34.8,9.3c19,0,36.1-7.6,48.5-19.8c12.6,12.3,29.7,19.8,48.5,19.8
			c23.1,0,43.5-11.2,56.1-28.6c12.6,17.4,33.1,28.6,56.1,28.6v-111l8.7-28.9v-59.7H658.3v59.8l32.8,29.9v107.8
			c5.3,1.4,10.9,2,16.6,2C727.8,1072.4,745.9,1063.9,758.6,1050.3z"/>
	</g>
	<g display="inline">
		<path fill="#2580AA" d="M189.1,1043.8c12.6,17.4,33.1,28.6,56.1,28.6c15.8,0,30.2-5.2,41.9-14.1c11.6,8.9,26.1,14.1,41.9,14.1
			c20.1,0,38.2-8.5,51-22.2c12.6,13.6,30.8,22.2,51,22.2c16.8,0,32.3-6,44.3-15.9c31.8-33.1,52.6-74.1,57.6-119.1
			c-86.4,19.5-177,30-270.6,30c-84.8,0-167.1-8.5-246.1-24.8c6.1,44.3,27.7,84.5,60,116.8c3-2,5.7-4.4,8.3-6.9
			c12.6,12.3,29.7,19.8,48.5,19.8C155.9,1072.4,176.4,1061.2,189.1,1043.8z"/>
	</g>
	<g display="inline">
		<g>
			<g>
				<g>
					<g>
						<g>
							<g>
								<defs>
									<rect id="SVGID_3_" x="112.2" y="822.5" width="310.2" height="216.9"/>
								</defs>
								<clipPath id="SVGID_4_">
									<use xlink:href="#SVGID_3_"  overflow="visible"/>
								</clipPath>
								<g clip-path="url(#SVGID_4_)">
									<path fill="#2580AA" d="M134.6,1148.2c13.1-147.7,27-235.8,39.7-235.6c0.2,0,0.2,0,0.5,0.1c-14,1.8-29.7,112-44,291.1"/>
								</g>
							</g>
						</g>
					</g>
				</g>
			</g>
		</g>
	</g>
</g>
<g>
	<path fill="#2580AA" d="M427.3,458c12.3,0.5,26.6,7.7,27.2,2.5c8.3-2.5,15.3-4,17.6-10.5c7.8-1.2,16.4-2.6,26-4.2
		c84.5-13.4,166.7-14.5,240.6-3.3c0.2,0.1,16.7,58,29.5,156.2c-10.2-96.9-29.8-156.4-29.4-156.4c-80.7-17.2-172-18.9-267.8-4.7
		c-3.5-4.5-12.2-2-22.5-2c-10.1,0-43.5-4.1-43.6-4.1c-7.5-5.6-19.5-33.1-22.8-36.5c1.8-0.6,3.2-0.9,3.9-0.9c6-0.1,8.9,1.8,14.2,0
		c7.2-2.5,9.1-13.9,8.3-18.3c-0.2-1.5-13-8.5-9.1-6.7c1.9,0.9,9.8,0.9,11-1.5c1.7-3.3-1.1-6.9-0.9-10.9c0.2-3.5,8.9-2,8.9-6.6
		c0-7.3-8.9-12.2-9.9-18.6c-0.8-4.4,5.6-9.9,4.2-13.9c-6.5-19.8-23.5-33-47.7-33c-36.2,0-49,29.7-49,66.4c0,3.2-0.1,6-0.3,8.4
		c-1.1,14.1,4.2,25.2,9.5,27.8c1.4,0.7,8.1,1.8,13.6,4.7c-10.9,25-3.3,41.2-5.9,58.6c-1.7,11.1-4.7,17.6-6.6,24.3
		c-0.2,0.1-0.5,0.2-0.8,0.3l0.5,0.5c-0.9,3.4-1.6,6.9-1.6,11.2c0,3.6,0.1,7,0.3,10.2c-6.5,0.1-13.1,0.1-19.5,0.1
		c-28.3,0-56.4-0.8-84.1-2.4c2.4-1.6,8-4.8,9.5-8.3c5.1-11.4-10.1-3-12.4-0.8c-0.8-1.4-4.5-11.4-6.1-11.8
		c-3.5-1.1-3.2,12.7-2.7,12.7c-0.9,0.5-1.5,4.2-3.1,7.3c-3.1-0.1-6.1-0.5-9.2-0.7c-1.8-4.3-5.5-11.4-10.1-18.4v-0.1
		c3.3-10.5-2.6-21.7-13.1-25c-5.1-1.6-10.5-1-15,1.2c-4.8-1-10.1-2-11.4-2.4c-10.8-3.4-26.5,2.2-25.7,13.4
		c0.8,10.7,23.4,12.3,23.4,12.3s-31.9-0.2-10.7,13c-41.4-4.8-82.2-11.4-122-19.5C18.4,510,36,549.2,62.6,582.8
		c8.2-4.5,15.2-10.8,20.7-18.3C95,580.5,114,591,135.5,591c14.7,0,28.1-4.8,39-13.1c10.8,8.2,24.3,13.1,39,13.1
		c18.7,0,35.6-8,47.3-20.7c11.8,12.6,28.6,20.7,47.3,20.7c18.2,0,34.7-7.6,46.4-19.7c11.7,12,28.2,19.7,46.4,19.7
		c11.7,0,22.8-3.2,32.3-8.6c9.4,5.5,20.6,8.6,32.3,8.6c17.6,0,33.4-7,45.1-18.4c11.7,11.4,27.5,18.4,45.1,18.4
		c5.3,0,10.5-0.7,15.3-1.8c30.8-36.7,50.8-80.3,56.1-127.7C554.1,478,478.4,489,400.7,494c0.8-8.9,1.5-19.4,1.7-29.4
		C410.2,462.2,418.4,460,427.3,458z M147.7,461.2c-0.5,1.9-2.4,2.8-4.2,2.3c-1.8-0.6-2.8-2.5-2.3-4.2c0.6-1.8,2.5-2.8,4.2-2.3
		C147.1,457.5,148.3,459.5,147.7,461.2z"/>
</g>
</svg>
