<?xml version="1.0" encoding="utf-8"?>
<!-- Generated by IcoMoon.io -->
<!DOCTYPE svg PUBLIC "-//W3C//DTD SVG 1.1//EN" "http://www.w3.org/Graphics/SVG/1.1/DTD/svg11.dtd">
<svg version="1.1" xmlns="http://www.w3.org/2000/svg" xmlns:xlink="http://www.w3.org/1999/xlink" width="16" height="16" viewBox="0 0 16 16">
<path d="M14.885 9.233c0.071-0.401 0.115-0.812 0.115-1.234 0-3.866-3.134-7-7-7-0.422 0-0.832 0.044-1.234 0.115-0.718-0.689-1.692-1.115-2.767-1.115-2.209 0-4 1.791-4 4 0 1.074 0.426 2.048 1.115 2.766-0.071 0.401-0.115 0.811-0.115 1.234 0 3.866 3.134 7 7 7 0.422 0 0.832-0.043 1.233-0.115 0.719 0.689 1.692 1.115 2.767 1.115 2.209 0 4-1.791 4-4 0-1.074-0.426-2.048-1.115-2.767zM11.082 10.802c-0.277 0.377-0.685 0.676-1.214 0.887-0.524 0.21-1.152 0.316-1.867 0.316-0.859 0-1.578-0.146-2.139-0.431-0.402-0.209-0.732-0.491-0.984-0.841-0.254-0.352-0.383-0.701-0.383-1.040 0-0.21 0.083-0.393 0.249-0.543 0.163-0.149 0.373-0.223 0.623-0.223 0.205 0 0.383 0.059 0.526 0.176 0.138 0.114 0.255 0.28 0.351 0.493 0.106 0.234 0.221 0.431 0.343 0.585 0.117 0.15 0.286 0.276 0.502 0.374s0.509 0.149 0.868 0.149c0.493 0 0.899-0.101 1.204-0.302 0.297-0.195 0.442-0.431 0.442-0.719 0-0.227-0.075-0.406-0.23-0.546-0.163-0.146-0.377-0.261-0.637-0.339-0.272-0.081-0.641-0.171-1.097-0.261-0.62-0.128-1.146-0.28-1.566-0.45-0.428-0.176-0.774-0.42-1.026-0.723-0.256-0.31-0.386-0.697-0.386-1.154 0-0.434 0.136-0.827 0.406-1.164 0.267-0.336 0.657-0.597 1.16-0.776 0.495-0.177 1.085-0.266 1.753-0.266 0.533 0 1.003 0.059 1.394 0.177 0.394 0.117 0.726 0.277 0.988 0.473 0.262 0.198 0.458 0.409 0.581 0.629s0.187 0.442 0.187 0.656c0 0.206-0.082 0.393-0.245 0.556-0.164 0.163-0.37 0.247-0.614 0.247-0.221 0-0.395-0.052-0.514-0.154-0.112-0.096-0.228-0.244-0.357-0.457-0.149-0.272-0.329-0.487-0.537-0.639-0.2-0.147-0.536-0.221-0.998-0.221-0.428 0-0.777 0.082-1.035 0.246-0.25 0.157-0.37 0.338-0.37 0.551 0 0.131 0.039 0.24 0.12 0.335 0.085 0.101 0.205 0.188 0.356 0.261 0.157 0.075 0.319 0.136 0.481 0.179 0.166 0.045 0.444 0.11 0.826 0.195 0.483 0.101 0.928 0.213 1.321 0.333 0.399 0.123 0.741 0.274 1.023 0.449 0.286 0.179 0.512 0.409 0.674 0.684 0.161 0.277 0.242 0.617 0.242 1.013-0.001 0.473-0.141 0.906-0.419 1.284z" fill="#444444"></path>
</svg>
