<?xml version="1.0" encoding="utf-8"?>
<!-- Generated by IcoMoon.io -->
<!DOCTYPE svg PUBLIC "-//W3C//DTD SVG 1.1//EN" "http://www.w3.org/Graphics/SVG/1.1/DTD/svg11.dtd">
<svg version="1.1" xmlns="http://www.w3.org/2000/svg" xmlns:xlink="http://www.w3.org/1999/xlink" width="22" height="28" viewBox="0 0 22 28">
<path d="M14.5 21.891v2.359l-11.047 0.016v-2.359zM18.266 16.484v10.953l-0.016 0.547v0.016l-18.25-0.016v-11.5h1.891v9.656h14.5v-9.656h1.875zM3.766 17.859l11 1.016-0.203 2.344-11.016-1.016zM4.828 12.922l10.672 2.859-0.609 2.281-10.672-2.859zM7.375 7.469l9.516 5.625-1.203 2.031-9.516-5.625zM13 2.297l6.219 9.141-1.937 1.328-6.234-9.125zM20.078 0l1.891 10.891-2.328 0.406-1.891-10.891z" fill="#444444"></path>
</svg>
