<?xml version="1.0" encoding="utf-8"?>
<!-- Generated by IcoMoon.io -->
<!DOCTYPE svg PUBLIC "-//W3C//DTD SVG 1.1//EN" "http://www.w3.org/Graphics/SVG/1.1/DTD/svg11.dtd">
<svg version="1.1" xmlns="http://www.w3.org/2000/svg" xmlns:xlink="http://www.w3.org/1999/xlink" width="28" height="28" viewBox="0 0 28 28">
<path d="M1.984 14q0-2.547 1.047-4.891l5.734 15.703q-3.063-1.484-4.922-4.391t-1.859-6.422zM22.109 13.391q0 0.297-0.039 0.602t-0.156 0.773-0.18 0.688-0.273 0.922-0.273 0.906l-1.188 4-4.344-12.906q0.719-0.047 1.375-0.125 0.297-0.031 0.406-0.289t-0.039-0.484-0.445-0.211l-3.203 0.156q-1.172-0.016-3.156-0.156-0.187-0.016-0.32 0.078t-0.18 0.234-0.023 0.289 0.141 0.258 0.305 0.125l1.25 0.125 1.875 5.125-2.625 7.875-4.375-13q0.719-0.047 1.375-0.125 0.297-0.031 0.406-0.289t-0.039-0.484-0.445-0.211l-3.203 0.156q-0.109 0-0.359-0.008t-0.406-0.008q1.641-2.5 4.289-3.961t5.742-1.461q2.297 0 4.383 0.828t3.727 2.328h-0.156q-0.859 0-1.437 0.633t-0.578 1.492q0 0.187 0.031 0.375t0.063 0.336 0.125 0.359 0.141 0.328 0.187 0.352 0.195 0.328 0.227 0.375 0.219 0.359q0.984 1.672 0.984 3.313zM14.203 15.047l3.703 10.109q0.016 0.094 0.078 0.172-1.969 0.688-3.984 0.688-1.75 0-3.391-0.5zM24.531 8.234q1.484 2.719 1.484 5.766 0 3.266-1.625 6.023t-4.359 4.352l3.672-10.594q0.922-2.641 0.922-4.312 0-0.656-0.094-1.234zM14 0q2.844 0 5.437 1.109t4.469 2.984 2.984 4.469 1.109 5.437-1.109 5.437-2.984 4.469-4.469 2.984-5.437 1.109-5.437-1.109-4.469-2.984-2.984-4.469-1.109-5.437 1.109-5.437 2.984-4.469 4.469-2.984 5.437-1.109zM14 27.359q2.703 0 5.18-1.062t4.266-2.852 2.852-4.266 1.062-5.18-1.062-5.18-2.852-4.266-4.266-2.852-5.18-1.062-5.18 1.062-4.266 2.852-2.852 4.266-1.062 5.18 1.062 5.18 2.852 4.266 4.266 2.852 5.18 1.062z" fill="#444444"></path>
</svg>
