<svg xmlns="http://www.w3.org/2000/svg" width="30" height="28" viewBox="0 0 30 28"><path d="M9.64 21.86l-.78.78q-.156.156-.36.156t-.358-.156l-7.28-7.28Q.704 15.202.704 15t.156-.36l7.282-7.28q.156-.156.36-.156t.358.156l.78.78q.157.157.157.36t-.156.36L3.5 15l6.14 6.14q.157.157.157.36t-.156.36zm9.235-16.673L13.047 25.36q-.063.202-.242.304t-.367.04l-.97-.267q-.202-.063-.304-.242t-.04-.383l5.83-20.172q.062-.203.24-.305t.368-.04l.97.267q.202.063.304.242t.04.383zM29.14 15.36l-7.28 7.28q-.156.156-.36.156t-.358-.156l-.78-.78q-.157-.157-.157-.36t.156-.36L26.503 15l-6.14-6.14q-.157-.157-.157-.36t.156-.36l.782-.78q.156-.156.36-.156t.358.156l7.28 7.28q.157.157.157.36t-.156.36z" fill="#444"/></svg>