<svg xmlns="http://www.w3.org/2000/svg" width="16" height="28" viewBox="0 0 16 28"><path d="M4.5 23q0-.625-.438-1.062T3 21.5t-1.062.438T1.5 23t.438 1.062T3 24.5t1.062-.438T4.5 23zm0-18q0-.625-.438-1.062T3 3.5t-1.062.438T1.5 5t.438 1.062T3 6.5t1.062-.438T4.5 5zm10 2q0-.625-.438-1.062T13 5.5t-1.062.438T11.5 7t.438 1.062T13 8.5t1.062-.438T14.5 7zM16 7q0 .812-.406 1.508T14.5 9.594q-.03 4.484-3.53 6.47-1.063.593-3.173 1.265-2 .624-2.648 1.108T4.5 20v.407q.69.39 1.095 1.086T6 23q0 1.25-.874 2.126T3 26t-2.124-.874T0 23q0-.81.407-1.507T1.5 20.407V7.595Q.814 7.205.408 6.51T0 5q0-1.25.876-2.124T3 2t2.126.876T6 5q0 .813-.405 1.51T4.5 7.594v7.766q.845-.405 2.407-.89.86-.266 1.367-.46t1.102-.485.922-.617.633-.797.44-1.085.132-1.43q-.688-.39-1.094-1.086T10.002 7q0-1.25.875-2.124T13.002 4t2.125.876T16.002 7z" fill="#444"/></svg>