<svg xmlns="http://www.w3.org/2000/svg" viewBox="0 267 792 345" enable-background="new 0 267 792 345"><path fill="#2580AA" d="M427.3 458c12.3.5 26.6 7.7 27.2 2.5 8.3-2.5 15.3-4 17.6-10.5 7.8-1.2 16.4-2.6 26-4.2 84.5-13.4 166.7-14.5 240.6-3.3.2.1 16.7 58 29.5 156.2-10.2-96.9-29.8-156.4-29.4-156.4-80.7-17.2-172-18.9-267.8-4.7-3.5-4.5-12.2-2-22.5-2-10.1 0-43.5-4.1-43.6-4.1-7.5-5.6-19.5-33.1-22.8-36.5 1.8-.6 3.2-.9 3.9-.9 6-.1 8.9 1.8 14.2 0 7.2-2.5 9.1-13.9 8.3-18.3-.2-1.5-13-8.5-9.1-6.7 1.9.9 9.8.9 11-1.5 1.7-3.3-1.1-6.9-.9-10.9.2-3.5 8.9-2 8.9-6.6 0-7.3-8.9-12.2-9.9-18.6-.8-4.4 5.6-9.9 4.2-13.9-6.5-19.8-23.5-33-47.7-33-36.2 0-49 29.7-49 66.4 0 3.2-.1 6-.3 8.4-1.1 14.1 4.2 25.2 9.5 27.8 1.4.7 8.1 1.8 13.6 4.7-10.9 25-3.3 41.2-5.9 58.6-1.7 11.1-4.7 17.6-6.6 24.3-.2.1-.5.2-.8.3l.5.5c-.9 3.4-1.6 6.9-1.6 11.2 0 3.6.1 7 .3 10.2-6.5.1-13.1.1-19.5.1-28.3 0-56.4-.8-84.1-2.4 2.4-1.6 8-4.8 9.5-8.3 5.1-11.4-10.1-3-12.4-.8-.8-1.4-4.5-11.4-6.1-11.8-3.5-1.1-3.2 12.7-2.7 12.7-.9.5-1.5 4.2-3.1 7.3-3.1-.1-6.1-.5-9.2-.7-1.8-4.3-5.5-11.4-10.1-18.4v-.1c3.3-10.5-2.6-21.7-13.1-25-5.1-1.6-10.5-1-15 1.2-4.8-1-10.1-2-11.4-2.4-10.8-3.4-26.5 2.2-25.7 13.4.8 10.7 23.4 12.3 23.4 12.3s-31.9-.2-10.7 13c-41.4-4.8-82.2-11.4-122-19.5C18.4 510 36 549.2 62.6 582.8c8.2-4.5 15.2-10.8 20.7-18.3C95 580.5 114 591 135.5 591c14.7 0 28.1-4.8 39-13.1 10.8 8.2 24.3 13.1 39 13.1 18.7 0 35.6-8 47.3-20.7 11.8 12.6 28.6 20.7 47.3 20.7 18.2 0 34.7-7.6 46.4-19.7 11.7 12 28.2 19.7 46.4 19.7 11.7 0 22.8-3.2 32.3-8.6 9.4 5.5 20.6 8.6 32.3 8.6 17.6 0 33.4-7 45.1-18.4 11.7 11.4 27.5 18.4 45.1 18.4 5.3 0 10.5-.7 15.3-1.8 30.8-36.7 50.8-80.3 56.1-127.7-73 16.5-148.7 27.5-226.4 32.5.8-8.9 1.5-19.4 1.7-29.4 7.8-2.4 16-4.6 24.9-6.6zm-279.6 3.2c-.5 1.9-2.4 2.8-4.2 2.3-1.8-.6-2.8-2.5-2.3-4.2.6-1.8 2.5-2.8 4.2-2.3 1.7.5 2.9 2.5 2.3 4.2z"/></svg>