<svg xmlns="http://www.w3.org/2000/svg" width="16" height="16" viewBox="0 0 16 16"><path d="M14.885 9.233c.07-.4.115-.812.115-1.234 0-3.867-3.134-7-7-7-.422 0-.832.043-1.234.114C6.048.424 5.074 0 4 0 1.79 0 0 1.79 0 4c0 1.073.425 2.047 1.114 2.765C1.044 7.165 1 7.575 1 8c0 3.865 3.133 7 7 7 .42 0 .83-.044 1.232-.116C9.952 15.574 10.924 16 12 16c2.208 0 4-1.792 4-4 0-1.075-.427-2.05-1.116-2.768zm-3.803 1.57c-.277.376-.685.675-1.214.886-.524.21-1.152.315-1.867.315-.858 0-1.577-.146-2.138-.43-.402-.21-.732-.492-.984-.842-.254-.352-.383-.7-.383-1.04 0-.21.083-.393.25-.543.162-.15.372-.223.622-.223.205 0 .383.06.526.176.138.114.255.28.35.493.107.234.222.43.344.585.117.15.286.277.502.375s.508.15.867.15c.493 0 .9-.102 1.204-.303.298-.195.443-.43.443-.72 0-.226-.075-.405-.23-.545-.163-.146-.377-.26-.637-.34-.272-.08-.64-.17-1.097-.26-.62-.128-1.147-.28-1.567-.45-.428-.176-.774-.42-1.026-.723-.256-.31-.386-.697-.386-1.154 0-.434.137-.827.407-1.164.267-.336.657-.597 1.16-.776.495-.177 1.085-.266 1.753-.266.533 0 1.003.06 1.394.177.394.118.726.278.988.474.262.198.458.41.58.63s.188.44.188.655c0 .205-.082.392-.245.555-.164.163-.37.247-.614.247-.22 0-.394-.052-.513-.154-.112-.096-.228-.244-.357-.457-.15-.27-.33-.486-.537-.638-.2-.147-.536-.22-.998-.22-.428 0-.777.08-1.035.245-.25.157-.37.338-.37.55 0 .132.04.24.12.336.085.1.205.188.356.26.157.076.32.137.48.18.167.045.445.11.827.195.483.1.928.213 1.32.333.4.124.742.275 1.024.45.286.18.512.41.674.684.162.277.243.617.243 1.013 0 .473-.14.906-.42 1.284z" fill="#444"/></svg>