<svg xmlns="http://www.w3.org/2000/svg" width="24" height="24" viewBox="0 0 24 24"><path d="M15 14.363s-6.182 0-8.5 5.41c0 0 3.87 1.545 8.5 1.545s8.5-1.545 8.5-1.545c-2.318-5.41-8.5-5.41-8.5-5.41zm0-.77c2.318 0 3.863-2.32 3.863-6.184S15 3.544 15 3.544s-3.863 0-3.863 3.864S12.682 13.59 15 13.59zm-7.5-2.638c.762 0 1.416-.316 1.935-.885-.192-.777-.298-1.665-.298-2.66 0-1.486.57-2.397 1.274-2.96C9.646 2.687 7.5 2.683 7.5 2.683s-3.182 0-3.182 3.182 1.273 5.09 3.182 5.09zm3 2.494l-.108-1.26c-1.558-.595-2.892-.6-2.892-.6s-5.09 0-7 4.456c0 0 2.46.98 5.645 1.22C8.918 14.363 10.5 13.45 10.5 13.45z" fill="#444"/></svg>