<svg xmlns="http://www.w3.org/2000/svg" viewBox="0 0 960.3 518.4" enable-background="new 0 0 960.3 518.4"><path fill="#2580AA" d="M864.7 357.2c-2 .4-4 .9-6 1.3C852.2 137 843.4 14.8 833 14.7c-.2 0-.3.1-.5.1 10.2 3.9 18.8 125.7 25.3 343.9-44 9.8-88.8 17.9-134.3 24.2.9-4.4 1.3-8.8 1.3-13.4 0-13.6-.5-24.3-4.6-33.8 2.9-14 6.4-30.2 10.6-50.1 19.6-92.2 53-185.7 101.7-270.4-55.1 84.5-98.8 188.4-124 304.3-7.8-6.8-26.3-16.2-34.9-19.8 7.3-5.4 23.7-12.3 27.9-20.4 4.4-8.3-3.5-25.5-3.5-35.6 0-33-26.8-65-59.8-65s-59.8 32-59.8 65c0 11-7.4 29-2.3 37.9 5.2 8.8 22.9 16.2 31.7 21.5-12.9 7.1-28.7 17.8-35.7 30.7-5.7 10.7-3.8 22.8-3.8 35.8 0 9.8 1.9 19.2 5.3 27.8-9.9.5-19.8 1-29.7 1.3 0-21.4-12.4-92.9-12.4-115.6 0-24.7-21.5-61.8-30.1-72.3-8.6-10.5-17.6-22.1-16.4-27.5 2.7-12.5 13.2-24.5 12-45-2.5-42.4-37.1-69.4-66.4-70.4-24.5-.8-42.8 13.2-51.9 41-2 6.1 10.1 12.5 10 19.2 0 3.3-7.1 19.2-6.7 22.5.8 7 13.2 4 15.5 10.4.6 1.7-6.9 10.7 2.8 11.2 3.5.2 22.6-9.2 25.6-7.1.8 29.1-22.9 21.2-19.7 26 4 6.1.8 12.6 5.1 16.2 4.3 3.6 23.3-2 26.2-1.5-1.8 2.5-13.9 7.4-17.4 17.5-4.7 13.5-7.2 31-10.8 39.6 0 0-20.8-8.7-32-14.5-8.9-16.5-24.3-17-33.2-16.1-73.5-77.3-181.4-100.9-261.8-56.1-.3-.6-.7-.9-1.1-1h-.5c.4.3.7.7.9 1.4-.3.1-.5.3-.8.4.3.2.6.5.9.8.1 0 .2-.1.3-.1 4.7 18.5-15.9 132.5-56.8 320.5l.8.7C67.4 308.5 88 194 82.7 177.3c77.8-36.9 176.8-13.1 246.3 57.6-1.4 2.4 3.2 7.8 3.2 18.4 0 5 11.4 5.9 20.6 9.3 2.3 3 4.5 6.1 6.6 9.2 33.4 48.5 50.6 89 50.9 126.7-96.3-3.8-190.1-15.3-280.8-33.8 7 50.6 28.2 97.5 60 137.8 9.7-5.5 18.2-12.9 24.8-21.9 14.1 19.2 36.8 31.7 62.4 31.7 17.5 0 33.6-5.8 46.6-15.6 12.9 9.8 29.1 15.6 46.6 15.6 22.4 0 42.5-9.5 56.6-24.7 14.1 15.2 34.2 24.7 56.6 24.7 21.8 0 41.4-9 55.5-23.5 14 14.5 33.7 23.5 55.5 23.5 14.1 0 27.3-3.8 38.6-10.4 11.4 6.6 24.6 10.4 38.6 10.4 21 0 40.1-8.4 54-22 13.9 13.6 33 22 54 22 6.3 0 12.5-.8 18.4-2.2 29.4-35 50.6-75.4 61.1-119 1.1 39.6 2.1 82.1 3.1 127.3h.9c-1-46.6-2.1-90.3-3.2-130.9 2.3-10 4-20.1 5.1-30.3zM387 289.5c9.1 7.7 18.7 14.1 28.4 14.4 7.4.2 17.3-12.2 22.6-17.6 2.2 4.4-10 50.7-17.4 87.1-4.5-26.5-15.8-54.5-33.6-83.9z"/></svg>