<svg xmlns="http://www.w3.org/2000/svg" width="28" height="28" viewBox="0 0 28 28"><path d="M1.984 14q0-2.547 1.047-4.89L8.766 24.81q-3.063-1.484-4.922-4.39t-1.86-6.423zm20.125-.61q0 .298-.04.603t-.156.773-.18.688-.273.922-.272.906l-1.188 4-4.344-12.906q.72-.047 1.375-.125.298-.03.407-.288t-.04-.484-.444-.21l-3.203.155q-1.172-.016-3.156-.156-.187-.016-.32.078t-.18.234-.023.288.142.258.305.125l1.25.126 1.875 5.125-2.625 7.876-4.375-13q.72-.047 1.375-.125.297-.03.406-.288t-.04-.484-.444-.21l-3.204.155q-.11 0-.36-.008t-.405-.008q1.642-2.5 4.29-3.96t5.742-1.462q2.297 0 4.383.828t3.727 2.328h-.156q-.86 0-1.437.634t-.58 1.492q0 .187.032.375t.063.337.125.36.14.327.188.352.195.328.227.375.22.358q.983 1.672.983 3.313zm-7.907 1.657l3.703 10.11q.016.093.078.17-1.97.69-3.984.69-1.75 0-3.39-.5zM24.53 8.234q1.485 2.72 1.485 5.766 0 3.266-1.625 6.023t-4.36 4.352l3.673-10.594q.922-2.64.922-4.31 0-.657-.094-1.235zM14 0q2.844 0 5.437 1.11t4.47 2.983 2.983 4.47T28 13.998t-1.11 5.436-2.984 4.47-4.47 2.983T14 27.997t-5.437-1.11-4.47-2.983-2.983-4.47T0 14 1.11 8.56t2.984-4.47 4.47-2.983T14 0zm0 27.36q2.703 0 5.18-1.063t4.266-2.852 2.852-4.266T27.36 14t-1.062-5.18-2.852-4.267T19.18 1.7 14 .64 8.82 1.7 4.554 4.554 1.702 8.82.64 14t1.062 5.18 2.852 4.265 4.266 2.852T14 27.36z" fill="#444"/></svg>