<svg xmlns="http://www.w3.org/2000/svg" viewBox="0 0 792 612"><g fill="#2580AA"><path d="M610.8 373.2c-3.2-112.2-7.1-186-11.8-214.4 3.3 27.4 4.8 97.7 10.3 214.6-29.3 4.7-59 8.6-89 11.6.5-19.9 4.4-36.1 12.3-73.6 12-56.4 32.5-113.6 62.2-165.4-34.1 52.3-61.1 116.7-76.4 188.6-5.5 25.9-9 39.3-10.8 51.6-28.6 2.6-57.4 4.4-86.6 5.4-2.9-15.8-7.3-32.9-6.9-43.7.5-11.5 35.6-21.3 35.5-35.6 0-11.9-12.3-22.8-15.9-39.3-3.6-16.5-20.1-20.6-26.3-20.6-6.1 0-6.7-16-6.7-16-1-.1 11.3-17.6 26.3-37.2 14.2-18.6 2.3-62.2-36.4-62.2-10.6 0-26.4 7.6-33.1 19.5-1.8 3.2 2 11.6 0 14.9-3.7 6.3-10.9 12.5-12.4 18-1.1 4.2 5.6 4.9 7.2 6.7 1.6 1.7-1.8 4.5-1.1 7.2 1.5 5.7 9.9 5.1 9.9 5.1s-9.5 7.2-8.6 9.2c1.3 2.9-.5 8.8 1 11.3 2.8 4.8 9.3 5.8 13.2 8.9-1 3.6 1.2 9-1.5 10.3-3.1 1.5-11.1-1.1-12.4 0-3.9-8.7-27-30.1-31.9-36.6 0 0-19.9-44.3-19.1-49.6 1.4-8.8-7.3-30.5-19.2-31.8-12.3-1.4-11.3 8.9-11.2 21.1.1 11.1-.5 15.8 10.2 17-.1 11.5-.7 24.7-1.4 35.9 1-12.9 1.9-25.2 2.3-35.5 6.1 4.8 11.6 46.5 11.6 51.7 0 11.7 10.8 25.2 18 32.4s19.9 23.1 21.5 25.3c1.6 2.2-.9 63.5-.9 71.7 0 4.4-2.6 23.9-4.6 42.3-91-2.4-179.6-12.6-264.9-30.1 6.1 43.9 24.5 84.7 52.1 119.7 8.5-4.7 15.8-11.2 21.5-19 12.2 16.7 31.9 27.6 54.2 27.6 15.2 0 29.2-5.1 40.5-13.6 11.2 8.5 25.2 13.5 40.4 13.5 19.4 0 36.9-8.3 49.2-21.5 12.3 13.2 29.8 21.5 49.2 21.5 18.9 0 36-7.8 48.2-20.4 12.2 12.6 29.3 20.4 48.2 20.4 12.2 0 23.7-3.3 33.6-9 9.9 5.7 21.3 9 33.6 9 18.3 0 34.8-7.3 46.9-19.1 12.1 11.8 28.6 19.1 46.9 19.1 5.5 0 10.9-.7 16-1.9 32-38.1 52.8-83.6 58.3-132.8-29.8 6.9-60.3 12.8-91.2 17.8zm-202.4-69.3c-.3 1.4 14.7 8.9 11.3 8.3-3.3-.6-11.3 11.5-11.3 11.5v-19.8z"/><path d="M274.6 230.6c-.3 1.3.4 2.6 1.4 3.3l-6.1 24v.1c0 .1-.4 2.2-1.6 4.4-5-1.5-10.1-2.2-15.1-2.2l.9-1.5c-3.3-1.7-3.1-6.8-3.1-6.8l.4-6.5-2.5 6c-.1.2-1.9 4.6-.9 9.1-21.1 1.9-40.1 16.3-46.9 37.7-9.1 28.6 6.8 59.2 35.4 68.3 28.6 9.1 59.2-6.8 68.3-35.4 9-28.3-6.5-58.5-34.5-68 1.2-2.2 1.6-4.3 1.7-4.6l6.1-23.9c1.2-.1 2.6-1 2.9-2.2.4-1.6-.6-3.3-2.4-3.8s-3.6.4-4 2zm-11.2 36.2c-1.7.6-3.6.6-5.7 0-1.1-.3-2.1-.7-3-1.1 2.9.1 5.8.5 8.7 1.1zm-13.4-9.7c.5 1.2 1.4 2.3 2.7 3-.8 0-1.6 0-2.4.1-.3-1.1-.4-2.1-.3-3.1zm-43.6 42.7c2.1-6.8 5.6-12.7 10.1-17.7l2.9 68c-13.2-12.5-18.9-31.9-13-50.3zm31.8 61.4c-4.6-1.5-8.8-3.5-12.6-6.1l26.9-36.2 1.9 43.8c0 .3.1.5.1.7-5.4.2-10.9-.5-16.3-2.2zm62.8-56c1.5 7.8 1.2 16.1-1.4 24.2-5.5 17.2-19.5 29.3-36 32.9l27.3-36.6c4.8-5.8 7.3-10.8 8.8-15.6.6-1.8 1-3.4 1.3-4.9zm-5.7-15.1c-.2-.1-.4-.2-.6-.2-4.6-1.5-9.1 1.5-10.5 5.8-1.2 3.8 0 7.8 1.1 12.4.8 3.7 1.6 8.3-.2 14.1-1.3 4-4.3 8.1-8.3 13.9l-9.6 14.1-.9-55.5c2.9.7 5.5 1.2 5.5 1.2 2.6.5 3.5-3.3.9-3.9 0 0-7.7-1.8-12.6-3.3-4.6-1.5-12.1-4.5-12.1-4.5-2.5-.9-4 2.8-1.5 3.7 0 0 2.3 1 4.7 2l1 22.2-19.9 27.4-1-55.9c2.9.7 5.5 1.2 5.5 1.2 2.6.5 3.5-3.3.9-3.9 0 0-7.7-1.8-12.6-3.3-.9-.3-1.9-.6-3-1 8.1-6.6 18.3-10.5 29-10.9 1.5 1.4 3.5 2.4 6 3.1 3.4.9 6.3.6 8.8-.9.2-.1.4-.2.5-.4.4.1.8.2 1.3.4 12.1 3.8 21.7 12 27.6 22.2zm-16.4-58.4c-.1.6-.7.9-1.3.7-.6-.2-.9-.7-.8-1.3.2-.5.8-.8 1.3-.7.6.2.9.7.8 1.3zM280.4 204.2c-.6 8-1.2 16.3-1.8 24.3 0 0 .9-10.6 1.8-24.3zM595.1 145.6c-.1 0-.2 0-.3.1 1.5.5 2.9 5 4.2 13.1-1.1-8.9-2.3-13.3-3.9-13.2z"/></g></svg>