<svg xmlns="http://www.w3.org/2000/svg" viewBox="0 0 960.3 518.4"><path fill="#2580AA" d="M716.8 373.1c-4.9-22.2-21-59.8-23.8-69.4-3.3-11.3-.2-76-7.6-88.1-7.4-12.1-6.7-6.6-4.3-13.7 4-11.6 11.7-18.7 12.9-38.3 2.4-40.3-28.9-68.4-56.6-65.3-30.4 3.4-35.4 5.4-47.1 30.7-2.6 5.6 8.1 12.9 7.3 19.3-.4 3.1-8.8 17.3-8.8 20.6 0 6.8 12 5.3 13.5 11.5.4 1.7-7.8 9.3 1.3 10.9 3.3.6 17.6-5.4 20.2-3.1 1.3 5.4-20.4 7.3-18 12.2 3.1 6.2-.7 12 3 15.9s22.2.8 25 1.5c-6.8 7.5-22.8 45.9-30.7 51.3-1.5-4.4-8.3-6.4-13.3-10.5-25-89.2-58.9-171.3-99.5-243.6.4-.3-23.7 26.5-13.2 225.3-16.5 2.9-24.6 18.4-35.9 22.2-1-.1-21.9-1.7-29.7-1.7-2.7 0-29.5-21-36.1-27.6 2.2-.6 3.8-1.1 4.6-1.1 7.2-.1 10.6 2.2 17 0 8.5-3 10.9-16.6 10-21.9-.3-1.8-18.2-4.1-10.9-8.1 2.3 1.1 11.8 1.1 13.3-1.8 2.1-4-1.4-8.3-1.1-13 .3-4.3 10.5-2.5 10.5-7.9 0-8.7-10.6-14.6-11.9-22.4-.9-5.3 6.7-11.9 5.1-16.6-7.8-23.6-28.2-39.5-57.2-39.5-43.4 0-58.8 35.6-58.8 79.6 0 3.8-.2 7.1-.4 10.1-1.3 16.9 4.9 30.2 11.5 33.4 1.6.8 9.7 2.2 16.4 5.6-13.1 29.9-4 49.5-7.1 70.4-3.1 20.8-10.1 27.9-10.1 43.7 0 17 1.1 29.2 12.6 39.9-.4.5-.7 1.3-1 2.2-70.3-5.7-139.2-15.6-206.3-29.4 7.1 50.7 28.3 107.5 60.1 147.9 9.8-5.5 18.3-13 24.8-22 14.1 19.3 36.9 31.8 62.6 31.8 17.5 0 33.7-5.8 46.7-15.7 13 9.8 29.2 15.7 46.7 15.7 22.4 0 42.6-9.5 56.8-24.8 14.1 15.2 34.3 24.8 56.8 24.8 21.8 0 41.5-9 55.6-23.6 14.1 14.5 33.8 23.6 55.6 23.6 14.1 0 27.3-3.8 38.7-10.4 11.4 6.6 24.6 10.4 38.7 10.4 15.9 0 30.7-4.8 43-13 .6 0 1.1.1 1.7.1 5.3 0 10.4-1.5 15.1-4.1 13.3 10.7 30.1 17.1 48.5 17.1 6.4 0 12.5-.8 18.4-2.2 37-44 61-106.2 67.3-163-43.2 9.4-87.2 17.6-131.9 24.1zm-99-73c.3 14 3.5 60.6 3.5 77 0 2.4-.5 4.9-1.2 7.2-.7.1-1.3.1-2 .2-4.8-27.8-10.5-55.1-16.9-81.8 9 4.5 11.4-3 16.6-2.6zm-155.1 91.3c-21.9 0-43.8-.4-65.5-1.2-.8-5.3-1.9-10.7-1.9-14.5 0-2.9 5.8-50 3.8-77.6-.1-.2-.1-.4-.2-.6 11.7-.3 39.2 4.4 41.6 3.1 10.3-2.2 30.7-32.3 37-32.3h.2c1 36.2 2.3 77 3.9 123-6.3 0-12.6.1-18.9.1zm19.4-.1c-.9-38-1.8-81.7-2.7-123.5 4.4-1.6 9-6.7 9.4-15.6.3-5.8 16.7-4.9 16.7-7.8 0-8-18.7-5.1-26.7-4.5-1-54-3.5-107.5-2-132.4 4.6-78.1 11.8-89.6 13.4-92.5 33.1 67.8 59.4 142.8 79.8 223.1-7.8 2.8-11.9 10.9-11.9 20.4 0 11.9 6.5 21.5 18.4 21.5 1.6 2 3.2 3.9 4.6 5.6 5.9 27.5 10.9 55.6 15 84.2.9 6 1.7 11.4 2.5 16.3-38.4 3-77.3 4.7-116.5 5.2z"/></svg>