<?xml version="1.0" encoding="utf-8"?>
<!-- Generated by IcoMoon.io -->
<!DOCTYPE svg PUBLIC "-//W3C//DTD SVG 1.1//EN" "http://www.w3.org/Graphics/SVG/1.1/DTD/svg11.dtd">
<svg version="1.1" xmlns="http://www.w3.org/2000/svg" xmlns:xlink="http://www.w3.org/1999/xlink" width="30" height="28" viewBox="0 0 30 28">
<path d="M9.641 21.859l-0.781 0.781q-0.156 0.156-0.359 0.156t-0.359-0.156l-7.281-7.281q-0.156-0.156-0.156-0.359t0.156-0.359l7.281-7.281q0.156-0.156 0.359-0.156t0.359 0.156l0.781 0.781q0.156 0.156 0.156 0.359t-0.156 0.359l-6.141 6.141 6.141 6.141q0.156 0.156 0.156 0.359t-0.156 0.359zM18.875 5.187l-5.828 20.172q-0.063 0.203-0.242 0.305t-0.367 0.039l-0.969-0.266q-0.203-0.063-0.305-0.242t-0.039-0.383l5.828-20.172q0.063-0.203 0.242-0.305t0.367-0.039l0.969 0.266q0.203 0.063 0.305 0.242t0.039 0.383zM29.141 15.359l-7.281 7.281q-0.156 0.156-0.359 0.156t-0.359-0.156l-0.781-0.781q-0.156-0.156-0.156-0.359t0.156-0.359l6.141-6.141-6.141-6.141q-0.156-0.156-0.156-0.359t0.156-0.359l0.781-0.781q0.156-0.156 0.359-0.156t0.359 0.156l7.281 7.281q0.156 0.156 0.156 0.359t-0.156 0.359z" fill="#444444"></path>
</svg>
