<?xml version="1.0" encoding="utf-8"?>
<!-- Generated by IcoMoon.io -->
<!DOCTYPE svg PUBLIC "-//W3C//DTD SVG 1.1//EN" "http://www.w3.org/Graphics/SVG/1.1/DTD/svg11.dtd">
<svg version="1.1" xmlns="http://www.w3.org/2000/svg" xmlns:xlink="http://www.w3.org/1999/xlink" width="16" height="28" viewBox="0 0 16 28">
<path d="M4.5 23q0-0.625-0.438-1.062t-1.062-0.438-1.062 0.438-0.438 1.062 0.438 1.062 1.062 0.438 1.062-0.438 0.438-1.062zM4.5 5q0-0.625-0.438-1.062t-1.062-0.438-1.062 0.438-0.438 1.062 0.438 1.062 1.062 0.438 1.062-0.438 0.438-1.062zM14.5 7q0-0.625-0.438-1.062t-1.062-0.438-1.062 0.438-0.438 1.062 0.438 1.062 1.062 0.438 1.062-0.438 0.438-1.062zM16 7q0 0.812-0.406 1.508t-1.094 1.086q-0.031 4.484-3.531 6.469-1.062 0.594-3.172 1.266-2 0.625-2.648 1.109t-0.648 1.563v0.406q0.688 0.391 1.094 1.086t0.406 1.508q0 1.25-0.875 2.125t-2.125 0.875-2.125-0.875-0.875-2.125q0-0.812 0.406-1.508t1.094-1.086v-12.812q-0.688-0.391-1.094-1.086t-0.406-1.508q0-1.25 0.875-2.125t2.125-0.875 2.125 0.875 0.875 2.125q0 0.812-0.406 1.508t-1.094 1.086v7.766q0.844-0.406 2.406-0.891 0.859-0.266 1.367-0.461t1.102-0.484 0.922-0.617 0.633-0.797 0.438-1.086 0.133-1.43q-0.688-0.391-1.094-1.086t-0.406-1.508q0-1.25 0.875-2.125t2.125-0.875 2.125 0.875 0.875 2.125z" fill="#444444"></path>
</svg>
