<?xml version="1.0" encoding="utf-8"?>
<!-- Generator: Adobe Illustrator 18.0.0, SVG Export Plug-In . SVG Version: 6.00 Build 0)  -->
<!DOCTYPE svg PUBLIC "-//W3C//DTD SVG 1.1//EN" "http://www.w3.org/Graphics/SVG/1.1/DTD/svg11.dtd">
<svg version="1.1" id="Layer_1" xmlns="http://www.w3.org/2000/svg" xmlns:xlink="http://www.w3.org/1999/xlink" x="0px" y="0px"
	 viewBox="0 0 792 612" enable-background="new 0 0 792 612" xml:space="preserve">
<g>
	<path fill="#2580AA" d="M568.7,77C568.8,76.9,568.7,77,568.7,77L568.7,77z"/>
	<path fill="#2580AA" d="M774.3,350.6h-50.9c5.6-5.3,10.1-12.9,10.1-23c0-0.4,26.5,4.5,29.1-7.7c1.9-9-13.7-28.9-22.5-28.9
		c-8.3,0-14.4,10.4-15.3,18.3c-7.8,6.5-20.6,0.4-20.6,0.4s0-15.4-13.9-19c-8.9-2.3-20.2,12.8-20.7,12.8c-0.9,0-11.3-16.6-28.6-16.6
		c-10.4,0-24.7,10.3-26.7,20.2c0,0,6.3,8.7,16.1,10.4c4.3,0.8,8.5-2.8,8-1.8c-5.6,9.7-20.3,0.5-19.6,2.4c1.5,3.8,7.8,12.8,14.6,14.6
		c4.8,1.3,8.9,3.8,12.4,6.8c-1.9,1.8-3,4.1-3,6.9c0,1.4,0.3,2.8,0.9,4h-46.2c-2.7-118-10-248.8-28.7-273.6c0,0,16.1,23.8,22.3,191.6
		c1.1,29,2,56.4,2.7,82h-74.2c13.1-98.8,30.1-192.4,49.2-273.6c-28.6,91.8-49.2,175.6-63.4,273.6h-50.1c0.2-0.2,0.3-0.4,0.4-0.6
		c1.5-2.9-25.6-20-35.6-17.2c-2-4.9-44.1-28-78.2-30c-30.6-1.8-56.4,0-59.6,8.5c-1.2-0.2-2.7,28.7-1.1,39.3H213
		c-0.5-7.4-6.4-40.8-7.2-51.2c-1.1-13.3-4-19.7-10.5-28.5c-4.4-5.9-5.1,6.4-5.3,15.6c-0.1,4.5-2,12.8-2,12.8s2.4-23.3-4.4-33
		c-1.4-2-21.7,16.3-25.6,27.5c-7.9,22-13.8,49.2-14.2,56.9H10.5v16.6h44.9v182.7h54.2V367.1H503c-7.3,53.9-12.7,112.2-16.6,178.5
		l13.6-1.3c4.2-59.7,10.1-119.3,17.5-177.3h76.8c2.9,109.8,2.9,180.9,2.9,180.9s1.5,2.3,1.5,0c0.2-16.9,0.9-93.8-0.8-180.9H672
		v182.7h54.2V367.1h48.1V350.6z M640,309.8c-2.1,0-3.9-1.8-3.9-3.9c0-2.1,1.8-3.9,3.9-3.9c2.1,0,3.9,1.8,3.9,3.9
		C644,308,642.3,309.8,640,309.8z M168.1,303.4c2.9,0,5.1,2.3,5.1,5.1s-2.3,5.1-5.1,5.1s-5.1-2.3-5.1-5.1S165.2,303.4,168.1,303.4z
		 M406,347.3c0.5,1.1,1.7,2.2,3.3,3.3h-48.8C380.4,347.8,398.4,345.6,406,347.3z"/>
</g>
</svg>
