<?xml version="1.0" encoding="utf-8"?>
<!-- Generated by IcoMoon.io -->
<!DOCTYPE svg PUBLIC "-//W3C//DTD SVG 1.1//EN" "http://www.w3.org/Graphics/SVG/1.1/DTD/svg11.dtd">
<svg version="1.1" xmlns="http://www.w3.org/2000/svg" xmlns:xlink="http://www.w3.org/1999/xlink" width="24" height="24" viewBox="0 0 24 24">
<path d="M15 14.363c0 0-6.182 0-8.5 5.41 0 0 3.871 1.545 8.5 1.545s8.5-1.545 8.5-1.545c-2.318-5.41-8.5-5.41-8.5-5.41zM15 13.592c2.318 0 3.863-2.318 3.863-6.183s-3.863-3.864-3.863-3.864-3.863 0-3.863 3.864 1.545 6.183 3.863 6.183zM7.5 10.955c0.762 0 1.416-0.316 1.935-0.885-0.192-0.777-0.298-1.665-0.298-2.661 0-1.485 0.571-2.396 1.274-2.958-0.766-1.765-2.911-1.769-2.911-1.769s-3.182 0-3.182 3.182c0 3.182 1.273 5.091 3.182 5.091zM10.5 13.449l-0.108-1.258c-1.558-0.596-2.892-0.6-2.892-0.6s-5.091 0-7 4.455c0 0 2.461 0.981 5.645 1.22 2.773-2.903 4.355-3.817 4.355-3.817z" fill="#444444"></path>
</svg>
