<?xml version="1.0" encoding="utf-8"?>
<!-- Generator: Adobe Illustrator 18.0.0, SVG Export Plug-In . SVG Version: 6.00 Build 0)  -->
<!DOCTYPE svg PUBLIC "-//W3C//DTD SVG 1.1//EN" "http://www.w3.org/Graphics/SVG/1.1/DTD/svg11.dtd">
<svg version="1.1" id="Layer_1" xmlns="http://www.w3.org/2000/svg" xmlns:xlink="http://www.w3.org/1999/xlink" x="0px" y="0px"
	 viewBox="0 0 792 612" enable-background="new 0 0 792 612" xml:space="preserve">
<g id="bkgd" display="none">
	<rect x="210.8" y="191.4" display="inline" fill="#2580AA" width="614.5" height="366.5"/>
</g>
<g id="images" display="none">
	<g id="hgqPPR_1_" display="inline">
	</g>
	<g id="R2Yxqx_1_" display="inline">
	</g>
	<g id="vyAUYj_1_" display="inline">
	</g>
	<g id="n8oLnq_1_" display="inline">
	</g>
	<g id="oQ07uo_1_" display="inline">
	</g>
	<g id="f5Mqt6_1_" display="inline">
	</g>
	<g id="ZazR74_1_" display="inline">
	</g>
	<g id="_x38_oYl0z_1_" display="inline">
	</g>
	<g id="Layer_11" display="inline">
		<g id="ZdVMCK_1_">
		</g>
		<g id="OSBCFu_1_">
		</g>
		<g id="mbKGOr_1_">
		</g>
		<g id="mGmEBY_1_">
		</g>
		<g id="_x37_yX0mE_1_">
		</g>
	</g>
</g>
<g id="separate_all" display="none">
	<path display="inline" fill="#2580AA" d="M645.9,201.1c2.5,0,3.7,0.8,6,0c3-1,3.8-5.8,3.5-7.7c-0.1-0.6-5.5-3.6-3.8-2.8
		c0.8,0.4,4.1,0.4,4.7-0.6c0.7-1.4-0.5-2.9-0.4-4.6c0.1-1.5,3.7-0.9,3.7-2.8c0-3.1-3.7-5.1-4.2-7.9c-0.3-1.9,2.3-4.2,1.8-5.8
		c-2.7-8.3-9.9-13.9-20.1-13.9c-15.3,0-20.7,12.5-20.7,28c0,1.3-0.1,2.5-0.1,3.5c-0.5,5.9,1.7,10.6,4,11.7c0.7,0.4,5.3,1.1,7.7,3.2
		C633.1,206.3,644.2,201.1,645.9,201.1z"/>
	<path display="inline" fill="#2580AA" d="M626.9,200.2c-5,3.9-9.5,8.3-9.5,15.3c0,3.9,2.7,17.4-0.9,24.1c-6.5,12.1,10.7,25,24,25
		s20.4-5.6,20.4-19.4c0-7.1-4-18.1-3.8-23.6c0.2-1.1,0.3-2.3,0.3-3.5c0-5.5-10.8-13.3-14-17.1L626.9,200.2z"/>
	<path display="inline" fill="#2580AA" d="M499.8,384.7c-2.8-29.8-1.6-32.8,5.5-66.2c6.7-31.3,18-63.1,34.5-91.8
		c-18.9,29-33.9,64.8-42.4,104.7c-6.4,30-7.8,29.7-6.2,56.9"/>
	<path display="inline" fill="#2580AA" stroke="#FFFFFF" stroke-miterlimit="10" d="M549.6,415.4"/>
	<path display="inline" fill="#2580AA" stroke="#FFFFFF" stroke-miterlimit="10" d="M549.6,337"/>
	<path display="inline" fill="#2580AA" d="M425.2,120.8c2-0.3,3.2-0.6,3.2-0.9c0-1-12.2-1.9-27.3-1.9c-15.1,0-27.3,0.8-27.3,1.9
		c0,0.4,1.7,0.7,4.6,1c-7.1,4.5-11.6,10.9-11.6,18.1c0,13.5,15.7,24.5,35.2,24.5s35.2-11,35.2-24.5
		C437.1,131.9,432.5,125.3,425.2,120.8z"/>
	<g display="inline">
		<path fill="#2580AA" d="M550.8,433c-2.3-129.2-6-206.5-10.8-206.5c-0.1,0-0.1,0-0.2,0c5.2,2,9.2,98.5,11.4,255.1"/>
	</g>
	<path display="inline" fill="#2580AA" d="M7.6,520.8c-0.1-5.4-0.8-9.1-6.2-9.1c-0.1,0,0.5-2,0.4-2c0.6-0.7-1.8-6.2-3.9-6.2
		c-1.2,0-0.7,3.1-1.3,3.9c-1.1-0.9-2.8-3.9-4.3-3.9c-3.4,0-4.2,10.6,0.6,13.2c0.2,0.1-0.6,4.6-0.6,5.9c0,3,3.9-1.6,3.9-0.7
		c0,3.8,12.8,8.5,12.8,8.5s-4.1-5-3.5-5c3.1,0,7.8,1,7.8,1S10,521.5,7.6,520.8z"/>
	<path display="inline" fill="#2580AA" d="M401.7,116.5c-0.1-0.6-0.5-4.9-1.1-5.3c-1.2-0.8-2.7,4.6-2.5,4.7
		c-0.8,0.2-2.7,5.5-5.5,2.6c0.1-1.3-0.6-5.4-1.9-9.7l0,0c2.5-3.7,1.5-8.8-2.3-11.2c-1.8-1.2-4-1.6-6-1.2c-1.8-1-3.7-1.9-4.2-2.2
		c-3.8-2.5-10.6-2.2-11.5,2.3c-0.9,4.3,7.8,7.4,7.8,7.4s-12.7-3.8-5.4,4.1l0,0c0,0.2,0.1,0.4,0.2,0.7c-1.1,0.3-2.1,0.9-2.4,1.4
		c-0.5,1,0.3,3.9,1.7,5.5c1,1.1,2-1.3,2.7-3c2.8,4.5,7.3,10.6,9.2,11.9c2.2,1.5,8.9,8.4,20.7-3.8c0.3-0.3,3.9-0.9,5.1-2.3
		C409.8,114.4,402.9,116,401.7,116.5z M375.2,99.3c-0.6-0.4-0.8-1.3-0.4-1.9s1.3-0.8,1.9-0.4s0.8,1.3,0.4,1.9
		C376.6,99.5,375.8,99.7,375.2,99.3z"/>
	<path display="inline" fill="#2580AA" d="M431.4,112.8c4.2,0.7,5.9-4,4.5-5.6s-5.7,1-6.7,0.4c-3.4-1.9-7.7-6.2-10.5-2
		c-1,1.4-2,2.7-2.3,4.3c-1.3-1.1-3.7-2.2-4.9-1.3c-3.4,2.6,1.8,6.9,2.9,8c1.5,1.5,1,2.6-0.3,3.5c-1.6,1.3,1.9,1.3,3.7,0.5
		c-0.4,1.5-1.7,2.8-2.5,3.5c-0.4,0.3-0.6,0.7-0.8,1.1c-0.9-1-4.9-0.3-5.9,0.6s0.2,2.5,2.2,2.7c1,0.1,1.5-0.5,2.6,0.7
		c-0.1,0.6,0.7,2.3,1.1,2.8c0.7,0.7,1.5,0.2,2.2-0.5c0.5-0.5,0.6-3.4,0.4-4c0.9-0.4,1-0.7,1.7-1.3c0.2-0.2-0.7,1.7-0.2,2.2
		c0.8,0.9,4.2,4.2,4.6,3c0.3-1.2,1.3-3.5,0.6-4.5c0.5,0,1.7,1,2,1.3c0.7,0.8,1.6,1.2,2.4,0.5s-0.4-4.9,0.2-4.8
		c2.2-1.8,4.3-3.7,3.9-5.7c1.1,0.3,3.2,0.4,4.1-0.4c2.4-2.5,1-4.9-1.1-4.3C433.5,114.2,430.9,112.8,431.4,112.8z M426.1,109.3
		c-0.4,0.4-1.2,0.1-1.9-0.6c-0.6-0.7-0.8-1.6-0.4-1.9c0.4-0.4,1.2-0.1,1.9,0.6C426.3,108.1,426.5,109,426.1,109.3z"/>
	<path display="inline" fill="#2580AA" d="M432.1,356.5c-41,0-80.8-4.1-119-11.9c7.4,53.1,60.4,94.2,124.7,94.2
		c65.3,0,119-42.5,125-96.8C521.1,351.4,477.3,356.5,432.1,356.5z"/>
	<path display="inline" fill="#2580AA" d="M195.5,362.4c6.1-37.9,4.9-41.9-1.4-85.2c-6.4-44.4-19.2-85.3-36.4-120.5
		c21.8,38.8,37.9,85.8,45.4,137.6c5.6,38.9,7.5,38.7,3.1,73.4"/>
	<g display="inline">
		<path fill="#2580AA" d="M156.8,332.5c-5-109.4-5-175.1,1-175.6c0.1,0,0.1,0,0.2,0c-6.6,2.2-5.7,84.1,1.2,216.7"/>
	</g>
	<path display="inline" fill="#2580AA" d="M187.1,301.9c-2.4-3.9,1.9-6.2,1.9-11.1c0-6.4,7.8-24.5,9-28.5s0.1-27.2,2.7-31.5
		s2.4-2.4,1.5-4.9c-1.4-4.1-4.2-6.7-4.6-13.7c-0.9-14.4,10.3-24.5,20.2-23.4c10.9,1.2,12.7,1.9,16.8,11c0.9,2-2.9,4.6-2.6,6.9
		c0.1,1.1,3.2,6.2,3.2,7.4c0,2.4-4.3,1.9-4.8,4.1c-0.1,0.6,2.8,3.3-0.5,3.9c-1.2,0.2-6.3-1.9-7.2-1.1c-0.5,1.9,7.3,2.6,6.4,4.4
		c-1.1,2.2,0.2,4.3-1.1,5.7s-7.9,0.3-8.9,0.5c2.4,2.7,8.1,16.4,11,18.3c0.6-1.9,4.2-2.6,5.9-5s1.4-6.5,3.2-6.5
		c4.3,0,6.6,3.4,6.6,7.7s-2.3,7.7-6.6,7.7c-11,13.7-11.4,6.9-14.4,7.2c-0.1,5-1.3,21.7-1.3,27.6c0,6.4,8.8,12.3,4.9,16.8
		c3,2.2,4.9,5.8,4.9,9.8c0,6.8-5.5,12.3-12.3,12.3c-5.2,0-9.6-3.2-11.4-7.8c-2.2,5.7-7.6,9.7-14.1,9.7c-8.3,0-15.1-6.8-15.1-15.1
		C180.6,309.1,183.2,304.6,187.1,301.9z"/>
	<path display="inline" fill="#2580AA" d="M646.9,352.7c-4.1,0-17.7-1.6-17.7-1.6c-3-2.3-7.9-13.5-9.3-14.8c0.7-0.2,1.3-0.4,1.6-0.4
		c2.5,0,3.6,0.8,5.8,0c2.9-1,3.7-5.6,3.4-7.4c-0.1-0.6-5.3-3.5-3.7-2.7c0.8,0.4,4,0.4,4.5-0.6c0.7-1.3-0.5-2.8-0.4-4.4
		c0.1-1.5,3.6-0.8,3.6-2.7c0-2.9-3.6-4.9-4-7.6c-0.3-1.8,2.3-4,1.7-5.6c-2.6-8-9.6-13.4-19.4-13.4c-14.7,0-19.9,12.1-19.9,27
		c0,1.3-0.1,2.4-0.1,3.4c-0.4,5.7,1.7,10.2,3.9,11.3c0.5,0.3,3.3,0.7,5.6,1.9c-4.4,10.1-1.4,16.8-2.4,23.8c-1,7.1-3.4,9.5-3.4,14.8
		c0,5.8,0.4,9.9,4.3,13.5c-1.1,1.5-1.2,8.7-0.3,10.1c-1.2,1.1-1.7,6.5-1.2,7.4c-1.5,2-2.4,2.6-2.4,5.7c0,3.2,2.6,5.7,5.7,5.7
		c0.6,0,1.8,0.3,2.3,0.2c0.4,1.7,2,1.9,3.8,1.9c2.2,0,5-0.7,5-2.9s-2.8-4-5-4c0,0,0,0-0.1,0c0-1.7-0.8-3.1-2-4
		c2.2-0.9,3.7-6,3.7-6.2c2.9-0.8,5.2-3.1,6.1-6c0.7,0.5,0.3,4,0.3,5.9c0,2.5,1.4,4.7,3.4,5.8c-1.7,1.2-2.8,3.2-2.8,5.4
		c0,3.7,3,6.7,6.7,6.7c1.9,0,3.6-0.8,4.9-2.1c0.8,0.6,7.4-1,7.4-3.4s-5.7-4.4-6.2-4.2c-0.6-1.2-1.5-2.2-2.7-2.8
		c1.7-1.2,2.8-3.2,2.8-5.4c0-2.6-1.5-4.8-3.6-5.9c2.2-1.6,0.2-7.4,0.2-10.3c0-0.8,1.4-12.4,1.4-21.6c3-0.5,6.2-1,9.2-1.1
		c5.2-0.2,11.8,3.3,12.1,1c4.1-1.2,7.4-1.8,7.4-6.4C656.8,350.8,652.5,352.7,646.9,352.7z"/>
	<path display="inline" fill="#2580AA" d="M480.3,210.9c4-0.1,13.3,1.5,14.1,1.1c3.5-0.8,10.4-10.9,12.5-10.9c1.7,0,4.1-1.8,4.2-5.5
		c0.1-1.9,5.6-1.7,5.6-2.6c0-2.7-6.3-1.7-9-1.5c-6.3,0.5-9.1,6.3-13.2,7.7c-0.3,0-7.4-0.6-10.1-0.6c-0.4,0-2-1.1-4-2.6"/>
	<g id="gHb3f0_1_" display="inline">
	</g>
	<path display="inline" fill="#2580AA" d="M485.9,323.3c2.5-1.8,8-4.2,9.5-6.9c1.5-2.8-1.2-8.7-1.2-12.1c0-11.2-9.1-22.1-20.3-22.1
		c-11.2,0-20.3,10.9-20.3,22.1c0,3.7-2.5,9.9-0.8,12.9c1.8,3,7.8,5.5,10.8,7.3c-4.4,2.4-9.8,6-12.1,10.4c-1.9,3.6-1.3,7.8-1.3,12.2
		c0,14.2,11.5,25.7,25.7,25.7s27.4-11.5,27.4-25.7c0-7.1-0.4-11.9-5.1-16.6C495.9,328.2,489,324.6,485.9,323.3z"/>
	<path display="inline" fill="#2580AA" d="M381.9,310c-24.7-33.9-67-45.8-97.4-28.4c0.1,0.1,0.2,0.2,0.3,0.3
		c30.6-14.8,71.1-1.7,94.4,32c21.9,31.7,21.2,71.3,0.4,95.3c0.2,0.4,0.3,0.7,0.5,1.1C404.8,386.4,406.2,343.4,381.9,310z"/>
	<g display="inline">
		<path fill="#2580AA" d="M244.9,483.9C274,358,289.2,282.2,284.6,281c-0.1,0-0.1,0-0.2,0c4.6,3.2-15,97.8-50.9,250.3"/>
	</g>
	<path display="inline" fill="#2580AA" d="M427.4,293.1c-2.9-3.6-6-7.5-5.6-9.3c0.9-4.3,4.5-8.3,4.1-15.3
		c-0.8-14.4-12.6-23.6-22.5-23.9c-8.3-0.3-14.5,4.5-17.6,13.9c-0.7,2.1,3.4,4.2,3.4,6.5c0,1.1-2.4,6.5-2.3,7.7
		c0.3,2.4,4.5,1.4,5.3,3.5c0.2,0.6-2.4,3.6,0.9,3.8c1.2,0.1,7.7-3.1,8.7-2.4c0.3,9.9-7.8,7.2-6.7,8.8c1.4,2.1,0.3,4.3,1.7,5.5
		c1.5,1.2,7.9-0.7,8.9-0.5c-0.6,0.9-4.7,2.5-5.9,5.9c-1.6,4.6-2.5,10.5-3.7,13.5c0,0-7.1-2.9-10.9-4.9c-4.1-7.7-12.5-5.2-13.5-5.2
		c-5.5,0-1.8,1.4-1.8,6.8c0,2,5.2,2,8.4,3.8c5.7,3.2,12.6,13.2,19.8,13.4c2.5,0.1,5.9-4.2,7.7-6c1.1,2.1-7.7,32.7-7.7,42.1
		c0,12.8,3.5,10,16.3,10s27.4-1.1,27.4-13.9c0-7.2-4.2-31.6-4.2-39.3C437.6,309.3,430.3,296.7,427.4,293.1z"/>
</g>
<g>
	<path fill="#2580AA" d="M610.8,373.2c-3.2-112.2-7.1-186-11.8-214.4c3.3,27.4,4.8,97.7,10.3,214.6c-29.3,4.7-59,8.6-89,11.6
		c0.5-19.9,4.4-36.1,12.3-73.6c12-56.4,32.5-113.6,62.2-165.4c-34.1,52.3-61.1,116.7-76.4,188.6c-5.5,25.9-9,39.3-10.8,51.6
		c-28.6,2.6-57.4,4.4-86.6,5.4c-2.9-15.8-7.3-32.9-6.9-43.7c0.5-11.5,35.6-21.3,35.5-35.6c0-11.9-12.3-22.8-15.9-39.3
		c-3.6-16.5-20.1-20.6-26.3-20.6c-6.1,0-6.7-16-6.7-16c-1-0.1,11.3-17.6,26.3-37.2c14.2-18.6,2.3-62.2-36.4-62.2
		c-10.6,0-26.4,7.6-33.1,19.5c-1.8,3.2,2,11.6,0,14.9c-3.7,6.3-10.9,12.5-12.4,18c-1.1,4.2,5.6,4.9,7.2,6.7c1.6,1.7-1.8,4.5-1.1,7.2
		c1.5,5.7,9.9,5.1,9.9,5.1s-9.5,7.2-8.6,9.2c1.3,2.9-0.5,8.8,1,11.3c2.8,4.8,9.3,5.8,13.2,8.9c-1,3.6,1.2,9-1.5,10.3
		c-3.1,1.5-11.1-1.1-12.4,0c-3.9-8.7-27-30.1-31.9-36.6c0,0-19.9-44.3-19.1-49.6c1.4-8.8-7.3-30.5-19.2-31.8
		c-12.3-1.4-11.3,8.9-11.2,21.1c0.1,11.1-0.5,15.8,10.2,17c-0.1,11.5-0.7,24.7-1.4,35.9c1-12.9,1.9-25.2,2.3-35.5
		c6.1,4.8,11.6,46.5,11.6,51.7c0,11.7,10.8,25.2,18,32.4s19.9,23.1,21.5,25.3c1.6,2.2-0.9,63.5-0.9,71.7c0,4.4-2.6,23.9-4.6,42.3
		c-91-2.4-179.6-12.6-264.9-30.1c6.1,43.9,24.5,84.7,52.1,119.7c8.5-4.7,15.8-11.2,21.5-19c12.2,16.7,31.9,27.6,54.2,27.6
		c15.2,0,29.2-5.1,40.5-13.6c11.2,8.5,25.2,13.5,40.4,13.5c19.4,0,36.9-8.3,49.2-21.5c12.3,13.2,29.8,21.5,49.2,21.5
		c18.9,0,36-7.8,48.2-20.4c12.2,12.6,29.3,20.4,48.2,20.4c12.2,0,23.7-3.3,33.6-9c9.9,5.7,21.3,9,33.6,9c18.3,0,34.8-7.3,46.9-19.1
		c12.1,11.8,28.6,19.1,46.9,19.1c5.5,0,10.9-0.7,16-1.9c32-38.1,52.8-83.6,58.3-132.8C672.2,362.3,641.7,368.2,610.8,373.2z
		 M408.4,303.9c-0.3,1.4,14.7,8.9,11.3,8.3c-3.3-0.6-11.3,11.5-11.3,11.5V303.9z"/>
	<path fill="#2580AA" d="M274.6,230.6c-0.3,1.3,0.4,2.6,1.4,3.3l-6.1,24v0.1c0,0.1-0.4,2.2-1.6,4.4c-5-1.5-10.1-2.2-15.1-2.2
		l0.9-1.5c-3.3-1.7-3.1-6.8-3.1-6.8l0.4-6.5l-2.5,6c-0.1,0.2-1.9,4.6-0.9,9.1c-21.1,1.9-40.1,16.3-46.9,37.7
		c-9.1,28.6,6.8,59.2,35.4,68.3c28.6,9.1,59.2-6.8,68.3-35.4c9-28.3-6.5-58.5-34.5-68c1.2-2.2,1.6-4.3,1.7-4.6l6.1-23.9
		c1.2-0.1,2.6-1,2.9-2.2c0.4-1.6-0.6-3.3-2.4-3.8S275,229,274.6,230.6z M263.4,266.8c-1.7,0.6-3.6,0.6-5.7,0c-1.1-0.3-2.1-0.7-3-1.1
		C257.6,265.8,260.5,266.2,263.4,266.8z M250,257.1c0.5,1.2,1.4,2.3,2.7,3c-0.8,0-1.6,0-2.4,0.1C250,259.1,249.9,258.1,250,257.1z
		 M206.4,299.8c2.1-6.8,5.6-12.7,10.1-17.7l2.9,68C206.2,337.6,200.5,318.2,206.4,299.8z M238.2,361.2c-4.6-1.5-8.8-3.5-12.6-6.1
		l26.9-36.2l1.9,43.8c0,0.3,0.1,0.5,0.1,0.7C249.1,363.6,243.6,362.9,238.2,361.2z M301,305.2c1.5,7.8,1.2,16.1-1.4,24.2
		c-5.5,17.2-19.5,29.3-36,32.9l27.3-36.6c4.8-5.8,7.3-10.8,8.8-15.6C300.3,308.3,300.7,306.7,301,305.2z M295.3,290.1
		c-0.2-0.1-0.4-0.2-0.6-0.2c-4.6-1.5-9.1,1.5-10.5,5.8c-1.2,3.8,0,7.8,1.1,12.4c0.8,3.7,1.6,8.3-0.2,14.1c-1.3,4-4.3,8.1-8.3,13.9
		l-9.6,14.1l-0.9-55.5c2.9,0.7,5.5,1.2,5.5,1.2c2.6,0.5,3.5-3.3,0.9-3.9c0,0-7.7-1.8-12.6-3.3c-4.6-1.5-12.1-4.5-12.1-4.5
		c-2.5-0.9-4,2.8-1.5,3.7c0,0,2.3,1,4.7,2l1,22.2l-19.9,27.4l-1-55.9c2.9,0.7,5.5,1.2,5.5,1.2c2.6,0.5,3.5-3.3,0.9-3.9
		c0,0-7.7-1.8-12.6-3.3c-0.9-0.3-1.9-0.6-3-1c8.1-6.6,18.3-10.5,29-10.9c1.5,1.4,3.5,2.4,6,3.1c3.4,0.9,6.3,0.6,8.8-0.9
		c0.2-0.1,0.4-0.2,0.5-0.4c0.4,0.1,0.8,0.2,1.3,0.4C279.8,271.7,289.4,279.9,295.3,290.1z M278.9,231.7c-0.1,0.6-0.7,0.9-1.3,0.7
		c-0.6-0.2-0.9-0.7-0.8-1.3c0.2-0.5,0.8-0.8,1.3-0.7C278.7,230.6,279,231.1,278.9,231.7z"/>
	<path fill="#2580AA" d="M280.4,204.2c-0.6,8-1.2,16.3-1.8,24.3C278.6,228.5,279.5,217.9,280.4,204.2z"/>
	<path fill="#2580AA" d="M595.1,145.6c-0.1,0-0.2,0-0.3,0.1c1.5,0.5,2.9,5,4.2,13.1C597.9,149.9,596.7,145.5,595.1,145.6z"/>
</g>
<g id="wateronly" display="none">
	<g display="inline">
		<path fill="#2580AA" d="M554.6,385.5c-5.9,0-11.4-2-15.8-5.3c-4.4,3.3-9.9,5.3-15.8,5.3c-8.7,0-16.4-4.2-21.2-10.8
			c-4.8,6.5-12.5,10.8-21.2,10.8c-7.1,0-13.6-2.9-18.3-7.5c-4.7,4.6-11.2,7.5-18.3,7.5c-4.8,0-9.3-1.3-13.1-3.5
			c-3.9,2.2-8.3,3.5-13.1,3.5c-7.4,0-14.1-3.1-18.8-8c-4.8,4.9-11.4,8-18.8,8c-7.6,0-14.4-3.2-19.2-8.4c-4.8,5.2-11.6,8.4-19.2,8.4
			c-5.9,0-11.4-2-15.8-5.3c-4.4,3.3-9.9,5.3-15.8,5.3c-8.7,0-16.4-4.2-21.2-10.8c-4.8,6.5-12.5,10.8-21.2,10.8
			c-7.1,0-13.6-2.9-18.3-7.5c-3.8,3.7-8.7,6.3-14.2,7.2c-1.3,0.2-2.7,0.3-4.1,0.3"/>
	</g>
	<g display="inline">
		<path fill="#2580AA" d="M873.8,385.5c-5.9,0-11.4-2-15.8-5.3c-4.4,3.3-9.9,5.3-15.8,5.3c-8.7,0-16.4-4.2-21.2-10.8
			c-4.8,6.5-12.5,10.8-21.2,10.8c-7.1,0-13.6-2.9-18.3-7.5c-4.7,4.6-11.2,7.5-18.3,7.5c-4.8,0-9.3-1.3-13.1-3.5
			c-3.9,2.2-8.3,3.5-13.1,3.5c-7.4,0-14.1-3.1-18.8-8c-4.8,4.9-11.4,8-18.8,8c-7.6,0-14.4-3.2-19.2-8.4c-4.8,5.2-11.6,8.4-19.2,8.4
			c-5.9,0-11.4-2-15.8-5.3c-4.4,3.3-9.9,5.3-15.8,5.3c-8.7,0-16.4-4.2-21.2-10.8c-4.8,6.5-12.5,10.8-21.2,10.8
			c-7.1,0-13.6-2.9-18.3-7.5c-3.8,3.7-8.7,6.3-14.2,7.2c-1.3,0.2-2.7,0.3-4.1,0.3"/>
	</g>
	<rect x="227.9" y="385.5" display="inline" fill="#2580AA" width="510.5" height="89.4"/>
</g>
<g id="teach_fish" display="none">
	<g display="inline">
		<path fill="#2580AA" d="M496.1,480.7c14.8-92.3,11.8,22.1-3.5-83.4c-15.7-108.1-46.8-207.7-88.7-293.3
			c53,94.4,92.3,208.9,110.6,335c13.7,94.7,18.3-29.8,7.6,54.8"/>
		<path fill="#2580AA" d="M395.9,290.1c-15.3,1.1-22.2,15.3-32.1,18.6c-0.8-0.1-18.1-1.4-24.5-1.4c-2.2,0-24.3-17.3-29.8-22.7
			c1.8-0.5,3.1-0.9,3.8-0.9c6-0.1,8.7,1.8,14,0c7-2.4,9-13.7,8.2-18.1c-0.3-1.5-15-3.4-9-6.7c1.9,0.9,9.7,0.9,10.9-1.5
			c1.7-3.3-1.2-6.8-0.9-10.8c0.3-3.5,8.7-2,8.7-6.5c0-7.2-8.7-12-9.8-18.5c-0.7-4.4,5.5-9.8,4.2-13.7c-6.4-19.5-23.3-32.6-47.2-32.6
			c-35.8,0-48.5,29.4-48.5,65.7c0,3.2-0.1,5.9-0.3,8.3c-1.1,13.9,4.1,24.9,9.5,27.5c1.3,0.6,8,1.8,13.5,4.6
			c-10.8,24.7-3.3,40.8-5.9,58s-8.3,23-8.3,36c0,14,0.9,24,10.4,32.9c-2.6,3.6-2.9,21.1-0.6,24.5c-3,2.6-4.2,15.8-2.9,17.9
			c-3.6,4.8-5.8,6.3-5.8,13.9c0,7.7,6.2,21.9,13.9,21.9c1.4,0,4.4,0.7,5.5,0.4c1.1,4.1,4.8,4.6,9.3,4.6c5.3,0,12.2-1.7,12.2-7.1
			c0-5.3-6.9-17.7-12.2-17.7h-0.1c0-4-2-7.6-4.9-9.9c5.3-2.1,9-14.5,8.9-15.1c7.1-2,12.7-7.5,14.9-14.5c1.7,1.2,0.6,9.8,0.6,14.3
			c0,6.1,3.3,11.4,8.3,14.2c-4.1,3-6.8,7.8-6.8,13.3c0,9,7.3,24.4,16.3,24.4c4.7,0,8.9-2,11.9-5.1c1.9,1.6,17.9-10.4,17.9-16.4
			s-13.9-10.6-15.1-10.1c-1.4-2.9-3.7-5.3-6.5-6.9c4.1-3,6.8-7.8,6.8-13.3c0-6.3-3.5-11.7-8.7-14.5c5.4-3.9,0.4-18,0.4-25.2
			c0-2.4,4.8-41.2,3.1-64c0-0.2-0.1-0.4-0.1-0.5c9.7-0.2,32.3,3.6,34.3,2.6c8.5-1.8,25.3-26.6,30.5-26.6c4.2,0,9.9-4.3,10.3-13.3
			c0.2-4.7,13.7-4,13.7-6.4C417.9,287.2,402.4,289.6,395.9,290.1z"/>
		<path fill="#2580AA" d="M596.6,434c5.4-8.9-4.3-14.3-4.3-25.5c0-14.9-18.1-56.4-20.8-65.8s-0.2-62.6-6.3-72.6s-5.5-5.4-3.5-11.3
			c3.3-9.5,9.7-15.5,10.6-31.6c2-33.3-23.8-56.5-46.7-53.9c-25.1,2.8-29.2,4.5-38.8,25.3c-2.1,4.6,6.7,10.7,6,15.9
			c-0.3,2.6-7.3,14.3-7.3,17c0,5.6,9.9,4.4,11.1,9.5c0.3,1.4-6.4,7.7,1.1,9c2.7,0.5,14.5-4.5,16.7-2.6c1.1,4.4-16.9,6-14.8,10
			c2.6,5.2-0.5,9.9,2.5,13.1s18.3,0.6,20.6,1.3c-5.6,6.2-18.8,37.9-25.3,42.3c-1.5-4.4-9.8-5.9-13.6-11.4
			c-3.8-5.5-3.1-15.1-7.3-15.1c-9.8,0-15.2,7.9-15.2,17.8c0,9.8,5.4,17.8,15.2,17.8c25.4,31.6,26.4,16,33.1,16.6
			c0.3,11.5,2.9,50,2.9,63.5c0,14.8-20.3,28.3-11.4,38.7c-6.9,5.2-11.4,13.4-11.4,22.7c0,15.6,12.7,36.4,28.3,36.4
			c12,0,22.2-15.5,26.4-26c5,13.1,17.6,30.4,32.4,30.4c19.2,0,34.8-23.6,34.8-42.8C611.6,450.7,605.7,440.2,596.6,434z"/>
		<g>
			<path fill="#2580AA" d="M290.7,516c18.5,0,35.1-7.9,46.8-20.4c11.7,12.6,28.3,20.4,46.8,20.4c18,0,34.3-7.5,45.9-19.4
				c11.6,12,27.9,19.4,45.9,19.4c11.6,0,22.5-3.1,31.9-8.6c9.4,5.4,20.3,8.6,31.9,8.6c17.4,0,33.1-6.9,44.6-18.2
				c11.5,11.3,27.3,18.2,44.6,18.2c5.2,0,10.3-0.6,15.2-1.8c30.5-36.3,50.3-87.6,55.5-134.5c-101.6,23-208.3,35.3-318.4,35.3
				c-99.7,0-196.7-10.1-289.6-29.1c5.8,41.8,23.3,88.6,49.6,122c8.1-4.5,15.1-10.7,20.5-18.1c11.6,15.9,30.4,26.2,51.6,26.2
				c14.5,0,27.8-4.8,38.5-12.9C262.9,511.2,276.2,516,290.7,516z"/>
		</g>
		<g>
			<g>
				<g>
					<defs>
						<rect id="SVGID_1_" x="358.5" y="66.8" width="74.9" height="394.2"/>
					</defs>
					<clipPath id="SVGID_2_">
						<use xlink:href="#SVGID_1_"  overflow="visible"/>
					</clipPath>
					<g clip-path="url(#SVGID_2_)">
						<path fill="#2580AA" d="M401.8,531.7c-12.2-266.3-12.3-426.2,2.5-427.4c0.2,0,0.3,0,0.5,0.1c-16,5.4-13.8,204.8,2.9,527.5"/>
					</g>
				</g>
			</g>
		</g>
	</g>
</g>
<g id="we_fish" display="none">
	<path display="inline" fill="#2580AA" d="M589.5,488.5c-6.8-72.3-4-79.7,13.3-160.7c16.2-76,43.7-153.1,83.8-223
		c-45.9,70.5-82.3,157.3-103,254.2c-15.5,72.7-19,72.1-15,138.3"/>
	<path display="inline" fill="#2580AA" stroke="#FFFFFF" stroke-miterlimit="10" d="M710.4,372.7"/>
	<g display="inline">
		<path fill="#2580AA" d="M711.6,519.8c-5.7-265.5-14.1-415.3-24.6-415.4c-0.1,0-0.3,0.1-0.4,0.1c10.3,3.9,18.6,153.1,24.2,415.3"/>
	</g>
	<path display="inline" fill="#2580AA" d="M555.6,339.4c6-4.4,19.5-10.2,23-16.8c3.6-6.9-2.9-21.1-2.9-29.3
		c0-27.3-22.1-53.6-49.3-53.6c-27.3,0-49.3,26.4-49.3,53.6c0,9-6.1,23.9-1.9,31.2c4.3,7.3,18.9,13.4,26.2,17.7
		c-10.6,5.8-23.7,14.7-29.4,25.3c-4.7,8.8-3.1,18.8-3.1,29.5c0,34.5,28,62.5,62.5,62.5s66.5-28,66.5-62.5c0-17.3-1-28.9-12.4-40.3
		C579.8,351.1,563.1,342.6,555.6,339.4z"/>
	<path display="inline" fill="#2580AA" d="M303.2,307.1c-59.9-82.4-162.6-111.1-236.5-69c0.2,0.2,0.5,0.4,0.7,0.6
		c74.4-35.8,172.7-4.1,229.1,77.6c53.1,77,56.5,129.9,6,188.2c0.4,0.9,2.1,9.3,2.5,10.2C365.1,456.8,362.1,388.1,303.2,307.1z"/>
	<g display="inline">
		<path fill="#2580AA" d="M21.4,503.6C58,335.2,75,238.7,66.9,236.6c-0.1,0-0.3,0-0.4,0c7.1,5-9.8,100.8-45.7,266.4"/>
	</g>
	<path display="inline" fill="#2580AA" d="M413.6,266.1c-7.1-8.7-14.5-18.2-13.5-22.7c2.2-10.3,10.9-20.2,9.9-37.1
		c-2.1-34.9-30.6-57.2-54.7-58c-20.2-0.7-35.3,10.9-42.8,33.8c-1.7,5.1,8.3,10.3,8.2,15.8c0,2.7-5.8,15.8-5.5,18.6
		c0.7,5.8,10.9,3.3,12.8,8.5c0.5,1.4-5.7,8.8,2.3,9.2c2.9,0.2,18.6-7.6,21.1-5.9c0.6,24-18.9,17.5-16.3,21.4
		c3.3,5.1,0.7,10.4,4.2,13.3c3.5,3,19.2-1.6,21.6-1.2c-1.5,2.1-11.4,6.1-14.4,14.4c-3.9,11.1-6,25.5-8.9,32.7c0,0-17.1-7.1-26.4-12
		c-10-18.7-30.3-12.6-32.7-12.6c-13.3,0-4.4,3.3-4.4,16.6c0,4.8,12.7,5,20.5,9.3c13.9,7.7,30.7,32,48.1,32.5
		c6.1,0.2,14.3-10.1,18.6-14.5c2.6,5.2-18.7,79.4-18.7,102.1c0,31,8.6,24.3,39.6,24.3s66.6-2.7,66.6-33.6
		c0-17.5-10.3-76.7-10.3-95.4C438.4,305.4,420.7,274.7,413.6,266.1z"/>
	<g display="inline">
		<path fill="#2580AA" d="M305,514.7c18.4,0,35.1-7.8,46.7-20.4c11.6,12.5,28.2,20.4,46.7,20.4c18,0,34.2-7.4,45.8-19.4
			c11.6,12,27.8,19.4,45.8,19.4c11.6,0,22.5-3.1,31.9-8.5c9.4,5.4,20.3,8.5,31.9,8.5c17.3,0,33-6.9,44.5-18.2
			c11.5,11.2,27.2,18.2,44.5,18.2c5.2,0,10.3-0.6,15.2-1.8c30.4-36.2,50.1-79.3,55.3-126.1c-101.4,23-207.9,35.2-317.6,35.2
			c-99.5,0-196.2-10-288.8-29c5.8,41.7,23.2,80.4,49.4,113.6c8-4.5,15-10.7,20.4-18.1c11.6,15.9,30.3,26.2,51.5,26.2
			c14.4,0,27.7-4.8,38.4-12.9C277.3,509.9,290.6,514.7,305,514.7z"/>
	</g>
</g>
<g id="delivery" display="none">
	<g display="inline">
		<path fill="#2580AA" d="M422.7,281.4c7.8,3.1,13.1-5.2,11.1-8.9c-2-3.7-11.4-0.6-13-2.1c-5.7-5.1-12.1-15.4-19.4-8.5
			c-2.5,2.4-5.1,4.3-6.2,7.3c-2-2.8-6.2-5.8-8.8-4.6c-7.7,3.5,0.4,14.1,2,16.6c2.2,3.6,0.7,5.4-2,6.7c-3.7,1.7,3.1,3.3,6.9,2.6
			c-1.4,2.7-4.6,4.6-6.3,5.6c-0.8,0.5-1.5,1.1-2,1.8c-1.3-2.4-9.2-2.7-11.6-1.3c-2.4,1.3-0.7,5,3,6.2c1.9,0.6,3.1-0.3,4.8,2.5
			c-0.5,1,0.4,4.8,1,5.8c1,1.7,2.8,1,4.5,0c1.2-0.7,2.6-6.3,2.6-7.6c1.9-0.4,2.2-0.9,3.7-1.7c0.4-0.2-2,2.9-1.3,4.1
			c1.2,2.2,6.3,10.1,7.5,7.9c1.1-2.1,4-6.3,3.1-8.3c1,0.2,2.9,2.7,3.3,3.4c1,1.8,2.7,3,4.5,2s1.4-9.7,2.6-9.2c5-2.5,9.9-5.2,10-9.2
			c1.9,1.1,6,2.2,8,0.9c5.8-3.7,4.1-9.1-0.2-8.7C426.2,284.9,421.8,281,422.7,281.4z M414.1,272.3c-0.9,0.5-2.4-0.4-3.3-2
			s-0.9-3.4,0.1-3.9c0.9-0.5,2.4,0.4,3.3,2C415.1,270.1,415,271.8,414.1,272.3z"/>
		<path fill="#2580AA" d="M384.4,320.1c0-7.3-5-7.6-12.3-7c-8.5,0.6-8.6,6.8-12.7,11c-4,4.2-14.3,13.3-19.8,15.2
			c-0.9-0.1-32.4-16.7-39.4-17.6c-7.1-0.9-7.4-2.9-11.8-8.4c0.1-0.8,0.8-1.7,2.6-3c1.7-0.5,2.9-0.8,3.6-0.9c5.6-0.1,8.2,1.7,13.2,0
			c6.6-2.3,8.4-12.9,7.7-17c-0.2-1.4-12.1-7.9-8.4-6.3c1.8,0.8,9.1,0.8,10.3-1.4c1.6-3.1-1.1-6.4-0.8-10.1c0.2-3.3,8.2-1.9,8.2-6.1
			c0-6.7-8.2-11.3-9.2-17.4c-0.7-4.1,5.2-9.2,3.9-12.9c-6-18.3-21.9-30.6-44.3-30.6c-33.7,0-45.6,27.6-45.6,61.7
			c0,3-0.1,5.5-0.3,7.8c-1,13.1,3.8,23.4,8.9,25.9c1.2,0.6,7.5,1.7,12.7,4.3c-6.9,15.9-5.8,28-5.2,39.2c0,0-8.6,65.8,2,75.6
			c-2.9,4-18.3,10.6-15.9,14.4c-3.3,2.9-4.6,17.5-3.3,19.9c-4,5.3-6.4,7-6.4,15.4c0,8.5,6.9,15.4,15.4,15.4c1.5,0,4.9,0.8,6.1,0.4
			c1.2,4.6,5.4,5.1,10.3,5.1c5.9,0,13.6-1.9,13.6-7.9c0-5.9-7.7-10.7-13.6-10.7c-0.1,0-0.1,0-0.2,0c0-4.5-2.2-8.4-5.5-10.9
			c5.9-2.4,9.9-16.1,9.9-16.8c7.9-2.2,14.1-8.3,16.5-16.1c1.8,1.3,0.7,10.9,0.7,15.9c0,6.8,3.7,12.6,9.2,15.8
			c-4.6,3.3-7.6,8.6-7.6,14.7c0,10,8.1,18.1,18.1,18.1c5.2,0,9.9-2.2,13.2-5.7c2.1,1.7,19.9-2.6,19.9-9.3s-15.4-11.8-16.8-11.2
			c-1.6-3.2-4.1-5.9-7.3-7.7c4.6-3.3,7.6-8.6,7.6-14.7c0-7-3.9-13-9.7-16c6-4.3,0.4,8.8,0.4,0.9c0-2.7,13.8-22.3-0.1-71.6
			c-0.1-0.2,3.4,0.2,3.4,0c10.7-0.3,35.9,4,38.1,2.9c9.4-2,28.1-29.5,33.8-29.5c4.6,0,32.1,1.3,32.5-8.7
			C410.5,319,384.4,322.8,384.4,320.1z"/>
		<path fill="#2580AA" d="M684.5,327.5c0,0-11.2-5.8-13-12c2.4-5.3-0.5-13.1-6.2-15.4c-7.2-2.9-11.8-1.8-16.3,5.8
			c-16.9,6.4-38.8,13.8-42.8,12c2.1-5.2,25-17.8,25-42c0-21.5-40.7-53.5-43.7-56.1c-9-7.6-27-20.6-26.9-26.8
			c0.1-10.2,4.4-17.9,0.2-33.6c-8.6-32.5-42.6-49.7-63.7-40c-23.1,10.6-24.6,16.7-27.3,39.7c-0.6,5.1,9.8,8.1,10.8,13.3
			c0.5,2.6-2.5,16-1.6,18.5c1.8,5.3,10.9,1,13.7,5.6c0.8,1.2-3.7,9.4,3.9,8.2c2.7-0.4,11.9-11.8,14.6-10.7
			c5.1,10.9-13.7,14-10.5,17.2c4.1,4.1,2.6,9.6,6.5,11.8c3.9,2.1,17.8-5.2,20.1-5.3c-3.4,7.7-5.8,42.1-10.9,48.5
			c0,0-16.6,17.4-24.8,17.2c-2.7-0.1-3-9.1-4.6-9.7c-6.3-2.3-4.7,10.5-8.2,13c-4,2.8-27.2,5.8-27.4,9.9c-0.3,4.1,21,4.5,25.9,3.6
			c13.5-2.6,37.4-2.1,50.6-7.8c7.4-3.2,13.8-25.1,13.8-25.1c-0.5,2.7,15.5,24.3,17,28.8c-7.9,6.7-26,18.2-26,29.3
			c0,20.2,13.9,29.1,34.1,29.1c7.9,0,15.2-2.5,21.1-6.8c6.4,7.1,15.6,11.6,26,11.6c15.1,0,37.4-21.9,42.3-35.4
			c3.1,1.8,9.6,14.4,26.9,15.9c7.9,0.7,13,0.8,13-7.2C696,324.8,692.4,327.5,684.5,327.5z"/>
		<path fill="#2580AA" d="M305.8,504.7c-40-57.2,37.1,28.1-25.8-20.5c-64.5-49.8-132.9-87-199.9-111.2
			c77.4,23.1,158,64.1,233.3,122.2c56.5,43.6-25-47.9,13.2,3"/>
		<g>
			<path fill="#2580AA" d="M92.9,488.9C104,504.1,122,514,142.3,514c13.8,0,26.6-4.6,36.9-12.4c10.3,7.8,23,12.4,36.9,12.4
				c17.7,0,33.7-7.5,44.8-19.6c11.2,12,27.1,19.6,44.8,19.6c14.8,0,28.4-5.3,39-14.1c28-29.1,46.3-65.2,50.7-104.8
				c-76,17.2-155.8,26.4-238.1,26.4c-74.6,0-147.1-7.5-216.6-21.7c5.4,39,24.4,74.4,52.8,102.9c2.6-1.8,5-3.9,7.3-6.1
				c11,10.8,26.1,17.4,42.8,17.4C63.8,514,81.7,504.1,92.9,488.9z"/>
		</g>
		<g>
			<path fill="#2580AA" d="M594.1,494.4c11.2,12,27.1,19.6,44.8,19.6c17.2,0,32.8-7.1,43.9-18.6c11.1,11.5,26.7,18.6,43.9,18.6
				c11.1,0,21.6-3,30.6-8.2c9,5.2,19.4,8.2,30.6,8.2c16.6,0,31.7-6.7,42.8-17.4c11,10.8,26.1,17.4,42.8,17.4
				c20.3,0,38.3-9.9,49.4-25.1C934,504.1,952,514,972.3,514v-97.6L980,391v-52.5H505.8V391l28.8,26.3v94.9c4.7,1.2,9.6,1.8,14.6,1.8
				C567,514,582.9,506.5,594.1,494.4z"/>
		</g>
		<g>
			<path fill="#2580AA" d="M92.9,488.9C104,504.1,122,514,142.3,514c13.8,0,26.6-4.6,36.9-12.4c10.3,7.8,23,12.4,36.9,12.4
				c17.7,0,33.7-7.5,44.8-19.6c11.2,12,27.1,19.6,44.8,19.6c14.8,0,28.4-5.3,39-14.1c28-29.1,46.3-65.2,50.7-104.8
				c-76,17.2-155.8,26.4-238.1,26.4c-74.6,0-147.1-7.5-216.6-21.7c5.4,39,24.4,74.4,52.8,102.9c2.6-1.8,5-3.9,7.3-6.1
				c11,10.8,26.1,17.4,42.8,17.4C63.8,514,81.7,504.1,92.9,488.9z"/>
		</g>
		<g>
			<g>
				<g>
					<defs>
						<rect id="SVGID_3_" x="25.3" y="294.1" width="273" height="191"/>
					</defs>
					<clipPath id="SVGID_4_">
						<use xlink:href="#SVGID_3_"  overflow="visible"/>
					</clipPath>
					<g clip-path="url(#SVGID_4_)">
						<path fill="#2580AA" d="M44.8,580.6c11.6-130,23.8-207.5,34.9-207.2c0.1,0,0.2,0,0.4,0.1C67.8,375.1,54,472,41.4,629.6"/>
					</g>
				</g>
			</g>
		</g>
	</g>
</g>
<g id="Layer_17" display="none">
	<path display="inline" fill="#2580AA" d="M578.6,325.1c7.8,3.1,13.1-5.2,11.1-8.9c-2-3.7-11.4-0.6-13-2.1
		c-5.7-5.1-12.1-15.4-19.4-8.5c-2.5,2.4-5.1,4.3-6.2,7.3c-2-2.8-6.2-5.8-8.8-4.6c-7.7,3.5,0.4,14.1,2,16.6c2.2,3.6,0.7,5.4-2,6.7
		c-3.7,1.7,3.1,3.3,6.9,2.6c-1.4,2.7-4.6,4.6-6.3,5.6c-0.8,0.5-1.5,1.1-2,1.8c-1.3-2.4-9.2-2.7-11.6-1.3c-2.4,1.3-0.7,5,3,6.2
		c1.9,0.6,3.1-0.3,4.8,2.5c-0.5,1,0.4,4.8,1,5.8c1,1.7,2.8,1,4.5,0c1.2-0.7,2.6-6.3,2.6-7.6c1.9-0.4,2.2-0.9,3.7-1.7
		c0.4-0.2-2,2.9-1.3,4.1c1.2,2.2,6.3,10.1,7.5,7.9c1.1-2.1,4-6.3,3.1-8.3c1,0.2,2.9,2.7,3.3,3.4c1,1.8,2.7,3,4.5,2s1.4-9.7,2.6-9.2
		c5-2.5,9.9-5.2,10-9.2c1.9,1.1,6,2.2,8,0.9c5.8-3.7,4.1-9.1-0.2-8.7C582.1,328.6,577.7,324.7,578.6,325.1z M570,316.1
		c-0.9,0.5-2.4-0.4-3.3-2c-0.9-1.6-0.9-3.4,0.1-3.9c0.9-0.5,2.4,0.4,3.3,2C570.9,313.8,570.9,315.5,570,316.1z"/>
</g>
<g id="me_fish_alone" display="none">
	<path display="inline" fill="#2580AA" d="M372,415.8c65.3-32.5,73.2-32.5,155.3-45.6c84.2-13.4,165.6-13.4,239.2-2.1
		c-82.6-17.6-177.1-20.2-275.3-4.6c-73.7,11.8-74.5,8.2-134.9,35.9"/>
	<path display="inline" fill="#2580AA" stroke="#FFFFFF" stroke-miterlimit="10" d="M764.6,562.9"/>
	<path display="inline" fill="#2580AA" stroke="#FFFFFF" stroke-miterlimit="10" d="M764.6,371.9"/>
	<g display="inline">
		<path fill="#2580AA" d="M799.5,584.6c-12.1-135.9-24.9-217-36.5-216.7c-0.1,0-0.3,0-0.4,0.1c12.9,1.7,27.2,103,40.4,267.8"/>
	</g>
	<path display="inline" fill="#2580AA" d="M478.1,360.2c-10,0-43.1-4-43.2-4c-7.4-5.5-19.4-32.8-22.7-36.1c1.8-0.5,3.1-0.9,3.8-0.9
		c6-0.1,8.7,1.8,14.1,0c7.1-2.4,9-13.7,8.2-18.1c-0.3-1.5-12.9-8.5-9-6.7c1.9,0.9,9.7,0.9,10.9-1.5c1.7-3.3-1.2-6.8-0.9-10.8
		c0.3-3.5,8.7-2,8.7-6.5c0-7.2-8.7-12-9.8-18.5c-0.7-4.4,5.5-9.8,4.2-13.7c-6.4-19.5-23.3-32.6-47.2-32.6
		c-35.9,0-48.6,29.4-48.6,65.7c0,3.2-0.1,5.9-0.3,8.3c-1.1,13.9,4.1,25,9.5,27.6c1.3,0.6,8,1.8,13.5,4.6
		c-10.8,24.7-3.3,40.9-5.9,58.1s-8.4,23.1-8.4,36.1c0,14,0.9,24.1,10.4,32.9c-2.6,3.6-2.9,21.1-0.6,24.5c-3,2.6-4.2-14.3-2.9-12.2
		c-3.6,4.8-5.8,6.3-5.8,13.9c0,7.7,6.2,13.9,13.9,13.9c1.4,0,4.4,0.7,5.5,0.4c1.1,4.1,4.8,4.6,9.3,4.6c5.3,0,12.3-1.8,12.3-7.1
		c0-5.3-6.9-9.7-12.3-9.7h-0.1c0-4-2-7.6-4.9-9.9c5.3-2.1,9-14.5,8.9-15.1c7.1-2,12.8,22.7,14.9,15.6c1.7,1.2,0.6-20.3,0.6-15.8
		c0,6.1,3.3,11.4,8.3,14.2c-4.1,3-6.8,7.8-6.8,13.3c0,9,7.3,16.4,16.4,16.4c4.7,0,8.9-2,11.9-5.1c1.9,1.6,17.9-2.4,17.9-8.4
		c0-6.1-13.9-10.7-15.2-10.1c-1.5-2.9-3.7-5.3-6.5-6.9c4.1-3,6.8-7.8,6.8-13.3c0-6.3-3.5,18.4-8.7,15.7c5.4-3.9,0.4-18.1,0.4-25.2
		c0-2,3.4-30.2,3.5-52.6c7.3-1.3,15-2.5,22.5-2.8c12.7-0.6,28.8,8,29.4,2.4c10-3,18.1-4.5,18.1-15.5
		C502.2,355.7,491.8,360.2,478.1,360.2z"/>
	<path display="inline" fill="#2580AA" d="M249.9,410c-0.8-1.4-4.5-11.2-6.1-11.7c-3.4-1.1-3.1,12.6-2.7,12.6
		c-1.7,0.9-2.5,14.6-11,9.8c-0.7-3.1-5.2-12.3-11.1-21.4c0,0,0,0,0-0.1c3.3-10.4-2.5-21.5-12.9-24.8c-5.1-1.6-10.4-1-14.8,1.3
		c-4.8-1-10.1-2-11.2-2.3c-10.7-3.3-26.2,2.1-25.4,13.3c0.8,10.6,23.2,12.1,23.2,12.1s-32.4-0.3-9.9,13.3l0,0c0.2,0.4,0.6,0.9,1,1.5
		c-2.4,1.4-4.4,3.5-4.6,5c-0.5,2.6,3.4,9,7.7,11.7c3.1,2,3.9-4.4,4.4-9c9.6,8.7,24.4,19.9,29.6,21.5c6.2,1.9,26.6,13.5,45.9-23
		c0.5-0.9,8.5-4.8,10.4-9C267.3,399.7,252.2,408,249.9,410z M176,387.7c-1.8-0.6-2.8-2.5-2.2-4.2c0.6-1.8,2.5-2.8,4.2-2.2
		c1.8,0.6,2.8,2.5,2.2,4.2C179.6,387.2,177.7,388.2,176,387.7z"/>
	<g display="inline">
		<path fill="#2580AA" d="M245,514.5c18.5,0,35.2-7.9,46.9-20.5c11.7,12.6,28.4,20.5,46.9,20.5c18,0,34.3-7.5,45.9-19.5
			c11.6,12,27.9,19.5,45.9,19.5c11.7,0,22.6-3.1,32-8.6c9.4,5.4,20.3,8.6,32,8.6c17.4,0,33.2-7,44.7-18.2
			c11.5,11.3,27.3,18.2,44.7,18.2c5.3,0,10.4-0.6,15.2-1.8c30.5-36.4,50.3-79.7,55.5-126.6c-101.7,23-208.6,35.3-318.8,35.3
			c-99.9,0-197-10.1-290-29.1c5.8,41.9,23.3,80.7,49.6,114.1c8.1-4.5,15.1-10.7,20.5-18.1c11.6,15.9,30.4,26.3,51.7,26.3
			c14.5,0,27.8-4.8,38.6-12.9C217.2,509.7,230.6,514.5,245,514.5z"/>
	</g>
</g>
</svg>
