<?xml version="1.0" encoding="utf-8"?>
<!-- Generator: Adobe Illustrator 18.0.0, SVG Export Plug-In . SVG Version: 6.00 Build 0)  -->
<!DOCTYPE svg PUBLIC "-//W3C//DTD SVG 1.1//EN" "http://www.w3.org/Graphics/SVG/1.1/DTD/svg11.dtd">
<svg version="1.1" id="Layer_1" xmlns="http://www.w3.org/2000/svg" xmlns:xlink="http://www.w3.org/1999/xlink" x="0px" y="0px"
	 viewBox="0 186 792 342" enable-background="new 0 186 792 342" xml:space="preserve">
<g id="bkgd" display="none">
	<rect x="210.8" y="191.4" display="inline" fill="#2580AA" width="614.5" height="366.6"/>
</g>
<g id="Layer_11" display="none">
	<g id="ZdVMCK_1_" display="inline">
	</g>
	<g id="OSBCFu_1_" display="inline">
	</g>
	<g id="mbKGOr_1_" display="inline">
	</g>
	<g id="mGmEBY_1_" display="inline">
	</g>
	<g id="_x37_yX0mE_1_" display="inline">
	</g>
</g>
<g id="images" display="none">
	<g id="hgqPPR_1_" display="inline">
	</g>
	<g id="R2Yxqx_1_" display="inline">
	</g>
	<g id="vyAUYj_1_" display="inline">
	</g>
	<g id="n8oLnq_1_" display="inline">
	</g>
	<g id="oQ07uo_1_" display="inline">
	</g>
	<g id="f5Mqt6_1_" display="inline">
	</g>
	<g id="ZazR74_1_" display="inline">
	</g>
	<g id="_x38_oYl0z_1_" display="inline">
	</g>
</g>
<g id="separate_all" display="none">
	<path display="inline" fill="#2580AA" d="M645.9,201.1c2.6,0,3.7,0.8,5.9,0c3-1.1,3.8-5.9,3.5-7.7c-0.1-0.7-5.4-3.6-3.8-2.8
		c0.8,0.4,4.1,0.4,4.6-0.7c0.7-1.4-0.5-2.9-0.4-4.6c0.1-1.5,3.7-0.9,3.7-2.8c0-3.1-3.7-5.1-4.2-7.8c-0.3-1.9,2.3-4.2,1.8-5.9
		c-2.7-8.3-9.9-13.9-20.1-13.9c-15.3,0-20.7,12.5-20.7,28c0,1.3-0.1,2.5-0.2,3.5c-0.5,5.9,1.7,10.6,4,11.7c0.7,0.3,5.3,1.1,7.7,3.2
		C633.2,206.3,644.2,201.1,645.9,201.1z"/>
	<path display="inline" fill="#2580AA" d="M626.9,200.2c-5,4-9.6,8.3-9.6,15.3c0,3.9,2.6,17.4-0.9,24.1c-6.4,12,10.7,25,24,25
		s20.5-5.6,20.5-19.5c0-7.1-4-18.1-3.8-23.6c0.2-1.2,0.2-2.3,0.2-3.5c0-5.5-10.8-13.3-14-17.1L626.9,200.2z"/>
	<path display="inline" fill="#2580AA" d="M499.9,384.8c-2.8-29.8-1.6-32.8,5.4-66.2c6.7-31.3,18-63.1,34.6-91.9
		c-18.9,29-33.9,64.8-42.4,104.7c-6.4,29.9-7.8,29.7-6.2,57"/>
	<path display="inline" fill="#2580AA" stroke="#FFFFFF" stroke-miterlimit="10" d="M549.7,415.4"/>
	<path display="inline" fill="#2580AA" stroke="#FFFFFF" stroke-miterlimit="10" d="M549.7,337"/>
	<path display="inline" fill="#2580AA" d="M263,112.4c2.1-0.2,3.2-0.6,3.2-0.9c0-1.1-12.2-1.9-27.4-1.9s-27.4,0.8-27.4,1.9
		c0,0.4,1.6,0.7,4.6,1.1c-7.1,4.5-11.5,11-11.5,18.1c0,13.5,15.8,24.5,35.1,24.5s35.1-11,35.1-24.5
		C274.9,123.3,270.3,116.8,263,112.4z"/>
	<g display="inline">
		<path fill="#2580AA" d="M550.8,433c-2.3-129.2-6-206.5-10.8-206.5c-0.1,0-0.1,0-0.2,0.1c5.2,2,9.2,98.5,11.4,255.1"/>
	</g>
	<path display="inline" fill="#2580AA" d="M7.6,520.8c-0.1-5.4-0.7-9.1-6.2-9.1c-0.1,0,0.5-2.1,0.4-2.1c0.6-0.7-1.8-6.2-3.9-6.2
		c-1.2,0-0.7,3.1-1.3,4c-1.1-0.9-2.8-4-4.3-4c-3.4,0-4.2,10.6,0.7,13.2c0.2,0.1-0.7,4.5-0.7,5.9c0,3,4-1.6,4-0.7
		c0,3.8,12.8,8.5,12.8,8.5s-4-4.9-3.5-4.9c3.1,0,7.8,1.1,7.8,1.1S10,521.5,7.6,520.8z"/>
	<path display="inline" fill="#2580AA" d="M401.7,116.6c-0.2-0.7-0.5-4.9-1.1-5.4c-1.2-0.8-2.6,4.6-2.6,4.7
		c-0.7,0.2-2.6,5.4-5.4,2.6c0.1-1.3-0.7-5.4-1.9-9.7l0,0c2.5-3.7,1.5-8.7-2.3-11.2c-1.8-1.2-4-1.6-6-1.2c-1.8-1-3.7-1.9-4.1-2.2
		c-3.8-2.6-10.6-2.1-11.5,2.3c-0.9,4.3,7.8,7.4,7.8,7.4s-12.7-3.8-5.4,4.1l0,0c0,0.2,0.1,0.4,0.2,0.7c-1.1,0.2-2.1,0.9-2.4,1.4
		c-0.5,1,0.3,4,1.7,5.5c1,1.2,2.1-1.3,2.7-3.1c2.8,4.5,7.3,10.6,9.2,11.9c2.2,1.5,8.9,8.3,20.7-3.8c0.2-0.2,3.9-0.9,5.1-2.3
		C409.8,114.4,402.9,116,401.7,116.6z M375.2,99.2c-0.7-0.4-0.8-1.3-0.4-1.9c0.4-0.6,1.3-0.8,1.9-0.4c0.6,0.4,0.8,1.3,0.4,1.9
		C376.7,99.4,375.8,99.6,375.2,99.2z"/>
	<path display="inline" fill="#2580AA" d="M431.4,112.8c4.2,0.7,5.9-4,4.5-5.6c-1.4-1.6-5.7,1-6.7,0.4c-3.4-1.9-7.7-6.3-10.5-2
		c-1,1.5-2.1,2.7-2.2,4.3c-1.3-1.2-3.7-2.1-4.9-1.3c-3.4,2.6,1.8,6.8,2.9,7.9c1.5,1.5,1,2.6-0.2,3.5c-1.6,1.2,1.9,1.2,3.6,0.5
		c-0.4,1.5-1.7,2.8-2.5,3.5c-0.3,0.3-0.6,0.7-0.7,1.2c-0.9-1-4.9-0.2-5.9,0.7c-1,0.9,0.2,2.6,2.1,2.7c1,0.1,1.5-0.5,2.6,0.7
		c-0.2,0.6,0.7,2.3,1.2,2.8c0.7,0.7,1.5,0.2,2.2-0.5c0.5-0.5,0.6-3.4,0.4-4c0.9-0.4,1-0.7,1.6-1.2c0.2-0.2-0.7,1.6-0.2,2.1
		c0.8,0.9,4.3,4.3,4.6,3.1c0.3-1.2,1.2-3.5,0.6-4.5c0.5,0,1.7,1,2,1.3c0.7,0.8,1.6,1.2,2.4,0.5c0.7-0.7-0.4-4.9,0.2-4.8
		c2.2-1.7,4.3-3.6,3.9-5.7c1.1,0.3,3.2,0.4,4-0.4c2.4-2.5,1-4.9-1.1-4.3S430.9,112.8,431.4,112.8z M426.1,109.4
		c-0.4,0.3-1.2,0.1-1.9-0.6c-0.7-0.7-0.8-1.6-0.4-1.9c0.4-0.3,1.2-0.1,1.9,0.6C426.4,108.1,426.6,109,426.1,109.4z"/>
	<path display="inline" fill="#2580AA" d="M432.1,356.5c-41,0-80.8-4.1-118.9-12c7.4,53,60.4,94.2,124.7,94.2
		c65.3,0,119-42.5,125-96.7C521.2,351.4,477.3,356.5,432.1,356.5z"/>
	<path display="inline" fill="#2580AA" d="M195.5,362.4c6.1-37.9,4.9-41.9-1.4-85.2c-6.4-44.4-19.2-85.3-36.5-120.5
		c21.8,38.8,37.9,85.9,45.4,137.6c5.6,38.9,7.5,38.7,3.1,73.4"/>
	<g display="inline">
		<path fill="#2580AA" d="M156.8,332.5c-4.9-109.4-5-175.1,1.1-175.6c0.1,0,0.2,0,0.2,0c-6.6,2.2-5.7,84.1,1.2,216.7"/>
	</g>
	<path display="inline" fill="#2580AA" d="M187.1,301.9c-2.4-3.9,1.9-6.2,1.9-11.1c0-6.4,7.8-24.5,9-28.5c1.2-4,0.1-27.1,2.7-31.5
		c2.6-4.4,2.4-2.4,1.6-4.9c-1.4-4.1-4.2-6.7-4.6-13.7c-0.8-14.4,10.3-24.5,20.2-23.3c10.9,1.2,12.6,2,16.8,11c0.9,2-2.9,4.6-2.6,6.9
		c0.2,1.2,3.1,6.2,3.1,7.3c0,2.4-4.3,1.9-4.9,4.1c-0.2,0.6,2.8,3.3-0.5,3.9c-1.2,0.2-6.3-1.9-7.3-1.1c-0.5,1.9,7.3,2.6,6.4,4.4
		c-1.2,2.2,0.2,4.3-1.1,5.7c-1.3,1.4-7.9,0.2-8.9,0.6c2.4,2.6,8.2,16.4,11,18.3c0.7-1.9,4.2-2.6,5.9-4.9c1.6-2.4,1.3-6.5,3.2-6.5
		c4.3,0,6.6,3.5,6.6,7.7c0,4.3-2.3,7.7-6.6,7.7c-11,13.7-11.5,6.9-14.4,7.2c-0.1,5-1.2,21.7-1.2,27.5c0,6.4,8.8,12.3,4.9,16.7
		c3,2.2,4.9,5.8,4.9,9.8c0,6.8-5.5,12.3-12.3,12.3c-5.2,0-9.6-3.2-11.5-7.8c-2.1,5.7-7.7,9.7-14.1,9.7c-8.3,0-15.1-6.8-15.1-15.1
		C180.6,309.1,183.2,304.6,187.1,301.9z"/>
	<path display="inline" fill="#2580AA" d="M646.9,352.7c-4.1,0-17.7-1.6-17.7-1.6c-3.1-2.2-7.9-13.4-9.3-14.8
		c0.7-0.2,1.3-0.3,1.6-0.4c2.5,0,3.5,0.7,5.8,0c2.9-1,3.7-5.6,3.4-7.4c-0.1-0.7-5.3-3.5-3.7-2.7c0.8,0.3,4,0.3,4.5-0.6
		c0.7-1.3-0.5-2.8-0.3-4.5c0.1-1.5,3.5-0.8,3.5-2.6c0-3-3.5-4.9-4-7.6c-0.3-1.8,2.2-4,1.7-5.6c-2.6-8-9.6-13.4-19.4-13.4
		c-14.7,0-20,12-20,27c0,1.3-0.1,2.4-0.2,3.4c-0.4,5.7,1.6,10.2,3.9,11.3c0.6,0.2,3.3,0.7,5.5,1.9c-4.5,10.1-1.4,16.7-2.4,23.8
		c-1.1,7.1-3.5,9.5-3.5,14.8c0,5.8,0.3,9.9,4.3,13.5c-1.1,1.5-1.2,8.7-0.2,10.1c-1.2,1.1-1.7,6.5-1.2,7.3c-1.5,2-2.4,2.6-2.4,5.7
		c0,3.1,2.6,5.7,5.7,5.7c0.6,0,1.8,0.2,2.2,0.2c0.4,1.7,2,1.9,3.8,1.9c2.2,0,5-0.7,5-2.9c0-2.1-2.8-4-5-4c0,0,0,0-0.1,0
		c0-1.6-0.8-3.1-2-4c2.1-0.9,3.7-5.9,3.6-6.2c2.9-0.8,5.2-3.1,6.1-5.9c0.7,0.5,0.2,4,0.2,5.9c0,2.5,1.4,4.7,3.4,5.9
		c-1.7,1.2-2.8,3.2-2.8,5.4c0,3.7,3,6.7,6.7,6.7c1.9,0,3.6-0.8,4.9-2.1c0.7,0.7,7.3-1,7.3-3.5c0-2.5-5.7-4.4-6.2-4.1
		c-0.6-1.2-1.6-2.1-2.7-2.8c1.7-1.2,2.8-3.2,2.8-5.4c0-2.6-1.5-4.8-3.6-5.9c2.2-1.6,0.2-7.4,0.2-10.3c0-0.8,1.4-12.4,1.4-21.6
		c3-0.6,6.2-1,9.2-1.2c5.2-0.2,11.8,3.3,12,1c4.1-1.2,7.4-1.8,7.4-6.4C656.9,350.8,652.6,352.7,646.9,352.7z"/>
	<path display="inline" fill="#2580AA" d="M480.3,210.9c4-0.1,13.3,1.5,14.1,1.1c3.5-0.7,10.4-11,12.5-11c1.7,0,4-1.7,4.2-5.4
		c0.1-2,5.6-1.6,5.6-2.6c0-2.7-6.4-1.7-9.1-1.5c-6.3,0.5-9.2,6.3-13.2,7.7c-0.3-0.1-7.4-0.6-10.1-0.6c-0.3,0-2-1.1-4-2.6"/>
	<g id="gHb3f0_1_" display="inline">
	</g>
	<path display="inline" fill="#2580AA" d="M485.9,323.3c2.5-1.8,8.1-4.2,9.5-6.9c1.5-2.8-1.2-8.7-1.2-12.1
		c0-11.2-9.1-22.1-20.3-22.1c-11.2,0-20.3,10.9-20.3,22.1c0,3.7-2.6,9.9-0.7,12.9c1.7,3,7.8,5.5,10.8,7.3c-4.4,2.4-9.7,6-12.1,10.5
		c-2,3.6-1.3,7.8-1.3,12.1c0,14.2,11.5,25.7,25.7,25.7s27.4-11.5,27.4-25.7c0-7.1-0.4-12-5.1-16.6
		C495.9,328.2,489,324.6,485.9,323.3z"/>
	<path display="inline" fill="#2580AA" d="M381.9,310c-24.7-33.9-67-45.8-97.4-28.4c0.1,0.1,0.2,0.2,0.3,0.2
		c30.6-14.8,71.2-1.6,94.4,32c21.9,31.8,21.2,71.3,0.4,95.3c0.2,0.4,0.3,0.7,0.5,1.2C404.9,386.4,406.2,343.4,381.9,310z"/>
	<g display="inline">
		<path fill="#2580AA" d="M244.9,484c29.1-125.9,44.3-201.8,39.7-203c-0.1,0-0.1,0-0.2,0c4.6,3.2-15,97.7-50.9,250.3"/>
	</g>
	<path display="inline" fill="#2580AA" d="M427.4,293.1c-3-3.5-5.9-7.5-5.6-9.3c0.9-4.3,4.5-8.3,4.1-15.3
		c-0.8-14.4-12.6-23.6-22.5-23.9c-8.3-0.2-14.5,4.5-17.6,13.9c-0.7,2.1,3.4,4.2,3.4,6.5c0,1.2-2.4,6.5-2.2,7.7
		c0.2,2.4,4.5,1.4,5.3,3.5c0.2,0.6-2.4,3.6,0.9,3.8c1.2,0.1,7.7-3.1,8.7-2.4c0.2,9.9-7.8,7.2-6.7,8.8c1.4,2.1,0.2,4.3,1.7,5.5
		c1.5,1.2,7.9-0.7,8.9-0.5c-0.6,0.8-4.7,2.5-5.9,5.9c-1.6,4.6-2.5,10.6-3.7,13.4c0,0-7-3-10.9-4.9c-4.1-7.7-12.5-5.2-13.5-5.2
		c-5.4,0-1.8,1.4-1.8,6.8c0,2,5.3,2.1,8.4,3.8c5.7,3.2,12.6,13.2,19.8,13.4c2.5,0.1,5.9-4.1,7.7-5.9c1.1,2.1-7.7,32.7-7.7,42.1
		c0,12.8,3.5,10,16.3,10c12.8,0,27.4-1.1,27.4-13.9c0-7.2-4.2-31.6-4.2-39.3C437.6,309.3,430.4,296.7,427.4,293.1z"/>
</g>
<g id="blue_boat">
</g>
<g id="dock">
</g>
<g id="fish" display="none">
	<path display="inline" fill="#F5F8FA" d="M327.6,349.2c-0.2-0.7-0.5-4.9-1.1-5.4c-1.2-0.8-2.6,4.6-2.6,4.7
		c-0.7,0.2-2.6,5.4-5.4,2.6c0.1-1.3-0.7-5.4-1.9-9.7l0,0c2.5-3.7,1.5-8.7-2.3-11.2c-1.8-1.2-4-1.6-6-1.2c-1.8-1-3.7-1.9-4.1-2.2
		c-3.8-2.6-10.6-2.1-11.5,2.3c-0.9,4.3,7.8,7.4,7.8,7.4s-12.7-3.8-5.4,4.1l0,0c0,0.2,0.1,0.4,0.2,0.7c-1.1,0.2-2.1,0.9-2.4,1.4
		c-0.5,1,0.3,4,1.7,5.5c1,1.2,2.1-1.3,2.7-3.1c2.8,4.5,7.3,10.6,9.2,11.9c2.2,1.5,8.9,8.3,20.7-3.8c0.2-0.2,3.9-0.9,5.1-2.3
		C335.7,347.2,328.7,348.6,327.6,349.2z M301,331.9c-0.7-0.4-0.8-1.3-0.4-1.9c0.4-0.6,1.3-0.8,1.9-0.4c0.6,0.4,0.8,1.3,0.4,1.9
		C302.5,332.2,301.7,332.4,301,331.9z"/>
</g>
<g id="white_person-joined" display="none">
	<path display="inline" fill="#FFFFFF" d="M428.1,343.1c5.2-0.2,11.8,3.3,12,1c3.5-1.1,6.3-1.6,7.2-4.5c2.8-0.4,5.8-0.9,9.2-1.5
		c34.5-5.5,67.9-5.5,98-0.9c5.1,4,10.7,44.9,15.9,109.5l-1.5-21c-4.9-55.8-10.2-89-15-88.9c-0.1,0-0.1,0-0.2,0
		c0.2,0,0.5,0.2,0.7,0.3c-32.4-6.8-69.3-8.2-107.7-2.6c-1.5-1.7-4.9-0.7-9.1-0.7c-2.6,0-9.4-0.7-13.8-1.2c0-0.3,0-0.7,0-1
		c0-5-8.9-11.9-12.9-15.9c0.7-0.2,1.3-0.4,1.6-0.4c2.6,0,3.7,0.8,5.9,0c3-1.1,3.8-5.9,3.5-7.7c-0.1-0.7-5.4-3.6-3.8-2.9
		c0.8,0.4,4.1,0.4,4.6-0.7c0.7-1.4-0.5-2.9-0.4-4.6c0.1-1.5,3.7-0.9,3.7-2.8c0-3.1-3.7-5.1-4.2-7.8c-0.3-1.9,2.3-4.2,1.8-5.9
		c-2.7-8.3-9.9-13.9-20.1-13.9c-15.3,0-20.7,12.5-20.7,28c0,1.3-0.1,2.5-0.2,3.5c-0.5,5.9,1.7,10.6,4,11.7c0.6,0.2,3.4,0.7,5.8,2
		c-4.7,3.8-8.7,8-8.7,14.7c0,3.9,2.6,17.4-0.9,24.1c-0.7,1.3-1.1,2.6-1.3,4c-1,0-2.1,0-3.1,0c-8.6,0-17.2-0.2-25.6-0.6
		c0-0.2,0.1-0.2,0.2-0.2c2.2-1.7,4.3-3.6,3.9-5.7c1.1,0.3,3.2,0.4,4-0.4c2.4-2.5,1-4.9-1.1-4.3c-2.1,0.7-4.7-0.7-4.2-0.7
		c4.2,0.7,5.9-4,4.5-5.6c-1.4-1.6-5.7,1-6.7,0.4c-3.4-1.9-7.7-6.3-10.5-2c-1,1.5-2.1,2.7-2.2,4.3c-1.3-1.2-3.7-2.1-4.9-1.3
		c-3.4,2.6,1.8,6.8,2.9,7.9c1.5,1.5,1,2.6-0.2,3.5c-1.6,1.2,1.9,1.2,3.6,0.5c-0.3,1.2-1.2,2.1-1.9,2.9c-5.1-0.3-10.1-0.7-15.2-1.2
		c0.6-0.5,1.2-1.1,1.7-1.7c0.2-0.2,3.9-0.9,5.1-2.3c3.3-3.8-3.6-2.3-4.7-1.7c-0.2-0.7-0.5-4.9-1.1-5.4c-1.2-0.8-2.6,4.6-2.6,4.7
		c-0.7,0.2-2.6,5.4-5.4,2.6c0.1-1.3-0.7-5.4-1.9-9.7l0,0c2.5-3.7,1.5-8.7-2.3-11.2c-1.8-1.2-4-1.6-6-1.2c-1.8-1-3.7-1.9-4.1-2.2
		c-3.8-2.6-10.6-2.1-11.5,2.3c-0.9,4.3,7.8,7.4,7.8,7.4s-12.7-3.8-5.4,4.1l0,0c0,0.2,0.1,0.4,0.2,0.7c-1.1,0.2-2.1,0.9-2.4,1.4
		c-0.5,1,0.3,4,1.7,5.5c1,1.2,2.1-1.3,2.7-3.1c1.4,2.3,3.3,4.9,5,7.3c-14.4-1.8-28.5-4.2-42.5-7.1c7.4,53,60.4,94.2,124.7,94.2
		c65.3,0,119-42.5,125-96.7c-26.6,6-54.1,10.2-82.3,12.5c-0.5-3.6-1.5-7.8-2.3-11.5C426,343.6,427.1,343.4,428.1,343.1z
		 M348.5,339.5c0.4-0.3,1.2-0.1,1.9,0.6s0.8,1.6,0.4,1.9c-0.4,0.3-1.2,0.1-1.9-0.6S348,339.9,348.5,339.5z M301,331.9
		c-0.7-0.4-0.8-1.3-0.4-1.9c0.4-0.6,1.3-0.8,1.9-0.4c0.6,0.4,0.8,1.3,0.4,1.9C302.5,332.2,301.7,332.4,301,331.9z"/>
</g>
<g id="white_water" display="none">
	<g display="inline">
		<path fill="#FFFFFF" d="M659.8,384.3c-7.1,0-13.6-2.3-18.8-6.3c-5.2,4-11.7,6.3-18.8,6.3c-10.4,0-19.5-5-25.2-12.8
			c-5.7,7.8-14.8,12.8-25.2,12.8c-8.5,0-16.2-3.4-21.8-8.9c-5.6,5.5-13.3,8.9-21.8,8.9c-5.7,0-11-1.6-15.6-4.2
			c-4.6,2.6-9.9,4.2-15.6,4.2c-8.8,0-16.7-3.6-22.4-9.5c-5.7,5.9-13.6,9.5-22.4,9.5c-9.1,0-17.2-3.9-22.8-10
			c-5.7,6.1-13.9,10-22.8,10c-7.1,0-13.6-2.3-18.8-6.3c-5.2,4-11.7,6.3-18.8,6.3c-10.4,0-19.5-5-25.2-12.8
			c-5.7,7.8-14.8,12.8-25.2,12.8c-8.5,0-16.2-3.4-21.8-8.9c-4.5,4.5-10.4,7.5-16.9,8.5c-1.6,0.2-3.2,0.4-4.9,0.4"/>
	</g>
	<rect x="245.9" y="384.1" display="inline" fill="#FFFFFF" width="498" height="158.8"/>
</g>
<g id="wateronly" display="none">
	<g display="inline">
		<path fill="#2580AA" d="M554.6,385.5c-5.9,0-11.4-2-15.8-5.3c-4.4,3.3-9.9,5.3-15.8,5.3c-8.7,0-16.4-4.2-21.2-10.8
			c-4.8,6.5-12.5,10.8-21.2,10.8c-7.2,0-13.6-2.9-18.3-7.5c-4.7,4.6-11.2,7.5-18.3,7.5c-4.8,0-9.2-1.3-13.1-3.5
			c-3.9,2.2-8.3,3.5-13.1,3.5c-7.4,0-14.1-3.1-18.9-8c-4.8,4.9-11.5,8-18.9,8c-7.6,0-14.4-3.2-19.2-8.4c-4.8,5.2-11.6,8.4-19.2,8.4
			c-5.9,0-11.4-2-15.8-5.3c-4.4,3.3-9.9,5.3-15.8,5.3c-8.7,0-16.4-4.2-21.2-10.8c-4.8,6.5-12.5,10.8-21.2,10.8
			c-7.2,0-13.6-2.9-18.3-7.5c-3.8,3.7-8.7,6.3-14.2,7.2c-1.3,0.2-2.7,0.3-4.1,0.3"/>
	</g>
	<g display="inline">
		<path fill="#2580AA" d="M873.8,385.5c-5.9,0-11.4-2-15.8-5.3c-4.4,3.3-9.9,5.3-15.8,5.3c-8.7,0-16.4-4.2-21.2-10.8
			c-4.8,6.5-12.5,10.8-21.2,10.8c-7.2,0-13.6-2.9-18.3-7.5c-4.7,4.6-11.2,7.5-18.3,7.5c-4.8,0-9.2-1.3-13.1-3.5
			c-3.9,2.2-8.3,3.5-13.1,3.5c-7.4,0-14.1-3.1-18.9-8c-4.8,4.9-11.5,8-18.9,8c-7.6,0-14.4-3.2-19.2-8.4c-4.8,5.2-11.6,8.4-19.2,8.4
			c-5.9,0-11.4-2-15.8-5.3c-4.4,3.3-9.9,5.3-15.8,5.3c-8.7,0-16.4-4.2-21.2-10.8c-4.8,6.5-12.5,10.8-21.2,10.8
			c-7.2,0-13.6-2.9-18.3-7.5c-3.8,3.7-8.7,6.3-14.2,7.2c-1.3,0.2-2.7,0.3-4.1,0.3"/>
	</g>
	<rect x="228" y="385.5" display="inline" fill="#2580AA" width="510.5" height="89.4"/>
</g>
<g id="blue_all" display="none">
	<path display="inline" fill="#2580AA" d="M764.4,384.9c-7.1,0-13.6-2.3-18.8-6.3c-4.2,3.1-9.2,5.3-14.7,6v-0.6h-11.2
		c-7.3-1.7-13.8-6-18.1-12c-4.4,5.9-10.7,10.2-18.1,12h-14.2c-5.6-1.3-10.7-4.1-14.7-8.1c-3.7,3.6-8.2,6.3-13.3,7.8
		c-4.9-0.9-9.4-2.9-13.3-5.8c-4.5,3.4-9.8,5.5-15.7,6.1h-6.2c-9.1-0.9-17.1-5.7-22.2-12.6c-5.1,7-13,11.8-22.2,12.6h-6.2
		c-1.5-0.2-2.9-0.4-4.3-0.7c-3.1-25.6-6-40.4-9.2-45c2.9,4.5,5.9,20.2,8.9,44.9c-5.4-1.4-10.1-4.1-13.9-7.9
		c-4.9,4.8-11.4,8-18.6,8.7h-6.2c-4.5-0.4-8.8-1.8-12.6-4c-3.8,2.1-8.1,3.5-12.6,4h-5.3c8-12.5,13.3-26.4,14.9-41.2
		c-26.6,6-54.1,10.2-82.3,12.5c-0.5-3.6-1.5-7.8-2.3-11.5c1-0.2,2.1-0.5,3.1-0.7c5.2-0.2,11.8,3.3,12,1c3.5-1.1,6.3-1.6,7.2-4.5
		c2.8-0.4,5.8-0.9,9.2-1.5c34.4-5.4,67.6-5.5,97.6-0.9c0.2,0.2,0.5,0.4,0.7,0.7c-0.2-0.3-0.5-0.6-0.7-0.7c0.2,0,0.3,0.1,0.5,0.1
		c-0.2,0-0.3-0.1-0.5-0.1c-0.2-0.1-0.2-0.2-0.4-0.2c-0.1,0-0.1,0-0.2,0c0.2,0,0.3,0.1,0.6,0.2c-32.3-6.8-69-8.1-107.3-2.6
		c-1.5-1.7-4.9-0.7-9.1-0.7c-2.6,0-9.4-0.7-13.8-1.2c0-0.3,0-0.7,0-1c0-5-8.9-11.9-12.9-15.9c0.7-0.2,1.3-0.4,1.6-0.4
		c2.6,0,3.7,0.8,5.9,0c3-1.1,3.8-5.9,3.5-7.7c-0.1-0.7-5.4-3.6-3.8-2.9c0.8,0.4,4.1,0.4,4.6-0.7c0.7-1.4-0.5-2.9-0.4-4.6
		c0.1-1.5,3.7-0.9,3.7-2.8c0-3.1-3.7-5.1-4.2-7.8c-0.3-1.9,2.3-4.2,1.8-5.9c-2.7-8.3-9.9-13.9-20.1-13.9c-15.3,0-20.7,12.5-20.7,28
		c0,1.3-0.1,2.5-0.2,3.5c-0.5,5.9,1.7,10.6,4,11.7c0.6,0.2,3.4,0.7,5.8,2c-4.7,3.8-8.7,8-8.7,14.7c0,3.9,2.6,17.4-0.9,24.1
		c-0.7,1.3-1.1,2.6-1.3,4c-1,0-2.1,0-3.1,0c-8.6,0-17.2-0.2-25.6-0.6c0-0.2,0.1-0.2,0.2-0.2c2.2-1.7,4.3-3.6,3.9-5.7
		c1.1,0.3,3.2,0.4,4-0.4c2.4-2.5,1-4.9-1.1-4.3c-2.1,0.7-4.7-0.7-4.2-0.7c4.2,0.7,5.9-4,4.5-5.6c-1.4-1.6-5.7,1-6.7,0.4
		c-3.4-1.9-7.7-6.3-10.5-2c-1,1.5-2.1,2.7-2.2,4.3c-1.3-1.2-3.7-2.1-4.9-1.3c-3.4,2.6,1.8,6.8,2.9,7.9c1.5,1.5,1,2.6-0.2,3.5
		c-1.6,1.2,1.9,1.2,3.6,0.5c-0.3,1.2-1.2,2.1-1.9,2.9c-5.1-0.3-10.1-0.7-15.2-1.2c0.6-0.5,1.2-1.1,1.7-1.7c0.2-0.2,3.9-0.9,5.1-2.3
		c3.3-3.8-3.6-2.3-4.7-1.7c-0.2-0.7-0.5-4.9-1.1-5.4c-1.2-0.8-2.6,4.6-2.6,4.7c-0.7,0.2-2.6,5.4-5.4,2.6c0.1-1.3-0.7-5.4-1.9-9.7
		l0,0c2.5-3.7,1.5-8.7-2.3-11.2c-1.8-1.2-4-1.6-6-1.2c-1.8-1-3.7-1.9-4.1-2.2c-3.8-2.6-10.6-2.1-11.5,2.3c-0.9,4.3,7.8,7.4,7.8,7.4
		s-12.7-3.8-5.4,4.1l0,0c0,0.2,0.1,0.4,0.2,0.7c-1.1,0.2-2.1,0.9-2.4,1.4c-0.5,1,0.3,4,1.7,5.5c1,1.2,2.1-1.3,2.7-3.1
		c1.4,2.3,3.3,4.9,5,7.3c-14.4-1.8-28.5-4.2-42.5-7.1c1.9,13.9,7,27,14.6,38.7h-28.5v158.8h498V384.9H764.4L764.4,384.9z
		 M290.1,331.6c-0.4,0.7-1.3,0.8-1.9,0.4c-0.6-0.4-0.8-1.3-0.4-1.9s1.3-0.8,1.9-0.4C290.3,330.1,290.5,330.9,290.1,331.6z
		 M337.8,342c-0.4,0.3-1.2,0.1-1.9-0.6c-0.7-0.7-0.8-1.6-0.4-1.9c0.4-0.3,1.2-0.1,1.9,0.6C338.1,340.8,338.2,341.6,337.8,342z"/>
</g>
<g id="testing" display="none">
	<text transform="matrix(1 0 0 1 613.5431 217.5093)" display="inline" fill="#2580AA" font-family="'Monaco'" font-size="43.7974">&lt;html&gt;</text>
	<text transform="matrix(1 0 0 1 613.543 93.5391)" display="inline" font-family="'Monaco'" font-size="37.1134">$(this)</text>
	<text transform="matrix(1 0 0 1 735.1992 133.4917)" display="inline" font-family="'Monaco'" font-size="21.3914">wp_title();</text>
	<text transform="matrix(1 0 0 1 695.6114 254.7286)" display="inline" font-family="'Monaco'" font-size="9.8969">color: #bada55</text>
</g>
<g id="teach_fish" display="none">
	<g display="inline">
		<path fill="#2580AA" d="M437.1,378.3c6.1-37.9,4.9,9.1-1.4-34.3c-6.4-44.4-19.2-85.3-36.5-120.5c21.8,38.8,37.9,85.9,45.4,137.6
			c5.6,38.9,7.5-12.2,3.1,22.5"/>
		<path fill="#2580AA" d="M396,300c-6.3,0.5-9.2,6.3-13.2,7.7c-0.3-0.1-7.4-0.6-10.1-0.6c-0.9,0-10-7.1-12.2-9.3
			c0.7-0.2,1.3-0.3,1.6-0.4c2.5,0,3.5,0.7,5.8,0c2.9-1,3.7-5.6,3.4-7.4c-0.1-0.7-6.2-1.4-3.7-2.7c0.8,0.3,4,0.3,4.5-0.6
			c0.7-1.3-0.5-2.8-0.3-4.5c0.1-1.5,3.5-0.8,3.5-2.6c0-3-3.5-4.9-4-7.6c-0.3-1.8,2.2-4,1.7-5.6c-2.6-8-9.6-13.4-19.4-13.4
			c-14.7,0-20,12-20,27c0,1.3-0.1,2.4-0.2,3.4c-0.4,5.7,1.6,10.2,3.9,11.3c0.6,0.2,3.3,0.7,5.5,1.9c-4.5,10.1-1.4,16.7-2.4,23.8
			c-1.1,7.1-3.5,9.5-3.5,14.8c0,5.8,0.3,9.9,4.3,13.5c-1.1,1.5-1.2,8.7-0.2,10.1c-1.2,1.1-1.7,6.5-1.2,7.3c-1.5,2-2.4,2.6-2.4,5.7
			c0,3.1,2.6,9,5.7,9c0.6,0,1.8,0.2,2.2,0.2c0.4,1.7,2,1.9,3.8,1.9c2.2,0,5-0.7,5-2.9c0-2.1-2.8-7.3-5-7.3c0,0,0,0-0.1,0
			c0-1.6-0.8-3.1-2-4c2.1-0.9,3.7-5.9,3.6-6.2c2.9-0.8,5.2-3.1,6.1-5.9c0.7,0.5,0.2,4,0.2,5.9c0,2.5,1.4,4.7,3.4,5.9
			c-1.7,1.2-2.8,3.2-2.8,5.4c0,3.7,3,10,6.7,10c1.9,0,3.6-0.8,4.9-2.1c0.7,0.7,7.3-4.3,7.3-6.8c0-2.5-5.7-4.4-6.2-4.1
			c-0.6-1.2-1.6-2.1-2.7-2.8c1.7-1.2,2.8-3.2,2.8-5.4c0-2.6-1.5-4.8-3.6-5.9c2.2-1.6,0.2-7.4,0.2-10.3c0-1,2-16.9,1.3-26.3
			c0-0.1,0-0.2-0.1-0.2c4-0.1,13.3,1.5,14.1,1.1c3.5-0.7,10.4-11,12.5-11c1.7,0,4-1.7,4.2-5.4c0.1-2,5.6-1.6,5.6-2.6
			C405,298.8,398.7,299.8,396,300z"/>
		<path fill="#2580AA" d="M478.4,359.1c2.2-3.7-1.8-5.9-1.8-10.5c0-6.1-7.4-23.2-8.6-27.1c-1.2-3.9-0.1-25.7-2.6-29.9
			c-2.5-4.1-2.3-2.2-1.5-4.6c1.3-3.9,4-6.4,4.4-12.9c0.8-13.7-9.8-23.2-19.2-22.1c-10.3,1.2-12,1.8-16,10.4
			c-0.9,1.9,2.7,4.4,2.5,6.5c-0.2,1.1-3,5.9-3,6.9c0,2.3,4,1.8,4.6,3.9c0.2,0.6-2.6,3.1,0.4,3.7c1.1,0.2,5.9-1.8,6.8-1.1
			c0.4,1.8-6.9,2.5-6.1,4.1c1.1,2.1-0.2,4,1,5.4c1.2,1.3,7.5,0.2,8.5,0.5c-2.3,2.6-7.8,15.6-10.4,17.4c-0.6-1.8-4-2.4-5.6-4.7
			s-1.3-6.2-3-6.2c-4,0-6.3,3.3-6.3,7.3c0,4,2.2,7.3,6.3,7.3c10.4,13,10.8,6.6,13.6,6.8c0.1,4.8,1.2,20.5,1.2,26.1
			c0,6.1-8.3,11.6-4.7,15.9c-2.8,2.1-4.7,5.5-4.7,9.3c0,6.4,5.2,14.9,11.6,14.9c4.9,0,9.2-6.4,10.8-10.7c2.1,5.4,7.3,12.5,13.4,12.5
			c7.9,0,14.3-9.7,14.3-17.6C484.6,366,482.1,361.7,478.4,359.1z"/>
		<g>
			<path fill="#2580AA" d="M352.7,392.8c7.6,0,14.4-3.2,19.2-8.4c4.8,5.2,11.6,8.4,19.2,8.4c7.4,0,14.1-3.1,18.9-8
				c4.8,4.9,11.5,8,18.9,8c4.8,0,9.2-1.3,13.1-3.5c3.9,2.2,8.3,3.5,13.1,3.5c7.2,0,13.6-2.9,18.3-7.5c4.7,4.6,11.2,7.5,18.3,7.5
				c2.1,0,4.3-0.2,6.3-0.7c12.5-14.9,20.6-36,22.8-55.3c-41.6,9.4-85.5,14.5-130.7,14.5c-41,0-80.8-4.1-118.9-12
				c2.4,17.2,9.6,36.4,20.4,50.1c3.3-1.8,6.2-4.4,8.4-7.4c4.8,6.5,12.5,10.8,21.2,10.8c5.9,0,11.4-2,15.8-5.3
				C341.4,390.9,346.8,392.8,352.7,392.8z"/>
		</g>
		<g>
			<g>
				<g>
					<defs>
						<rect id="SVGID_1_" x="380.6" y="208.3" width="30.8" height="162"/>
					</defs>
					<clipPath id="SVGID_2_">
						<use xlink:href="#SVGID_1_"  overflow="visible"/>
					</clipPath>
					<g clip-path="url(#SVGID_2_)">
						<path fill="#2580AA" d="M398.4,399.3c-5-109.4-5-175.1,1-175.7c0.1,0,0.2,0,0.2,0c-6.6,2.2-5.7,84.1,1.2,216.7"/>
					</g>
				</g>
			</g>
		</g>
	</g>
</g>
<g id="we_fish" display="none">
	<path display="inline" fill="#2580AA" d="M589.4,488.5c-6.8-72.3-4-79.7,13.3-160.7c16.2-76,43.7-153.2,83.9-223
		c-45.9,70.5-82.3,157.3-102.9,254.2c-15.5,72.7-19.1,72.2-15,138.2"/>
	<path display="inline" fill="#2580AA" stroke="#FFFFFF" stroke-miterlimit="10" d="M710.4,372.6"/>
	<g display="inline">
		<path fill="#2580AA" d="M711.6,519.8c-5.7-265.5-14.1-415.3-24.6-415.4c-0.2,0-0.2,0.1-0.4,0.1c10.3,3.9,18.6,153.2,24.2,415.3"/>
	</g>
	<path display="inline" fill="#2580AA" d="M555.6,339.5c6-4.5,19.5-10.1,23-16.8c3.6-6.8-2.9-21-2.9-29.4
		c0-27.2-22.1-53.6-49.3-53.6c-27.2,0-49.3,26.4-49.3,53.6c0,9.1-6.1,23.9-1.9,31.3c4.3,7.3,18.9,13.4,26.1,17.7
		c-10.6,5.9-23.7,14.7-29.4,25.3c-4.7,8.8-3.1,18.8-3.1,29.5c0,34.6,28,62.5,62.5,62.5s66.5-28,66.5-62.5c0-17.3-1-28.9-12.4-40.2
		C579.8,351.1,563.1,342.6,555.6,339.5z"/>
	<path display="inline" fill="#2580AA" d="M303.2,307.1C243.3,224.7,140.6,196,66.6,238.1c0.2,0.2,0.5,0.4,0.7,0.7
		c74.4-35.9,172.7-4.1,229.1,77.6c53.1,77,56.6,129.9,6,188.2c0.4,0.9,2.1,9.2,2.5,10.1C365.1,456.8,362.1,388.1,303.2,307.1z"/>
	<g display="inline">
		<path fill="#2580AA" d="M21.4,503.6C58.1,335.2,75,238.7,67,236.6c-0.2,0-0.2,0-0.4,0c7.2,4.9-9.8,100.9-45.8,266.4"/>
	</g>
	<path display="inline" fill="#2580AA" d="M413.6,266.1c-7.1-8.7-14.5-18.2-13.5-22.7c2.2-10.3,10.9-20.2,9.9-37.1
		c-2.1-35-30.6-57.2-54.8-58.1c-20.2-0.7-35.3,10.9-42.8,33.8c-1.6,5,8.3,10.3,8.2,15.8c0,2.7-5.9,15.8-5.5,18.6
		c0.7,5.8,10.9,3.3,12.8,8.6c0.5,1.4-5.7,8.7,2.3,9.2c2.9,0.2,18.6-7.6,21.1-5.9c0.7,24-18.9,17.5-16.2,21.4
		c3.3,5,0.7,10.4,4.2,13.4c3.5,3,19.2-1.6,21.6-1.2c-1.5,2.1-11.5,6.1-14.4,14.4c-3.9,11.1-5.9,25.6-8.9,32.7c0,0-17.2-7.1-26.4-12
		c-10-18.7-30.4-12.5-32.7-12.5c-13.3,0-4.5,3.3-4.5,16.6c0,4.8,12.7,4.9,20.5,9.3c13.9,7.8,30.7,32,48.1,32.5
		c6.1,0.2,14.3-10.1,18.6-14.5c2.6,5.2-18.7,79.4-18.7,102.1c0,31,8.6,24.3,39.6,24.3s66.6-2.6,66.6-33.6
		c0-17.5-10.2-76.7-10.2-95.4C438.4,305.3,420.7,274.7,413.6,266.1z"/>
	<g display="inline">
		<path fill="#2580AA" d="M305,514.7c18.5,0,35.1-7.8,46.7-20.4c11.6,12.5,28.2,20.4,46.7,20.4c18,0,34.1-7.4,45.8-19.4
			c11.5,12,27.8,19.4,45.8,19.4c11.6,0,22.5-3.1,31.8-8.6c9.4,5.4,20.3,8.6,31.8,8.6c17.3,0,33.1-6.9,44.5-18.1
			c11.5,11.2,27.2,18.1,44.5,18.1c5.2,0,10.3-0.7,15.2-1.8c30.4-36.2,50.1-79.3,55.3-126.1C611.9,409.8,505.4,422,395.6,422
			c-99.5,0-196.2-10.1-288.8-29c5.8,41.7,23.3,80.4,49.5,113.6c8-4.5,15-10.6,20.5-18.1c11.6,15.8,30.4,26.1,51.5,26.1
			c14.4,0,27.7-4.8,38.4-12.9C277.3,510,290.6,514.7,305,514.7z"/>
	</g>
</g>
<g id="delivery" display="none">
	<path display="inline" fill="#2580AA" d="M505.2,281.4c7.8,3.1,13.1-5.2,11.1-8.9c-2.1-3.6-11.4-0.7-13-2.1
		c-5.7-5.1-12.1-15.4-19.4-8.5c-2.5,2.4-5.1,4.3-6.3,7.3c-2-2.8-6.2-5.9-8.8-4.6c-7.8,3.5,0.4,14,2.1,16.6c2.2,3.5,0.7,5.4-2.1,6.7
		c-3.7,1.7,3.1,3.2,6.8,2.6c-1.4,2.7-4.5,4.6-6.3,5.6c-0.8,0.5-1.5,1.1-2,1.8c-1.3-2.4-9.2-2.6-11.6-1.3c-2.4,1.3-0.7,4.9,3,6.2
		c1.9,0.7,3.1-0.3,4.8,2.5c-0.5,1,0.4,4.8,1,5.9c1,1.7,2.7,1,4.5,0c1.2-0.7,2.6-6.4,2.6-7.6c1.9-0.3,2.2-0.9,3.7-1.7
		c0.4-0.2-2,2.9-1.3,4.1c1.2,2.1,6.4,10.1,7.5,7.8c1.2-2.1,4-6.3,3.1-8.3c1,0.2,2.9,2.6,3.3,3.4c1,1.8,2.6,3,4.5,2
		c1.8-1,1.5-9.7,2.6-9.2c5-2.5,9.9-5.2,10.1-9.2c1.9,1.2,6,2.2,8,0.9c5.8-3.7,4.1-9.1-0.2-8.7C508.6,284.9,504.2,281,505.2,281.4z
		 M496.5,272.4c-0.9,0.5-2.5-0.3-3.4-2s-0.9-3.4,0.1-3.9c0.9-0.5,2.5,0.3,3.4,2C497.5,270,497.5,271.9,496.5,272.4z"/>
	<path display="inline" fill="#2580AA" d="M466.9,320.1c0-7.3-5-7.6-12.3-7c-8.5,0.7-8.7,6.8-12.6,11c-4,4.2-14.4,13.4-19.8,15.2
		c-0.9-0.2-32.3-16.7-39.4-17.6s-7.4-3-11.8-8.4c0.1-0.7,0.8-1.6,2.6-3.1c1.6-0.5,3-0.8,3.6-0.8c5.6-0.1,8.2,1.7,13.2,0
		c6.6-2.3,8.4-12.9,7.8-17c-0.2-1.4-12.1-7.9-8.4-6.3c1.8,0.8,9.2,0.8,10.3-1.4c1.6-3.1-1.1-6.4-0.8-10.1c0.2-3.3,8.2-1.9,8.2-6.1
		c0-6.8-8.2-11.3-9.2-17.4c-0.7-4.1,5.2-9.2,4-12.9c-6-18.3-21.9-30.6-44.4-30.6c-33.6,0-45.6,27.6-45.6,61.7c0,3-0.2,5.5-0.3,7.8
		c-1,13.1,3.8,23.4,8.9,25.9c1.2,0.6,7.5,1.6,12.7,4.4c-6.9,15.8-5.9,28-5.2,39.3c0,0-8.6,65.8,2.1,75.6c-2.9,4-18.3,10.6-15.8,14.4
		c-3.3,2.9-4.6,17.6-3.3,19.9c-4,5.3-6.4,7-6.4,15.3c0,8.5,6.9,15.4,15.4,15.4c1.5,0,4.9,0.7,6.1,0.4c1.2,4.6,5.4,5.1,10.3,5.1
		c5.9,0,13.6-2,13.6-7.8c0-5.9-7.7-10.7-13.6-10.7c-0.1,0-0.1,0-0.2,0c0-4.5-2.1-8.4-5.4-11c5.9-2.4,10-16.2,9.9-16.7
		c7.9-2.1,14.2-8.2,16.5-16.1c1.8,1.3,0.7,10.9,0.7,15.9c0,6.8,3.7,12.6,9.2,15.8c-4.5,3.3-7.6,8.7-7.6,14.7
		c0,10,8.1,18.1,18.1,18.1c5.2,0,9.8-2.2,13.2-5.7c2.1,1.7,19.9-2.6,19.9-9.3s-15.3-11.8-16.8-11.2c-1.6-3.2-4.1-5.9-7.3-7.7
		c4.5-3.3,7.6-8.7,7.6-14.7c0-6.9-4-13-9.7-16.1c5.9-4.3,0.4,8.8,0.4,0.9c0-2.6,13.8-22.4-0.1-71.6c-0.1-0.2,3.5,0.2,3.4,0
		c10.7-0.2,35.9,4,38.1,2.9c9.4-2.1,28.1-29.5,33.8-29.5c4.6,0,32.1,1.3,32.6-8.7C492.9,318.9,466.9,322.8,466.9,320.1z"/>
	<path display="inline" fill="#2580AA" d="M766.9,327.4c0,0-11.2-5.9-12.9-12c2.4-5.3-0.5-13.1-6.3-15.3c-7.2-2.9-11.8-1.8-16.3,5.8
		c-16.9,6.4-38.8,13.8-42.8,12c2.1-5.2,25-17.8,25-42c0-21.4-40.7-53.5-43.7-56.1c-9-7.6-27.1-20.5-27-26.8
		c0.2-10.1,4.4-17.8,0.2-33.6c-8.6-32.5-42.6-49.7-63.7-40.1c-23.2,10.6-24.6,16.7-27.3,39.8c-0.6,5.1,9.8,8.1,10.8,13.3
		c0.5,2.6-2.5,16-1.6,18.6c1.7,5.4,10.9,1.1,13.7,5.6c0.7,1.2-3.7,9.3,3.9,8.2c2.7-0.4,12-11.8,14.6-10.6
		c5.1,10.9-13.7,14-10.5,17.2c4.1,4.1,2.6,9.6,6.5,11.8s17.7-5.2,20.1-5.3c-3.4,7.7-5.8,42.1-10.9,48.5c0,0-16.6,17.4-24.8,17.2
		c-2.7-0.1-3-9.2-4.6-9.7c-6.4-2.3-4.7,10.6-8.2,12.9c-4,2.8-27.1,5.8-27.4,9.9c-0.2,4.1,21,4.5,25.9,3.5
		c13.5-2.6,37.4-2.1,50.6-7.8c7.3-3.1,13.8-25.1,13.8-25.1c-0.5,2.7,15.5,24.3,17,28.8c-7.9,6.7-26,18.1-26,29.3
		c0,20.2,13.9,29,34.1,29c7.9,0,15.2-2.6,21.1-6.8c6.4,7.1,15.7,11.6,26,11.6c15.1,0,37.4-21.9,42.3-35.4
		c3.1,1.7,9.6,14.4,26.9,15.8c7.9,0.7,12.9,0.7,12.9-7.2C778.4,324.8,774.8,327.4,766.9,327.4z"/>
	<path display="inline" fill="#2580AA" d="M388.2,504.7c-40-57.2,37.1,28-25.8-20.5c-64.5-49.8-132.9-87-199.8-111.2
		c77.4,23.1,157.9,64.1,233.2,122.2c56.5,43.6-25-47.8,13.2,3.1"/>
	<g display="inline">
		<path fill="#2580AA" d="M175.3,488.8c11.1,15.3,29.1,25.2,49.4,25.2c13.9,0,26.6-4.6,36.9-12.4c10.2,7.8,23,12.4,36.9,12.4
			c17.7,0,33.6-7.5,44.9-19.5c11.1,12,27.1,19.5,44.9,19.5c14.8,0,28.4-5.3,39-14c28-29.1,46.3-65.2,50.7-104.8
			c-76,17.2-155.8,26.4-238.1,26.4c-74.6,0-147.1-7.5-216.6-21.8c5.4,39,24.4,74.4,52.8,102.8c2.6-1.8,5-3.9,7.3-6.1
			c11.1,10.8,26.1,17.4,42.7,17.4C146.1,514,164.1,504.1,175.3,488.8z"/>
	</g>
	<g display="inline">
		<path fill="#2580AA" d="M676.5,494.5c11.1,12,27.1,19.5,44.9,19.5c17.2,0,32.8-7.2,44-18.6c11.1,11.5,26.7,18.6,44,18.6
			c11.1,0,21.6-3,30.6-8.2c9,5.2,19.5,8.2,30.6,8.2c16.7,0,31.8-6.7,42.7-17.4c11.1,10.8,26.1,17.4,42.7,17.4
			c20.3,0,38.3-9.9,49.4-25.2c11.1,15.3,29.1,25.2,49.4,25.2v-97.6l7.7-25.4v-52.5H588.2V391l28.9,26.3v94.9
			c4.7,1.2,9.6,1.8,14.6,1.8C649.4,514,665.3,506.5,676.5,494.5z"/>
	</g>
	<g display="inline">
		<path fill="#2580AA" d="M175.3,488.8c11.1,15.3,29.1,25.2,49.4,25.2c13.9,0,26.6-4.6,36.9-12.4c10.2,7.8,23,12.4,36.9,12.4
			c17.7,0,33.6-7.5,44.9-19.5c11.1,12,27.1,19.5,44.9,19.5c14.8,0,28.4-5.3,39-14c28-29.1,46.3-65.2,50.7-104.8
			c-76,17.2-155.8,26.4-238.1,26.4c-74.6,0-147.1-7.5-216.6-21.8c5.4,39,24.4,74.4,52.8,102.8c2.6-1.8,5-3.9,7.3-6.1
			c11.1,10.8,26.1,17.4,42.7,17.4C146.1,514,164.1,504.1,175.3,488.8z"/>
	</g>
	<g display="inline">
		<g>
			<g>
				<defs>
					<rect id="SVGID_3_" x="107.6" y="294.1" width="273" height="190.9"/>
				</defs>
				<clipPath id="SVGID_4_">
					<use xlink:href="#SVGID_3_"  overflow="visible"/>
				</clipPath>
				<g clip-path="url(#SVGID_4_)">
					<path fill="#2580AA" d="M127.3,580.6c11.5-130,23.8-207.5,34.9-207.3c0.2,0,0.2,0,0.4,0.1c-12.3,1.6-26.1,98.6-38.7,256.2"/>
				</g>
			</g>
		</g>
	</g>
</g>
<g>
	<path fill="#2580AA" d="M453.6,386.9c10.8,0.4,23.4,6.8,23.9,2.2c7.3-2.2,13.5-3.5,15.5-9.2c6.9-1.1,14.4-2.3,22.9-3.7
		c74.8-11.9,147.1-11.9,212.4-1.8c-71-15.1-152-17.8-236.3-5.3c-3.1-4-10.7-1.8-19.8-1.8c-8.9,0-38.3-3.6-38.4-3.6
		c-6.6-4.9-17.2-29.1-20.1-32.1c1.6-0.5,2.8-0.8,3.4-0.8c5.3-0.1,7.8,1.6,12.5,0c6.3-2.2,8-12.2,7.3-16.1c-0.2-1.3-11.4-7.5-8-5.9
		c1.7,0.8,8.6,0.8,9.7-1.3c1.5-2.9-1-6.1-0.8-9.6c0.2-3.1,7.8-1.8,7.8-5.8c0-6.4-7.8-10.7-8.7-16.4c-0.7-3.9,4.9-8.7,3.7-12.2
		c-5.7-17.4-20.7-29-42-29c-31.9,0-43.1,26.1-43.1,58.4c0,2.8-0.1,5.3-0.3,7.4c-1,12.4,3.7,22.2,8.4,24.5c1.2,0.6,7.1,1.6,12,4.1
		c-9.6,22-2.9,36.3-5.2,51.6c-1.5,9.8-4.1,15.5-5.8,21.4c-0.2,0.1-0.4,0.2-0.7,0.3l0.4,0.4c-0.8,3-1.4,6.1-1.4,9.9
		c0,3.2,0.1,6.2,0.3,9c-5.7,0.1-11.5,0.1-17.2,0.1c-24.9,0-49.6-0.7-74-2.1c2.1-1.4,7-4.2,8.4-7.3c4.5-10-8.9-2.6-10.9-0.7
		c-0.7-1.2-4-10-5.4-10.4c-3.1-1-2.8,11.2-2.4,11.2c-0.8,0.4-1.3,3.7-2.7,6.4c-2.7-0.1-5.4-0.4-8.1-0.6c-1.6-3.8-4.8-10-8.9-16.2
		v-0.1c2.9-9.2-2.3-19.1-11.5-22c-4.5-1.4-9.2-0.9-13.2,1.1c-4.2-0.9-8.9-1.8-10-2.1c-9.5-3-23.3,1.9-22.6,11.8
		c0.7,9.4,20.6,10.8,20.6,10.8s-28.1-0.2-9.4,11.4c-36.4-4.2-72.3-10-107.4-17.2c5.2,37.2,20.7,71.7,44.1,101.3
		c7.2-4,13.4-9.5,18.2-16.1c10.3,14.1,27,23.4,45.9,23.4c12.9,0,24.7-4.2,34.3-11.5c9.5,7.2,21.4,11.5,34.3,11.5
		c16.5,0,31.3-7,41.6-18.2c10.4,11.1,25.2,18.2,41.6,18.2c16,0,30.5-6.7,40.8-17.3c10.3,10.6,24.8,17.3,40.8,17.3
		c10.3,0,20.1-2.8,28.4-7.6c8.3,4.8,18.1,7.6,28.4,7.6c15.5,0,29.4-6.2,39.7-16.2c10.3,10,24.2,16.2,39.7,16.2
		c4.7,0,9.2-0.6,13.5-1.6c27.1-32.3,44.7-70.7,49.4-112.4C565,404.7,498.3,414.4,430,418.8c0.7-7.8,1.3-17.1,1.5-25.9
		C438.5,390.5,445.7,388.6,453.6,386.9z M203.8,391.6c-1.6-0.5-2.5-2.2-2-3.7c0.5-1.6,2.2-2.5,3.7-2c1.5,0.5,2.5,2.2,2,3.7
		C207.1,391.3,205.4,392.1,203.8,391.6z"/>
	<path fill="#2580AA" d="M757.5,566.5c-10.8-120.7-22.1-192.7-32.4-192.4c-0.1,0-0.2,0-0.4,0.1c11.4,1.5,24.2,91.5,35.9,237.8
		L757.5,566.5z"/>
</g>
</svg>
