<svg xmlns="http://www.w3.org/2000/svg" viewBox="0 0 489.97 239.17"><defs><style>.cls-1{fill:#27aae1;}.cls-2{fill:#fff;}</style></defs><title>Asset 3</title><g id="Layer_2" data-name="Layer 2"><g id="Layer_1-2" data-name="Layer 1"><path class="cls-1" d="M278.91,51.38a43.7,43.7,0,0,0-18.76,7c-3.72,2.53-10.25,6.78-9.63,12s6.82,6.75,10.95,7.78c7.19,1.79,14.53,1.35,21.7,2.82C292.54,83,292.06,91.9,288,98.68a32,32,0,0,1-16.46,13.5c-6.73,2.29-14.23,1.39-19.78-3.26-2.71-2.27-5.2-5.79-5.43-9.46s1.61-8.32,5.87-8.14c3.22.14,3.21-4.86,0-5-10.74-.45-12.71,13.18-8.58,20.56,5.39,9.63,17.56,13.41,27.84,10.55C281.93,114.52,292,105.49,295.08,95c1.35-4.59,1.28-9.87-1.8-13.77-3.58-4.54-9.41-5.27-14.8-5.61a87.89,87.89,0,0,1-13.94-1.76,33.11,33.11,0,0,1-6.07-1.71c-.55-.24-2.24-.83-2.5-1.45-.53-1.27,1-3,1.77-3.87,5.34-6.28,14.63-9.52,22.52-10.59,3.17-.43,1.82-5.25-1.33-4.82Z"/><path class="cls-1" d="M312.53,69.16c-9.37,3-8.86,17.39-5.18,24.61,2,4,5.76,6.62,10.37,6,4.12-.53,7.09-3.27,7.35-7.45.2-3.21-4.8-3.2-5,0-.19,3-4.31,2.81-6.05,1.72-2.56-1.6-3.28-5.07-3.67-7.86-.51-3.73-1-10.77,3.51-12.24,3-1,1.74-5.82-1.33-4.82Z"/><path class="cls-1" d="M333.63,58.42a355.57,355.57,0,0,1-2.32,49.5h5a40.16,40.16,0,0,1,2.27-13.48c.94-2.61,3.57-10,6.28-11,4.09-1.5,3.29,10.22,3.37,12.22l.6,15.52c.12,3.21,5.12,3.22,5,0-.32-8.18-.3-16.46-1-24.62-.35-4.23-2.67-9.33-7.77-8.69-4.89.61-8.14,7.85-9.89,11.7a44.7,44.7,0,0,0-3.9,18.37c0,3.3,4.64,3.11,5,0a355.57,355.57,0,0,0,2.32-49.5c-.07-3.21-5.07-3.22-5,0Z"/><path class="cls-1" d="M373.06,94.5c3.82-3.61,12.53-14.75,5.7-19.45-7.52-5.17-13,6.92-14.61,12.2-2.24,7.41-.84,16.85,6.68,20.71a11.06,11.06,0,0,0,15.55-6.36c1-3.07-3.85-4.39-4.82-1.33-1.17,3.67-5.62,4.87-8.83,3.06-4-2.27-5-7.49-4.42-11.66a23.44,23.44,0,0,1,1.82-6.09c1-2.34,1.22-4.15,3.9-4.13,3.48,0,.81,2.7-.3,4.51a24.34,24.34,0,0,1-4.19,5c-2.34,2.22,1.2,5.75,3.54,3.54Z"/><path class="cls-1" d="M393.61,86.11l-1.39,15.64h5a39.85,39.85,0,0,1,2.51-16.16c.91-2.31,1.33-4.13,3.83-3.71,2.12.35,2.15,1.29,2.7,3.23a38.7,38.7,0,0,1,1.23,9,67.23,67.23,0,0,1-.49,9.06c-.13,1.38-.42,2.7.26,4a3.76,3.76,0,0,0,5.54,1.44c2.64-1.8.14-6.14-2.52-4.32,4.49-3.07,2.16-14.08,1.19-18.79-.81-4-2.53-9-7.14-9.64C393.45,74.24,392,95,392.23,101.75c.12,3.26,4.72,3.17,5,0l1.39-15.64c.28-3.2-4.72-3.19-5,0Z"/><path class="cls-1" d="M431,80.38c-8.55,2.27-12.87,13.83-7,20.85s18.26,4.91,21.82-3.29c1.27-2.92-3-5.47-4.32-2.52-2.13,4.9-9.5,7.12-13.45,2.88s-.85-11.72,4.32-13.09c3.11-.82,1.79-5.65-1.33-4.82Z"/><path class="cls-1" d="M451.05,51.33a288,288,0,0,1-3.55,52.17c-.51,3.15,4.31,4.5,4.82,1.33a295.25,295.25,0,0,0,3.73-53.5c-.07-3.21-5.07-3.22-5,0Z"/><path class="cls-1" d="M479.35,60.7a81.13,81.13,0,0,1-22.11,12.18,2.58,2.58,0,0,0-1.75,3.08,54.64,54.64,0,0,0,30.67,39.78c2.9,1.34,5.44-3,2.52-4.32a50,50,0,0,1-28.37-36.79l-1.75,3.08A85.32,85.32,0,0,0,481.87,65c2.52-1.93,0-6.28-2.52-4.32Z"/><path class="cls-2" d="M39.93,41.09c10.55,15.31,31.91,13.09,46.75,6,18.5-8.82,32.77-24.93,40.11-44,1-2.62-3.41-4.51-4.57-1.93-15.5,34.41-23.16,71.62-37.6,106.42-7.17,17.27-16.31,36-29.79,49.26-7.53,7.42-17.17,10.07-26.19,3.46-8.08-5.93-13.66-15.74-17.83-24.65-4.44-9.49-7-20.2-5.38-30.68,1.47-9.29,7.11-21.68,17.51-23.52,9.87-1.75,17.68,8,22.33,15.33,5.76,9.08,10.59,18.83,15.47,28.4,17.64,34.58,35,71.58,67.17,95.16,16.66,12.2,37.27,19.65,58.07,18.68,9.34-.43,19.75-2.35,27.91-7.18,5.65-3.34,11-10.74,5.68-16.62-2.16-2.39-5.69,1.15-3.54,3.54,4.25,4.71-6.75,9.92-9.64,11a64.3,64.3,0,0,1-13.91,3.63A77.26,77.26,0,0,1,161,231.17c-19.86-5.48-36.66-18-50.23-33.2-14-15.64-24.48-33.93-34.11-52.44-5.25-10.09-10.26-20.31-15.52-30.4C56.5,106.19,52,96.77,45.71,88.81,40.8,82.56,34.13,76.66,25.8,76.35c-8-.31-14.68,5.07-19,11.41C-4.23,104-.4,125,8.06,141.39,15,154.81,27.9,173.9,45.73,168.54c8.18-2.46,14.21-9.23,19.24-15.77a167.4,167.4,0,0,0,15.44-24.31C101.12,89,108.3,44.24,126.54,3.75L122,1.83A75.9,75.9,0,0,1,88.2,40.71c-12.7,7-34.06,12.21-43.94-2.14-1.81-2.63-6.15-.14-4.32,2.52Z"/><path class="cls-2" d="M132.14,89.27a28,28,0,0,0-13.6,16.49c-2,6.42-2.36,16.21,2.51,21.57,6,6.64,11.89-3.66,14-8.42,3.79-8.72,4.39-18.42,4.91-27.8h-5q.59,7.43,1.34,14.84c.38,3.71.19,8.26,1.67,11.73.87,2,2.61,4,5,3.62,2.92-.42,3.2-3.54,4-5.87,1-3.05-3.79-4.36-4.82-1.33L140.8,118l1.75-1.75c.16,0-2.46-22.9-2.63-25.1a2.5,2.5,0,0,0-5,0c-.34,6.16-.69,12.37-2.1,18.4a40.61,40.61,0,0,1-3.47,9.69c-1.53,2.92-4.2,7.19-6.07,1.8-3.62-10.45,1.83-22.39,11.38-27.41,2.85-1.5.33-5.81-2.52-4.32Z"/><path class="cls-2" d="M152.22,108a16.48,16.48,0,0,1,1.55,7.85c-.08,2.81,4.23,3.41,4.91.66,1.13-4.56.52-8.83,0-13.44-.43-4,.29-16,7.51-12.26,2.85,1.49,5.38-2.83,2.52-4.32a10,10,0,0,0-13.16,3.89c-4.76,7.65.32,16.64-1.71,24.79l4.91.66a22.2,22.2,0,0,0-2.23-10.37c-1.36-2.91-5.67-.38-4.32,2.52Z"/><path class="cls-2" d="M176,86a24,24,0,0,0-6.58,13.85c-.42,3.78-.34,9.87,3.1,12.42,2.86,2.13,6.84.84,8.84-1.82,1.73-2.29,2.07-5.25,2.57-8,.71-3.9,1.41-7.8,2.11-11.7h-4.82c3.7,14.6,14.76,30,31.81,26,3.13-.73,1.81-5.56-1.33-4.82C197.37,115.34,189,101.19,186,89.46c-.58-2.28-4.37-2.48-4.82,0l-1.76,9.75c-.18,1-.92,10.58-4.66,7.52-1.48-1.21-.41-6.89-.05-8.44a18.77,18.77,0,0,1,4.78-8.74c2.19-2.35-1.33-5.89-3.54-3.54Z"/></g></g></svg>