<svg viewBox="0 0 618 190"
     xmlns="http://www.w3.org/2000/svg"
		 class="blog-character header-svg">
  <title>Blog header illustration</title>

	<path class="bc-body bc-main"
				d="M55,167.79c-2-2.77-6.42-6.83-6.42-15,0-4,2.07-7.47,4.2-10a39.1,39.1,0,0,0,24.88-42.59c0-.63,0-1,0-1A37.66,37.66,0,0,0,40.4,67.13l-.67,0-.67,0a39.06,39.06,0,0,0-8.76,77.13c1.82,3,1.8,7.31,1.8,11.91,0,8.54-5.22,9.25-6.84,11.38a33.64,33.64,0,1,0,29.74.24Z" />
	<path class="bc-mouth bc-main"
				d="M71.17,120.85c1.25.43,5.33-7.68,17.89-7.68s11.7,1.19,16.68,11.43,5.09,17.24,8.91,17.24c1.26,0,3.94-17.6,3.94-34.32,0-14.25-2.81-34.09-4.26-34.09-3.76,0-1.95,14.15-8.51,20.71s-7.65,6.41-17,6.41-13.93-5.91-17.61-6Z" />
	<ellipse class="bc-inner-mouth bc-main"
						cx="114.94"
						cy="107.84"
						rx="3.67"
						ry="27.84" />
	<circle class="bc-eye-white bc-main"
					cx="63.07"
					cy="69.46"
					r="11.54" />
	<path class="bc-eyelid bc-main"
				d="M60.74,72.65a18.59,18.59,0,0,1-7-11.78L53,60.29,39.06,78.06l21,16.46L74,76.75l-.38-.3A18.58,18.58,0,0,1,60.74,72.65Z" />
	<circle class="bc-eyeball bc-main"
					cx="68"
					cy="68"
					r="5.77" />
	<circle class="bc-glare bc-main"
					cx="69"
					cy="67"
					r="1.3" />
	<circle class="bc-bubble"
					cx="170.22"
					cy="104.14"
					r="5.77" />
	<circle class="bc-bubble"
					cx="201.48"
					cy="131.13"
					r="11" />
	<circle class="bc-bubble"
					cx="130.76"
					cy="115.24"
					r="5.33" />
	<circle class="bc-bubble"
					cx="150.39"
					cy="71.21"
					r="4.08"
					transform="translate(-6.31 127.2) rotate(-45)" />
	<circle class="bc-bubble"
					cx="276.21"
					cy="55.24"
					r="17.37" />
	<circle class="bc-bubble"
					cx="166.8"
					cy="149.3"
					r="9.2" />
	<circle class="bc-bubble"
					cx="187.27"
					cy="61.83"
					r="8.05"
					transform="translate(11.13 150.53) rotate(-45)" />
	<circle class="bc-bubble"
					cx="256.73"
					cy="141.84"
					r="15.76" />
	<circle class="bc-bubble"
					cx="229.61"
					cy="87.22"
					r="14.95" />
	<circle class="bc-bubble"
					cx="364.7"
					cy="28.5"
					r="28.5" />
	<circle class="bc-bubble"
					cx="329.56"
					cy="94.52"
					r="20.22" />
	<circle class="bc-bubble"
					cx="322.27"
					cy="168.93"
					r="15.76" />
	<circle class="bc-bubble"
					cx="416.92"
					cy="128.58"
					r="30.21" />
	<circle class="bc-bubble"
					cx="450.27"
					cy="200"
					r="25.76" />
	<circle class="bc-bubble"
					cx="500.27"
					cy="10"
					r="65.76" />
	<circle class="bc-bubble"
					cx="600.27"
					cy="180.93"
					r="55.76" />
</svg>
