<svg xmlns="http://www.w3.org/2000/svg" viewBox="0 0 718 231.48"><defs><style>.cls-1{fill:#27aae1;}.cls-2{fill:#231f20;}.cls-3{fill:#fff;}</style></defs><title>blog</title><g id="Layer_2" data-name="Layer 2"><g id="Layer_1-2" data-name="Layer 1"><path class="cls-1" d="M55,167.79c-2-2.77-6.42-6.83-6.42-15,0-4,2.07-7.47,4.2-10a39.1,39.1,0,0,0,24.88-42.59c0-.63,0-1,0-1A37.66,37.66,0,0,0,40.4,67.13l-.67,0-.67,0a39.06,39.06,0,0,0-8.76,77.13c1.82,3,1.8,7.31,1.8,11.91,0,8.54-5.22,9.25-6.84,11.38a33.64,33.64,0,1,0,29.74.24Z"/><path class="cls-2" d="M503.27,106.62V26.81H534.9c18.85,0,24.14,8.6,24.14,19.51C559,57,552,62.75,543.94,64.95v.22c12.68,1.54,18.52,8.49,18.52,19.51,0,16.31-12.79,21.94-30.09,21.94Zm23.26-46.85c7.94,0,15.87-1.43,15.87-10.69,0-8.6-5.73-9.15-13.34-9.15h-8.82V59.77ZM529,93.5c9.26,0,15.43-1.65,15.43-10.36,0-8.93-6.17-10.47-13.78-10.47H520.24V93.5Z"/><path class="cls-2" d="M588.59,106.62H571.95V23.39h16.64Z"/><path class="cls-2" d="M598.62,78.18c0-18.41,9.59-30.2,29.54-30.2s27.67,12,27.67,29c0,18.74-8.6,31-29.21,31C605.79,107.94,598.62,95.37,598.62,78.18Zm39.9-.66c0-12.57-3.42-17-10.8-17S616,65.28,616,77.74c0,12.79,3.2,17.86,11.35,17.86C634.67,95.59,638.52,91,638.52,77.52Z"/><path class="cls-2" d="M702.79,51.5c2-4.3,5.18-8.71,10.58-8.71a12.52,12.52,0,0,1,4.63,1V54.7a22.83,22.83,0,0,0-9.48.88,19.1,19.1,0,0,1,4.74,12.9c0,12.9-10.47,20.61-25.24,20.61a32.64,32.64,0,0,1-9.59-1.21c-1,1-2.09,2.09-2.09,3.53,0,1.65,1,2.76,5.18,3l16.31,1c12.24.77,19.29,5,19.29,16.53,0,14.11-13.12,19.51-30,19.51-21.05,0-27.67-5.4-27.67-13.34,0-5.4,4.08-9.15,10.36-10.36v-.44c-5.62-1.65-8.38-5-8.38-9.7,0-5.73,3.53-8.93,8.93-12.79-5.18-3-8.38-8.27-8.38-15.54C662,57,671.15,48,687.58,48,693.86,48,699,49,702.79,51.5Zm-8.93,58.86-16-1c-2.09,1.54-3.42,3.42-3.42,5.51,0,4.52,6.28,5.84,14,5.84,7.38,0,12.46-1.1,12.46-5.84C700.92,112.68,699.81,110.69,693.86,110.36Zm-5.62-50.71c-6,0-10.47,2.54-10.47,8.71,0,5.73,3.2,8.82,10.25,8.82,6,0,10-3.2,10-8.82C698.05,62.41,694.3,59.66,688.24,59.66Z"/><path class="cls-1" d="M71.17,120.85c1.25.43,5.33-7.68,17.89-7.68s11.7,1.19,16.68,11.43,5.09,17.24,8.91,17.24c1.26,0,3.94-17.6,3.94-34.32,0-14.25-2.81-34.09-4.26-34.09-3.76,0-1.95,14.15-8.51,20.71s-7.65,6.41-17,6.41-13.93-5.91-17.61-6Z"/><ellipse class="cls-2" cx="114.94" cy="107.84" rx="3.67" ry="27.84"/><circle class="cls-3" cx="63.07" cy="69.46" r="11.54"/><circle class="cls-2" cx="65.4" cy="63.69" r="5.77"/><path class="cls-1" d="M60.74,72.65a18.59,18.59,0,0,1-7-11.78L53,60.29,39.06,78.06l21,16.46L74,76.75l-.38-.3A18.58,18.58,0,0,1,60.74,72.65Z"/><circle class="cls-3" cx="65.4" cy="61.83" r="1.86"/><circle class="cls-2" cx="130.76" cy="115.24" r="5.33"/><circle class="cls-2" cx="150.39" cy="71.21" r="4.08" transform="translate(-6.31 127.2) rotate(-45)"/><circle class="cls-2" cx="276.21" cy="55.24" r="17.37"/><circle class="cls-2" cx="166.8" cy="149.3" r="9.2"/><circle class="cls-2" cx="187.27" cy="61.83" r="8.05" transform="translate(11.13 150.53) rotate(-45)"/><circle class="cls-2" cx="256.73" cy="141.84" r="15.76"/><circle class="cls-2" cx="229.61" cy="87.22" r="14.95"/><circle class="cls-2" cx="364.7" cy="28.5" r="28.5"/><circle class="cls-2" cx="329.56" cy="94.52" r="20.22"/><circle class="cls-2" cx="322.27" cy="168.93" r="15.76"/><circle class="cls-2" cx="416.92" cy="128.58" r="30.21" transform="translate(31.2 332.47) rotate(-45)"/><circle class="cls-2" cx="170.22" cy="104.14" r="5.77"/><circle class="cls-2" cx="201.48" cy="131.13" r="11" transform="translate(-17.62 230.05) rotate(-57.36)"/></g></g></svg>