<svg class="path path-first" xmlns="http://www.w3.org/2000/svg" width="214.7" height="108" viewBox="0 0 214.7 108">
  <path d="M0 83.2V3.4h31.6c18.8 0 24.1 8.6 24.1 19.5 0 10.7-7.1 16.4-15.1 18.6v.2c12.7 1.5 18.5 8.5 18.5 19.5 0 16.3-12.8 21.9-30.1 21.9H0zm23.3-46.8c7.9 0 15.9-1.4 15.9-10.7 0-8.6-5.7-9.1-13.3-9.1H17v19.8h6.3zm2.4 33.7c9.3 0 15.4-1.7 15.4-10.4 0-8.9-6.2-10.5-13.8-10.5H17V70h8.7zM85.3 83.2H68.7V0h16.6v83.2zM95.4 54.8c0-18.4 9.6-30.2 29.5-30.2 20 0 27.7 12 27.7 29 0 18.7-8.6 31-29.2 31-20.9-.1-28-12.6-28-29.8zm39.9-.7c0-12.6-3.4-17-10.8-17-7.5 0-11.7 4.7-11.7 17.2 0 12.8 3.2 17.9 11.4 17.9 7.2 0 11.1-4.6 11.1-18.1zM199.5 28.1c2-4.3 5.2-8.7 10.6-8.7 1.4 0 3 .3 4.6 1v10.9c-3.4-.3-6.3-.1-9.5.9 3.3 3.7 4.7 8.3 4.7 12.9 0 12.9-10.5 20.6-25.2 20.6-3.9 0-6.4-.3-9.6-1.2-1 1-2.1 2.1-2.1 3.5 0 1.7 1 2.8 5.2 3l16.3 1c12.2.8 19.3 5 19.3 16.5 0 14.1-13.1 19.5-30 19.5-21.1 0-27.7-5.4-27.7-13.3 0-5.4 4.1-9.1 10.4-10.4v-.4c-5.6-1.7-8.4-5-8.4-9.7 0-5.7 3.5-8.9 8.9-12.8-5.2-3-8.4-8.3-8.4-15.5 0-12.2 9.1-21.3 25.6-21.3 6.4 0 11.6 1 15.3 3.5zM190.6 87l-16-1c-2.1 1.5-3.4 3.4-3.4 5.5 0 4.5 6.3 5.8 14 5.8 7.4 0 12.5-1.1 12.5-5.8-.1-2.2-1.2-4.2-7.1-4.5zM185 36.3c-6 0-10.5 2.5-10.5 8.7 0 5.7 3.2 8.8 10.3 8.8 6 0 10-3.2 10-8.8 0-6-3.8-8.7-9.8-8.7z"/>
</svg>