<svg viewBox="0 0 176 316"
     xmlns="http://www.w3.org/2000/svg"
     xmlns:xlink="http://www.w3.org/1999/xlink"
     class="character-1">
  <defs>
    <style>.cls-1,.cls-8{fill:none;}.cls-2{clip-path:url(#clip-path);}.cls-3{fill:#fff;}.cls-4{fill:#27aae1;}.cls-5{fill:#006838;}.cls-6{fill:#1b75bc;}.cls-7{fill:#231f20;}.cls-8{stroke:#1b75bc;stroke-miterlimit:10;}</style>
    <clipPath id="clip-path">
      <rect class="cls-1"
            height="87.95"
            width="157.33" />
    </clipPath>
  </defs>
  <title>character-1</title>
  <g class="cls-2">
    <path class="self cls-3"
          d="M66.3,34.46A14.72,14.72,0,1,1,51.58,19.74,14.72,14.72,0,0,1,66.3,34.46Z" />
    <path class="self cls-3"
          d="M117.07,26.82a14.71,14.71,0,1,1-14.71-14.71A14.71,14.71,0,0,1,117.07,26.82Z" />
    <path class="self cls-4"
          d="M114.5,41.39l2.58-7.89a60.54,60.54,0,0,1-16.87-2.42,50.09,50.09,0,0,1-14.12-7.7l-2.13,6.54c-.75,0-1.5-.06-2.26-.06a52.57,52.57,0,0,0-13.4,1.73l-2.49-4.91A60.54,60.54,0,0,1,52.15,36.9a50.09,50.09,0,0,1-15.43,4.54l3.93,7.74.59-.3a52.51,52.51,0,1,0,73.25-7.49Z" />
    <path class="self cls-5"
          d="M143.71,87.61a6.52,6.52,0,0,0-11.57-3.79,6.52,6.52,0,0,0-10.05-.06,6.52,6.52,0,0,0-10,0,6.53,6.53,0,1,0,0,8.39,6.52,6.52,0,0,0,10,0,6.52,6.52,0,0,0,10.05-.06,6.52,6.52,0,0,0,11.57-4.47Z" />
    <path class="hand cls-6"
          d="M143.71,87.61a6.52,6.52,0,0,0-11.57-3.79,6.52,6.52,0,0,0-10.05-.06,6.52,6.52,0,0,0-10,0,6.53,6.53,0,1,0,0,8.39,6.52,6.52,0,0,0,10,0,6.52,6.52,0,0,0,10.05-.06,6.52,6.52,0,0,0,11.57-4.47Z" />
    <path class="hand cls-6"
          d="M53.15,81.42a6.51,6.51,0,0,0-5,2.33,6.52,6.52,0,0,0-10,0,6.52,6.52,0,0,0-9.5-.53,6.53,6.53,0,1,0,0,9.45,6.52,6.52,0,0,0,9.5-.53,6.52,6.52,0,0,0,10,0,6.53,6.53,0,1,0,5-10.73Z" />
    <path class="self cls-6"
          d="M53.15,81.42a6.51,6.51,0,0,0-5,2.33,6.52,6.52,0,0,0-10,0,6.52,6.52,0,0,0-9.5-.53,6.53,6.53,0,1,0,0,9.45,6.52,6.52,0,0,0,9.5-.53,6.52,6.52,0,0,0,10,0,6.53,6.53,0,1,0,5-10.73Z" />
    <path class="self"
          d="M57.67,27a7.23,7.23,0,1,1-7.23-7.23A7.23,7.23,0,0,1,57.67,27Zm-7.33-2.32a2,2,0,1,0,2,2A2,2,0,0,0,50.33,24.65Z" />
    <path class="self"
          d="M112.67,19.74a7.23,7.23,0,1,1-7.23-7.23A7.23,7.23,0,0,1,112.67,19.74Zm-6.33-3.09a2,2,0,1,0,2,2A2,2,0,0,0,106.33,16.65Z" />
    <path class="self cls-7"
          d="M76.5,51.31a2.5,2.5,0,1,1-2.5-2.5A2.5,2.5,0,0,1,76.5,51.31Z" />
    <path class="self cls-7"
          d="M89.16,49.11a2.35,2.35,0,1,1-3.32,0A2.35,2.35,0,0,1,89.16,49.11Z" />
    <path class="self cls-7"
          d="M93.32,55.1A13.16,13.16,0,0,1,71,66.83,13.16,13.16,0,1,0,93.32,55.1Z" />
    <path class="self cls-3"
          d="M83.18,74.68l4-1.58-1.35-3.38a13.06,13.06,0,0,1-4.1,1.21Z" />
    <path class="self cls-3"
          d="M87.78,68.51l1.31,3.27,4-1.58-2-4.9A13.23,13.23,0,0,1,87.78,68.51Z" />
    <path class="self cls-1"
          d="M93.32,55.1A13.16,13.16,0,0,1,71,66.83,13.16,13.16,0,1,0,93.32,55.1Z" />
    <path class="self cls-8"
          d="M69.07,71.75a4.88,4.88,0,0,1,4.66-8.51" />
    <path class="self cls-8"
          d="M68.82,50.78A4.88,4.88,0,0,1,78.49,50" />
    <path class="self cls-8"
          d="M82.82,49.78A4.88,4.88,0,0,1,92.49,49" />
  </g>
</svg>
