<svg viewBox="0 0 118.6 173.56" xmlns="http://www.w3.org/2000/svg">
  <defs>
    <style>
      .cls-1{fill:#27aae1;}.cls-2{fill:#231f20;}.cls-3{fill:#fff;}
    </style>
  </defs>
	<path class="cls-1" d="M55 109.88c-2-2.77-6.42-6.83-6.42-15 0-4 2.07-7.47 4.2-10a39.1 39.1 0 0 0 24.89-42.62v-1A37.66 37.66 0 0 0 40.4 9.21h-1.34a39.06 39.06 0 0 0-8.76 77.13c1.82 3 1.8 7.31 1.8 11.91 0 8.54-5.22 9.25-6.84 11.38a33.64 33.64 0 1 0 29.74.24z"/>
	<path class="cls-1" d="M71.17 62.94c1.25.43 5.33-7.68 17.89-7.68s11.7 1.19 16.68 11.43 5.09 17.24 8.91 17.24c1.26 0 3.94-17.6 3.94-34.32 0-14.25-2.81-34.09-4.26-34.09-3.76 0-1.95 14.15-8.51 20.71s-7.65 6.41-17 6.41-13.93-5.91-17.61-6z"/>
	<ellipse class="cls-2" cx="114.94" cy="49.92" rx="3.67" ry="27.84"/>
	<circle class="cls-3" cx="63.07" cy="11.54" r="11.54"/>
	<circle class="cls-2" cx="65.4" cy="5.77" r="5.77"/>
	<path class="cls-1" d="M60.74 14.73A18.59 18.59 0 0 1 53.73 3L53 2.37 39.06 20.14l21 16.46L74 18.83l-.38-.3a18.58 18.58 0 0 1-12.88-3.8z"/>
	<circle class="cls-3" cx="65.4" cy="3.92" r="1.86"/>
</svg>