<svg class="code-thumb" xmlns="http://www.w3.org/2000/svg" viewBox="0 0 138 128.8"><path d="M59.6 77.4l-1.4 1.4c-.2.2-.4.3-.6.3s-.4-.1-.6-.3L44.3 66c-.2-.2-.3-.4-.3-.6 0-.2.1-.4.3-.6L57 52c.2-.2.4-.3.6-.3s.4.1.6.3l1.4 1.4c.2.2.3.4.3.6 0 .2-.1.4-.3.6L48.9 65.4l10.7 10.7c.2.2.3.4.3.6 0 .3-.1.5-.3.7zm16.2-29.2L65.6 83.5c-.1.2-.2.4-.4.5s-.4.1-.6.1l-1.7-.5c-.2-.1-.4-.2-.5-.4-.1-.2-.1-.4-.1-.7l10.2-35.3c.1-.2.2-.4.4-.5.2-.1.4-.1.6-.1l1.7.5c.2.1.4.2.5.4s.1.5.1.7zM93.7 66L81 78.8c-.2.2-.4.3-.6.3s-.4-.1-.6-.3l-1.4-1.4c-.2-.2-.3-.4-.3-.6 0-.2.1-.4.3-.6l10.7-10.7-10.7-10.8c-.2-.2-.3-.4-.3-.6s.1-.4.3-.6l1.4-1.4c.2-.2.4-.3.6-.3.2 0 .4.1.6.3l12.7 12.7c.2.2.3.4.3.6s-.1.4-.3.6z" fill="#444"/></svg>