<svg xmlns="http://www.w3.org/2000/svg" viewBox="0 0 63.5 63.5" width="32" height="32">
	<path d="M15.49 28.93v5.65l4.22-2.83-4.22-2.82zM30.07 24.83v-7.87l-13.23 8.81 5.91 3.95 7.32-4.89zM46.66 25.77l-13.22-8.81v7.87l7.31 4.89 5.91-3.95zM16.84 37.73l13.23 8.82v-7.88l-7.32-4.89-5.91 3.95zM33.44 38.67v7.88l13.22-8.82-5.91-3.95-7.31 4.89zM31.75 27.76l-5.97 3.99 5.97 3.99 5.97-3.99-5.97-3.99z"/>
	<path d="M31.75 0A31.75 31.75 0 1 0 63.5 31.75 31.75 31.75 0 0 0 31.75 0zm19.63 37.73a1.66 1.66 0 0 1 0 .22V38.42l-.06.11v.08l-.07.1-.06.07-.08.09-.07.07-.1.08-.08.06-17.94 12a1.68 1.68 0 0 1-1.87 0l-17.95-12-.08-.06-.1-.08-.07-.07-.08-.09-.06-.07-.07-.1v-.08l-.06-.11v-.28V38a1.67 1.67 0 0 1 0-.22v-12a1.64 1.64 0 0 1 0-.22v-.07V25.07l.06-.11v-.08l.07-.1.06-.07.08-.09.07-.07.1-.08.08-.06 17.95-12a1.69 1.69 0 0 1 1.87 0l17.94 12 .08.06.1.08.07.07.08.09.06.07.07.1v.08l.06.11V25.56a1.63 1.63 0 0 1 0 .22z"/>
	<path d="M48.01 34.58v-5.65l-4.22 2.82 4.22 2.83z"/>
</svg>