<svg xmlns="http://www.w3.org/2000/svg" viewBox="0 0 668.42 231.48"><defs><style>.cls-1{fill:#27aae1;}.cls-2{fill:#231f20;}.cls-3{fill:#fff;}</style></defs><title>hire-me</title><g id="Layer_2" data-name="Layer 2"><g id="Layer_1-2" data-name="Layer 1"><path class="cls-1" d="M55,167.79c-2-2.77-6.42-6.83-6.42-15,0-4,2.07-7.47,4.2-10a39.1,39.1,0,0,0,24.88-42.59c0-.63,0-1,0-1A37.66,37.66,0,0,0,40.4,67.13l-.67,0-.67,0a39.06,39.06,0,0,0-8.76,77.13c1.82,3,1.8,7.31,1.8,11.91,0,8.54-5.22,9.25-6.84,11.38a33.64,33.64,0,1,0,29.74.24Z"/><path class="cls-1" d="M71.17,120.85c1.25.43,5.33-7.68,17.89-7.68s11.7,1.19,16.68,11.43,5.09,17.24,8.91,17.24c1.26,0,3.94-17.6,3.94-34.32,0-14.25-2.81-34.09-4.26-34.09-3.76,0-1.95,14.15-8.51,20.71s-7.65,6.41-17,6.41-13.93-5.91-17.61-6Z"/><ellipse class="cls-2" cx="114.94" cy="107.84" rx="3.67" ry="27.84"/><circle class="cls-3" cx="63.07" cy="69.46" r="11.54"/><circle class="cls-2" cx="65.4" cy="63.69" r="5.77"/><path class="cls-1" d="M60.74,72.65a18.59,18.59,0,0,1-7-11.78L53,60.29,39.06,78.06l21,16.46L74,76.75l-.38-.3A18.58,18.58,0,0,1,60.74,72.65Z"/><circle class="cls-3" cx="65.4" cy="61.83" r="1.86"/><circle class="cls-2" cx="130.76" cy="115.24" r="5.33"/><circle class="cls-2" cx="150.39" cy="71.21" r="4.08" transform="translate(-6.31 127.2) rotate(-45)"/><circle class="cls-2" cx="276.21" cy="55.24" r="17.37"/><circle class="cls-2" cx="166.8" cy="149.3" r="9.2"/><circle class="cls-2" cx="187.27" cy="61.83" r="8.05" transform="translate(11.13 150.53) rotate(-45)"/><circle class="cls-2" cx="256.73" cy="141.84" r="15.76"/><circle class="cls-2" cx="229.61" cy="87.22" r="14.95"/><circle class="cls-2" cx="364.7" cy="28.5" r="28.5"/><circle class="cls-2" cx="329.56" cy="94.52" r="20.22"/><circle class="cls-2" cx="322.27" cy="168.93" r="15.76"/><circle class="cls-2" cx="416.92" cy="128.58" r="30.21" transform="translate(31.2 332.47) rotate(-45)"/><circle class="cls-2" cx="170.22" cy="104.14" r="5.77"/><circle class="cls-2" cx="201.48" cy="131.13" r="11" transform="translate(-17.62 230.05) rotate(-57.36)"/><path class="cls-2" d="M535,112.87c-5,4.69-8.09,6.79-11.29,6.79-8.59,0-4.39-11.79-7.89-11.79-2.2,0-9.19,8.49-9.39,10.89-.1,1.3-.5,2.3-1.3,2.3-1.4,0-2.9-1.8-2.9-3.7,0-16.88,13.48-37.05,21.07-37.05a3.75,3.75,0,0,1,4,3.89c0,5.59-12.28,18-19.57,25.17a42.9,42.9,0,0,0-1.2,6.49c2.3-3.9,8.39-11.09,12.18-11.09,4.59,0,2.1,12.08,7.59,12.08,1.4,0,3.7-.3,8.19-4.59ZM508,108c6.19-6.19,17.78-18.38,17.78-23.67a1.44,1.44,0,0,0-1.3-1.5C521.12,82.81,511.43,95.6,508,108Z"/><path class="cls-2" d="M554.07,112.87c-5,4.69-10.49,8.39-15.78,8.39-2.9,0-5.59-1.2-5.59-4.09,0-3.6,4-7.59,4.49-10.89a2.44,2.44,0,0,1,2.5-2.1,2.16,2.16,0,0,1,2.3,2.1c0,2.4-4.39,6-4.39,10.49q0,2.7,3.3,2.7c3.3,0,8.19-2.9,12.68-7.19ZM547.78,93.8c0,1.4-1.9,3.5-3.5,3.5a1.77,1.77,0,0,1-1.8-1.7,4.37,4.37,0,0,1,3.4-3.7A1.9,1.9,0,0,1,547.78,93.8Z"/><path class="cls-2" d="M554,113l-.5-.6,2.3-2.3a4.71,4.71,0,0,1-1.8-3.2c0-2.1,2.7-4.09,4.89-4.09a1.68,1.68,0,0,1,1.8,1.8c0,1-.4,2-2.2,4,.7,1.2,3.7,1.8,3.7,4,0,1.5-1.4,3.59-1.4,6,0,1.7,1.3,2.5,3.4,2.5a16.37,16.37,0,0,0,7.39-2.5l.4.8c-4,2-7.29,3.59-10.59,3.59s-5-1.6-5-3.4c0-2.7,2.4-4.19,2.4-6.49,0-.9-1.4-1.7-2.4-2.5Z"/><path class="cls-2" d="M580.44,119.77c3.1,0,4.89-1.5,8.09-4.09.5-.4.7-.6.9-.6a.37.37,0,0,1,.4.4c0,.2-.2.5-.7,1-3.1,3.1-6.69,5.39-11.09,5.39-3.4,0-6.79-1.3-6.79-5.29,0-5.69,7.29-11.38,11.68-11.38a2.87,2.87,0,0,1,2.8,2.9c0,2.7-5.19,6.69-9.29,9.39C576.84,118.67,578.14,119.77,580.44,119.77Zm-4.19-3.4c3.7-2.3,8.19-6,8.19-8.29,0-.5-.4-1.1-.9-1.1C581.24,107,576.25,111.78,576.25,116.37Z"/><path class="cls-2" d="M614.69,104.09c1.4,0,3.1,1.2,3.1,2.6,0,2.2-1.6,4.19-3,7.69,2.4-3,10.09-11,14.68-11a2.68,2.68,0,0,1,2.9,2.7c0,2.1-3.4,6.59-3.4,8.39,3.89-4.09,6.79-7.09,9.19-7.09,1.7,0,2.4.8,2.4,3.3,0,5,1.3,9.09,5.09,9.09a8.67,8.67,0,0,0,4.49-1.2l.4.8a13,13,0,0,1-6.09,1.5c-5.79,0-7.89-2.8-7.89-9.59,0-.6-.2-1.1-.9-1.1-1.1,0-2.3,1-6.29,5.29-2.7,3-3.1,3.8-4.09,3.8a2.59,2.59,0,0,1-2.5-2.3c0-2.9,5.59-8.59,5.59-11a.68.68,0,0,0-.7-.7c-2.3,0-10.29,7-14.48,13-1.9,2.7-3,4.09-4.19,4.09a2,2,0,0,1-2-2.2c0-1.6,5.39-9.69,5.39-13.58A2.2,2.2,0,0,1,614.69,104.09Z"/><path class="cls-2" d="M659,119.77c3.1,0,4.89-1.5,8.09-4.09.5-.4.7-.6.9-.6a.37.37,0,0,1,.4.4c0,.2-.2.5-.7,1-3.1,3.1-6.69,5.39-11.09,5.39-3.4,0-6.79-1.3-6.79-5.29,0-5.69,7.29-11.38,11.68-11.38a2.87,2.87,0,0,1,2.8,2.9c0,2.7-5.19,6.69-9.29,9.39C655.44,118.67,656.74,119.77,659,119.77Zm-4.19-3.4c3.7-2.3,8.19-6,8.19-8.29,0-.5-.4-1.1-.9-1.1C659.84,107,654.84,111.78,654.84,116.37Z"/></g></g></svg>