<svg xmlns="http://www.w3.org/2000/svg" viewBox="0 0 240.98 403.98" class="lara-character">
  <defs>
    <style>
      .cls-1,.cls-12{fill:none;}.cls-2{isolation:isolate;}.cls-4{opacity:0.29;mix-blend-mode:darken;}.cls-5{fill:#231f20;}.cls-6{fill:#3c2415;}.cls-7{fill:#fff;}.cls-8{clip-path:url(#clip-path);}.cls-9{fill:#9b8579;}.cls-10{clip-path:url(#clip-path-2);}.cls-11{fill:#594a42;}.cls-12{stroke:#fff;stroke-miterlimit:10;stroke-width:1.5px;}.cls-13{fill:#c2b59b;}.cls-14{fill:#006592;}.cls-15{fill:#8db7d5;}.cls-16{fill:#6f9ccc;}.cls-17{fill:#0d4e8b;}
    </style>
    <clipPath id="clip-path">
      <path id="SVGID" class="cls-1" d="M121.22 71.34a28.3 28.3 0 0 1 10.18 4.79 15 15 0 1 0-23.46-4.83 28.24 28.24 0 0 1 13.28.04z"/>
    </clipPath>
    <clipPath id="clip-path-2">
      <path id="SVGID-2" data-name="SVGID" class="cls-1" d="M83 73.51a28.3 28.3 0 0 1 11.21-1 15 15 0 1 0-22.71 7.6 28.24 28.24 0 0 1 11.5-6.6z"/>
    </clipPath>
  </defs>
  <g class="cls-2">
    <g id="Layer_2" data-name="Layer 2">
      <g id="Layer_1-2" data-name="Layer 1">
        <path class="ls-skin" d="M83.45 233c-2.45 6.31-9.85.72-18.11-5.86 3.89 3.1 22.43 18.81 20.2 22.68s-8.46-3.22-19-10.65c4.71 5.65 10.26 11.54 11.07 16s1.56 5.55-1.54 6.09c-5.88 1-11.49-12.62-15.66-17.62 3.32 4.9 7.76 21.53 3.67 19.67-6.57-3-11.49-18.17-11.49-18.17s1.11 15.55-2.2 16c-7.49 1-11.11-33.24-5.49-39.62 0 0 3-7 9.58-8.43S83.45 233 83.45 233zM83.62 389.65l-17.67 2.44-1.37-107.08 37.28 9.88-18.24 94.76zM139.97 386.97l-18.71-2.69-6.81-90.42 41.5-6.99-15.98 100.1zM63.29 141.18h73.18v24.08H63.29z"/>
        <path class="ls-skin" d="M81.37 112h36.22v81.79H81.37z"/>
        <path class="ls-skin" d="M133.31 146.86l-15.86 17.89s68 40.44 75.31 37.05 20.74-62.91 20.74-62.91l-18.63-6.14-18 38.11zM83.22 177.82l-13.66-31.16S0 181.47 0 189.56s48.44 45.18 48.44 45.18l13.38-14.35L39.78 194z"/>
        <path class="cls-4 cls-5" d="M150.6 79.82a52.41 52.41 0 1 1-104.82 0c0-28.95 8.52-62.37 37.44-63.57 60.41-2.5 67.38 34.62 67.38 63.57z"/>
        <path class="ls-skin" d="M150.6 77.82a52.41 52.41 0 1 1-104.82 0c0-28.95 8.52-62.37 37.44-63.57 60.41-2.5 67.38 34.62 67.38 63.57z"/>
        <path class="cls-5" d="M109.72 103.55a9.45 9.45 0 0 1-16.73-7 9.45 9.45 0 1 0 16.73 7z"/>
        <path class="cls-6" d="M26.59 39c-9 25.25 5.06 32 4.54 49.84s-16.75 35-16.75 35 22.62-5 28.32-21c3.95-11.06 4.33 16.58-.85 21.81s10-2.53 16.78-54.36 18.55-35 18.55-35a63.62 63.62 0 0 0-9.22-12C60.68 16 35.57 13.76 26.59 39z"/>
        <path class="cls-7" d="M121.22 71.34a28.3 28.3 0 0 1 10.18 4.79 15 15 0 1 0-23.46-4.83 28.24 28.24 0 0 1 13.28.04z"/>
        <circle class="cls-8 cls-5" cx="124.13" cy="62.7" r="7.94" transform="rotate(-76.21 124.12 62.703)"/>
        <path class="cls-9" d="M105.32 68c.08-.17.14-.35.23-.53 4.09-8.16 14-14.45 22.18-10.36 4.67 2.34 7.73 9.59 8.74 14.32A16.52 16.52 0 1 0 105.32 68z"/>
        <path class="cls-6" d="M96.11.33c33.73-3.08 59.12 16.1 64.81 28 2.7 5.63 3.82 11.87 4.92 18 2.69 15.06 5.39 30.28 4.65 45.57s-4.58 31.75 3.33 44.77A40.9 40.9 0 0 1 157 113.81l-3.55 18.38-10.78-77a96.37 96.37 0 0 0-3.9 32.29c1-20.81-31.09-60.19-54-49.45-3 1.41-6.07-2.71-7.55-5.69-3.15-6.34-4.38-13-17.38-15.91C62 10.77 83 1.53 96.11.33z"/>
        <path class="cls-7" d="M83 73.51a28.3 28.3 0 0 1 11.21-1 15 15 0 1 0-22.71 7.6 28.24 28.24 0 0 1 11.5-6.6z"/>
        <circle class="cls-10 cls-5" cx="81.15" cy="64.58" r="7.94" transform="rotate(-16.36 81.144 64.563)"/>
        <path class="cls-9" d="M67.58 78.65c0-.19-.05-.38-.06-.57C67 69 73.89 58.13 83 57.57c5.21-.32 10 4.81 13.25 8.4a16.52 16.52 0 1 0-28.67 12.68z"/>
        <path class="cls-11" d="M108.09 55.81l-.75 1.78c-.21.57-.51 1.25-.76 2.06-.13.4-.28.83-.39 1.28s-.27.93-.37 1.43a17.36 17.36 0 0 0-.44 3.25 11 11 0 0 0 .43 3.53 9.22 9.22 0 0 0 1.78 3.28 13.29 13.29 0 0 0 3 2.58c1.12.79 2.32 1.35 3.57 2.25a2.36 2.36 0 0 1 .87 1.1 2.87 2.87 0 0 1 .11 1.33 6 6 0 0 1-.76 2.11 10.74 10.74 0 0 1-2.6 3 11.32 11.32 0 0 1-3 1.78 9.76 9.76 0 0 1-5.14.57 8.26 8.26 0 0 1-1.39-.35l-.48-.17.49.09a11.57 11.57 0 0 0 1.4.14 9.8 9.8 0 0 0 4.76-1.06A11.7 11.7 0 0 0 111 84a10.52 10.52 0 0 0 2.17-2.8 4.74 4.74 0 0 0 .54-1.64 1.48 1.48 0 0 0-.07-.68 1 1 0 0 0-.42-.45c-1-.7-2.34-1.34-3.52-2.15a14.59 14.59 0 0 1-3.27-2.91 9.94 9.94 0 0 1-1.93-3.84 11.09 11.09 0 0 1-.27-4 15.4 15.4 0 0 1 .72-3.41 18.89 18.89 0 0 1 1.08-2.7c.35-.79.74-1.44 1-2s.57-.94.74-1.22z"/>
        <ellipse class="cls-5" cx="100.29" cy="85.47" rx="3.36" ry="2.22"/>
        <ellipse class="cls-7" cx="125.03" cy="61.6" rx="1.86" ry="1.62"/>
        <ellipse class="cls-7" cx="83.22" cy="63.22" rx="1.86" ry="1.62"/>
        <path class="cls-5" d="M176.87 398.57l-60.54-.19.07-19.28 15.05 6.75 14.8-6.64 30.66 10.1-.04 9.26z"/>
        <path class="cls-12" d="M163.12 382.5c-1.7 1.33-2.05 3.14-2.87 5.14-.32-2.24-.88-4.25-.66-6.5a43.85 43.85 0 0 0-4.51 4.16c.56-1.59-2.74-5-1.73-6.35l-2.55 4.9"/>
        <path class="cls-13" d="M177.592 402.184l-60.54-.19.012-3.61 60.54.19z"/>
        <path class="cls-14" d="M109.86 302.14l55.61-5.95-13.37-48.9-91.8-6.17-2.9-.31-8.67 55.88 55.35 5.34 3.74-18.89 2.04 19z"/>
        <path class="cls-15" d="M108.907 290.22l57.25-5.152 1.112 12.35-57.25 5.152zM105.747 302.702l-57.03-5.01 1.08-12.302 57.03 5.01z"/>
        <path class="ls-skin ls-hand-left" d="M201.27 101.58c6.76-.38 4.74 8.66 2.18 18.91 1.21-4.83 7.81-28.21 12.25-27.79s.58 9-1.81 21.72c3.19-6.63 6.25-14.13 10-16.72s4.4-3.72 6.18-1.12c3.37 4.93-6.72 15.69-9.54 21.56 3.08-5 16.37-16 16.37-11.5 0 7.23-11.77 18-11.77 18s13.69-7.46 15.47-4.63c4 6.4-25.63 23.9-33.78 21.43 0 0-7.63.2-11.64-5.22s6.09-34.64 6.09-34.64z"/>
        <path class="cls-16" d="M63.29 141.18l-18.75 11.43s16.88 41.86 16.88 38.87 6.31-4.94 6.31-4.94L47.89 260h113.16l-26.36-76.42 13.14 7.16 2.77-42-30.3-13.16-17 46.72z"/>
        <path class="cls-17" d="M120.3 135.51l20.17 4.58-37.18 42.14 17.01-46.72z"/>
        <path class="cls-17" d="M77.78 136.69l-20.38 6.32 45.89 39.22-25.51-45.54z"/>
        <path class="cls-4 cls-5" d="M141.81 175.78a25.92 25.92 0 0 0-35.81 9.1 26.59 26.59 0 0 0-2.49 5.68 26.45 26.45 0 1 0 .3 16.78A26.27 26.27 0 0 0 115 221.15a25.92 25.92 0 0 0 35.81-9.1 26.64 26.64 0 0 0-9-36.27z"/>
        <path class="cls-16" d="M141.81 173.4a25.92 25.92 0 0 0-35.81 9.1 26.59 26.59 0 0 0-2.49 5.68 26.45 26.45 0 1 0 .3 16.78A26.27 26.27 0 0 0 115 218.78a25.92 25.92 0 0 0 35.81-9.1 26.64 26.64 0 0 0-9-36.28z"/>
        <path class="cls-5" d="M121.13 400.37l-60.55-.36.11-19.28 15.04 6.76 14.83-6.58 30.62 10.19-.05 9.27z"/>
        <path class="cls-12" d="M101.58 383.66c-1.69 1.35-2 3.16-2.83 5.16-.33-2.23-.91-4.24-.72-6.49a43.85 43.85 0 0 0-4.47 4.2c.54-1.59-2.78-5-1.78-6.33l-2.51 4.92"/>
        <path class="cls-13" d="M121.096 403.978l-60.55-.36.022-3.61 60.55.36z"/>
      </g>
    </g>
  </g>
</svg>