<svg xmlns="http://www.w3.org/2000/svg" viewBox="0 0 384.04 271.42">
  <defs>
  </defs>
  <g id="Layer_2" data-name="Layer 2">
    <g id="Layer_1-2" data-name="Layer 1">
      <path class="cls-1" d="M92.48 2.55c.06 12.64 1.59 26.82 7.44 38.25 4.16 8.14 11.63 15.33 21.46 13.22 5.6-1.2 10.51-4.88 15.15-8.06a87.81 87.81 0 0 0 13.84-11.32c8.2-8.52 13.55-20.21 10.87-32.13-.49-2.18-2.94-2-4.29-.71-9.24 8.55-15.35 19.49-21.09 30.55a380.27 380.27 0 0 1-20.33 35.26 275.93 275.93 0 0 1-25.93 33.74A96.78 96.78 0 0 1 75.9 114c-5.62 4.17-13.25 9.16-20.5 9.17-13.94 0-13.53-19.46-11.92-28.8a76 76 0 0 1 5.67-18.5A78.35 78.35 0 0 1 53 68.51c1.56-2.65 4.28-8.55 7.14-10 6.22-3.21 11.59 11.27 12.78 14.84 2.08 6.26 3 12.82 4.11 19.3 2 11.85 5.07 23.48 11 34 12.29 21.77 37.45 36.65 62.43 27.7 3-1.07 1.33-4.85-1.62-3.8-13.74 4.92-29.06 1.11-40.51-7.49s-18.8-21.93-22.93-35.5c-3.9-12.78-4-26.57-8.93-39C74.46 63.44 71 56.89 66 54.15c-4.8-2.62-8.64.65-11.5 4.31A80.38 80.38 0 0 0 38.56 95c-1.54 9.57-1.81 22.57 6.64 29.27 9.72 7.72 23.67-.12 32.19-6.16 11.44-8.1 20.54-19.26 29-30.28a322.83 322.83 0 0 0 27.53-42.17c7.91-14.49 14.37-30.14 26.71-41.56l-4.29-.71c2.39 10.59-2 20.65-9.15 28.37a73.28 73.28 0 0 1-11.44 9.64c-4.27 3-9.13 7-14.27 8.27-9.73 2.4-16-7.38-18.92-15.22-3.89-10.33-5.2-21.8-5.24-32.78 0-2.83-4.88-1.75-4.87.88z"/>
      <path class="cls-1" d="M136.09 81.51a37.53 37.53 0 0 0-19.32 13.79c-3 4.17-9.45 15.12-3.54 19.46 6.57 4.82 13.66-4.22 17.27-8.48a94.07 94.07 0 0 0 15.38-25.7c.86-2.12-4-3-4.73-1.24l-6.65 15.35c-1.63 3.76-3.86 7.63-4.62 11.7-1 5.49 2.08 10.18 8.08 8.83 6.62-1.49 12.46-8 16.24-13.25 5-6.94 8.23-14.93 11.35-22.82l-4.22.28c5.63 5.23 5.9 13.51 3.32 20.33a42.28 42.28 0 0 1-4.52 8.34c-1.3 2-3 3.93-3.31 6.35-.46 3.59 2.4 5.85 5.82 5.86 4.12 0 7.18-2.94 9.71-5.84 5.6-6.42 10.28-13.65 15.05-20.68 2.24-3.3 4.44-6.63 6.83-9.82.62-.83 2-2 2.38-2.9 0-.06.71-2.63-.69.38q-1.85.54-.43 2 .5 1.4.89 2.84c.42 1.44 3 1.63 4.1 1 2.77-1.5 3.1-4.72.38-6.51a3.57 3.57 0 0 0-3.94-.05 36.76 36.76 0 0 0-13.78 20.65c-1.43 5.72-2.9 17.35 4.07 20.31 7.85 3.34 13.08-7.34 16-12.7a82 82 0 0 0 9.22-29c.28-2.2-3.93-2-4.85-.85-10.55 12.88-2.35 33.46 9.83 42.27 5.7 4.12 13 5.78 19.69 3.22 7.75-3 12.63-10.44 16.75-17.21 1.17-1.92-3.41-2.61-4.44-1.57l-3.16 3.16c-1.82 1.82 2.82 3.24 4.16 1.91l3.16-3.16-4.44-1.57c-3.28 5.39-7 11.46-12.59 14.71-7.76 4.47-15.43 0-20.57-6.19-7.74-9.24-12-24.17-3.65-34.32l-4.85-.85a79.76 79.76 0 0 1-5.69 21.39c-1.13 2.64-9 20.19-13 17.34-2.26-1.61-1.77-7.48-1.64-9.9a33.94 33.94 0 0 1 2-9.75 34.58 34.58 0 0 1 12-16l-3.94-.05a1.28 1.28 0 0 1 0 2.27l4.1 1c-1.61-5.51-5.19-11.11-10.09-5.39-5.35 6.25-9.55 13.63-14.25 20.36-2.63 3.76-5.29 7.53-8.25 11-1.47 1.74-3 4.2-5.42 3.79q-3 .43-.9-2.57a13.6 13.6 0 0 1 1.17-2c.85-1.32 1.8-2.58 2.63-3.92 5.82-9.39 7.7-21.53-1.11-29.71-.83-.78-3.69-1.06-4.22.28-4.28 10.86-9 22.62-18.19 30.28-1.82 1.51-6.19 5.52-7.86 2.55-1.23-2.19.94-6.64 1.72-8.51 3-7.27 6.27-14.45 9.4-21.67l-4.73-1.24a95 95 0 0 1-9.2 17.72 89.66 89.66 0 0 1-5.81 7.72c-1.87 2.23-5.14 7.18-8.29 7.11-2.57-.05-2.09-.82-1.84-3.1a18.93 18.93 0 0 1 1.52-5 34.39 34.39 0 0 1 4.34-7.6 33.21 33.21 0 0 1 16.44-11.61c3.12-1-.2-3.48-2.28-2.82zM87.18 149.72A69.3 69.3 0 0 0 60 156.39c-5.27 2.52-18.39 8.49-16.3 16.09 2.23 8.1 15.86 9.44 22.26 12.11 9.34 3.9 17.52 10.22 20.62 20.21 6.94 22.36-10.68 41.88-27.41 53.9-10.9 7.83-24 13.74-37.43 9.09-9.12-3.16-16.13-10.7-16.86-20.56C3 222.4 38.57 193 59.31 214.47c1 1 4.94-1.28 4.79-1.43-14.89-15.44-39.72-5.56-52.37 7.74C4.89 228-.46 237.78 0 248c.51 10.55 8 18.6 17.82 21.74 20.23 6.51 41.42-6.78 55.8-19.86 15.46-14 28.42-40.18 10.75-58.06-4.28-4.34-9.74-7.26-15.36-9.47-5.29-2.07-11.24-3-16.05-6.09-2.81-1.82-5.62-4.74-4.49-8.4s5.81-6.29 8.78-8.15A53.84 53.84 0 0 1 84 151.57c.91 0 5.35-1.94 3.14-1.85zM139.91 197c-11.65 2-22.86 9.16-28 20.06-2.24 4.71-3.25 10.91.09 15.39 2.92 3.92 7.82 5 12.38 3.73 5.81-1.58 10.34-6 14.17-10.42a232.66 232.66 0 0 0 14.6-18.81 251.09 251.09 0 0 0 23.26-41.14l-4.76-1.52A501.14 501.14 0 0 1 150.8 224c-1 2.36 3.18 4 4.51 2l12.43-18-3.89.1c5.75 5.71 4.14 25 16.92 21.21 6.51-1.94 12.48-9.56 16.27-14.86a62.07 62.07 0 0 0 10-22.29c.52-2.27-2.36-3.67-4.11-2.44-6.72 4.7-14.65 10.45-16.29 19.07-1.21 6.35 1.92 13.95 8 16.72 7.63 3.5 14-2.76 18.88-7.87a140.86 140.86 0 0 0 19.81-26.43l-4.59-1.47a59.37 59.37 0 0 1-3 26.6l4.76 1.52a57.55 57.55 0 0 1 24.05-32.37l-4.2-1.87 2.63 26.49c.17 1.76 2.71 3.29 4.2 1.87l15.92-15.1 7.2-6.88c1.14-1.09 2.54-2.85 4.05-3.48l1.41-.34q2.41.7.92-.79c-1.34 2.23 2 4.53 3.85 3 3.22-2.72 1.63-7.3-2-8.95-5.17-2.36-9.38 2.74-12.11 6.38-3.57 4.75-7 10.3-6 16.51.88 5.23 4.75 9.6 10.25 9.88 6.52.33 11.68-4.91 15.86-9.19a133.42 133.42 0 0 0 14-16.88A135.75 135.75 0 0 0 330 144.8c.76-2.74-3.66-4.05-4.76-1.52a152.42 152.42 0 0 0-12.64 55.43c-.09 2.32 3.29 3 4.59 1.47l23.59-28.38c1.4-1.69-1.11-3.74-2.77-3.41-13 2.55-13.87 19.22-4.66 26.66 5.39 4.35 12.52 5.77 19.3 5.11a49.89 49.89 0 0 0 12.32-3.1c2.19-.81 4.33-1.72 6.47-2.62a16.39 16.39 0 0 1 3.51-1.3 2 2 0 0 1 2.69.34q2.27.22 1.08 2c-3.23-.09-3 4.25 0 4.33 4.32.11 6.61-4.34 4.55-8.13-3.57-6.57-12.77-1.77-17.51.16-8.69 3.54-19.37 6.71-27.95 1.09-3.88-2.54-6.37-6.59-5.84-11.3.47-4.18 3-8.12 7.32-9l-2.77-3.41-23.59 28.38 4.59 1.47A149.16 149.16 0 0 1 330 144.8l-4.76-1.52a132.06 132.06 0 0 1-23.81 46.86 126.54 126.54 0 0 1-8.89 10.05c-3 3-8.42 9.26-13.36 7.41-5.75-2.15-4.12-10.08-2-14.07a41.16 41.16 0 0 1 3.51-5.22q.91-1.21 1.86-2.39 1.55-3 4.52-.95l3.85 3c3.52-5.89-5.83-6.92-9.47-5.14-4.66 2.28-8.83 7.84-12.57 11.39l-15.19 14.38 4.2 1.87-2.63-26.47a2.7 2.7 0 0 0-4.2-1.87 61.1 61.1 0 0 0-25.36 34.21c-.78 2.69 3.84 4.17 4.76 1.52a62.23 62.23 0 0 0 3.13-27.73c-.22-1.92-3.38-3.55-4.59-1.47a142 142 0 0 1-11.77 17.26q-3.27 4.08-6.84 7.9c-2.63 2.81-6 7-9.92 8-7.47 1.88-10.43-8.13-8.53-13.71 2.3-6.75 8.82-11.15 14.39-15l-4.11-2.44c-2.83 12.32-9.91 25.95-20.82 33.07-6.63 4.33-7.38-2.92-8.72-7.69-1.1-3.93-2.37-7.72-5.33-10.66-1-1-3-1.17-3.89.1l-12.43 18 4.51 2a501.14 501.14 0 0 0 20.81-59.73c.77-2.75-3.63-4-4.76-1.52a244.49 244.49 0 0 1-36.77 58.25c-3.31 3.89-7.93 9.06-13.36 9.74-8.14 1-7.26-8.6-4.93-13.41 4.62-9.52 14.47-15.82 24.67-17.59 3.2-.54 1.55-4.76-1.28-4.28z"/>
    </g>
  </g>
</svg>