<svg class="signature"
     viewBox="0 0 457.83 181.07"
     xmlns="http://www.w3.org/2000/svg">
  <defs>
    <style>.cls-1{fill:#27aae1;}.cls-2{fill:#fff;}</style>
  </defs>
  <title>lara-schenck</title>
  <g data-name="Layer 2"
     id="Layer_2">
    <g data-name="Layer 1"
       id="Layer_1-2">
      <path class="cls-1"
            d="M246.77,57.39a43.7,43.7,0,0,0-18.76,7c-3.72,2.53-10.25,6.78-9.63,12s6.82,6.75,10.95,7.78c7.19,1.79,14.53,1.35,21.7,2.82,9.37,1.93,8.88,10.85,4.83,17.63a32,32,0,0,1-16.46,13.5c-6.73,2.29-14.23,1.39-19.78-3.26-2.71-2.27-5.2-5.79-5.43-9.46s1.61-8.32,5.87-8.14c3.22.14,3.21-4.86,0-5-10.74-.45-12.71,13.18-8.58,20.56,5.39,9.63,17.56,13.41,27.84,10.55,10.46-2.91,20.51-11.94,23.61-22.48,1.35-4.59,1.28-9.87-1.8-13.77-3.58-4.54-9.41-5.27-14.8-5.61a87.89,87.89,0,0,1-13.94-1.76,33.11,33.11,0,0,1-6.07-1.71c-.55-.24-2.24-.83-2.5-1.45-.53-1.27,1-3,1.77-3.87,5.34-6.28,14.63-9.52,22.52-10.59,3.17-.43,1.82-5.25-1.33-4.82Z" />
      <path class="cls-1"
            d="M281.61,83c-9.77,1.42-11.42,17-8.48,24.34,2.84,7.09,15.16,10.1,17.28.81.72-3.13-4.1-4.47-4.82-1.33-.54,2.36-3.57,2.73-5.48,1.69-2.82-1.54-3.17-5.7-3.13-8.53.06-4.24.72-11.4,6-12.16,3.17-.46,1.82-5.28-1.33-4.82Z" />
      <path class="cls-1"
            d="M301.49,64.43a355.57,355.57,0,0,1-2.32,49.5h5a40.16,40.16,0,0,1,2.27-13.48c.94-2.61,3.57-10,6.28-11,4.09-1.5,3.29,10.22,3.37,12.22l.6,15.52c.12,3.21,5.12,3.22,5,0-.32-8.18-.3-16.46-1-24.62-.35-4.23-2.67-9.33-7.77-8.69-4.89.61-8.14,7.85-9.89,11.7a44.7,44.7,0,0,0-3.9,18.37c0,3.3,4.64,3.11,5,0a355.57,355.57,0,0,0,2.32-49.5c-.07-3.21-5.07-3.22-5,0Z" />
      <path class="cls-1"
            d="M340.92,100.52c3.82-3.61,12.53-14.75,5.7-19.45C339.1,75.9,333.6,88,332,93.27c-2.24,7.41-.84,16.85,6.68,20.71a11.06,11.06,0,0,0,15.55-6.36c1-3.07-3.85-4.39-4.82-1.33-1.17,3.67-5.62,4.87-8.83,3.06-4-2.27-5-7.49-4.42-11.66A23.44,23.44,0,0,1,338,91.6c1-2.34,1.22-4.15,3.9-4.13,3.48,0,.81,2.7-.3,4.51a24.34,24.34,0,0,1-4.19,5c-2.34,2.22,1.2,5.75,3.54,3.54Z" />
      <path class="cls-1"
            d="M361.47,92.12l-1.39,15.64h5c-.14-3.89.61-20.82,6.34-19.87s4,17,3.44,21.28c-.45,3.15,4.37,4.51,4.82,1.33,1-6.92,2.89-27.07-7.5-28.62-10.88-1.62-12.35,19.15-12.1,25.88.12,3.26,4.72,3.17,5,0l1.39-15.64c.28-3.2-4.72-3.19-5,0Z" />
      <path class="cls-1"
            d="M398.89,86.39c-8.55,2.27-12.87,13.83-7,20.85s18.26,4.91,21.82-3.29c1.27-2.92-3-5.47-4.32-2.52-2.13,4.9-9.5,7.12-13.45,2.88s-.85-11.72,4.32-13.09c3.11-.82,1.79-5.65-1.33-4.82Z" />
      <path class="cls-1"
            d="M418.91,57.34a288,288,0,0,1-3.55,52.17c-.51,3.15,4.31,4.5,4.82,1.33a295.25,295.25,0,0,0,3.73-53.5c-.07-3.21-5.07-3.22-5,0Z" />
      <path class="cls-1"
            d="M447.2,66.71a81.13,81.13,0,0,1-22.11,12.18A2.58,2.58,0,0,0,423.34,82,54.64,54.64,0,0,0,454,121.74c2.9,1.34,5.44-3,2.52-4.32a50,50,0,0,1-28.37-36.79l-1.75,3.08A85.32,85.32,0,0,0,449.73,71c2.52-1.93,0-6.28-2.52-4.32Z" />
      <path class="cls-2"
            d="M100,95.29a28,28,0,0,0-13.6,16.49c-2,6.42-2.36,16.21,2.51,21.57,6,6.64,11.89-3.66,14-8.42,3.79-8.72,4.39-18.42,4.91-27.8h-5q.59,7.43,1.34,14.84c.38,3.71.19,8.26,1.67,11.73.87,2,2.61,4,5,3.62,2.92-.42,3.2-3.54,4-5.87,1-3.05-3.79-4.36-4.82-1.33L108.66,124l1.75-1.75c.16,0-2.46-22.9-2.63-25.1a2.5,2.5,0,0,0-5,0c-.34,6.16-.69,12.37-2.1,18.4a40.61,40.61,0,0,1-3.47,9.69c-1.53,2.92-4.2,7.19-6.07,1.8C87.52,116.57,93,104.62,102.51,99.6c2.85-1.5.33-5.81-2.52-4.32Z" />
      <path class="cls-2"
            d="M120.08,114a16.48,16.48,0,0,1,1.55,7.85c-.08,2.81,4.23,3.41,4.91.66,1.13-4.56.52-8.83,0-13.44-.43-4,.29-16,7.51-12.26,2.85,1.49,5.38-2.83,2.52-4.32a10,10,0,0,0-13.16,3.89c-4.76,7.65.32,16.64-1.71,24.79l4.91.66a22.2,22.2,0,0,0-2.23-10.37c-1.36-2.91-5.67-.38-4.32,2.52Z" />
      <path class="cls-2"
            d="M143.81,92a24,24,0,0,0-6.58,13.85c-.42,3.78-.34,9.87,3.1,12.42,2.86,2.13,6.84.84,8.84-1.82,1.73-2.29,2.07-5.25,2.57-8,.71-3.9,1.41-7.8,2.11-11.7H149c3.7,14.6,14.76,30,31.81,26,3.13-.73,1.81-5.56-1.33-4.82-14.29,3.35-22.69-10.8-25.66-22.52-.58-2.28-4.37-2.48-4.82,0l-1.76,9.75c-.18,1-.92,10.58-4.66,7.52-1.48-1.21-.41-6.89-.05-8.44a18.77,18.77,0,0,1,4.78-8.74c2.19-2.35-1.33-5.89-3.54-3.54Z" />
      <path class="cls-2"
            d="M49.28,15.87c-.54,12.47.7,26.66,6.55,37.91C60.62,63,69.77,68.55,79.6,62.9c10.11-5.81,18.64-16,25.19-25.48A107.43,107.43,0,0,0,120.4,3c.82-3.19-3.66-4.26-4.82-1.33C104.74,29.1,93.78,56.57,79.33,82.29A256.48,256.48,0,0,1,54.72,119a180.68,180.68,0,0,1-14.47,16C35,140,27.76,145.56,20.12,142.46c-12.68-5.15-15.72-24.22-15-36.11a55,55,0,0,1,5.1-20.08c2.74-5.82,7.13-13.48,13-16.71,15.52-8.58,17.41,29.66,18,36.82,1.25,14.45,2.19,29.17,7.43,42.84,4.81,12.52,13.11,23.91,25.87,29.05,11.73,4.73,25.54,3.71,35-5.13,2.36-2.2-1.18-5.73-3.54-3.54-11.32,10.55-29.7,7.24-40.28-2.73-11.86-11.18-16.07-28-17.93-43.64-1-8.72-1.49-17.5-2.49-26.22-.84-7.38-1.62-15.25-4.62-22.11-2.15-4.93-5.79-10-11.35-11.27-6.17-1.36-11.23,2.94-15,7.28A59.38,59.38,0,0,0,0,107.82c-.41,12.36,2.88,27.44,12.67,35.86,11.32,9.73,23.93,2,32.77-6.88a225.1,225.1,0,0,0,29.18-37C94,69.68,107.28,36.2,120.4,3l-4.82-1.33A102.52,102.52,0,0,1,84,53.31c-3.83,3.35-8.78,8-14.3,6.87-5-1-8.18-5.87-10.18-10.17-4.8-10.34-5.74-22.9-5.25-34.13.14-3.22-4.86-3.21-5,0Z" />
    </g>
  </g>
</svg>
