<svg xmlns="http://www.w3.org/2000/svg" viewBox="0 0 609.97 158">
	<title>Lara Schenck</title>
	<path d="M44.37 8.21c1.31 12.41 4.22 25.89 10.81 36.65 4.84 7.91 13 14.87 22.85 12 5.81-1.72 10.58-6.18 15.09-10a83.44 83.44 0 0 0 12.54-12.73c7.18-9.46 11-21.33 7.08-32.91-.59-1.78-3.22-1.23-4.16-.17-8.34 9.46-13.34 20.89-17.93 32.5A380.27 380.27 0 0 1 74 70.63a275.91 275.91 0 0 1-22.33 36.23c-7.29 9.82-17.93 22.56-30.61 25.19C6.83 135 4.43 115.72 4.94 106a76.48 76.48 0 0 1 3.72-19.79c1.43-4.36 7-21.6 13.19-19.17C26.76 69 30.5 77.1 32.38 81.45a131.46 131.46 0 0 1 5.53 17.23c3.1 11.26 7 22.09 13.47 31.89 14 21.25 41.35 34.83 65.93 23.12 2.83-1.35 1.24-5.16-1.62-3.8C102 156.4 86 154 73.42 146c-11.84-7.52-20.09-19.65-25.42-32.44-5-11.94-6.52-25.13-12.27-36.75C31.9 69 21.36 55 13.35 66.33 5.52 77.4 1.17 91.41.2 104.84c-.71 9.9.12 23.21 9.34 29.34 10.36 6.89 23.59-2.26 31.44-9.09 10.29-9 18-20.5 25.23-32A318.91 318.91 0 0 0 90 47.37c6.39-15.19 11.2-31.5 22.3-44.09l-4.16-.17c3.55 10.6-.45 21.57-7.21 29.95a81.28 81.28 0 0 1-10.6 10.59c-3.71 3.16-7.73 7.12-12.35 8.85-9.67 3.63-17.2-6.7-20.7-14.25a98 98 0 0 1-8-30.93c-.3-2.84-5.14-1.74-4.87.88z"/>
	<path d="M95.42 82.66a37 37 0 0 0-17.75 16c-2.58 4.69-7.38 15.56-1.09 19.28 7 4.11 12.9-5.21 16.1-9.86a95 95 0 0 0 12.85-27.55c.54-1.86-4.35-2.45-5-.45L95.49 96c-1.35 4.24-3.53 8.86-3.35 13.4.19 5 4.07 8.26 9.07 6.58 6.53-2.2 11.8-9.52 15-15.26 4.1-7.36 6.48-15.56 8.75-23.62l-4.35.67c6 4.51 7.27 12.17 5.66 19.15-.9 3.91-2.76 7.3-4.58 10.82-.92 1.78-2 3.69-1.94 5.76.07 3.32 3.13 5.22 6.25 5.07 3.95-.19 6.72-3.26 8.89-6.23 5.11-7 9.06-14.89 13.16-22.49 1.89-3.51 3.74-7 5.79-10.46.41-.68 2-2.37 2.05-3.15 0-.54 2.19-1.06-.85-.27q-2.9-.12 0 2.33.64 1.34 1.17 2.74c.66 1.63 3.29 1.61 4.52.77 2.85-1.94 1.68-5.14-1-6.52a3.41 3.41 0 0 0-3.46.23 36.8 36.8 0 0 0-11.7 21.9c-.86 5.93-1.12 17.4 6 19.95 7.82 2.81 11.8-7.26 14.19-12.7a81.89 81.89 0 0 0 6.8-30.93c.05-2.07-3.94-2.23-4.85-.85-9.37 14.21 1.29 34.28 14.81 41.62 6.28 3.41 13.9 4.08 20.23.41 6.73-3.91 10.53-11.32 13.76-18.1 1.05-2.21-3.64-2.56-4.73-1.24L208 99.06c-1.3 1.6 3.49 2.76 4.73 1.24l2.82-3.46-4.73-1.24c-2.5 5.25-5.21 10.82-9.6 14.78-6.55 5.92-14.44 4.36-20.84-1-9.69-8.11-16.52-23.69-8.9-35.25l-4.85-.85A81.4 81.4 0 0 1 163.54 94a76.62 76.62 0 0 1-4.18 11c-.74 1.58-1.53 3.15-2.38 4.67q-.72 1.34-1.54 2.61-1 2.8-3 .88c-5.09-2.05-3.3-13.9-2.3-18.24a34.15 34.15 0 0 1 10.33-17.53l-3.46.23-.45 2.26 4.52.77c-2-5-6.21-11-10.56-4.83-4.75 6.69-8.13 14.55-12.12 21.7-2.19 3.93-4.42 7.87-6.94 11.61-.91 1.35-2.55 4.42-4 5-5.45 2.25-.46-6.22.21-7.52 5.23-10.07 6.7-23.11-3.35-30.71-1.15-.87-3.87-1-4.35.67-3.23 11.49-6.88 24.15-15.87 32.59-2 1.83-5.37 5.7-6.87 1.83-.9-2.33.47-5.86 1.15-8.05 2.32-7.52 4.77-15 7.15-22.51l-5-.45a93.06 93.06 0 0 1-8.03 19.55 90.78 90.78 0 0 1-5 8c-1.25 1.78-6.22 10.42-8.75 6.33-1.19-1.92.74-6.91 1.4-8.83a33.54 33.54 0 0 1 18.6-19.93c2.68-1.17-1.59-3.2-3.33-2.44zM334.37 11.12a72.22 72.22 0 0 0-30.6 6.63c-6.22 2.81-21 9.06-18.84 18.12 2.11 8.72 15.77 11 22.31 15.14 9.73 6.11 15.22 15.59 15 27.14-.55 25.69-22.22 45-42.58 57.34-11.88 7.19-26.73 13-39.85 5.43-9.74-5.61-13-16.71-10.44-27.25 2.88-11.94 11.27-22.58 20.88-29.94 12.08-9.24 31.6-15.75 41.67-.25.72 1.12 5.53-1.1 5.22-1.56-13.52-20.81-44-5.45-57.26 7.41-14 13.61-27.13 43-3.23 54.38 21.53 10.27 48.1-7.32 64.09-20.5 9.83-8.14 18.65-18.11 23.26-30.21 4.15-10.79 5.43-24-1.28-34-3.53-5.29-8.78-9.13-14.35-12s-12.64-4.31-16.57-9.43c-6.13-8 4.72-14.19 10.76-17.44a57.68 57.68 0 0 1 28.37-7c1 0 5.86-2 3.42-2zM367.14 87c-12.39.54-25.79 7.29-31.4 18.82-4.92 10.1 1.82 20.7 13.34 17.59 5.64-1.52 10.18-5.21 14.39-9.09q8.44-7.77 16.15-16.31a248 248 0 0 0 27.7-37.27l-4.51-2A496.09 496.09 0 0 1 375 114.9c-1.49 2.59 2.47 4.54 4.25 2.55l14.57-16.33-4.27-.37c5 6.44 1.23 25.57 14.35 23.37 6.62-1.11 13.29-7.74 17.67-12.39a62.45 62.45 0 0 0 13.11-21.49c.69-1.88-2-3.58-3.61-2.73-7.24 3.82-15.53 8.3-18.62 16.41-2.28 6-.42 13.87 4.87 17.68 7.08 5.11 14.6-.24 20.26-4.83a142.27 142.27 0 0 0 23.33-24.17l-4.59-1.47a59.13 59.13 0 0 1-6.31 26l4.76 1.52a57.1 57.1 0 0 1 27.5-28.75l-3.69-2.17-.68 26.61c-.05 2 2.73 3 4.2 1.87l16.06-11.82 7.23-5.32c1.34-1 2.66-2 4-3l2-1.41a5.55 5.55 0 0 0 2.91-.66c-1.75 2.31 2.05 4.06 3.85 3 3.67-2.26 1.93-7.42-1.38-9.14-4.91-2.56-9.58 2.08-12.67 5.3-4.29 4.47-8.53 9.84-7.78 16.42.57 5.05 4 9.32 9.17 10.06 6.64.94 12.58-3.93 17.39-7.81a134.29 134.29 0 0 0 39.72-53.31c1-2.31-3.28-4.09-4.51-2a152.22 152.22 0 0 0-19.52 53.39c-.33 2 2.38 4.06 4.11 2.44l26.94-25.25c1.92-1.79-.31-4-2.37-3.82-13.13 1-15.8 17.49-7.74 25.82 4.53 4.69 11.08 7.07 17.5 7.41a48.91 48.91 0 0 0 13.64-1.51c2-.48 4.05-1.05 6.07-1.62a33.65 33.65 0 0 1 4.33-1.1q5.9 1 3.21 2.88c-3.22-.49-2.94 3.88 0 4.33 4.33.66 6.84-4.06 5.16-7.79-3-6.67-12.37-3-17.32-1.68-9.18 2.43-20.31 4.22-28.09-2.69-6.47-5.75-5.81-19 4.5-19.76l-2.37-3.82L539.23 109l4.11 2.44a149.11 149.11 0 0 1 19-52.36l-4.51-2a131.05 131.05 0 0 1-30 43.93c-4.33 4.15-18.35 19.12-24.75 13-3.91-3.73-1.45-10 1.1-13.58a41.89 41.89 0 0 1 4.82-5.52 26.26 26.26 0 0 1 2.15-2q2.22-2.74 3.49.64l3.85 3c4.25-5.61-6-7.24-9.58-5.76-4.77 2-9.31 6.62-13.47 9.68l-16.86 12.41 4.2 1.87.68-26.61c0-1.72-2.24-2.88-3.69-2.17A61.52 61.52 0 0 0 450 117.13c-1.12 2.6 3.55 4 4.76 1.52a62.05 62.05 0 0 0 6.48-27.14c0-2.23-3.3-3.15-4.59-1.47a137.85 137.85 0 0 1-15.32 17.05c-4 3.79-13 13.81-19.28 12.13-5.65-1.52-6.64-9.84-4.64-14.34 2.91-6.56 10.09-10.27 16.1-13.44l-3.61-2.73c-4.25 11.64-13.26 25-25 30.23-6.74 3-6.65-4.73-7.33-9.28-.57-3.81-1.29-7.61-3.72-10.72a2.72 2.72 0 0 0-4.27-.37L375 114.9l4.25 2.55a505.28 505.28 0 0 0 28.32-57.2c1-2.31-3.27-4.07-4.51-2A244.42 244.42 0 0 1 360 111c-3.68 3.39-7.58 6.8-12.5 8.2-8.43 2.4-10.13-6.06-6.84-12.12 5.34-9.88 16.95-15.3 27.76-15.78 3.23-.14 1.53-4.4-1.28-4.28z"/>
</svg>