<svg id="Layer_1" data-name="Layer 1" xmlns="http://www.w3.org/2000/svg" viewBox="0 0 640 196.5"><title>projects</title><path d="M118.61,100.87c3.68-.09,8.26-6,17.61-6s10.44-.15,17,6.41S158,122,161.73,122c1.45,0,4.26-19.84,4.26-34.09,0-16.72-2.68-34.32-3.94-34.32-3.82,0-3.93,7-8.91,17.24S149,82.25,136.46,82.25s-16.64-8.11-17.89-7.68Z"/><ellipse cx="162.34" cy="87.58" rx="3.67" ry="27.84"/><circle cx="110.47" cy="125.96" r="11.54"/><path d="M121,119l.38-.3L107.46,100.9l-21,16.46,13.94,17.77.74-.58A18.57,18.57,0,0,1,121,119Z"/><circle cx="115.4" cy="127.42" r="5.77"/><circle cx="229.94" cy="84.14" r="5.77"/><circle cx="261.2" cy="111.13" r="11"/><circle cx="116.4" cy="128.42" r="1.3"/><circle cx="190.48" cy="95.24" r="5.33"/><circle cx="210.1" cy="51.21" r="4.08" transform="translate(25.33 163.56) rotate(-45)"/><circle cx="335.93" cy="35.24" r="17.37"/><circle cx="226.52" cy="129.3" r="9.2"/><circle cx="246.99" cy="41.83" r="8.05" transform="translate(42.76 186.9) rotate(-45)"/><circle cx="316.45" cy="121.84" r="15.76"/><circle cx="289.33" cy="67.22" r="14.95"/><circle cx="424.42" cy="11.5" r="28.5"/><circle cx="385.11" cy="82.17" r="31.81"/><circle cx="381.99" cy="148.93" r="15.76"/><circle cx="484.92" cy="111.13" r="30.21"/><path d="M77.7,51.16c1.82-3,1.8-7.31,1.8-11.91,0-8.54-5.22-9.25-6.84-11.38a33.63,33.63,0,0,1-19-29H120.9a33.51,33.51,0,0,1-3.32,13.28A33.64,33.64,0,0,1,102.4,27.63c-2,2.77-6.42,6.83-6.42,15,0,4,2.07,7.47,4.2,10a39.1,39.1,0,0,1,24.88,42.59v1A37.66,37.66,0,0,1,87.8,128.29H86.46A39.06,39.06,0,0,1,77.7,51.16Z"/><circle cx="528.92" cy="11.5" r="52.29"/><circle cx="563.21" cy="164.69" r="47.79"/><circle cx="461.87" cy="55.21" r="7.17"/><circle cx="454.71" cy="169.26" r="11.26"/><circle cx="636.37" cy="78.18" r="25.37"/><path d="M253,99h-8.87v19.57H231.58V63.22H253a23.41,23.41,0,0,1,11,2.39,16.76,16.76,0,0,1,6.92,6.54,18.66,18.66,0,0,1,2.38,9.45A16.18,16.18,0,0,1,268,94.24Q262.72,99,253,99ZM244.12,73.6V88.74H253q4.22-.08,6-2.3a8.84,8.84,0,0,0,0-10.65q-1.78-2.27-6-2.19Z"/><path d="M302.94,77.92V89.49a7.24,7.24,0,0,0-1.2-.09h-1.28a10.33,10.33,0,0,0-5.57,1.45q-2.32,1.45-2.32,4.93v22.81h-12V78.36h12v5.19h.32a10.47,10.47,0,0,1,3.2-4A7.69,7.69,0,0,1,301,77.71l.93,0A3.12,3.12,0,0,1,302.94,77.92Z"/><path d="M324.18,119.22a20.12,20.12,0,0,1-6.8-1.19A17.34,17.34,0,0,1,307,107.89a25.11,25.11,0,0,1-1.62-9.53A24.16,24.16,0,0,1,307,89.09a18.25,18.25,0,0,1,4.34-6.46,18,18,0,0,1,6.05-3.78,19.34,19.34,0,0,1,6.8-1.24,19,19,0,0,1,6.72,1.24,17.65,17.65,0,0,1,6,3.78,18.39,18.39,0,0,1,4.28,6.46,24.36,24.36,0,0,1,1.61,9.27,25.31,25.31,0,0,1-1.61,9.53,17.89,17.89,0,0,1-4.28,6.46,17.23,17.23,0,0,1-6,3.69A19.73,19.73,0,0,1,324.18,119.22Zm0-9.62a6.1,6.1,0,0,0,4.8-2.66q2.12-2.66,2.12-8.58T329,89.87a5.67,5.67,0,0,0-9.6,0q-2.12,2.65-2.12,8.49t2.08,8.58A6,6,0,0,0,324.18,109.6Z"/><path d="M353.59,78.36h12v41.52a14.64,14.64,0,0,1-2.09,8.2,12.32,12.32,0,0,1-5.73,4.68,21.56,21.56,0,0,1-8.28,1.5h-4.54v-9.73h2.59a7.05,7.05,0,0,0,4.28-1.3,4.18,4.18,0,0,0,1.77-3.57Zm-1-10.05a5.64,5.64,0,0,1,1.85-4.37,6.92,6.92,0,0,1,4.85-1.69,6.72,6.72,0,0,1,4.8,1.69,6.2,6.2,0,0,1,0,8.73,6.72,6.72,0,0,1-4.8,1.69,6.92,6.92,0,0,1-4.85-1.69A5.64,5.64,0,0,1,352.61,68.3Z"/><path d="M407.43,112.2a17.09,17.09,0,0,1-5.91,4.91,20.2,20.2,0,0,1-9.88,2.23,21.14,21.14,0,0,1-11-2.72,18.36,18.36,0,0,1-7-7.32A21.7,21.7,0,0,1,371.21,99a26.42,26.42,0,0,1,2.19-11,17.48,17.48,0,0,1,6.46-7.62,18.8,18.8,0,0,1,10.49-2.78q8.6,0,13.38,5.34t4.78,14.34v5.08H383.43a8.76,8.76,0,0,0,3.08,5.42,10.57,10.57,0,0,0,10.34.86,12.37,12.37,0,0,0,3.55-3.15Zm-17.19-25a5.63,5.63,0,0,0-4.66,2,11.25,11.25,0,0,0-2.15,5.35h13.51a8.85,8.85,0,0,0-.7-3.42A6.7,6.7,0,0,0,394,88.34,6.16,6.16,0,0,0,390.24,87.22Z"/><path d="M450,93.71H438.78A9,9,0,0,0,437,89.29q-1.5-2.07-5.07-2.07a6,6,0,0,0-5.8,3.27,17.44,17.44,0,0,0-1.66,8,16.93,16.93,0,0,0,1.68,8q1.68,3.18,5.89,3.18A6.62,6.62,0,0,0,437,108a5.93,5.93,0,0,0,1.77-3.76H450a14,14,0,0,1-2.55,8.1,16,16,0,0,1-6.43,5.22,20.77,20.77,0,0,1-8.74,1.82,19.9,19.9,0,0,1-10.64-2.69,17.42,17.42,0,0,1-6.65-7.41,26.48,26.48,0,0,1,0-21.49,17.54,17.54,0,0,1,6.62-7.43,19.58,19.58,0,0,1,10.57-2.72,18.59,18.59,0,0,1,9,2.18,17.13,17.13,0,0,1,6.35,5.84A15.39,15.39,0,0,1,450,93.71Z"/><path d="M478.62,118.25a20.07,20.07,0,0,1-6.92,1.08q-5.76,0-9-2.88T459.38,107V87h-5.3V78.36h5.3V68.3h12V78.36h6.7V87h-6.7v18.49q0,2.35.92,3.18a4.79,4.79,0,0,0,3.19.82q1,0,1.73-.07l1.41-.15Z"/><path d="M483.32,89.6a9.57,9.57,0,0,1,2-5.74,14.54,14.54,0,0,1,5.51-4.43A18.48,18.48,0,0,1,499,77.71a24.11,24.11,0,0,1,9.27,1.72,14.14,14.14,0,0,1,6.51,5.2l-9,6.38a14.59,14.59,0,0,0-1.09-1.23,7.94,7.94,0,0,0-2-1.46,6.45,6.45,0,0,0-3-.66,5.52,5.52,0,0,0-3.15.69,2,2,0,0,0-1,1.58A2.07,2.07,0,0,0,497,92q1.43.55,3.87,1.37l2.16.76A21.63,21.63,0,0,1,511.57,99a10.61,10.61,0,0,1,2.89,7.74,10.47,10.47,0,0,1-2.32,6.95,14.38,14.38,0,0,1-5.92,4.19,20.25,20.25,0,0,1-7.43,1.41,25.81,25.81,0,0,1-9.37-1.7,16.31,16.31,0,0,1-7.5-6.08l9-6.38q.43.59,1.31,1.57a8.63,8.63,0,0,0,2.32,1.76,7.49,7.49,0,0,0,3.61.78,6.28,6.28,0,0,0,3.15-.73,2.14,2.14,0,0,0,1.28-1.87,2.79,2.79,0,0,0-1.82-2.47,38.61,38.61,0,0,0-5.31-2.07l-1.95-.65a18.73,18.73,0,0,1-7.39-4.28A10.23,10.23,0,0,1,483.32,89.6Z"/></svg>