<svg xmlns="http://www.w3.org/2000/svg" xmlns:xlink="http://www.w3.org/1999/xlink" width="960.343" height="518.4" viewBox="0 0 960.343 518.4"><g><path fill="#2580AA" d="M512.582 229.378c9.448 3.794 15.945-6.322 13.462-10.757-2.483-4.435-13.81-.784-15.8-2.58-6.92-6.245-14.723-18.715-23.487-10.294-2.994 2.877-6.205 5.195-7.555 8.8-2.437-3.354-7.475-7.065-10.723-5.602-9.36 4.217.542 17.048 2.484 20.143 2.72 4.337.877 6.54-2.482 8.128-4.472 2.113 3.717 3.948 8.325 3.096-1.7 3.302-5.54 5.6-7.636 6.773-1 .56-1.81 1.33-2.414 2.22-1.626-2.89-11.203-3.242-14.097-1.622-2.9 1.623-.83 6.03 3.61 7.51 2.32.77 3.762-.356 5.783 3.048-.613 1.24.49 5.79 1.216 7.09 1.17 2.095 3.343 1.205 5.437.033 1.45-.81 3.206-7.693 3.174-9.247 2.29-.425 2.67-1.055 4.54-2.1.498-.28-2.413 3.542-1.6 4.996 1.484 2.648 7.696 12.2 9.144 9.53 1.37-2.524 4.822-7.583 3.805-10.11 1.188.24 3.48 3.235 3.985 4.14 1.24 2.217 3.225 3.636 5.443 2.395 2.218-1.24 1.757-11.787 3.134-11.15 6.1-2.975 11.982-6.298 12.182-11.214 2.282 1.373 7.326 2.694 9.725 1.15 7-4.504 4.98-10.99-.208-10.578-5.19.414-10.578-4.247-9.45-3.794zm-10.47-10.986c-1.14.638-2.96-.443-4.062-2.415-1.103-1.97-1.074-4.087.066-4.725s2.958.443 4.06 2.415c1.104 1.972 1.075 4.087-.065 4.725zM466.166 276.34c0-8.854-6.1-9.178-14.93-8.532-10.328.756-10.45 8.283-15.34 13.342-4.887 5.06-17.382 16.182-24.018 18.44-1.143-.152-39.237-20.253-47.803-21.374-8.56-1.12-8.996-3.563-14.33-10.23.134-.915 1.006-2.026 3.094-3.663 2.038-.61 3.568-1.028 4.36-1.04 6.813-.102 9.926 2.103 15.99 0 8.03-2.782 10.227-15.62 9.39-20.616-.29-1.73-14.656-9.627-10.216-7.61 2.19.997 11.056 1 12.46-1.7 1.94-3.735-1.317-7.788-1-12.26.285-4.03 9.908-2.324 9.908-7.432 0-8.184-9.917-13.684-11.146-21.054-.835-5.008 6.252-11.158 4.778-15.637-7.31-22.205-26.54-37.123-53.77-37.123-40.805 0-55.306 33.497-55.306 74.818 0 3.592-.158 6.716-.37 9.477-1.217 15.862 4.65 28.4 10.81 31.374 1.513.73 9.132 2.028 15.41 5.253-8.413 19.24-7.09 33.932-6.345 47.565 0 0-10.372 79.83 2.485 91.705-3.505 4.8-22.203 12.85-19.224 17.41-3.998 3.55-5.587 21.267-3.958 24.104-4.86 6.41-7.763 8.504-7.763 18.648 0 10.33 8.373 18.703 18.703 18.703 1.846 0 5.947.94 7.41.527 1.467 5.57 6.492 6.232 12.523 6.232 7.18 0 16.466-2.354 16.466-9.533 0-7.18-9.287-13-16.467-13-.067 0-.128.018-.193.02-.025-5.418-2.634-10.182-6.617-13.26 7.105-2.873 12.058-19.553 11.963-20.332 9.568-2.648 17.156-10.047 20.03-19.52 2.232 1.57.843 13.198.843 19.292 0 8.19 4.487 15.317 11.127 19.1-5.548 3.99-9.174 10.483-9.174 17.84 0 12.138 9.84 21.98 21.98 21.98 6.287 0 11.943-2.656 15.95-6.888 2.55 2.114 24.085-3.16 24.085-11.298 0-8.137-18.644-14.326-20.386-13.6-1.952-3.903-5.02-7.14-8.8-9.294 5.55-3.99 9.175-10.484 9.175-17.84 0-8.446-4.77-15.77-11.758-19.45 7.24-5.19.505 10.7.505 1.115 0-3.217 16.688-27.07-.07-86.79-.063-.24 4.168.196 4.114-.022 13-.326 43.54 4.908 46.222 3.467 11.444-2.48 34.09-35.822 41.022-35.822 5.617 0 38.877 1.617 39.455-10.516.306-6.385-31.28-1.742-31.28-4.978zM829.947 285.214c-.022 0-13.554-7.066-15.734-14.57 2.914-6.41-.64-15.873-7.576-18.647-8.74-3.496-14.31-2.224-19.813 6.993-20.477 7.72-47.016 16.71-51.865 14.57 2.527-6.302 30.302-21.563 30.302-50.902 0-26.044-49.353-64.868-53.03-67.98-10.927-9.246-32.75-24.94-32.652-32.48.16-12.32 5.297-21.644.252-40.708-10.422-39.388-51.65-60.302-77.21-48.555-28.06 12.896-29.81 20.26-33.05 48.167-.715 6.16 11.852 9.824 13.063 16.142.597 3.115-3 19.393-1.98 22.486 2.133 6.467 13.187 1.262 16.59 6.792.914 1.482-4.508 11.346 4.72 9.996 3.316-.485 14.48-14.32 17.686-12.926 6.152 13.212-16.595 17.013-12.72 20.912 4.963 4.995 3.158 11.67 7.88 14.26 4.723 2.587 21.523-6.28 24.397-6.42-4.105 9.297-6.974 51.078-13.19 58.825 0 0-20.12 21.108-30.076 20.88-3.318-.076-3.636-11.074-5.556-11.785-7.682-2.845-5.74 12.765-9.93 15.705-4.908 3.443-32.93 7.015-33.244 12.035-.315 5.02 25.516 5.446 31.405 4.325 16.384-3.118 45.36-2.605 61.37-9.496 8.928-3.843 16.695-30.45 16.695-30.45-.632 3.33 18.754 29.482 20.586 34.95-9.57 8.125-31.468 22.012-31.468 35.55 0 24.46 16.915 35.224 41.375 35.224 9.565 0 18.398-3.063 25.638-8.218 7.743 8.643 18.956 14.114 31.473 14.114 18.308 0 45.4-26.59 51.282-42.87 3.75 2.148 11.655 17.443 32.634 19.232 9.62.82 15.733.914 15.733-8.74 0-9.657-4.33-6.412-13.986-6.412zM370.825 500.11c-48.46-69.307 45.022 34.038-31.327-24.902-78.23-60.393-161.153-105.546-242.345-134.843 93.865 27.982 191.544 77.695 282.837 148.172 68.53 52.904-30.264-58.03 15.97 3.69"/><path fill="#2580AA" d="M112.618 480.935c13.496 18.464 35.305 30.466 59.927 30.466 16.79 0 32.274-5.583 44.707-14.987 12.434 9.404 27.917 14.988 44.707 14.988 21.475 0 40.81-9.134 54.358-23.718 13.55 14.584 32.883 23.72 54.36 23.72 17.967 0 34.423-6.41 47.258-17.04 33.95-35.28 56.15-79.077 61.468-127.06-92.116 20.854-188.888 31.984-288.717 31.984-90.448 0-178.387-9.138-262.628-26.364 6.58 47.267 29.566 90.25 63.966 124.715 3.13-2.233 6.082-4.695 8.824-7.374 13.376 13.07 31.662 21.138 51.842 21.138 24.622.002 46.43-12 59.926-30.465zM720.357 487.683c13.55 14.584 32.883 23.72 54.36 23.72 20.907 0 39.78-8.662 53.267-22.576 13.486 13.914 32.36 22.575 53.268 22.575 13.52 0 26.182-3.634 37.098-9.95 10.916 6.316 23.58 9.95 37.098 9.95 20.18 0 38.466-8.067 51.84-21.138 13.377 13.07 31.664 21.138 51.843 21.138 24.623 0 46.432-12.003 59.928-30.466 13.49 18.455 35.286 30.454 59.894 30.465V393.114l9.324-30.83v-63.707H613.298v63.707l34.965 31.86v115.103c5.685 1.396 11.62 2.156 17.736 2.156 21.475 0 40.81-9.135 54.357-23.72zM112.618 480.935c13.496 18.464 35.305 30.466 59.927 30.466 16.79 0 32.274-5.583 44.707-14.987 12.434 9.404 27.917 14.988 44.707 14.988 21.475 0 40.81-9.134 54.358-23.718 13.55 14.584 32.883 23.72 54.36 23.72 17.967 0 34.423-6.41 47.258-17.04 33.95-35.28 56.15-79.077 61.468-127.06-92.116 20.854-188.888 31.984-288.717 31.984-90.448 0-178.387-9.138-262.628-26.364 6.58 47.267 29.566 90.25 63.966 124.715 3.13-2.233 6.082-4.695 8.824-7.374 13.376 13.07 31.662 21.138 51.842 21.138 24.622.002 46.43-12 59.926-30.465z"/><defs><path id="a" d="M30.623 244.81h331v231.545h-331z"/></defs><clipPath id="b"><use xlink:href="#a" overflow="visible"/></clipPath><path fill="#2580AA" d="M54.376 592.112C68.4 434.512 83.292 340.492 96.7 340.858c.152.004.303.043.453.07-14.9 1.956-31.593 119.458-46.87 310.552" clip-path="url(#b)"/></g></svg>