<svg xmlns="http://www.w3.org/2000/svg" xmlns:xlink="http://www.w3.org/1999/xlink" width="960.343" height="518.4" viewBox="0 0 960.343 518.4"><g><path fill="#2580AA" d="M512.582 229.378c9.448 3.794 15.945-6.322 13.462-10.757-2.483-4.436-13.81-.785-15.801-2.582-6.918-6.244-14.722-18.714-23.486-10.293-2.994 2.877-6.205 5.195-7.555 8.801-2.437-3.355-7.475-7.066-10.723-5.603-9.359 4.217.543 17.048 2.485 20.143 2.72 4.337.877 6.541-2.482 8.128-4.472 2.113 3.717 3.948 8.325 3.096-1.699 3.301-5.541 5.6-7.636 6.772-1.002.561-1.81 1.33-2.415 2.219-1.626-2.888-11.203-3.241-14.097-1.621-2.898 1.622-.829 6.03 3.61 7.508 2.32.772 3.763-.355 5.784 3.049-.613 1.241.489 5.791 1.216 7.09 1.172 2.095 3.344 1.205 5.438.033 1.451-.812 3.206-7.694 3.174-9.248 2.289-.425 2.67-1.055 4.538-2.1.499-.279-2.412 3.542-1.598 4.996 1.483 2.649 7.695 12.2 9.143 9.532 1.37-2.525 4.822-7.584 3.805-10.111 1.189.24 3.48 3.235 3.986 4.139 1.241 2.218 3.225 3.637 5.443 2.396 2.218-1.241 1.757-11.787 3.134-11.151 6.099-2.974 11.982-6.297 12.182-11.213 2.282 1.372 7.326 2.693 9.725 1.149 7.001-4.504 4.981-10.991-.207-10.578-5.191.414-10.578-4.247-9.45-3.794zm-10.471-10.986c-1.14.638-2.958-.443-4.061-2.415-1.103-1.971-1.074-4.087.066-4.725s2.958.443 4.061 2.415c1.103 1.972 1.074 4.087-.066 4.725zM466.166 276.339c0-8.853-6.1-9.177-14.93-8.531-10.328.756-10.451 8.283-15.339 13.342-4.888 5.059-17.383 16.182-24.019 18.441-1.143-.153-39.237-20.254-47.803-21.375-8.56-1.121-8.996-3.563-14.331-10.229.135-.916 1.007-2.027 3.095-3.664 2.039-.611 3.569-1.028 4.361-1.04 6.813-.102 9.926 2.103 15.991.001 8.03-2.783 10.226-15.622 9.388-20.617-.29-1.73-14.655-9.627-10.215-7.609 2.191.996 11.056.999 12.459-1.701 1.941-3.735-1.316-7.788-.999-12.261.285-4.029 9.908-2.323 9.908-7.431 0-8.184-9.917-13.684-11.146-21.054-.835-5.009 6.252-11.159 4.778-15.638-7.31-22.205-26.541-37.123-53.771-37.123-40.804 0-55.305 33.497-55.305 74.818 0 3.592-.158 6.716-.37 9.477-1.217 15.862 4.649 28.401 10.81 31.374 1.513.731 9.132 2.029 15.409 5.254-8.412 19.24-7.09 33.932-6.344 47.565 0 0-10.372 79.83 2.485 91.705-3.505 4.799-22.203 12.849-19.224 17.409-3.998 3.55-5.587 21.268-3.958 24.105-4.86 6.409-7.763 8.504-7.763 18.648 0 10.329 8.373 18.703 18.703 18.703 1.846 0 5.947.939 7.409.527 1.468 5.571 6.493 6.232 12.524 6.232 7.18 0 16.467-2.354 16.467-9.533 0-7.18-9.287-13-16.467-13l-.192.019c-.025-5.417-2.634-10.181-6.617-13.258 7.105-2.874 12.058-19.554 11.963-20.333 9.568-2.648 17.156-10.047 20.031-19.519 2.231 1.568.842 13.197.842 19.291 0 8.189 4.487 15.317 11.127 19.099-5.548 3.99-9.174 10.484-9.174 17.84 0 12.139 9.841 21.98 21.98 21.98 6.288 0 11.944-2.655 15.951-6.887 2.55 2.114 24.085-3.161 24.085-11.298s-18.644-14.326-20.386-13.601c-1.951-3.902-5.019-7.14-8.798-9.293 5.548-3.99 9.174-10.484 9.174-17.84 0-8.446-4.77-15.77-11.758-19.45 7.239-5.189.505 10.701.505 1.115 0-3.216 16.688-27.07-.07-86.789-.063-.241 4.168.196 4.114-.022 13.001-.326 43.539 4.908 46.222 3.467 11.444-2.48 34.089-35.822 41.022-35.822 5.617 0 38.877 1.617 39.455-10.516.306-6.385-31.279-1.742-31.279-4.978zM829.947 285.214c-.022 0-13.554-7.066-15.734-14.569 2.914-6.41-.641-15.874-7.576-18.648-8.741-3.496-14.311-2.224-19.813 6.993-20.477 7.719-47.016 16.709-51.865 14.569 2.528-6.301 30.303-21.562 30.303-50.901 0-26.044-49.353-64.868-53.03-67.979-10.927-9.247-32.75-24.942-32.652-32.48.161-12.32 5.297-21.645.252-40.709-10.422-39.388-51.651-60.302-77.209-48.555-28.06 12.896-29.81 20.261-33.051 48.167-.715 6.161 11.852 9.824 13.063 16.142.597 3.115-3 19.393-1.98 22.486 2.133 6.467 13.187 1.262 16.591 6.792.913 1.482-4.509 11.346 4.719 9.996 3.316-.485 14.48-14.319 17.686-12.926 6.151 13.212-16.596 17.013-12.722 20.912 4.964 4.995 3.159 11.671 7.881 14.259 4.723 2.588 21.523-6.278 24.397-6.419-4.105 9.297-6.974 51.078-13.191 58.825 0 0-20.119 21.109-30.075 20.881-3.319-.076-3.637-11.074-5.557-11.785-7.682-2.845-5.741 12.765-9.931 15.705-4.907 3.443-32.928 7.015-33.243 12.035-.315 5.02 25.516 5.446 31.405 4.325 16.384-3.118 45.36-2.605 61.37-9.496 8.928-3.843 16.695-30.449 16.695-30.449-.632 3.329 18.754 29.481 20.586 34.95-9.57 8.124-31.468 22.011-31.468 35.548 0 24.46 16.915 35.225 41.375 35.225 9.565 0 18.398-3.063 25.638-8.218 7.742 8.643 18.955 14.114 31.472 14.114 18.308 0 45.399-26.59 51.282-42.869 3.75 2.147 11.655 17.442 32.634 19.231 9.62.82 15.734.914 15.734-8.741-.001-9.656-4.331-6.411-13.986-6.411zM370.825 500.109c-48.46-69.306 45.022 34.039-31.327-24.901-78.231-60.393-161.153-105.546-242.345-134.843 93.865 27.982 191.544 77.695 282.837 148.172 68.53 52.904-30.264-58.03 15.97 3.69"/><path fill="#2580AA" d="M112.618 480.935c13.496 18.464 35.305 30.466 59.927 30.466 16.791 0 32.274-5.584 44.707-14.988 12.434 9.404 27.917 14.988 44.707 14.988 21.476 0 40.81-9.135 54.359-23.719 13.549 14.584 32.883 23.719 54.359 23.719 17.968 0 34.424-6.409 47.259-17.04 33.951-35.28 56.149-79.076 61.468-127.06-92.116 20.855-188.888 31.985-288.717 31.985-90.448 0-178.387-9.138-262.628-26.364 6.58 47.267 29.567 90.249 63.967 124.715 3.129-2.233 6.082-4.695 8.824-7.374 13.376 13.071 31.662 21.138 51.842 21.138 24.622.001 46.43-12.002 59.926-30.466zM720.357 487.683c13.549 14.584 32.883 23.719 54.359 23.719 20.908 0 39.782-8.661 53.268-22.575 13.486 13.914 32.361 22.575 53.268 22.575 13.519 0 26.182-3.634 37.098-9.951 10.916 6.317 23.579 9.951 37.098 9.951 20.179 0 38.466-8.067 51.841-21.138 13.376 13.071 31.663 21.138 51.842 21.138 24.622 0 46.431-12.003 59.927-30.466 13.49 18.455 35.286 30.454 59.894 30.465v-118.288l9.324-30.83v-63.707h-574.978v63.707l34.965 31.859v115.104c5.685 1.396 11.62 2.156 17.736 2.156 21.476 0 40.81-9.135 54.358-23.719zM112.618 480.935c13.496 18.464 35.305 30.466 59.927 30.466 16.791 0 32.274-5.584 44.707-14.988 12.434 9.404 27.917 14.988 44.707 14.988 21.476 0 40.81-9.135 54.359-23.719 13.549 14.584 32.883 23.719 54.359 23.719 17.968 0 34.424-6.409 47.259-17.04 33.951-35.28 56.149-79.076 61.468-127.06-92.116 20.855-188.888 31.985-288.717 31.985-90.448 0-178.387-9.138-262.628-26.364 6.58 47.267 29.567 90.249 63.967 124.715 3.129-2.233 6.082-4.695 8.824-7.374 13.376 13.071 31.662 21.138 51.842 21.138 24.622.001 46.43-12.002 59.926-30.466z"/><defs><path id="a" d="M30.623 244.81h331.001v231.545h-331.001z"/></defs><clipPath id="b"><use xlink:href="#a" overflow="visible"/></clipPath><path fill="#2580AA" d="M54.376 592.112c14.023-157.6 28.916-251.619 42.325-251.254.151.004.302.043.452.071-14.901 1.955-31.593 119.457-46.869 310.551" clip-path="url(#b)"/></g></svg>