<svg xmlns="http://www.w3.org/2000/svg" width="960.343" height="518.4" viewBox="0 0 960.343 518.4"><g><path fill="#2580AA" d="M714.745 480.483c-8.193-87.695-4.8-96.589 16.142-194.837 19.647-92.173 53.04-185.656 101.666-270.357-55.709 85.456-99.809 190.743-124.85 308.221-18.797 88.186-23.084 87.473-18.232 167.643"/><path fill="#2580AA" stroke="#fff" stroke-miterlimit="10" d="M861.339 340.043"/><path fill="#2580AA" d="M862.836 518.399c-6.927-321.896-17.12-503.611-29.862-503.72-.158-.001-.316.08-.474.137 12.521 4.724 22.548 185.701 29.389 503.585"/><path fill="#2580AA" d="M673.713 299.754c7.29-5.366 23.692-12.343 27.934-20.407 4.37-8.306-3.529-25.544-3.529-35.582 0-33.045-26.788-65.018-59.833-65.018s-59.833 31.974-59.833 65.018c0 10.971-7.418 29.028-2.262 37.865 5.161 8.846 22.899 16.248 31.715 21.456-12.899 7.064-28.706 17.77-35.662 30.735-5.716 10.653-3.772 22.831-3.772 35.767 0 41.85 33.927 75.777 75.777 75.777s80.632-33.926 80.632-75.777c0-20.974-1.238-35.103-15.008-48.823-6.843-6.819-27.123-17.194-36.159-21.011zM367.624 260.479c-72.589-99.846-197.137-134.682-286.783-83.565l.851.756c90.163-43.467 209.43-4.967 277.777 94.123 64.41 93.381 68.569 157.461 7.319 228.196.503 1.097 2.521 11.218 3.021 12.316 72.883-70.242 69.266-153.546-2.185-251.826zM26.007 498.798c44.381-204.213 64.911-321.173 55.153-323.705-.153-.04-.326.001-.493.018 8.666 6.006-11.865 122.279-55.472 322.967"/><path fill="#2580AA" d="M501.454 210.773c-8.639-10.508-17.561-22.124-16.404-27.48 2.71-12.543 13.235-24.531 12.025-45.033-2.501-42.36-37.075-69.375-66.354-70.373-24.456-.834-42.828 13.198-51.902 41.014-2.003 6.141 10.069 12.477 9.999 19.177-.035 3.303-7.069 19.177-6.667 22.544.841 7.042 13.201 4.013 15.532 10.361.625 1.702-6.947 10.65 2.751 11.179 3.485.19 22.595-9.197 25.58-7.113.766 29.072-22.884 21.221-19.735 26.001 4.035 6.125.813 12.566 5.099 16.184 4.286 3.617 23.267-1.962 26.231-1.512-1.79 2.531-13.853 7.351-17.413 17.507-4.725 13.479-7.216 30.965-10.842 39.597 0 0-20.758-8.65-32.048-14.511-12.139-22.659-36.758-15.218-39.695-15.218-16.089 0-5.394 4.034-5.394 20.123 0 5.776 15.425 6.028 24.858 11.279 16.841 9.376 37.19 38.783 58.347 39.435 7.366.227 17.296-12.248 22.577-17.586 3.122 6.257-22.659 96.327-22.659 123.813 0 37.554 10.411 29.459 47.965 29.459s80.704-3.235 80.704-40.789c0-21.216-12.433-92.968-12.433-115.721.002-24.698-21.483-61.83-30.122-72.337zM369.809 512.305c22.367 0 42.503-9.514 56.614-24.703 14.111 15.189 34.247 24.703 56.614 24.703 21.775 0 41.433-9.02 55.479-23.512 14.046 14.491 33.703 23.512 55.479 23.512 14.08 0 27.268-3.784 38.637-10.364 11.369 6.579 24.557 10.364 38.637 10.364 21.016 0 40.062-8.402 53.992-22.015 13.931 13.613 32.976 22.015 53.993 22.015 6.342 0 12.503-.77 18.4-2.212 36.851-43.905 60.798-96.201 67.081-152.88-122.831 27.809-251.87 42.65-384.985 42.65-120.606 0-237.867-12.185-350.197-35.155 7.041 50.578 28.178 97.471 59.952 137.775 9.747-5.456 18.208-12.936 24.766-21.909 14.056 19.23 36.77 31.73 62.413 31.73 17.488 0 33.613-5.816 46.562-15.61 12.95 9.795 29.075 15.611 46.563 15.611z"/></g></svg>