<svg xmlns="http://www.w3.org/2000/svg" width="960.343" height="518.4" viewBox="0 0 960.343 518.4"><g><path fill="#2580AA" d="M714.745 480.483c-8.193-87.695-4.8-96.59 16.142-194.837 19.647-92.173 53.04-185.656 101.666-270.357-55.71 85.455-99.81 190.742-124.85 308.22-18.797 88.186-23.084 87.473-18.232 167.643"/><path fill="#2580AA" stroke="#fff" stroke-miterlimit="10" d="M861.34 340.043"/><path fill="#2580AA" d="M862.836 518.4c-6.927-321.897-17.12-503.612-29.862-503.72-.158-.002-.316.08-.474.136 12.52 4.724 22.548 185.7 29.39 503.585"/><path fill="#2580AA" d="M673.713 299.754c7.29-5.366 23.692-12.343 27.934-20.407 4.37-8.306-3.53-25.544-3.53-35.582 0-33.045-26.787-65.018-59.832-65.018s-59.833 31.974-59.833 65.018c0 10.97-7.418 29.028-2.262 37.865 5.16 8.846 22.9 16.248 31.715 21.456-12.9 7.064-28.706 17.77-35.662 30.735-5.716 10.654-3.772 22.832-3.772 35.768 0 41.85 33.928 75.777 75.778 75.777 41.85 0 80.632-33.926 80.632-75.777 0-20.974-1.238-35.103-15.008-48.823-6.843-6.82-27.123-17.194-36.16-21.01zM367.624 260.48c-72.59-99.847-197.137-134.683-286.783-83.566.286.25.567.506.852.756 90.163-43.467 209.43-4.967 277.777 94.123 64.41 93.38 68.568 157.46 7.318 228.196.503 1.096 2.52 11.217 3.02 12.315 72.884-70.242 69.267-153.546-2.184-251.826zM26.007 498.798c44.38-204.213 64.91-321.173 55.153-323.705-.153-.04-.326 0-.493.018 8.666 6.007-11.865 122.28-55.472 322.968"/><path fill="#2580AA" d="M501.454 210.773c-8.64-10.508-17.56-22.124-16.404-27.48 2.71-12.543 13.235-24.53 12.025-45.033-2.5-42.36-37.075-69.375-66.354-70.373-24.455-.834-42.827 13.198-51.9 41.014-2.004 6.142 10.068 12.478 9.998 19.178-.035 3.303-7.07 19.177-6.667 22.544.842 7.042 13.202 4.013 15.533 10.36.625 1.703-6.947 10.65 2.75 11.18 3.486.19 22.596-9.197 25.58-7.113.767 29.07-22.883 21.22-19.734 26 4.034 6.125.812 12.566 5.098 16.184 4.286 3.617 23.267-1.962 26.23-1.512-1.79 2.53-13.852 7.35-17.412 17.507-4.725 13.478-7.216 30.964-10.842 39.596 0 0-20.758-8.65-32.048-14.51-12.14-22.66-36.758-15.22-39.695-15.22-16.088 0-5.393 4.035-5.393 20.124 0 5.776 15.425 6.028 24.858 11.28 16.84 9.375 37.19 38.782 58.347 39.434 7.366.227 17.296-12.248 22.577-17.586 3.12 6.257-22.66 96.327-22.66 123.813 0 37.555 10.41 29.46 47.965 29.46 37.554 0 80.704-3.235 80.704-40.79 0-21.215-12.434-92.967-12.434-115.72.002-24.698-21.483-61.83-30.122-72.337zM369.81 512.305c22.366 0 42.502-9.514 56.613-24.703 14.11 15.19 34.247 24.703 56.614 24.703 21.775 0 41.433-9.02 55.48-23.512 14.045 14.49 33.702 23.512 55.478 23.512 14.08 0 27.268-3.784 38.637-10.364 11.37 6.58 24.557 10.365 38.637 10.365 21.015 0 40.06-8.402 53.99-22.015 13.932 13.613 32.977 22.015 53.994 22.015 6.342 0 12.503-.77 18.4-2.212 36.85-43.905 60.798-96.2 67.08-152.88-122.83 27.81-251.87 42.65-384.984 42.65-120.606 0-237.867-12.185-350.197-35.155 7.04 50.578 28.178 97.47 59.952 137.775 9.747-5.456 18.208-12.936 24.766-21.91 14.057 19.23 36.77 31.73 62.414 31.73 17.488 0 33.613-5.815 46.562-15.61 12.95 9.796 29.075 15.612 46.563 15.612z"/></g></svg>