<svg xmlns="http://www.w3.org/2000/svg" xmlns:xlink="http://www.w3.org/1999/xlink" width="960.343" height="518.4" viewBox="0 0 960.343 518.4"><g><path fill="#2580AA" d="M601.537 470.992c17.954-111.876 14.353 26.737-4.197-101.155-19.007-131.044-56.734-251.793-107.577-355.667 64.265 114.42 111.945 253.313 134.126 406.237 16.65 114.795 22.212-36.074 9.185 66.425"/><path fill="#2580AA" d="M480.015 239.884c-18.61 1.362-26.938 18.54-38.894 22.61-1.028-.138-21.902-1.73-29.685-1.73-2.685 0-29.496-20.966-36.085-27.558 2.17-.65 3.798-1.094 4.64-1.107 7.25-.11 10.56 2.237 17.015 0 8.544-2.96 10.88-16.622 9.99-21.937-.31-1.84-18.177-4.083-10.87-8.096 2.33 1.06 11.764 1.063 13.257-1.81 2.065-3.974-1.4-8.287-1.063-13.046.303-4.286 10.54-2.47 10.54-7.906 0-8.708-10.55-14.56-11.86-22.402-.888-5.33 6.654-11.873 5.085-16.64-7.778-23.626-28.24-39.5-57.214-39.5-43.415 0-58.844 35.643-58.844 79.61 0 3.82-.168 7.145-.394 10.083-1.295 16.877 4.946 30.22 11.502 33.383 1.61.777 9.716 2.16 16.396 5.59-13.085 29.928-4.034 49.516-7.124 70.356-3.09 20.84-10.117 27.914-10.117 43.663 0 17.012 1.05 29.158 12.635 39.857-3.158 4.323-3.47 25.572-.787 29.68-3.602 3.198-5.033 19.16-3.566 21.717-4.38 5.775-6.994 7.662-6.994 16.8 0 9.307 7.544 26.587 16.85 26.587 1.662 0 5.357.846 6.674.475 1.323 5.018 5.85 5.614 11.283 5.614 6.468 0 14.835-2.12 14.835-8.59 0-6.467-8.367-21.448-14.835-21.448-.06 0-.114.017-.173.018-.022-4.88-2.373-9.172-5.96-11.944 6.4-2.59 10.862-17.617 10.777-18.318 8.62-2.386 15.455-9.05 18.045-17.585 2.01 1.412.76 11.888.76 17.378 0 7.377 4.04 13.8 10.024 17.206-5 3.594-8.266 9.445-8.266 16.072 0 10.936 8.866 29.54 19.802 29.54 5.665 0 10.76-2.393 14.37-6.206 2.298 1.904 21.698-12.585 21.698-19.915 0-7.33-16.797-12.906-18.366-12.253-1.758-3.515-4.522-6.433-7.926-8.372 4.998-3.594 8.265-9.445 8.265-16.072 0-7.61-4.298-14.207-10.593-17.523 6.52-4.675.455-21.86.455-30.496 0-2.898 5.776-50.01 3.81-77.573-.058-.217-.118-.44-.167-.637 11.713-.294 39.224 4.422 41.642 3.123 10.31-2.234 30.71-32.272 36.957-32.272 5.06 0 11.972-5.204 12.493-16.135.274-5.75 16.657-4.893 16.657-7.808 0-7.974-18.722-5.065-26.677-4.483zM723.442 414.354c6.575-10.847-5.253-17.327-5.253-30.937 0-18.02-21.904-68.396-25.22-79.744-3.314-11.347-.19-75.96-7.61-88.063-7.416-12.102-6.727-6.596-4.293-13.664 3.978-11.552 11.712-18.74 12.883-38.258 2.42-40.33-28.89-68.45-56.607-65.326-30.43 3.43-35.388 5.438-47.107 30.71-2.587 5.58 8.11 12.934 7.287 19.26-.406 3.12-8.85 17.33-8.85 20.56 0 6.754 12.028 5.286 13.515 11.55.4 1.68-7.77 9.285 1.34 10.88 3.272.573 17.603-5.41 20.19-3.102 1.292 5.39-20.435 7.29-17.997 12.165 3.124 6.246-.65 11.972 2.994 15.876 3.644 3.905 22.22.774 24.97 1.534-6.755 7.48-22.77 45.935-30.696 51.3-1.803-5.392-11.846-7.18-16.462-13.863-4.616-6.684-3.803-18.266-8.878-18.266-11.89 0-18.405 9.64-18.405 21.528 0 11.89 6.515 21.528 18.405 21.528 30.766 38.358 31.962 19.355 40.175 20.114.333 14.005 3.55 60.632 3.55 77.037 0 17.926-24.652 34.304-13.794 46.888-8.355 6.267-13.784 16.22-13.784 27.467 0 18.973 15.38 44.092 34.355 44.092 14.543 0 26.945-18.786 31.96-31.548 6.068 15.833 21.37 36.832 39.34 36.832 23.287 0 42.163-28.614 42.163-51.9 0-14.365-7.2-27.036-18.17-34.648zM352.493 513.874c22.428 0 42.618-9.54 56.767-24.77 14.15 15.23 34.34 24.77 56.767 24.77 21.834 0 41.545-9.045 55.628-23.575 14.084 14.53 33.794 23.574 55.628 23.574 14.118 0 27.342-3.794 38.74-10.392 11.4 6.597 24.624 10.392 38.742 10.392 21.073 0 40.17-8.424 54.138-22.074 13.968 13.65 33.065 22.074 54.14 22.074 6.358 0 12.535-.772 18.448-2.218 36.952-44.024 60.964-106.198 67.263-163.03-123.163 27.884-252.55 42.766-386.024 42.766-120.933 0-238.51-12.218-351.144-35.25 7.06 50.714 28.255 107.47 60.114 147.885 9.773-5.47 18.257-12.97 24.833-21.968 14.094 19.28 36.87 31.815 62.582 31.815 17.535 0 33.704-5.83 46.688-15.652 12.987 9.82 29.155 15.65 46.69 15.65z"/><defs><path id="a" d="M434.732-30.855h90.88V447.19h-90.88z"/></defs><clipPath id="b"><use xlink:href="#a" overflow="visible"/></clipPath><path fill="#2580AA" d="M487.23 532.817C472.475 209.86 472.352 16.08 490.258 14.535c.202-.017.41.035.616.067-19.398 6.517-16.69 248.37 3.498 639.672" clip-path="url(#b)"/></g></svg>